%FSLAX44Y44*%
%OFA0.0000B0.0000*%
%SFA1B1*%
%MOMM*%
%ADD10C,0.0010X0.0000*%
%ADD11C,0.1524X0.0000*%
%ADD12C,0.1270X0.0000*%
%ADD13C,0.0000X0.0000*%
%ADD14C,0.2032X0.0000*%
%ADD15C,1.2630X1.0090X0.0000*%
%ADD16C,3.7192X3.4652X0.0000*%
%ADD17C,3.6176X3.5668X0.0000*%
%ADD18C,3.9370X3.6830X0.0000*%
%ADD19C,3.5254X3.4746X0.0000*%
%ADD20C,3.6270X3.3730X0.0000*%
%ADD21C,0.0508X0.0000*%
%ADD22C,0.4064X0.0000*%
%LNSILKSCREEN_TOP0*%
%LPD*%
G36*
X428880Y248035D2*
X444880Y248035D1*
X444880Y243035D1*
X428880Y243035D1*
X428880Y243035D1*
G37*
%LNSILKSCREEN_TOP1*%
%LPD*%
G36*
X533480Y424870D2*
X543480Y424870D1*
X543480Y422870D1*
X533480Y422870D1*
X533480Y422870D1*
G37*
%LNSILKSCREEN_TOP2*%
%LPD*%
G36*
X567770Y423600D2*
X577770Y423600D1*
X577770Y421600D1*
X567770Y421600D1*
X567770Y421600D1*
G37*
%LNSILKSCREEN_TOP3*%
%LPD*%
G36*
X603330Y423600D2*
X613330Y423600D1*
X613330Y421600D1*
X603330Y421600D1*
X603330Y421600D1*
G37*
%LNSILKSCREEN_TOP4*%
%LPD*%
G36*
X636350Y423600D2*
X646350Y423600D1*
X646350Y421600D1*
X636350Y421600D1*
X636350Y421600D1*
G37*
%LNSILKSCREEN_TOP5*%
%LPD*%
G36*
X400130Y154360D2*
X410130Y154360D1*
X410130Y152360D1*
X400130Y152360D1*
X400130Y152360D1*
G37*
%LNSILKSCREEN_TOP6*%
%LPD*%
G36*
X538480Y421370D2*
X540480Y418370D1*
X536480Y418370D1*
X536480Y418370D1*
G37*
%LNSILKSCREEN_TOP7*%
%LPD*%
G36*
X572770Y420100D2*
X574770Y417100D1*
X570770Y417100D1*
X570770Y417100D1*
G37*
%LNSILKSCREEN_TOP8*%
%LPD*%
G36*
X608330Y420100D2*
X610330Y417100D1*
X606330Y417100D1*
X606330Y417100D1*
G37*
%LNSILKSCREEN_TOP9*%
%LPD*%
G36*
X641350Y420100D2*
X643350Y417100D1*
X639350Y417100D1*
X639350Y417100D1*
G37*
%LNSILKSCREEN_TOP10*%
%LPD*%
G36*
X405130Y150860D2*
X407130Y147860D1*
X403130Y147860D1*
X403130Y147860D1*
G37*
%LNSILKSCREEN_TOP*%
%LPD*%
G54D10*
X645160Y533400D2*
X0Y533400D1*
X660400Y518160D2*
X645160Y533400D1*
X660400Y403860D2*
X660400Y518160D1*
X685800Y378460D2*
X660400Y403860D1*
X685800Y50800D2*
X685800Y378460D1*
X660400Y25400D2*
X685800Y50800D1*
X660400Y0D2*
X660400Y25400D1*
X0Y0D2*
X660400Y0D1*
X0Y533400D2*
X0Y0D1*
G54D11*
X123650Y108300D2*
X117650Y108300D1*
X123650Y120300D2*
X117650Y120300D1*
X306420Y144320D2*
X306420Y150320D1*
X318420Y144320D2*
X318420Y150320D1*
X359060Y150320D2*
X359060Y144320D1*
X347060Y150320D2*
X347060Y144320D1*
G75*
G01X498602Y113030D2*
G03X502412Y109220I3810J0D1*
G74*
G75*
G01X537718Y194310D2*
G03X533908Y198120I-3810J0D1*
G74*
G75*
G01X533908Y109220D2*
G03X537718Y113030I0J3810D1*
G74*
G75*
G01X502412Y198120D2*
G03X498602Y194310I0J-3810D1*
G74*
X502412Y109220D2*
X533908Y109220D1*
X533908Y198120D2*
X523240Y198120D1*
X523240Y198120D2*
X513080Y198120D1*
X513080Y198120D2*
X502412Y198120D1*
G75*
G01X513080Y198120D2*
G03X523240Y198120I5080J0D1*
G74*
X592630Y272700D2*
X598630Y272700D1*
X592630Y260700D2*
X598630Y260700D1*
X592630Y298100D2*
X598630Y298100D1*
X592630Y286100D2*
X598630Y286100D1*
X600758Y159670D2*
X606758Y159670D1*
X600758Y147670D2*
X606758Y147670D1*
X606758Y127350D2*
X600758Y127350D1*
X606758Y139350D2*
X600758Y139350D1*
X607012Y108300D2*
X601012Y108300D1*
X607012Y120300D2*
X601012Y120300D1*
X380650Y150320D2*
X380650Y144320D1*
X368650Y150320D2*
X368650Y144320D1*
X50450Y474170D2*
X50450Y468170D1*
X38450Y474170D2*
X38450Y468170D1*
X392684Y172656D2*
X392684Y126936D1*
X418084Y126936D2*
X418084Y172656D1*
X298100Y150320D2*
X298100Y144320D1*
X286100Y150320D2*
X286100Y144320D1*
X606504Y167990D2*
X600504Y167990D1*
X606504Y179990D2*
X600504Y179990D1*
X485490Y235760D2*
X485490Y241760D1*
X497490Y235760D2*
X497490Y241760D1*
X458820Y235760D2*
X458820Y241760D1*
X470820Y235760D2*
X470820Y241760D1*
X326740Y144320D2*
X326740Y150320D1*
X338740Y144320D2*
X338740Y150320D1*
X628904Y441896D2*
X628904Y396176D1*
X654304Y396176D2*
X654304Y441896D1*
X595884Y441896D2*
X595884Y396176D1*
X621284Y396176D2*
X621284Y441896D1*
X560324Y441896D2*
X560324Y396176D1*
X585724Y396176D2*
X585724Y441896D1*
X526034Y443166D2*
X526034Y397446D1*
X551434Y397446D2*
X551434Y443166D1*
X446690Y166830D2*
X446690Y160830D1*
X434690Y166830D2*
X434690Y160830D1*
X629110Y470250D2*
X623110Y470250D1*
X629110Y482250D2*
X623110Y482250D1*
X564340Y470250D2*
X558340Y470250D1*
X564340Y482250D2*
X558340Y482250D1*
X591360Y482250D2*
X597360Y482250D1*
X591360Y470250D2*
X597360Y470250D1*
G54D12*
X121130Y501350D2*
X121130Y527350D1*
X121130Y527350D2*
X54130Y527350D1*
X54130Y527350D2*
X54130Y501350D1*
X54130Y501350D2*
X121130Y501350D1*
X642620Y209550D2*
X642620Y217170D1*
X642620Y288290D2*
X642620Y295910D1*
X642620Y224790D2*
X642620Y232410D1*
X642620Y241300D2*
X642620Y248920D1*
X642620Y256540D2*
X642620Y264160D1*
X642620Y273050D2*
X642620Y280670D1*
X637540Y157480D2*
X637540Y149860D1*
X641350Y110490D2*
X641350Y118110D1*
X641350Y129540D2*
X641350Y137160D1*
X436880Y240585D2*
X440880Y234585D1*
X440880Y234585D2*
X432880Y234585D1*
X432880Y234585D2*
X436880Y240585D1*
X444880Y252210D2*
X444880Y225310D1*
X428880Y225310D2*
X428880Y252210D1*
X32050Y439900D2*
X6050Y439900D1*
X6050Y439900D2*
X6050Y372900D1*
X6050Y372900D2*
X32050Y372900D1*
X32050Y372900D2*
X32050Y439900D1*
X417830Y127000D2*
X414020Y127000D1*
X392430Y127000D2*
X396240Y127000D1*
X392430Y172720D2*
X396240Y172720D1*
X417830Y172720D2*
X414020Y172720D1*
X636270Y177800D2*
X636270Y170180D1*
X654050Y396240D2*
X650240Y396240D1*
X628650Y396240D2*
X632460Y396240D1*
X628650Y441960D2*
X632460Y441960D1*
X654050Y441960D2*
X650240Y441960D1*
X621030Y396240D2*
X617220Y396240D1*
X595630Y396240D2*
X599440Y396240D1*
X595630Y441960D2*
X599440Y441960D1*
X621030Y441960D2*
X617220Y441960D1*
X585470Y396240D2*
X581660Y396240D1*
X560070Y396240D2*
X563880Y396240D1*
X560070Y441960D2*
X563880Y441960D1*
X585470Y441960D2*
X581660Y441960D1*
X551180Y397510D2*
X547370Y397510D1*
X525780Y397510D2*
X529590Y397510D1*
X525780Y443230D2*
X529590Y443230D1*
X551180Y443230D2*
X547370Y443230D1*
G54D13*
X428880Y248035D2*
X444880Y248035D1*
X444880Y243035*
X428880Y243035*
X428880Y243035*
X400130Y154360D2*
X410130Y154360D1*
X410130Y152360*
X400130Y152360*
X400130Y152360*
X405130Y150860D2*
X407130Y147860D1*
X403130Y147860*
X403130Y147860*
X636350Y423600D2*
X646350Y423600D1*
X646350Y421600*
X636350Y421600*
X636350Y421600*
X641350Y420100D2*
X643350Y417100D1*
X639350Y417100*
X639350Y417100*
X603330Y423600D2*
X613330Y423600D1*
X613330Y421600*
X603330Y421600*
X603330Y421600*
X608330Y420100D2*
X610330Y417100D1*
X606330Y417100*
X606330Y417100*
X567770Y423600D2*
X577770Y423600D1*
X577770Y421600*
X567770Y421600*
X567770Y421600*
X572770Y420100D2*
X574770Y417100D1*
X570770Y417100*
X570770Y417100*
X533480Y424870D2*
X543480Y424870D1*
X543480Y422870*
X533480Y422870*
X533480Y422870*
X538480Y421370D2*
X540480Y418370D1*
X536480Y418370*
X536480Y418370*
G54D14*
X152400Y381000D2*
X152400Y363220D1*
G75*
G01X152400Y381000D2*
G03X152400Y406400I0J12700D1*
G74*
X457200Y363220D2*
X457200Y424180D1*
X152400Y424180D2*
X152400Y406400D1*
X152400Y424180D2*
X154940Y424180D1*
X152400Y363220D2*
X154940Y363220D1*
X457200Y363220D2*
X454660Y363220D1*
X457200Y424180D2*
X454660Y424180D1*
X224840Y214450D2*
X224840Y207350D1*
X262840Y214450D2*
X262840Y207350D1*
X167140Y206650D2*
X167140Y288650D1*
X167140Y206650D2*
X320540Y206650D1*
X320540Y206650D2*
X320540Y288650D1*
X320540Y288650D2*
X167140Y288650D1*
X175140Y214650D2*
X175140Y280650D1*
X175140Y280650D2*
X312540Y280650D1*
X312540Y280650D2*
X312540Y214650D1*
X312540Y214650D2*
X262840Y214650D1*
X224840Y214650D2*
X175140Y214650D1*
X167140Y288650D2*
X175140Y280650D1*
X167140Y206650D2*
X175140Y214650D1*
X320540Y288650D2*
X312540Y280650D1*
X312540Y214650D2*
X320540Y206650D1*
X370356Y215726D2*
X370356Y228854D1*
X370356Y228854D2*
X380444Y228854D1*
X401804Y228854D2*
X401804Y215726D1*
X391716Y228854D2*
X401804Y228854D1*
X389804Y215646D2*
X382216Y215646D1*
X176356Y57634D2*
X189484Y57634D1*
X189484Y57634D2*
X189484Y47546D1*
X189484Y26186D2*
X176356Y26186D1*
X189484Y36274D2*
X189484Y26186D1*
X176276Y38186D2*
X176276Y45774D1*
X176356Y103354D2*
X189484Y103354D1*
X189484Y103354D2*
X189484Y93266D1*
X189484Y71906D2*
X176356Y71906D1*
X189484Y81994D2*
X189484Y71906D1*
X176276Y83906D2*
X176276Y91494D1*
X81106Y99544D2*
X94234Y99544D1*
X94234Y99544D2*
X94234Y89456D1*
X94234Y68096D2*
X81106Y68096D1*
X94234Y78184D2*
X94234Y68096D1*
X81026Y80096D2*
X81026Y87684D1*
X52560Y287810D2*
X65560Y287810D1*
X65560Y287810D2*
X65560Y227810D1*
X65560Y227810D2*
X52560Y227810D1*
X18560Y227810D2*
X5560Y227810D1*
X5560Y227810D2*
X5560Y287810D1*
X5560Y287810D2*
X18560Y287810D1*
X129014Y288064D2*
X142014Y288064D1*
X142014Y288064D2*
X142014Y228064D1*
X142014Y228064D2*
X129014Y228064D1*
X95014Y228064D2*
X82014Y228064D1*
X82014Y228064D2*
X82014Y288064D1*
X82014Y288064D2*
X95014Y288064D1*
X176356Y149074D2*
X189484Y149074D1*
X189484Y149074D2*
X189484Y138986D1*
X189484Y117626D2*
X176356Y117626D1*
X189484Y127714D2*
X189484Y117626D1*
X176276Y129626D2*
X176276Y137214D1*
X81106Y185904D2*
X94234Y185904D1*
X94234Y185904D2*
X94234Y175816D1*
X94234Y154456D2*
X81106Y154456D1*
X94234Y164544D2*
X94234Y154456D1*
X81026Y166456D2*
X81026Y174044D1*
X81106Y143994D2*
X94234Y143994D1*
X94234Y143994D2*
X94234Y133906D1*
X94234Y112546D2*
X81106Y112546D1*
X94234Y122634D2*
X94234Y112546D1*
X81026Y124546D2*
X81026Y132134D1*
X152884Y172894D2*
X152884Y159766D1*
X152884Y159766D2*
X142796Y159766D1*
X121436Y159766D2*
X121436Y172894D1*
X131524Y159766D2*
X121436Y159766D1*
X133436Y172974D2*
X141024Y172974D1*
X405130Y152360D2*
X409130Y146360D1*
X409130Y146360D2*
X401130Y146360D1*
X401130Y146360D2*
X405130Y152360D1*
X641350Y421600D2*
X645350Y415600D1*
X645350Y415600D2*
X637350Y415600D1*
X637350Y415600D2*
X641350Y421600D1*
X608330Y421600D2*
X612330Y415600D1*
X612330Y415600D2*
X604330Y415600D1*
X604330Y415600D2*
X608330Y421600D1*
X572770Y421600D2*
X576770Y415600D1*
X576770Y415600D2*
X568770Y415600D1*
X568770Y415600D2*
X572770Y421600D1*
X538480Y422870D2*
X542480Y416870D1*
X542480Y416870D2*
X534480Y416870D1*
X534480Y416870D2*
X538480Y422870D1*
G54D15*
X404368Y104648D3*
X201422Y18288D3*
X65024Y164592D3*
G54D16*
X370840Y267970D3*
G54D17*
X370840Y90170D3*
G54D18*
X550672Y241046D3*
G54D19*
X370840Y267970D3*
G54D20*
X370840Y90170D3*
G54D21*
X502158Y198120D2*
X502158Y109220D1*
G54D22*
X194240Y227950D2*
X201240Y217250D1*
X201240Y217250D2*
X208240Y227950D1*
X208240Y227950D2*
X194240Y227950D1*
M02*
