%FSLAX44Y44*%
%OFA0.0000B0.0000*%
%SFA1B1*%
%MOMM*%
%ADD40C,0.0010X0.0000*%
%ADD43C,0.0000X0.0000*%
%ADD53C,1.7780X0.0000*%
%ADD54C,1.4986X0.0000*%
%ADD55C,1.9016X0.0000*%
%LNSOLDERMASK_BOTTOM380*%
%LPD*%
G36*
X524510Y511682D2*
X529718Y516890D1*
X537082Y516890D1*
X542290Y511682D1*
X542290Y504318D1*
X537082Y499110D1*
X529718Y499110D1*
X524510Y504318D1*
X524510Y511682D1*
G37*
%LNSOLDERMASK_BOTTOM381*%
%LPD*%
G36*
X499110Y29082D2*
X504318Y34290D1*
X511682Y34290D1*
X516890Y29082D1*
X516890Y21718D1*
X511682Y16510D1*
X504318Y16510D1*
X499110Y21718D1*
X499110Y29082D1*
G37*
%LNSOLDERMASK_BOTTOM382*%
%LPD*%
G36*
X549910Y511682D2*
X555118Y516890D1*
X562482Y516890D1*
X567690Y511682D1*
X567690Y504318D1*
X562482Y499110D1*
X555118Y499110D1*
X549910Y504318D1*
X549910Y511682D1*
G37*
%LNSOLDERMASK_BOTTOM383*%
%LPD*%
G36*
X575310Y511682D2*
X580518Y516890D1*
X587882Y516890D1*
X593090Y511682D1*
X593090Y504318D1*
X587882Y499110D1*
X580518Y499110D1*
X575310Y504318D1*
X575310Y511682D1*
G37*
%LNSOLDERMASK_BOTTOM384*%
%LPD*%
G36*
X600710Y511682D2*
X605918Y516890D1*
X613282Y516890D1*
X618490Y511682D1*
X618490Y504318D1*
X613282Y499110D1*
X605918Y499110D1*
X600710Y504318D1*
X600710Y511682D1*
G37*
%LNSOLDERMASK_BOTTOM385*%
%LPD*%
G36*
X626110Y511682D2*
X631318Y516890D1*
X638682Y516890D1*
X643890Y511682D1*
X643890Y504318D1*
X638682Y499110D1*
X631318Y499110D1*
X626110Y504318D1*
X626110Y511682D1*
G37*
%LNSOLDERMASK_BOTTOM386*%
%LPD*%
G36*
X499110Y511682D2*
X504318Y516890D1*
X511682Y516890D1*
X516890Y511682D1*
X516890Y504318D1*
X511682Y499110D1*
X504318Y499110D1*
X499110Y504318D1*
X499110Y511682D1*
G37*
%LNSOLDERMASK_BOTTOM387*%
%LPD*%
G36*
X473710Y511682D2*
X478918Y516890D1*
X486282Y516890D1*
X491490Y511682D1*
X491490Y504318D1*
X486282Y499110D1*
X478918Y499110D1*
X473710Y504318D1*
X473710Y511682D1*
G37*
%LNSOLDERMASK_BOTTOM388*%
%LPD*%
G36*
X448310Y511682D2*
X453518Y516890D1*
X460882Y516890D1*
X466090Y511682D1*
X466090Y504318D1*
X460882Y499110D1*
X453518Y499110D1*
X448310Y504318D1*
X448310Y511682D1*
G37*
%LNSOLDERMASK_BOTTOM389*%
%LPD*%
G36*
X407670Y511682D2*
X412878Y516890D1*
X420242Y516890D1*
X425450Y511682D1*
X425450Y504318D1*
X420242Y499110D1*
X412878Y499110D1*
X407670Y504318D1*
X407670Y511682D1*
G37*
%LNSOLDERMASK_BOTTOM390*%
%LPD*%
G36*
X382270Y511682D2*
X387478Y516890D1*
X394842Y516890D1*
X400050Y511682D1*
X400050Y504318D1*
X394842Y499110D1*
X387478Y499110D1*
X382270Y504318D1*
X382270Y511682D1*
G37*
%LNSOLDERMASK_BOTTOM391*%
%LPD*%
G36*
X356870Y511682D2*
X362078Y516890D1*
X369442Y516890D1*
X374650Y511682D1*
X374650Y504318D1*
X369442Y499110D1*
X362078Y499110D1*
X356870Y504318D1*
X356870Y511682D1*
G37*
%LNSOLDERMASK_BOTTOM392*%
%LPD*%
G36*
X331470Y511682D2*
X336678Y516890D1*
X344042Y516890D1*
X349250Y511682D1*
X349250Y504318D1*
X344042Y499110D1*
X336678Y499110D1*
X331470Y504318D1*
X331470Y511682D1*
G37*
%LNSOLDERMASK_BOTTOM393*%
%LPD*%
G36*
X306070Y511682D2*
X311278Y516890D1*
X318642Y516890D1*
X323850Y511682D1*
X323850Y504318D1*
X318642Y499110D1*
X311278Y499110D1*
X306070Y504318D1*
X306070Y511682D1*
G37*
%LNSOLDERMASK_BOTTOM394*%
%LPD*%
G36*
X280670Y511682D2*
X285878Y516890D1*
X293242Y516890D1*
X298450Y511682D1*
X298450Y504318D1*
X293242Y499110D1*
X285878Y499110D1*
X280670Y504318D1*
X280670Y511682D1*
G37*
%LNSOLDERMASK_BOTTOM395*%
%LPD*%
G36*
X255270Y511682D2*
X260478Y516890D1*
X267842Y516890D1*
X273050Y511682D1*
X273050Y504318D1*
X267842Y499110D1*
X260478Y499110D1*
X255270Y504318D1*
X255270Y511682D1*
G37*
%LNSOLDERMASK_BOTTOM396*%
%LPD*%
G36*
X229870Y511682D2*
X235078Y516890D1*
X242442Y516890D1*
X247650Y511682D1*
X247650Y504318D1*
X242442Y499110D1*
X235078Y499110D1*
X229870Y504318D1*
X229870Y511682D1*
G37*
%LNSOLDERMASK_BOTTOM397*%
%LPD*%
G36*
X524510Y29082D2*
X529718Y34290D1*
X537082Y34290D1*
X542290Y29082D1*
X542290Y21718D1*
X537082Y16510D1*
X529718Y16510D1*
X524510Y21718D1*
X524510Y29082D1*
G37*
%LNSOLDERMASK_BOTTOM398*%
%LPD*%
G36*
X549910Y29082D2*
X555118Y34290D1*
X562482Y34290D1*
X567690Y29082D1*
X567690Y21718D1*
X562482Y16510D1*
X555118Y16510D1*
X549910Y21718D1*
X549910Y29082D1*
G37*
%LNSOLDERMASK_BOTTOM399*%
%LPD*%
G36*
X575310Y29082D2*
X580518Y34290D1*
X587882Y34290D1*
X593090Y29082D1*
X593090Y21718D1*
X587882Y16510D1*
X580518Y16510D1*
X575310Y21718D1*
X575310Y29082D1*
G37*
%LNSOLDERMASK_BOTTOM400*%
%LPD*%
G36*
X600710Y29082D2*
X605918Y34290D1*
X613282Y34290D1*
X618490Y29082D1*
X618490Y21718D1*
X613282Y16510D1*
X605918Y16510D1*
X600710Y21718D1*
X600710Y29082D1*
G37*
%LNSOLDERMASK_BOTTOM401*%
%LPD*%
G36*
X626110Y29082D2*
X631318Y34290D1*
X638682Y34290D1*
X643890Y29082D1*
X643890Y21718D1*
X638682Y16510D1*
X631318Y16510D1*
X626110Y21718D1*
X626110Y29082D1*
G37*
%LNSOLDERMASK_BOTTOM402*%
%LPD*%
G36*
X448310Y29082D2*
X453518Y34290D1*
X460882Y34290D1*
X466090Y29082D1*
X466090Y21718D1*
X460882Y16510D1*
X453518Y16510D1*
X448310Y21718D1*
X448310Y29082D1*
G37*
%LNSOLDERMASK_BOTTOM403*%
%LPD*%
G36*
X422910Y29082D2*
X428118Y34290D1*
X435482Y34290D1*
X440690Y29082D1*
X440690Y21718D1*
X435482Y16510D1*
X428118Y16510D1*
X422910Y21718D1*
X422910Y29082D1*
G37*
%LNSOLDERMASK_BOTTOM404*%
%LPD*%
G36*
X397510Y29082D2*
X402718Y34290D1*
X410082Y34290D1*
X415290Y29082D1*
X415290Y21718D1*
X410082Y16510D1*
X402718Y16510D1*
X397510Y21718D1*
X397510Y29082D1*
G37*
%LNSOLDERMASK_BOTTOM405*%
%LPD*%
G36*
X372110Y29082D2*
X377318Y34290D1*
X384682Y34290D1*
X389890Y29082D1*
X389890Y21718D1*
X384682Y16510D1*
X377318Y16510D1*
X372110Y21718D1*
X372110Y29082D1*
G37*
%LNSOLDERMASK_BOTTOM406*%
%LPD*%
G36*
X346710Y29082D2*
X351918Y34290D1*
X359282Y34290D1*
X364490Y29082D1*
X364490Y21718D1*
X359282Y16510D1*
X351918Y16510D1*
X346710Y21718D1*
X346710Y29082D1*
G37*
%LNSOLDERMASK_BOTTOM407*%
%LPD*%
G36*
X321310Y29082D2*
X326518Y34290D1*
X333882Y34290D1*
X339090Y29082D1*
X339090Y21718D1*
X333882Y16510D1*
X326518Y16510D1*
X321310Y21718D1*
X321310Y29082D1*
G37*
%LNSOLDERMASK_BOTTOM408*%
%LPD*%
G36*
X204470Y511682D2*
X209678Y516890D1*
X217042Y516890D1*
X222250Y511682D1*
X222250Y504318D1*
X217042Y499110D1*
X209678Y499110D1*
X204470Y504318D1*
X204470Y511682D1*
G37*
%LNSOLDERMASK_BOTTOM409*%
%LPD*%
G36*
X179070Y511682D2*
X184278Y516890D1*
X191642Y516890D1*
X196850Y511682D1*
X196850Y504318D1*
X191642Y499110D1*
X184278Y499110D1*
X179070Y504318D1*
X179070Y511682D1*
G37*
%LNSOLDERMASK_BOTTOM410*%
%LPD*%
G36*
X295910Y29082D2*
X301118Y34290D1*
X308482Y34290D1*
X313690Y29082D1*
X313690Y21718D1*
X308482Y16510D1*
X301118Y16510D1*
X295910Y21718D1*
X295910Y29082D1*
G37*
%LNSOLDERMASK_BOTTOM411*%
%LPD*%
G36*
X270510Y29082D2*
X275718Y34290D1*
X283082Y34290D1*
X288290Y29082D1*
X288290Y21718D1*
X283082Y16510D1*
X275718Y16510D1*
X270510Y21718D1*
X270510Y29082D1*
G37*
%LNSOLDERMASK_BOTTOM412*%
%LPD*%
G36*
X210392Y238284D2*
X215106Y242998D1*
X221774Y242998D1*
X226488Y238284D1*
X226488Y231616D1*
X221774Y226902D1*
X215106Y226902D1*
X210392Y231616D1*
X210392Y238284D1*
G37*
%LNSOLDERMASK_BOTTOM413*%
%LPD*%
G36*
X210392Y263684D2*
X215106Y268398D1*
X221774Y268398D1*
X226488Y263684D1*
X226488Y257016D1*
X221774Y252302D1*
X215106Y252302D1*
X210392Y257016D1*
X210392Y263684D1*
G37*
%LNSOLDERMASK_BOTTOM414*%
%LPD*%
G36*
X235792Y238284D2*
X240506Y242998D1*
X247174Y242998D1*
X251888Y238284D1*
X251888Y231616D1*
X247174Y226902D1*
X240506Y226902D1*
X235792Y231616D1*
X235792Y238284D1*
G37*
%LNSOLDERMASK_BOTTOM415*%
%LPD*%
G36*
X235792Y263684D2*
X240506Y268398D1*
X247174Y268398D1*
X251888Y263684D1*
X251888Y257016D1*
X247174Y252302D1*
X240506Y252302D1*
X235792Y257016D1*
X235792Y263684D1*
G37*
%LNSOLDERMASK_BOTTOM416*%
%LPD*%
G36*
X261192Y238284D2*
X265906Y242998D1*
X272574Y242998D1*
X277288Y238284D1*
X277288Y231616D1*
X272574Y226902D1*
X265906Y226902D1*
X261192Y231616D1*
X261192Y238284D1*
G37*
%LNSOLDERMASK_BOTTOM417*%
%LPD*%
G36*
X261192Y263684D2*
X265906Y268398D1*
X272574Y268398D1*
X277288Y263684D1*
X277288Y257016D1*
X272574Y252302D1*
X265906Y252302D1*
X261192Y257016D1*
X261192Y263684D1*
G37*
%LNSOLDERMASK_BOTTOM*%
%LPD*%
G54D10*
G54D40*
X645160Y533400D2*
X0Y533400D1*
X660400Y518160D2*
X645160Y533400D1*
X660400Y403860D2*
X660400Y518160D1*
X685800Y378460D2*
X660400Y403860D1*
X685800Y50800D2*
X685800Y378460D1*
X660400Y25400D2*
X685800Y50800D1*
X660400Y0D2*
X660400Y25400D1*
X0Y0D2*
X660400Y0D1*
X0Y533400D2*
X0Y0D1*
G54D43*
X261192Y263684D2*
X265906Y268398D1*
X272574Y268398*
X277288Y263684*
X277288Y257016*
X272574Y252302*
X265906Y252302*
X261192Y257016*
X261192Y263684*
X261192Y238284D2*
X265906Y242998D1*
X272574Y242998*
X277288Y238284*
X277288Y231616*
X272574Y226902*
X265906Y226902*
X261192Y231616*
X261192Y238284*
X235792Y263684D2*
X240506Y268398D1*
X247174Y268398*
X251888Y263684*
X251888Y257016*
X247174Y252302*
X240506Y252302*
X235792Y257016*
X235792Y263684*
X235792Y238284D2*
X240506Y242998D1*
X247174Y242998*
X251888Y238284*
X251888Y231616*
X247174Y226902*
X240506Y226902*
X235792Y231616*
X235792Y238284*
X210392Y263684D2*
X215106Y268398D1*
X221774Y268398*
X226488Y263684*
X226488Y257016*
X221774Y252302*
X215106Y252302*
X210392Y257016*
X210392Y263684*
X210392Y238284D2*
X215106Y242998D1*
X221774Y242998*
X226488Y238284*
X226488Y231616*
X221774Y226902*
X215106Y226902*
X210392Y231616*
X210392Y238284*
X270510Y29082D2*
X275718Y34290D1*
X283082Y34290*
X288290Y29082*
X288290Y21718*
X283082Y16510*
X275718Y16510*
X270510Y21718*
X270510Y29082*
X295910Y29082D2*
X301118Y34290D1*
X308482Y34290*
X313690Y29082*
X313690Y21718*
X308482Y16510*
X301118Y16510*
X295910Y21718*
X295910Y29082*
X179070Y511682D2*
X184278Y516890D1*
X191642Y516890*
X196850Y511682*
X196850Y504318*
X191642Y499110*
X184278Y499110*
X179070Y504318*
X179070Y511682*
X204470Y511682D2*
X209678Y516890D1*
X217042Y516890*
X222250Y511682*
X222250Y504318*
X217042Y499110*
X209678Y499110*
X204470Y504318*
X204470Y511682*
X321310Y29082D2*
X326518Y34290D1*
X333882Y34290*
X339090Y29082*
X339090Y21718*
X333882Y16510*
X326518Y16510*
X321310Y21718*
X321310Y29082*
X346710Y29082D2*
X351918Y34290D1*
X359282Y34290*
X364490Y29082*
X364490Y21718*
X359282Y16510*
X351918Y16510*
X346710Y21718*
X346710Y29082*
X372110Y29082D2*
X377318Y34290D1*
X384682Y34290*
X389890Y29082*
X389890Y21718*
X384682Y16510*
X377318Y16510*
X372110Y21718*
X372110Y29082*
X397510Y29082D2*
X402718Y34290D1*
X410082Y34290*
X415290Y29082*
X415290Y21718*
X410082Y16510*
X402718Y16510*
X397510Y21718*
X397510Y29082*
X422910Y29082D2*
X428118Y34290D1*
X435482Y34290*
X440690Y29082*
X440690Y21718*
X435482Y16510*
X428118Y16510*
X422910Y21718*
X422910Y29082*
X448310Y29082D2*
X453518Y34290D1*
X460882Y34290*
X466090Y29082*
X466090Y21718*
X460882Y16510*
X453518Y16510*
X448310Y21718*
X448310Y29082*
X626110Y29082D2*
X631318Y34290D1*
X638682Y34290*
X643890Y29082*
X643890Y21718*
X638682Y16510*
X631318Y16510*
X626110Y21718*
X626110Y29082*
X600710Y29082D2*
X605918Y34290D1*
X613282Y34290*
X618490Y29082*
X618490Y21718*
X613282Y16510*
X605918Y16510*
X600710Y21718*
X600710Y29082*
X575310Y29082D2*
X580518Y34290D1*
X587882Y34290*
X593090Y29082*
X593090Y21718*
X587882Y16510*
X580518Y16510*
X575310Y21718*
X575310Y29082*
X549910Y29082D2*
X555118Y34290D1*
X562482Y34290*
X567690Y29082*
X567690Y21718*
X562482Y16510*
X555118Y16510*
X549910Y21718*
X549910Y29082*
X524510Y29082D2*
X529718Y34290D1*
X537082Y34290*
X542290Y29082*
X542290Y21718*
X537082Y16510*
X529718Y16510*
X524510Y21718*
X524510Y29082*
X229870Y511682D2*
X235078Y516890D1*
X242442Y516890*
X247650Y511682*
X247650Y504318*
X242442Y499110*
X235078Y499110*
X229870Y504318*
X229870Y511682*
X255270Y511682D2*
X260478Y516890D1*
X267842Y516890*
X273050Y511682*
X273050Y504318*
X267842Y499110*
X260478Y499110*
X255270Y504318*
X255270Y511682*
X280670Y511682D2*
X285878Y516890D1*
X293242Y516890*
X298450Y511682*
X298450Y504318*
X293242Y499110*
X285878Y499110*
X280670Y504318*
X280670Y511682*
X306070Y511682D2*
X311278Y516890D1*
X318642Y516890*
X323850Y511682*
X323850Y504318*
X318642Y499110*
X311278Y499110*
X306070Y504318*
X306070Y511682*
X331470Y511682D2*
X336678Y516890D1*
X344042Y516890*
X349250Y511682*
X349250Y504318*
X344042Y499110*
X336678Y499110*
X331470Y504318*
X331470Y511682*
X356870Y511682D2*
X362078Y516890D1*
X369442Y516890*
X374650Y511682*
X374650Y504318*
X369442Y499110*
X362078Y499110*
X356870Y504318*
X356870Y511682*
X382270Y511682D2*
X387478Y516890D1*
X394842Y516890*
X400050Y511682*
X400050Y504318*
X394842Y499110*
X387478Y499110*
X382270Y504318*
X382270Y511682*
X407670Y511682D2*
X412878Y516890D1*
X420242Y516890*
X425450Y511682*
X425450Y504318*
X420242Y499110*
X412878Y499110*
X407670Y504318*
X407670Y511682*
X448310Y511682D2*
X453518Y516890D1*
X460882Y516890*
X466090Y511682*
X466090Y504318*
X460882Y499110*
X453518Y499110*
X448310Y504318*
X448310Y511682*
X473710Y511682D2*
X478918Y516890D1*
X486282Y516890*
X491490Y511682*
X491490Y504318*
X486282Y499110*
X478918Y499110*
X473710Y504318*
X473710Y511682*
X499110Y511682D2*
X504318Y516890D1*
X511682Y516890*
X516890Y511682*
X516890Y504318*
X511682Y499110*
X504318Y499110*
X499110Y504318*
X499110Y511682*
X626110Y511682D2*
X631318Y516890D1*
X638682Y516890*
X643890Y511682*
X643890Y504318*
X638682Y499110*
X631318Y499110*
X626110Y504318*
X626110Y511682*
X600710Y511682D2*
X605918Y516890D1*
X613282Y516890*
X618490Y511682*
X618490Y504318*
X613282Y499110*
X605918Y499110*
X600710Y504318*
X600710Y511682*
X575310Y511682D2*
X580518Y516890D1*
X587882Y516890*
X593090Y511682*
X593090Y504318*
X587882Y499110*
X580518Y499110*
X575310Y504318*
X575310Y511682*
X549910Y511682D2*
X555118Y516890D1*
X562482Y516890*
X567690Y511682*
X567690Y504318*
X562482Y499110*
X555118Y499110*
X549910Y504318*
X549910Y511682*
X499110Y29082D2*
X504318Y34290D1*
X511682Y34290*
X516890Y29082*
X516890Y21718*
X511682Y16510*
X504318Y16510*
X499110Y21718*
X499110Y29082*
X524510Y511682D2*
X529718Y516890D1*
X537082Y516890*
X542290Y511682*
X542290Y504318*
X537082Y499110*
X529718Y499110*
X524510Y504318*
X524510Y511682*
G54D53*
X561340Y280670D3*
X535940Y280670D3*
X459740Y280670D3*
X434340Y280670D3*
X408940Y77470D3*
X434340Y77470D3*
X459740Y77470D3*
X485140Y77470D3*
X510540Y77470D3*
X535940Y77470D3*
X561340Y77470D3*
X254000Y175260D3*
X254000Y149860D3*
X254000Y73660D3*
X254000Y48260D3*
X50800Y22860D3*
X50800Y48260D3*
X50800Y73660D3*
X50800Y99060D3*
X50800Y124460D3*
X50800Y149860D3*
X50800Y175260D3*
X25400Y175260D3*
X25400Y149860D3*
X25400Y73660D3*
X25400Y48260D3*
X228600Y22860D3*
X228600Y48260D3*
X228600Y73660D3*
X228600Y99060D3*
X228600Y124460D3*
X228600Y149860D3*
X228600Y175260D3*
G54D54*
X25400Y127000D3*
X25400Y101600D3*
X254000Y127000D3*
X254000Y101600D3*
G54D55*
X165100Y431800D3*
X190500Y431800D3*
X215900Y431800D3*
X241300Y431800D3*
X266700Y431800D3*
X292100Y431800D3*
X317500Y431800D3*
X342900Y431800D3*
X368300Y431800D3*
X393700Y431800D3*
X419100Y431800D3*
X444500Y431800D3*
X444500Y355600D3*
X419100Y355600D3*
X393700Y355600D3*
X368300Y355600D3*
X342900Y355600D3*
X317500Y355600D3*
X292100Y355600D3*
X266700Y355600D3*
X241300Y355600D3*
X215900Y355600D3*
X190500Y355600D3*
X165100Y355600D3*
M02*
