%FSLAX44Y44*%
%OFA0.0000B0.0000*%
%SFA1B1*%
%MOMM*%
%ADD40C,0.0010X0.0000*%
%ADD41C,0.1524X0.0000*%
%ADD43C,0.0000X0.0000*%
%ADD56C,0.7000X0.0000*%
%ADD57C,0.9000X0.0000*%
%ADD58C,1.6764X0.0000*%
%ADD59C,3.2000X0.0000*%
%ADD60C,2.8000X0.0000*%
%ADD61C,1.3970X0.0000*%
%ADD62C,1.4732X0.0000*%
%ADD63C,1.8000X0.0000*%
%LNTOP-1418*%
%LPD*%
G36*
X525018Y511472D2*
X529928Y516382D1*
X536872Y516382D1*
X541782Y511472D1*
X541782Y504528D1*
X536872Y499618D1*
X529928Y499618D1*
X525018Y504528D1*
X525018Y511472D1*
G37*
%LNTOP-1419*%
%LPD*%
G36*
X499618Y28872D2*
X504528Y33782D1*
X511472Y33782D1*
X516382Y28872D1*
X516382Y21928D1*
X511472Y17018D1*
X504528Y17018D1*
X499618Y21928D1*
X499618Y28872D1*
G37*
%LNTOP-1420*%
%LPD*%
G36*
X550418Y511472D2*
X555328Y516382D1*
X562272Y516382D1*
X567182Y511472D1*
X567182Y504528D1*
X562272Y499618D1*
X555328Y499618D1*
X550418Y504528D1*
X550418Y511472D1*
G37*
%LNTOP-1421*%
%LPD*%
G36*
X575818Y511472D2*
X580728Y516382D1*
X587672Y516382D1*
X592582Y511472D1*
X592582Y504528D1*
X587672Y499618D1*
X580728Y499618D1*
X575818Y504528D1*
X575818Y511472D1*
G37*
%LNTOP-1422*%
%LPD*%
G36*
X601218Y511472D2*
X606128Y516382D1*
X613072Y516382D1*
X617982Y511472D1*
X617982Y504528D1*
X613072Y499618D1*
X606128Y499618D1*
X601218Y504528D1*
X601218Y511472D1*
G37*
%LNTOP-1423*%
%LPD*%
G36*
X626618Y511472D2*
X631528Y516382D1*
X638472Y516382D1*
X643382Y511472D1*
X643382Y504528D1*
X638472Y499618D1*
X631528Y499618D1*
X626618Y504528D1*
X626618Y511472D1*
G37*
%LNTOP-1424*%
%LPD*%
G36*
X499618Y511472D2*
X504528Y516382D1*
X511472Y516382D1*
X516382Y511472D1*
X516382Y504528D1*
X511472Y499618D1*
X504528Y499618D1*
X499618Y504528D1*
X499618Y511472D1*
G37*
%LNTOP-1425*%
%LPD*%
G36*
X474218Y511472D2*
X479128Y516382D1*
X486072Y516382D1*
X490982Y511472D1*
X490982Y504528D1*
X486072Y499618D1*
X479128Y499618D1*
X474218Y504528D1*
X474218Y511472D1*
G37*
%LNTOP-1426*%
%LPD*%
G36*
X448818Y511472D2*
X453728Y516382D1*
X460672Y516382D1*
X465582Y511472D1*
X465582Y504528D1*
X460672Y499618D1*
X453728Y499618D1*
X448818Y504528D1*
X448818Y511472D1*
G37*
%LNTOP-1427*%
%LPD*%
G36*
X408178Y511472D2*
X413088Y516382D1*
X420032Y516382D1*
X424942Y511472D1*
X424942Y504528D1*
X420032Y499618D1*
X413088Y499618D1*
X408178Y504528D1*
X408178Y511472D1*
G37*
%LNTOP-1428*%
%LPD*%
G36*
X382778Y511472D2*
X387688Y516382D1*
X394632Y516382D1*
X399542Y511472D1*
X399542Y504528D1*
X394632Y499618D1*
X387688Y499618D1*
X382778Y504528D1*
X382778Y511472D1*
G37*
%LNTOP-1429*%
%LPD*%
G36*
X357378Y511472D2*
X362288Y516382D1*
X369232Y516382D1*
X374142Y511472D1*
X374142Y504528D1*
X369232Y499618D1*
X362288Y499618D1*
X357378Y504528D1*
X357378Y511472D1*
G37*
%LNTOP-1430*%
%LPD*%
G36*
X331978Y511472D2*
X336888Y516382D1*
X343832Y516382D1*
X348742Y511472D1*
X348742Y504528D1*
X343832Y499618D1*
X336888Y499618D1*
X331978Y504528D1*
X331978Y511472D1*
G37*
%LNTOP-1431*%
%LPD*%
G36*
X306578Y511472D2*
X311488Y516382D1*
X318432Y516382D1*
X323342Y511472D1*
X323342Y504528D1*
X318432Y499618D1*
X311488Y499618D1*
X306578Y504528D1*
X306578Y511472D1*
G37*
%LNTOP-1432*%
%LPD*%
G36*
X281178Y511472D2*
X286088Y516382D1*
X293032Y516382D1*
X297942Y511472D1*
X297942Y504528D1*
X293032Y499618D1*
X286088Y499618D1*
X281178Y504528D1*
X281178Y511472D1*
G37*
%LNTOP-1433*%
%LPD*%
G36*
X255778Y511472D2*
X260688Y516382D1*
X267632Y516382D1*
X272542Y511472D1*
X272542Y504528D1*
X267632Y499618D1*
X260688Y499618D1*
X255778Y504528D1*
X255778Y511472D1*
G37*
%LNTOP-1434*%
%LPD*%
G36*
X230378Y511472D2*
X235288Y516382D1*
X242232Y516382D1*
X247142Y511472D1*
X247142Y504528D1*
X242232Y499618D1*
X235288Y499618D1*
X230378Y504528D1*
X230378Y511472D1*
G37*
%LNTOP-1435*%
%LPD*%
G36*
X525018Y28872D2*
X529928Y33782D1*
X536872Y33782D1*
X541782Y28872D1*
X541782Y21928D1*
X536872Y17018D1*
X529928Y17018D1*
X525018Y21928D1*
X525018Y28872D1*
G37*
%LNTOP-1436*%
%LPD*%
G36*
X550418Y28872D2*
X555328Y33782D1*
X562272Y33782D1*
X567182Y28872D1*
X567182Y21928D1*
X562272Y17018D1*
X555328Y17018D1*
X550418Y21928D1*
X550418Y28872D1*
G37*
%LNTOP-1437*%
%LPD*%
G36*
X575818Y28872D2*
X580728Y33782D1*
X587672Y33782D1*
X592582Y28872D1*
X592582Y21928D1*
X587672Y17018D1*
X580728Y17018D1*
X575818Y21928D1*
X575818Y28872D1*
G37*
%LNTOP-1438*%
%LPD*%
G36*
X601218Y28872D2*
X606128Y33782D1*
X613072Y33782D1*
X617982Y28872D1*
X617982Y21928D1*
X613072Y17018D1*
X606128Y17018D1*
X601218Y21928D1*
X601218Y28872D1*
G37*
%LNTOP-1439*%
%LPD*%
G36*
X626618Y28872D2*
X631528Y33782D1*
X638472Y33782D1*
X643382Y28872D1*
X643382Y21928D1*
X638472Y17018D1*
X631528Y17018D1*
X626618Y21928D1*
X626618Y28872D1*
G37*
%LNTOP-1440*%
%LPD*%
G36*
X448818Y28872D2*
X453728Y33782D1*
X460672Y33782D1*
X465582Y28872D1*
X465582Y21928D1*
X460672Y17018D1*
X453728Y17018D1*
X448818Y21928D1*
X448818Y28872D1*
G37*
%LNTOP-1441*%
%LPD*%
G36*
X423418Y28872D2*
X428328Y33782D1*
X435272Y33782D1*
X440182Y28872D1*
X440182Y21928D1*
X435272Y17018D1*
X428328Y17018D1*
X423418Y21928D1*
X423418Y28872D1*
G37*
%LNTOP-1442*%
%LPD*%
G36*
X398018Y28872D2*
X402928Y33782D1*
X409872Y33782D1*
X414782Y28872D1*
X414782Y21928D1*
X409872Y17018D1*
X402928Y17018D1*
X398018Y21928D1*
X398018Y28872D1*
G37*
%LNTOP-1443*%
%LPD*%
G36*
X372618Y28872D2*
X377528Y33782D1*
X384472Y33782D1*
X389382Y28872D1*
X389382Y21928D1*
X384472Y17018D1*
X377528Y17018D1*
X372618Y21928D1*
X372618Y28872D1*
G37*
%LNTOP-1444*%
%LPD*%
G36*
X347218Y28872D2*
X352128Y33782D1*
X359072Y33782D1*
X363982Y28872D1*
X363982Y21928D1*
X359072Y17018D1*
X352128Y17018D1*
X347218Y21928D1*
X347218Y28872D1*
G37*
%LNTOP-1445*%
%LPD*%
G36*
X321818Y28872D2*
X326728Y33782D1*
X333672Y33782D1*
X338582Y28872D1*
X338582Y21928D1*
X333672Y17018D1*
X326728Y17018D1*
X321818Y21928D1*
X321818Y28872D1*
G37*
%LNTOP-1446*%
%LPD*%
G36*
X204978Y511472D2*
X209888Y516382D1*
X216832Y516382D1*
X221742Y511472D1*
X221742Y504528D1*
X216832Y499618D1*
X209888Y499618D1*
X204978Y504528D1*
X204978Y511472D1*
G37*
%LNTOP-1447*%
%LPD*%
G36*
X179578Y511472D2*
X184488Y516382D1*
X191432Y516382D1*
X196342Y511472D1*
X196342Y504528D1*
X191432Y499618D1*
X184488Y499618D1*
X179578Y504528D1*
X179578Y511472D1*
G37*
%LNTOP-1448*%
%LPD*%
G36*
X296418Y28872D2*
X301328Y33782D1*
X308272Y33782D1*
X313182Y28872D1*
X313182Y21928D1*
X308272Y17018D1*
X301328Y17018D1*
X296418Y21928D1*
X296418Y28872D1*
G37*
%LNTOP-1449*%
%LPD*%
G36*
X271018Y28872D2*
X275928Y33782D1*
X282872Y33782D1*
X287782Y28872D1*
X287782Y21928D1*
X282872Y17018D1*
X275928Y17018D1*
X271018Y21928D1*
X271018Y28872D1*
G37*
%LNTOP-1450*%
%LPD*%
G36*
X210900Y238073D2*
X215317Y242490D1*
X221563Y242490D1*
X225980Y238073D1*
X225980Y231827D1*
X221563Y227410D1*
X215317Y227410D1*
X210900Y231827D1*
X210900Y238073D1*
G37*
%LNTOP-1451*%
%LPD*%
G36*
X210900Y263473D2*
X215317Y267890D1*
X221563Y267890D1*
X225980Y263473D1*
X225980Y257227D1*
X221563Y252810D1*
X215317Y252810D1*
X210900Y257227D1*
X210900Y263473D1*
G37*
%LNTOP-1452*%
%LPD*%
G36*
X236300Y238073D2*
X240717Y242490D1*
X246963Y242490D1*
X251380Y238073D1*
X251380Y231827D1*
X246963Y227410D1*
X240717Y227410D1*
X236300Y231827D1*
X236300Y238073D1*
G37*
%LNTOP-1453*%
%LPD*%
G36*
X236300Y263473D2*
X240717Y267890D1*
X246963Y267890D1*
X251380Y263473D1*
X251380Y257227D1*
X246963Y252810D1*
X240717Y252810D1*
X236300Y257227D1*
X236300Y263473D1*
G37*
%LNTOP-1454*%
%LPD*%
G36*
X261700Y238073D2*
X266117Y242490D1*
X272363Y242490D1*
X276780Y238073D1*
X276780Y231827D1*
X272363Y227410D1*
X266117Y227410D1*
X261700Y231827D1*
X261700Y238073D1*
G37*
%LNTOP-1455*%
%LPD*%
G36*
X261700Y263473D2*
X266117Y267890D1*
X272363Y267890D1*
X276780Y263473D1*
X276780Y257227D1*
X272363Y252810D1*
X266117Y252810D1*
X261700Y257227D1*
X261700Y263473D1*
G37*
%LNTOP-1*%
%LPD*%
G54D10*
G54D40*
X645160Y533400D2*
X0Y533400D1*
X660400Y518160D2*
X645160Y533400D1*
X660400Y403860D2*
X660400Y518160D1*
X685800Y378460D2*
X660400Y403860D1*
X685800Y50800D2*
X685800Y378460D1*
X660400Y25400D2*
X685800Y50800D1*
X660400Y0D2*
X660400Y25400D1*
X0Y0D2*
X660400Y0D1*
X0Y533400D2*
X0Y0D1*
G54D41*
X502149Y30325D2*
X508000Y25400D1*
X501610Y30864D2*
X502149Y30325D1*
X501592Y30882D2*
X501610Y30864D1*
G75*
G01X501592Y30882D2*
G03X501342Y31099I-1974J-2010D1*
G74*
X452884Y68615D2*
X501342Y31099D1*
G75*
G01X449865Y72189D2*
G03X452884Y68615I9875J5281D1*
G74*
X444215Y82751D2*
X449865Y72189D1*
G75*
G01X444215Y82751D2*
G03X442813Y84793I-9875J-5281D1*
G74*
X390825Y144938D2*
X442813Y84793D1*
G75*
G01X390825Y144938D2*
G03X390677Y145103I-4779J-4131D1*
G74*
X296762Y246338D2*
X390677Y145103D1*
X296733Y246370D2*
X296762Y246338D1*
X278832Y265403D2*
X296733Y246370D1*
X278772Y265465D2*
X278832Y265403D1*
X274355Y269882D2*
X278772Y265465D1*
G75*
G01X274355Y269882D2*
G03X274173Y270049I-1992J-1992D1*
G74*
X182909Y346544D2*
X274173Y270049D1*
G75*
G01X179505Y351271D2*
G03X182909Y346544I10995J4329D1*
G74*
X176095Y359929D2*
X179505Y351271D1*
G75*
G01X176095Y359929D2*
G03X173916Y363469I-10995J-4329D1*
G74*
X70729Y479076D2*
X173916Y363469D1*
X570567Y150288D2*
X563695Y121916D1*
G75*
G01X570567Y150288D2*
G03X570727Y151297I-6139J1487D1*
G74*
X571467Y161045D2*
X570727Y151297D1*
G75*
G01X571672Y162230D2*
G03X571467Y161045I6094J-1663D1*
G74*
X578329Y186631D2*
X571672Y162230D1*
G75*
G01X578329Y186631D2*
G03X578510Y189023I-6094J1663D1*
G74*
X576286Y208151D2*
X578510Y189023D1*
X310556Y114993D2*
X318198Y128664D1*
X527549Y20475D2*
X533400Y25400D1*
X527010Y19936D2*
X527549Y20475D1*
X526992Y19918D2*
X527010Y19936D1*
G75*
G01X525978Y19280D2*
G03X526992Y19918I-960J2648D1*
G74*
X512432Y14370D2*
X525978Y19280D1*
G75*
G01X511472Y14201D2*
G03X512432Y14370I0J2817D1*
G74*
X326728Y14201D2*
X511472Y14201D1*
X326670Y14202D2*
X326728Y14201D1*
X301281Y14727D2*
X326670Y14202D1*
G75*
G01X299708Y15398D2*
G03X301281Y14727I1620J1620D1*
G74*
X294798Y20308D2*
X299708Y15398D1*
G75*
G01X294373Y20896D2*
G03X294798Y20308I2045J1032D1*
G74*
X289827Y29904D2*
X294373Y20896D1*
G75*
G01X289827Y29904D2*
G03X289402Y30492I-2045J-1032D1*
G74*
X284492Y35402D2*
X289402Y30492D1*
G75*
G01X284492Y35402D2*
G03X284395Y35493I-1620J-1620D1*
G74*
X261096Y56232D2*
X284395Y35493D1*
G75*
G01X261096Y56232D2*
G03X259426Y57451I-7096J-7972D1*
G74*
X248306Y64017D2*
X259426Y57451D1*
G75*
G01X244282Y68094D2*
G03X248306Y64017I9718J5566D1*
G74*
X244283Y68094D2*
X244282Y68094D1*
X244240Y68166D2*
X244283Y68094D1*
X237790Y79088D2*
X244240Y68166D1*
G75*
G01X237790Y79088D2*
G03X234385Y82630I-9190J-5428D1*
G74*
X222815Y90090D2*
X234385Y82630D1*
G75*
G01X222258Y90475D2*
G03X222815Y90090I6342J8585D1*
G74*
X152982Y141652D2*
X222258Y90475D1*
G75*
G01X152279Y142255D2*
G03X152982Y141652I4456J4478D1*
G74*
X144325Y150171D2*
X152279Y142255D1*
G75*
G01X144325Y150171D2*
G03X143111Y151114I-4456J-4478D1*
G74*
X20005Y224742D2*
X143111Y151114D1*
X324349Y30325D2*
X330200Y25400D1*
X323810Y30864D2*
X324349Y30325D1*
X323792Y30882D2*
X323810Y30864D1*
G75*
G01X323792Y30882D2*
G03X323605Y31050I-1974J-2010D1*
G74*
X261102Y82319D2*
X323605Y31050D1*
G75*
G01X261102Y82319D2*
G03X259431Y83454I-7102J-8659D1*
G74*
X247581Y90024D2*
X259431Y83454D1*
G75*
G01X242126Y95753D2*
G03X247581Y90024I11874J5847D1*
G74*
X238175Y103775D2*
X242126Y95753D1*
G75*
G01X238175Y103775D2*
G03X230654Y109533I-9575J-4715D1*
G74*
X225857Y110475D2*
X230654Y109533D1*
G75*
G01X215233Y119517D2*
G03X225857Y110475I13367J4943D1*
G74*
X213080Y125339D2*
X215233Y119517D1*
G75*
G01X213080Y125339D2*
G03X212074Y127111I-5925J-2191D1*
G74*
X127569Y232014D2*
X212074Y127111D1*
X269577Y226996D2*
X280558Y153060D1*
G75*
G01X269546Y227410D2*
G03X269577Y226996I2817J0D1*
G74*
X269546Y228172D2*
X269546Y227410D1*
X269240Y234950D2*
X269546Y228172D1*
X348296Y28872D2*
X355600Y25400D1*
X347757Y29411D2*
X348296Y28872D1*
X262148Y85989D2*
X347757Y29411D1*
G75*
G01X262148Y85989D2*
G03X261166Y86584I-8148J-12329D1*
G74*
X249317Y93154D2*
X261166Y86584D1*
G75*
G01X245337Y97334D2*
G03X249317Y93154I8663J4266D1*
G74*
X241386Y105356D2*
X245337Y97334D1*
G75*
G01X241386Y105356D2*
G03X231343Y113045I-12786J-6296D1*
G74*
X226546Y113987D2*
X231343Y113045D1*
G75*
G01X218589Y120758D2*
G03X226546Y113987I10011J3702D1*
G74*
X216437Y126580D2*
X218589Y120758D1*
G75*
G01X216437Y126580D2*
G03X215369Y128667I-9282J-3432D1*
G74*
X50021Y374770D2*
X215369Y128667D1*
X483255Y500380D2*
X482600Y508000D1*
X483255Y499618D2*
X483255Y500380D1*
G75*
G01X483255Y499618D2*
G03X483377Y498799I2817J0D1*
G74*
X550624Y277415D2*
X483377Y498799D1*
G75*
G01X550624Y277415D2*
G03X551361Y275587I10716J3255D1*
G74*
X565188Y248440D2*
X551361Y275587D1*
G75*
G01X566899Y242485D2*
G03X565188Y248440I-16227J-1439D1*
G74*
X569994Y207593D2*
X566899Y242485D1*
G75*
G01X569994Y207593D2*
G03X570011Y207422I6292J558D1*
G74*
X572235Y188294D2*
X570011Y207422D1*
X217752Y178043D2*
X212176Y156305D1*
X217763Y178083D2*
X217752Y178043D1*
X233574Y238783D2*
X217763Y178083D1*
G75*
G01X233737Y239243D2*
G03X233574Y238783I2563J-1170D1*
G74*
X240177Y253349D2*
X233737Y239243D1*
X240716Y253888D2*
X240177Y253349D1*
X243840Y260350D2*
X240716Y253888D1*
X84327Y68852D2*
X50800Y124460D1*
G75*
G01X84894Y67635D2*
G03X84327Y68852I-5977J-2045D1*
G74*
X100926Y20771D2*
X84894Y67635D1*
X210881Y345486D2*
X190500Y355600D1*
G75*
G01X210881Y345486D2*
G03X215666Y344311I5019J10114D1*
G74*
X241055Y343786D2*
X215666Y344311D1*
G75*
G01X241055Y343786D2*
G03X241300Y343783I245J11814D1*
G74*
X292100Y343783D2*
X241300Y343783D1*
G75*
G01X292100Y343783D2*
G03X297598Y345140I0J11817D1*
G74*
X317500Y355600D2*
X297598Y345140D1*
X353771Y261398D2*
X317500Y355600D1*
G75*
G01X353771Y261398D2*
G03X363920Y251039I17069J6572D1*
G74*
X384311Y242704D2*
X363920Y251039D1*
X510540Y77470D2*
X502955Y142866D1*
X261244Y107986D2*
X272050Y95727D1*
G75*
G01X261244Y107986D2*
G03X260272Y108943I-7244J-6386D1*
G74*
X247728Y119657D2*
X260272Y108943D1*
G75*
G01X246928Y120424D2*
G03X247728Y119657I7072J6576D1*
G74*
X236416Y131728D2*
X246928Y120424D1*
G75*
G01X236416Y131728D2*
G03X234026Y133651I-7816J-7268D1*
G74*
X222906Y140217D2*
X234026Y133651D1*
G75*
G01X221784Y140974D2*
G03X222906Y140217I6816J8886D1*
G74*
X208331Y151293D2*
X221784Y140974D1*
G75*
G01X206693Y153168D2*
G03X208331Y151293I5483J3137D1*
G74*
X53089Y421593D2*
X206693Y153168D1*
X572064Y283896D2*
X542408Y382489D1*
G75*
G01X572295Y278344D2*
G03X572064Y283896I-10955J2326D1*
G74*
X571077Y272607D2*
X572295Y278344D1*
G75*
G01X571077Y272607D2*
G03X571268Y269282I6179J-1312D1*
G74*
X586729Y223288D2*
X571268Y269282D1*
G75*
G01X586988Y222212D2*
G03X586729Y223288I-6247J-937D1*
G74*
X592495Y185479D2*
X586988Y222212D1*
X507561Y169000D2*
X467229Y208945D1*
G75*
G01X508916Y167015D2*
G03X507561Y169000I-5800J-2503D1*
G74*
X545739Y81699D2*
X508916Y167015D1*
G75*
G01X546274Y80137D2*
G03X545739Y81699I-10334J-2667D1*
G74*
X558056Y34486D2*
X546274Y80137D1*
G75*
G01X558145Y33782D2*
G03X558056Y34486I-2817J0D1*
G74*
X558145Y33020D2*
X558145Y33782D1*
X558800Y25400D2*
X558145Y33020D1*
X210402Y442260D2*
X190500Y431800D1*
G75*
G01X215252Y443599D2*
G03X210402Y442260I648J-11799D1*
G74*
X326120Y449690D2*
X215252Y443599D1*
G75*
G01X327083Y449670D2*
G03X326120Y449690I-616J-6287D1*
G74*
X394801Y443037D2*
X327083Y449670D1*
G75*
G01X398719Y441914D2*
G03X394801Y443037I-5019J-10114D1*
G74*
X419100Y431800D2*
X398719Y441914D1*
X496927Y144754D2*
X503116Y164512D1*
G75*
G01X496927Y144754D2*
G03X496732Y143951I6028J-1888D1*
G74*
X485140Y77470D2*
X496732Y143951D1*
X424598Y421340D2*
X444500Y431800D1*
G75*
G01X419100Y419983D2*
G03X424598Y421340I0J11817D1*
G74*
X241300Y419983D2*
X419100Y419983D1*
G75*
G01X235802Y421340D2*
G03X241300Y419983I5498J10460D1*
G74*
X215900Y431800D2*
X235802Y421340D1*
X471892Y180967D2*
X459740Y77470D1*
X322349Y133426D2*
X327772Y128699D1*
G75*
G01X322349Y133426D2*
G03X320002Y134718I-4151J-4762D1*
G74*
X278754Y147006D2*
X320002Y134718D1*
G75*
G01X277022Y147825D2*
G03X278754Y147006I3536J5235D1*
G74*
X260268Y159141D2*
X277022Y147825D1*
G75*
G01X260268Y159141D2*
G03X259055Y159853I-6268J-9281D1*
G74*
X228600Y175260D2*
X259055Y159853D1*
X401120Y233471D2*
X401941Y199457D1*
G75*
G01X401120Y233471D2*
G03X400903Y234967I-6315J-152D1*
G74*
X368300Y355600D2*
X400903Y234967D1*
X634345Y33020D2*
X635000Y25400D1*
X634345Y33782D2*
X634345Y33020D1*
G75*
G01X634345Y33782D2*
G03X634098Y34935I-2817J0D1*
G74*
X577766Y160567D2*
X634098Y34935D1*
X469529Y214828D2*
X533365Y189874D1*
G75*
G01X469529Y214828D2*
G03X464921Y214825I-2300J-5883D1*
G74*
X443502Y206419D2*
X464921Y214825D1*
G75*
G01X443158Y206295D2*
G03X443502Y206419I-1964J6004D1*
G74*
X403905Y193453D2*
X443158Y206295D1*
G75*
G01X403486Y193332D2*
G03X403905Y193453I-1545J6125D1*
G74*
X392958Y190676D2*
X403486Y193332D1*
G75*
G01X386527Y192797D2*
G03X392958Y190676I4886J4004D1*
G74*
X379281Y201640D2*
X386527Y192797D1*
X148691Y130819D2*
X145265Y117543D1*
G75*
G01X148691Y130819D2*
G03X147466Y136394I-6117J1578D1*
G74*
X139869Y145693D2*
X147466Y136394D1*
X48505Y59221D2*
X78917Y65590D1*
G75*
G01X48505Y59221D2*
G03X39993Y51198I2295J-10961D1*
G74*
X37817Y43193D2*
X39993Y51198D1*
X165100Y431800D2*
X292100Y355600D1*
X342900Y431800D2*
X317500Y431800D1*
X368300Y431800D2*
X342900Y431800D1*
G54D43*
X261700Y263473D2*
X266117Y267890D1*
X272363Y267890*
X276780Y263473*
X276780Y257227*
X272363Y252810*
X266117Y252810*
X261700Y257227*
X261700Y263473*
X261700Y238073D2*
X266117Y242490D1*
X272363Y242490*
X276780Y238073*
X276780Y231827*
X272363Y227410*
X266117Y227410*
X261700Y231827*
X261700Y238073*
X236300Y263473D2*
X240717Y267890D1*
X246963Y267890*
X251380Y263473*
X251380Y257227*
X246963Y252810*
X240717Y252810*
X236300Y257227*
X236300Y263473*
X236300Y238073D2*
X240717Y242490D1*
X246963Y242490*
X251380Y238073*
X251380Y231827*
X246963Y227410*
X240717Y227410*
X236300Y231827*
X236300Y238073*
X210900Y263473D2*
X215317Y267890D1*
X221563Y267890*
X225980Y263473*
X225980Y257227*
X221563Y252810*
X215317Y252810*
X210900Y257227*
X210900Y263473*
X210900Y238073D2*
X215317Y242490D1*
X221563Y242490*
X225980Y238073*
X225980Y231827*
X221563Y227410*
X215317Y227410*
X210900Y231827*
X210900Y238073*
X271018Y28872D2*
X275928Y33782D1*
X282872Y33782*
X287782Y28872*
X287782Y21928*
X282872Y17018*
X275928Y17018*
X271018Y21928*
X271018Y28872*
X296418Y28872D2*
X301328Y33782D1*
X308272Y33782*
X313182Y28872*
X313182Y21928*
X308272Y17018*
X301328Y17018*
X296418Y21928*
X296418Y28872*
X179578Y511472D2*
X184488Y516382D1*
X191432Y516382*
X196342Y511472*
X196342Y504528*
X191432Y499618*
X184488Y499618*
X179578Y504528*
X179578Y511472*
X204978Y511472D2*
X209888Y516382D1*
X216832Y516382*
X221742Y511472*
X221742Y504528*
X216832Y499618*
X209888Y499618*
X204978Y504528*
X204978Y511472*
X321818Y28872D2*
X326728Y33782D1*
X333672Y33782*
X338582Y28872*
X338582Y21928*
X333672Y17018*
X326728Y17018*
X321818Y21928*
X321818Y28872*
X347218Y28872D2*
X352128Y33782D1*
X359072Y33782*
X363982Y28872*
X363982Y21928*
X359072Y17018*
X352128Y17018*
X347218Y21928*
X347218Y28872*
X372618Y28872D2*
X377528Y33782D1*
X384472Y33782*
X389382Y28872*
X389382Y21928*
X384472Y17018*
X377528Y17018*
X372618Y21928*
X372618Y28872*
X398018Y28872D2*
X402928Y33782D1*
X409872Y33782*
X414782Y28872*
X414782Y21928*
X409872Y17018*
X402928Y17018*
X398018Y21928*
X398018Y28872*
X423418Y28872D2*
X428328Y33782D1*
X435272Y33782*
X440182Y28872*
X440182Y21928*
X435272Y17018*
X428328Y17018*
X423418Y21928*
X423418Y28872*
X448818Y28872D2*
X453728Y33782D1*
X460672Y33782*
X465582Y28872*
X465582Y21928*
X460672Y17018*
X453728Y17018*
X448818Y21928*
X448818Y28872*
X626618Y28872D2*
X631528Y33782D1*
X638472Y33782*
X643382Y28872*
X643382Y21928*
X638472Y17018*
X631528Y17018*
X626618Y21928*
X626618Y28872*
X601218Y28872D2*
X606128Y33782D1*
X613072Y33782*
X617982Y28872*
X617982Y21928*
X613072Y17018*
X606128Y17018*
X601218Y21928*
X601218Y28872*
X575818Y28872D2*
X580728Y33782D1*
X587672Y33782*
X592582Y28872*
X592582Y21928*
X587672Y17018*
X580728Y17018*
X575818Y21928*
X575818Y28872*
X550418Y28872D2*
X555328Y33782D1*
X562272Y33782*
X567182Y28872*
X567182Y21928*
X562272Y17018*
X555328Y17018*
X550418Y21928*
X550418Y28872*
X525018Y28872D2*
X529928Y33782D1*
X536872Y33782*
X541782Y28872*
X541782Y21928*
X536872Y17018*
X529928Y17018*
X525018Y21928*
X525018Y28872*
X230378Y511472D2*
X235288Y516382D1*
X242232Y516382*
X247142Y511472*
X247142Y504528*
X242232Y499618*
X235288Y499618*
X230378Y504528*
X230378Y511472*
X255778Y511472D2*
X260688Y516382D1*
X267632Y516382*
X272542Y511472*
X272542Y504528*
X267632Y499618*
X260688Y499618*
X255778Y504528*
X255778Y511472*
X281178Y511472D2*
X286088Y516382D1*
X293032Y516382*
X297942Y511472*
X297942Y504528*
X293032Y499618*
X286088Y499618*
X281178Y504528*
X281178Y511472*
X306578Y511472D2*
X311488Y516382D1*
X318432Y516382*
X323342Y511472*
X323342Y504528*
X318432Y499618*
X311488Y499618*
X306578Y504528*
X306578Y511472*
X331978Y511472D2*
X336888Y516382D1*
X343832Y516382*
X348742Y511472*
X348742Y504528*
X343832Y499618*
X336888Y499618*
X331978Y504528*
X331978Y511472*
X357378Y511472D2*
X362288Y516382D1*
X369232Y516382*
X374142Y511472*
X374142Y504528*
X369232Y499618*
X362288Y499618*
X357378Y504528*
X357378Y511472*
X382778Y511472D2*
X387688Y516382D1*
X394632Y516382*
X399542Y511472*
X399542Y504528*
X394632Y499618*
X387688Y499618*
X382778Y504528*
X382778Y511472*
X408178Y511472D2*
X413088Y516382D1*
X420032Y516382*
X424942Y511472*
X424942Y504528*
X420032Y499618*
X413088Y499618*
X408178Y504528*
X408178Y511472*
X448818Y511472D2*
X453728Y516382D1*
X460672Y516382*
X465582Y511472*
X465582Y504528*
X460672Y499618*
X453728Y499618*
X448818Y504528*
X448818Y511472*
X474218Y511472D2*
X479128Y516382D1*
X486072Y516382*
X490982Y511472*
X490982Y504528*
X486072Y499618*
X479128Y499618*
X474218Y504528*
X474218Y511472*
X499618Y511472D2*
X504528Y516382D1*
X511472Y516382*
X516382Y511472*
X516382Y504528*
X511472Y499618*
X504528Y499618*
X499618Y504528*
X499618Y511472*
X626618Y511472D2*
X631528Y516382D1*
X638472Y516382*
X643382Y511472*
X643382Y504528*
X638472Y499618*
X631528Y499618*
X626618Y504528*
X626618Y511472*
X601218Y511472D2*
X606128Y516382D1*
X613072Y516382*
X617982Y511472*
X617982Y504528*
X613072Y499618*
X606128Y499618*
X601218Y504528*
X601218Y511472*
X575818Y511472D2*
X580728Y516382D1*
X587672Y516382*
X592582Y511472*
X592582Y504528*
X587672Y499618*
X580728Y499618*
X575818Y504528*
X575818Y511472*
X550418Y511472D2*
X555328Y516382D1*
X562272Y516382*
X567182Y511472*
X567182Y504528*
X562272Y499618*
X555328Y499618*
X550418Y504528*
X550418Y511472*
X499618Y28872D2*
X504528Y33782D1*
X511472Y33782*
X516382Y28872*
X516382Y21928*
X511472Y17018*
X504528Y17018*
X499618Y21928*
X499618Y28872*
X525018Y511472D2*
X529928Y516382D1*
X536872Y516382*
X541782Y511472*
X541782Y504528*
X536872Y499618*
X529928Y499618*
X525018Y504528*
X525018Y511472*
G54D56*
X70729Y479076D3*
X142574Y132397D3*
X391413Y196801D3*
X580741Y221275D3*
X533186Y128900D3*
X563695Y121916D3*
X576286Y208151D3*
X326467Y443383D3*
X286939Y128736D3*
X318198Y128664D3*
X310556Y114993D3*
X394805Y233319D3*
X293348Y116644D3*
X238801Y64954D3*
X296396Y165932D3*
X275568Y141442D3*
X20005Y224742D3*
X127569Y232014D3*
X280558Y153060D3*
X156735Y146733D3*
X88253Y163485D3*
X302934Y178170D3*
X577256Y271295D3*
X564428Y151775D3*
X50021Y374770D3*
X292131Y242042D3*
X572235Y188294D3*
X534273Y160274D3*
X183334Y49640D3*
X212176Y156305D3*
X502955Y142866D3*
X384311Y242704D3*
X100926Y20771D3*
X342897Y163998D3*
X437048Y182421D3*
X456321Y238803D3*
X272050Y95727D3*
X53089Y421593D3*
X542408Y382489D3*
X592495Y185479D3*
X467229Y208945D3*
X503116Y164512D3*
X89851Y71919D3*
X471892Y180967D3*
X181088Y70370D3*
X401941Y199457D3*
X448854Y137330D3*
X327772Y128699D3*
X78917Y65590D3*
X37817Y43193D3*
X183344Y98841D3*
X164219Y85552D3*
X145265Y117543D3*
X139869Y145693D3*
X207155Y123148D3*
X533365Y189874D3*
X379281Y201640D3*
X544800Y200622D3*
X577766Y160567D3*
X89180Y494745D3*
X20010Y233797D3*
X103420Y212695D3*
X66917Y161544D3*
X74769Y110177D3*
X76017Y151939D3*
X176052Y115141D3*
X478665Y106794D3*
X502859Y232354D3*
X425230Y223658D3*
X489797Y221913D3*
X449926Y146321D3*
X441194Y212299D3*
X449226Y163767D3*
X386046Y140807D3*
G54D57*
X72630Y514350D3*
X102630Y514350D3*
X19050Y391400D3*
X19050Y421400D3*
G54D58*
X561340Y280670D3*
X535940Y280670D3*
X459740Y280670D3*
X434340Y280670D3*
X408940Y77470D3*
X434340Y77470D3*
X459740Y77470D3*
X485140Y77470D3*
X510540Y77470D3*
X535940Y77470D3*
X561340Y77470D3*
X254000Y175260D3*
X254000Y149860D3*
X254000Y73660D3*
X254000Y48260D3*
X50800Y22860D3*
X50800Y48260D3*
X50800Y73660D3*
X50800Y99060D3*
X50800Y124460D3*
X50800Y149860D3*
X50800Y175260D3*
X25400Y175260D3*
X25400Y149860D3*
X25400Y73660D3*
X25400Y48260D3*
X228600Y22860D3*
X228600Y48260D3*
X228600Y73660D3*
X228600Y99060D3*
X228600Y124460D3*
X228600Y149860D3*
X228600Y175260D3*
G54D59*
X370840Y267970D3*
X370840Y90170D3*
G54D60*
X550672Y241046D3*
G54D61*
X25400Y127000D3*
X25400Y101600D3*
X254000Y127000D3*
X254000Y101600D3*
G54D62*
X25400Y127000D3*
X25400Y101600D3*
X254000Y127000D3*
X254000Y101600D3*
G54D63*
X165100Y431800D3*
X190500Y431800D3*
X215900Y431800D3*
X241300Y431800D3*
X266700Y431800D3*
X292100Y431800D3*
X317500Y431800D3*
X342900Y431800D3*
X368300Y431800D3*
X393700Y431800D3*
X419100Y431800D3*
X444500Y431800D3*
X444500Y355600D3*
X419100Y355600D3*
X393700Y355600D3*
X368300Y355600D3*
X342900Y355600D3*
X317500Y355600D3*
X292100Y355600D3*
X266700Y355600D3*
X241300Y355600D3*
X215900Y355600D3*
X190500Y355600D3*
X165100Y355600D3*
M02*
