%
M48
M72
T01C0.01575
T02C0.03500
T03C0.03543
T04C0.03937
T05C0.04724
T06C0.05800
T07C0.11024
T08C0.12598
%
T01
X56175Y39406
X125538Y77213
X127133Y88224
X136864Y77225
X139496Y74821
X179588Y104700
X202218Y90650
X214585Y85876
X226415Y80956
X213361Y125325
X165194Y125573
X51610Y226517
X37262Y179424
X31743Y134598
T02
X26500Y81300
X26500Y71300
X116500Y71300
X116500Y81300
T03
X24000Y185394
X24000Y197206
X45094Y233800
X56906Y233800
T04
X36500Y40300
X36500Y50300
X26500Y50300
X26500Y60300
X36500Y60300
X36500Y70300
X36500Y80300
X36500Y90300
X26500Y90300
X26500Y100300
X36500Y100300
X102500Y123800
X112500Y123800
X122500Y123800
X122500Y133800
X112500Y133800
X102500Y133800
X106500Y100300
X106500Y90300
X106500Y80300
X106500Y70300
X106500Y60300
X106500Y50300
X106500Y40300
X116500Y50300
X126500Y41300
X136500Y41300
X146500Y41300
X156500Y41300
X166500Y41300
X176500Y41300
X186500Y41300
X196500Y41300
X216500Y41300
X226500Y41300
X236500Y41300
X246500Y41300
X256500Y41300
X266500Y41300
X237500Y61800
X227500Y61800
X217500Y61800
X207500Y61800
X197500Y61800
X187500Y61800
X177500Y61800
X116500Y60300
X116500Y90300
X116500Y100300
X187500Y141800
X197500Y141800
X227500Y141800
X237500Y141800
X236500Y231300
X246500Y231300
X256500Y231300
X266500Y231300
X226500Y231300
X216500Y231300
X206500Y231300
X196500Y231300
X180500Y231300
X170500Y231300
X160500Y231300
X150500Y231300
X140500Y231300
X130500Y231300
X120500Y231300
X110500Y231300
X100500Y231300
X90500Y231300
T05
X91500Y201300
X101500Y201300
X111500Y201300
X121500Y201300
X131500Y201300
X141500Y201300
X151500Y201300
X161500Y201300
X171500Y201300
X181500Y201300
X191500Y201300
X191500Y171300
X181500Y171300
X171500Y171300
X161500Y171300
X151500Y171300
X141500Y171300
X131500Y171300
X121500Y171300
X111500Y171300
X101500Y171300
X91500Y171300
X81500Y171300
X81500Y201300
T06
X116500Y81300
X116500Y71300
X26500Y71300
X26500Y81300
T07
X233300Y126200
T08
X162500Y136800
X162500Y66800
M30
