%
M48
M72
T01C0.01575
T02C0.03500
T03C0.03543
T04C0.03937
T05C0.04724
T06C0.05800
T07C0.11024
T08C0.12598
%
T01
X49474Y30822
X54502Y28548
X60466Y24854
X59122Y36733
X42876Y40500
X61393Y56736
X71293Y52075
X72011Y62394
X88719Y52154
X91732Y47961
X86411Y32330
X96454Y23734
X88758Y18829
X123606Y47930
X129356Y52715
X135500Y56435
X138960Y52328
X142329Y51148
X145916Y50741
X143519Y56414
X159338Y70165
X166149Y73602
X180196Y67583
X186680Y76591
X190239Y76811
X202213Y74874
X206732Y83985
X204033Y94132
X228850Y83971
X232413Y83985
X242430Y86969
X245880Y91088
X248310Y78385
X251857Y78035
X247585Y69455
X226415Y65840
X226385Y57197
X214571Y59451
X214227Y68002
X202384Y62643
X175003Y84986
X166447Y83002
X134731Y89983
X131961Y92227
X90966Y70537
X64919Y124500
X36823Y150770
X37984Y174987
X230681Y155517
X238427Y52998
T02
X116500Y55000
X116500Y45000
X26500Y45000
X26500Y55000
T03
X24000Y159094
X24000Y170906
X41290Y207500
X53101Y207500
T04
X26500Y24000
X36500Y24000
X36500Y14000
X36500Y34000
X26500Y34000
X36500Y44000
X36500Y54000
X36500Y64000
X26500Y64000
X26500Y74000
X36500Y74000
X102500Y97500
X112500Y97500
X122500Y97500
X122500Y107500
X112500Y107500
X102500Y107500
X106500Y74000
X116500Y74000
X116500Y64000
X106500Y64000
X106500Y54000
X106500Y44000
X106500Y34000
X116500Y34000
X116500Y24000
X106500Y24000
X106500Y14000
X126500Y15000
X136500Y15000
X146500Y15000
X156500Y15000
X166500Y15000
X176500Y15000
X186500Y15000
X196500Y15000
X216500Y15000
X226500Y15000
X236500Y15000
X246500Y15000
X256500Y15000
X266500Y15000
X237500Y35500
X227500Y35500
X217500Y35500
X207500Y35500
X197500Y35500
X187500Y35500
X177500Y35500
X187500Y115500
X197500Y115500
X227500Y115500
X237500Y115500
X236500Y205000
X226500Y205000
X216500Y205000
X206500Y205000
X196500Y205000
X180500Y205000
X170500Y205000
X160500Y205000
X150500Y205000
X140500Y205000
X130500Y205000
X120500Y205000
X110500Y205000
X100500Y205000
X90500Y205000
X246500Y205000
X256500Y205000
X266500Y205000
T05
X191500Y175000
X181500Y175000
X171500Y175000
X161500Y175000
X151500Y175000
X141500Y175000
X131500Y175000
X121500Y175000
X111500Y175000
X101500Y175000
X91500Y175000
X81500Y175000
X81500Y145000
X91500Y145000
X101500Y145000
X111500Y145000
X121500Y145000
X131500Y145000
X141500Y145000
X151500Y145000
X161500Y145000
X171500Y145000
X181500Y145000
X191500Y145000
T06
X116500Y55000
X116500Y45000
X26500Y45000
X26500Y55000
T07
X233300Y99900
T08
X162500Y110500
X162500Y40500
M30
