G75*
%MOIN*%
%OFA0B0*%
%FSLAX25Y25*%
%IPPOS*%
%LPD*%
%AMOC8*
5,1,8,0,0,1.08239X$1,22.5*
%
%ADD10C,0.04724*%
%ADD11C,0.04287*%
%ADD12C,0.05512*%
%ADD13C,0.01000*%
%ADD14C,0.02362*%
D10*
X0026500Y0024000D03*
X0036500Y0024000D03*
X0036500Y0014000D03*
X0036500Y0034000D03*
X0026500Y0034000D03*
X0036500Y0044000D03*
X0036500Y0054000D03*
X0036500Y0064000D03*
X0026500Y0064000D03*
X0026500Y0074000D03*
X0036500Y0074000D03*
X0102500Y0097500D03*
X0112500Y0097500D03*
X0122500Y0097500D03*
X0122500Y0107500D03*
X0112500Y0107500D03*
X0102500Y0107500D03*
X0106500Y0074000D03*
X0116500Y0074000D03*
X0116500Y0064000D03*
X0106500Y0064000D03*
X0106500Y0054000D03*
X0106500Y0044000D03*
X0106500Y0034000D03*
X0116500Y0034000D03*
X0116500Y0024000D03*
X0106500Y0024000D03*
X0106500Y0014000D03*
X0126500Y0015000D03*
X0136500Y0015000D03*
X0146500Y0015000D03*
X0156500Y0015000D03*
X0166500Y0015000D03*
X0176500Y0015000D03*
X0186500Y0015000D03*
X0196500Y0015000D03*
X0216500Y0015000D03*
X0226500Y0015000D03*
X0236500Y0015000D03*
X0246500Y0015000D03*
X0256500Y0015000D03*
X0266500Y0015000D03*
X0237500Y0035500D03*
X0227500Y0035500D03*
X0217500Y0035500D03*
X0207500Y0035500D03*
X0197500Y0035500D03*
X0187500Y0035500D03*
X0177500Y0035500D03*
X0187500Y0115500D03*
X0197500Y0115500D03*
X0227500Y0115500D03*
X0237500Y0115500D03*
X0236500Y0205000D03*
X0226500Y0205000D03*
X0216500Y0205000D03*
X0206500Y0205000D03*
X0196500Y0205000D03*
X0180500Y0205000D03*
X0170500Y0205000D03*
X0160500Y0205000D03*
X0150500Y0205000D03*
X0140500Y0205000D03*
X0130500Y0205000D03*
X0120500Y0205000D03*
X0110500Y0205000D03*
X0100500Y0205000D03*
X0090500Y0205000D03*
X0246500Y0205000D03*
X0256500Y0205000D03*
X0266500Y0205000D03*
D11*
X0116500Y0055000D03*
X0116500Y0045000D03*
X0026500Y0045000D03*
X0026500Y0055000D03*
D12*
X0081500Y0145000D03*
X0091500Y0145000D03*
X0101500Y0145000D03*
X0111500Y0145000D03*
X0121500Y0145000D03*
X0131500Y0145000D03*
X0141500Y0145000D03*
X0151500Y0145000D03*
X0161500Y0145000D03*
X0171500Y0145000D03*
X0181500Y0145000D03*
X0191500Y0145000D03*
X0191500Y0175000D03*
X0181500Y0175000D03*
X0171500Y0175000D03*
X0161500Y0175000D03*
X0151500Y0175000D03*
X0141500Y0175000D03*
X0131500Y0175000D03*
X0121500Y0175000D03*
X0111500Y0175000D03*
X0101500Y0175000D03*
X0091500Y0175000D03*
X0081500Y0175000D03*
D13*
X0085952Y0173072D02*
X0086004Y0173195D01*
X0086052Y0173320D01*
X0086096Y0173446D01*
X0086137Y0173573D01*
X0086175Y0173701D01*
X0086209Y0173830D01*
X0086791Y0176170D01*
X0085953Y0173072D02*
X0064919Y0124500D01*
X0091500Y0145000D02*
X0036500Y0054000D01*
X0042876Y0040500D02*
X0059411Y0058551D01*
X0059796Y0058897D02*
X0109829Y0095868D01*
X0114643Y0093594D02*
X0116394Y0095345D01*
X0116652Y0095710D02*
X0118348Y0099290D01*
X0118606Y0099655D02*
X0120345Y0101394D01*
X0120710Y0101652D02*
X0124290Y0103348D01*
X0124628Y0103579D02*
X0164828Y0141469D01*
X0166206Y0143816D02*
X0166801Y0146182D01*
X0168340Y0148673D02*
X0194665Y0171322D01*
X0195499Y0172252D02*
X0215545Y0201417D01*
X0215631Y0201551D01*
X0215714Y0201688D01*
X0215793Y0201827D01*
X0215869Y0201967D01*
X0215942Y0202110D01*
X0216011Y0202254D01*
X0216077Y0202399D01*
X0216140Y0202547D01*
X0216198Y0202695D01*
X0216253Y0202845D01*
X0216305Y0202997D01*
X0216353Y0203149D01*
X0216397Y0203303D01*
X0216437Y0203457D01*
X0216474Y0203613D01*
X0216507Y0203769D01*
X0216536Y0203926D01*
X0216562Y0204084D01*
X0216583Y0204243D01*
X0216601Y0204402D01*
X0216615Y0204561D01*
X0216625Y0204720D01*
X0216632Y0204880D01*
X0216634Y0205040D01*
X0216633Y0205200D01*
X0196554Y0204780D02*
X0182185Y0200430D01*
X0182155Y0200423D01*
X0090432Y0179733D01*
X0091500Y0175000D02*
X0099145Y0179243D01*
X0100622Y0179772D02*
X0110295Y0181552D01*
X0111500Y0181661D02*
X0161500Y0181661D01*
X0162710Y0181551D02*
X0172380Y0179765D01*
X0173848Y0179239D02*
X0181500Y0175000D01*
X0181496Y0170148D02*
X0181633Y0170150D01*
X0181770Y0170155D01*
X0181906Y0170165D01*
X0182042Y0170178D01*
X0182178Y0170196D01*
X0182313Y0170217D01*
X0182447Y0170241D01*
X0182581Y0170270D01*
X0182714Y0170302D01*
X0182846Y0170338D01*
X0182977Y0170378D01*
X0183106Y0170422D01*
X0183235Y0170469D01*
X0183362Y0170519D01*
X0183487Y0170574D01*
X0183611Y0170631D01*
X0183734Y0170693D01*
X0183854Y0170757D01*
X0183855Y0170757D02*
X0191500Y0175000D01*
X0194664Y0171322D02*
X0194769Y0171414D01*
X0194870Y0171509D01*
X0194969Y0171608D01*
X0195065Y0171708D01*
X0195158Y0171812D01*
X0195248Y0171918D01*
X0195335Y0172027D01*
X0195418Y0172138D01*
X0195499Y0172252D01*
X0181496Y0170148D02*
X0171496Y0170155D01*
X0173847Y0179239D02*
X0173732Y0179300D01*
X0173615Y0179359D01*
X0173497Y0179414D01*
X0173378Y0179466D01*
X0173257Y0179515D01*
X0173135Y0179561D01*
X0173011Y0179603D01*
X0172887Y0179642D01*
X0172761Y0179678D01*
X0172635Y0179710D01*
X0172507Y0179739D01*
X0172379Y0179765D01*
X0166801Y0173818D02*
X0166837Y0173686D01*
X0166875Y0173555D01*
X0166918Y0173426D01*
X0166964Y0173297D01*
X0167014Y0173170D01*
X0167067Y0173044D01*
X0167124Y0172920D01*
X0167184Y0172798D01*
X0167248Y0172677D01*
X0167315Y0172559D01*
X0167385Y0172442D01*
X0167459Y0172327D01*
X0167536Y0172214D01*
X0167616Y0172104D01*
X0167699Y0171995D01*
X0167785Y0171890D01*
X0167874Y0171786D01*
X0167966Y0171685D01*
X0168061Y0171587D01*
X0168158Y0171492D01*
X0168258Y0171399D01*
X0168361Y0171309D01*
X0168466Y0171222D01*
X0168574Y0171138D01*
X0168684Y0171058D01*
X0168796Y0170980D01*
X0168910Y0170905D01*
X0169027Y0170834D01*
X0169145Y0170766D01*
X0169265Y0170701D01*
X0169387Y0170640D01*
X0169510Y0170582D01*
X0169636Y0170528D01*
X0169762Y0170477D01*
X0169890Y0170430D01*
X0170020Y0170387D01*
X0170150Y0170347D01*
X0170282Y0170311D01*
X0170414Y0170278D01*
X0170548Y0170250D01*
X0170682Y0170225D01*
X0170817Y0170203D01*
X0170952Y0170186D01*
X0171088Y0170173D01*
X0171224Y0170163D01*
X0171360Y0170157D01*
X0171496Y0170155D01*
X0166801Y0173818D02*
X0166206Y0176184D01*
X0162710Y0181551D02*
X0162560Y0181577D01*
X0162410Y0181600D01*
X0162259Y0181619D01*
X0162108Y0181634D01*
X0161956Y0181646D01*
X0161804Y0181655D01*
X0161652Y0181660D01*
X0161500Y0181662D01*
X0161500Y0179852D02*
X0111500Y0179852D01*
X0109145Y0179243D02*
X0101500Y0175000D01*
X0099145Y0179243D02*
X0099261Y0179305D01*
X0099378Y0179365D01*
X0099497Y0179420D01*
X0099617Y0179473D01*
X0099739Y0179522D01*
X0099862Y0179568D01*
X0099986Y0179611D01*
X0100111Y0179650D01*
X0100238Y0179686D01*
X0100365Y0179718D01*
X0100493Y0179747D01*
X0100622Y0179773D01*
X0090432Y0179733D02*
X0090299Y0179701D01*
X0090166Y0179665D01*
X0090034Y0179625D01*
X0089904Y0179582D01*
X0089775Y0179535D01*
X0089647Y0179484D01*
X0089520Y0179430D01*
X0089396Y0179372D01*
X0089273Y0179311D01*
X0089151Y0179246D01*
X0089032Y0179177D01*
X0088915Y0179106D01*
X0088799Y0179031D01*
X0088686Y0178953D01*
X0088575Y0178871D01*
X0088467Y0178787D01*
X0088361Y0178700D01*
X0088257Y0178609D01*
X0088156Y0178516D01*
X0088058Y0178420D01*
X0087962Y0178321D01*
X0087870Y0178219D01*
X0087780Y0178115D01*
X0087693Y0178008D01*
X0087609Y0177899D01*
X0087529Y0177788D01*
X0087451Y0177674D01*
X0087377Y0177558D01*
X0087306Y0177440D01*
X0087239Y0177321D01*
X0087175Y0177199D01*
X0087114Y0177075D01*
X0087057Y0176950D01*
X0087004Y0176824D01*
X0086954Y0176696D01*
X0086908Y0176566D01*
X0086865Y0176435D01*
X0086826Y0176303D01*
X0086791Y0176170D01*
X0110295Y0181551D02*
X0110445Y0181577D01*
X0110594Y0181599D01*
X0110745Y0181618D01*
X0110895Y0181634D01*
X0111046Y0181646D01*
X0111198Y0181654D01*
X0111349Y0181659D01*
X0111500Y0181661D01*
X0111500Y0179852D02*
X0111364Y0179850D01*
X0111227Y0179844D01*
X0111091Y0179835D01*
X0110955Y0179821D01*
X0110820Y0179804D01*
X0110685Y0179783D01*
X0110550Y0179758D01*
X0110417Y0179730D01*
X0110284Y0179697D01*
X0110153Y0179661D01*
X0110022Y0179621D01*
X0109892Y0179578D01*
X0109764Y0179531D01*
X0109637Y0179480D01*
X0109512Y0179426D01*
X0109388Y0179368D01*
X0109266Y0179307D01*
X0109146Y0179243D01*
X0131500Y0175000D02*
X0141500Y0175000D01*
X0151500Y0175000D01*
X0161500Y0175000D01*
X0166205Y0176184D02*
X0166170Y0176316D01*
X0166131Y0176447D01*
X0166089Y0176577D01*
X0166042Y0176706D01*
X0165992Y0176833D01*
X0165939Y0176959D01*
X0165882Y0177083D01*
X0165822Y0177206D01*
X0165758Y0177327D01*
X0165691Y0177446D01*
X0165620Y0177563D01*
X0165546Y0177678D01*
X0165469Y0177791D01*
X0165389Y0177901D01*
X0165306Y0178010D01*
X0165219Y0178116D01*
X0165130Y0178219D01*
X0165038Y0178320D01*
X0164943Y0178419D01*
X0164845Y0178514D01*
X0164745Y0178607D01*
X0164642Y0178697D01*
X0164537Y0178784D01*
X0164429Y0178868D01*
X0164319Y0178949D01*
X0164206Y0179027D01*
X0164092Y0179102D01*
X0163975Y0179173D01*
X0163857Y0179241D01*
X0163736Y0179306D01*
X0163614Y0179367D01*
X0163490Y0179425D01*
X0163365Y0179479D01*
X0163238Y0179530D01*
X0163109Y0179577D01*
X0162980Y0179621D01*
X0162849Y0179661D01*
X0162717Y0179697D01*
X0162584Y0179729D01*
X0162451Y0179758D01*
X0162316Y0179783D01*
X0162181Y0179804D01*
X0162046Y0179821D01*
X0161910Y0179835D01*
X0161773Y0179844D01*
X0161637Y0179850D01*
X0161500Y0179852D01*
X0131500Y0175000D02*
X0111500Y0145000D01*
X0121750Y0110611D01*
X0124628Y0103579D02*
X0124577Y0103534D01*
X0124523Y0103491D01*
X0124468Y0103451D01*
X0124411Y0103414D01*
X0124351Y0103380D01*
X0124290Y0103349D01*
X0120710Y0101652D02*
X0120653Y0101623D01*
X0120597Y0101591D01*
X0120543Y0101557D01*
X0120490Y0101520D01*
X0120440Y0101480D01*
X0120391Y0101438D01*
X0120345Y0101394D01*
X0118606Y0099655D02*
X0118562Y0099609D01*
X0118520Y0099560D01*
X0118480Y0099510D01*
X0118443Y0099457D01*
X0118409Y0099403D01*
X0118377Y0099347D01*
X0118348Y0099290D01*
X0116652Y0095710D02*
X0116623Y0095653D01*
X0116591Y0095597D01*
X0116557Y0095543D01*
X0116520Y0095490D01*
X0116480Y0095440D01*
X0116438Y0095391D01*
X0116394Y0095345D01*
X0114643Y0093594D02*
X0090966Y0070537D01*
X0092687Y0068474D02*
X0092612Y0068413D01*
X0092534Y0068354D01*
X0092453Y0068299D01*
X0092371Y0068246D01*
X0092288Y0068197D01*
X0092202Y0068151D01*
X0092115Y0068107D01*
X0092026Y0068067D01*
X0092026Y0068068D02*
X0073072Y0059925D01*
X0072713Y0059800D02*
X0061393Y0056736D01*
X0059797Y0058897D02*
X0059728Y0058845D01*
X0059661Y0058790D01*
X0059596Y0058734D01*
X0059533Y0058675D01*
X0059471Y0058614D01*
X0059412Y0058551D01*
X0072713Y0059800D02*
X0072804Y0059827D01*
X0072894Y0059856D01*
X0072983Y0059889D01*
X0073071Y0059925D01*
X0088719Y0052154D02*
X0092780Y0050436D01*
X0093581Y0049911D02*
X0103333Y0040661D01*
X0104701Y0039765D02*
X0108299Y0038235D01*
X0108618Y0038086D02*
X0116500Y0034000D01*
X0120383Y0043395D01*
X0120701Y0044910D02*
X0121108Y0063901D01*
X0120590Y0066124D02*
X0116500Y0074000D01*
X0116716Y0078604D02*
X0116582Y0078608D01*
X0116448Y0078609D01*
X0116314Y0078605D01*
X0116181Y0078598D01*
X0116047Y0078587D01*
X0115914Y0078572D01*
X0115782Y0078553D01*
X0115650Y0078530D01*
X0115519Y0078503D01*
X0115388Y0078473D01*
X0115259Y0078439D01*
X0115131Y0078401D01*
X0115004Y0078359D01*
X0114878Y0078314D01*
X0114753Y0078265D01*
X0114630Y0078213D01*
X0114508Y0078157D01*
X0114389Y0078097D01*
X0114271Y0078034D01*
X0114154Y0077967D01*
X0114040Y0077898D01*
X0113928Y0077825D01*
X0113818Y0077748D01*
X0113710Y0077669D01*
X0113605Y0077586D01*
X0113502Y0077501D01*
X0113402Y0077412D01*
X0113304Y0077321D01*
X0113209Y0077227D01*
X0113117Y0077130D01*
X0113027Y0077030D01*
X0112941Y0076928D01*
X0112857Y0076824D01*
X0112777Y0076717D01*
X0112699Y0076607D01*
X0112625Y0076496D01*
X0112555Y0076382D01*
X0112487Y0076267D01*
X0112423Y0076149D01*
X0112362Y0076030D01*
X0112305Y0075909D01*
X0112251Y0075787D01*
X0110749Y0072213D01*
X0110590Y0071876D02*
X0106500Y0064000D01*
X0120590Y0066124D02*
X0120648Y0066010D01*
X0120702Y0065894D01*
X0120753Y0065776D01*
X0120801Y0065657D01*
X0120845Y0065537D01*
X0120886Y0065416D01*
X0120924Y0065293D01*
X0120958Y0065170D01*
X0120989Y0065045D01*
X0121016Y0064920D01*
X0121040Y0064794D01*
X0121060Y0064668D01*
X0121077Y0064541D01*
X0121090Y0064413D01*
X0121100Y0064285D01*
X0121106Y0064157D01*
X0121109Y0064029D01*
X0121108Y0063901D01*
X0115713Y0080370D02*
X0115587Y0080353D01*
X0115463Y0080334D01*
X0115339Y0080312D01*
X0105666Y0078533D01*
X0103546Y0077538D02*
X0092688Y0068474D01*
X0103546Y0077538D02*
X0103648Y0077621D01*
X0103753Y0077701D01*
X0103859Y0077778D01*
X0103968Y0077851D01*
X0104079Y0077922D01*
X0104192Y0077990D01*
X0104307Y0078054D01*
X0104423Y0078115D01*
X0104542Y0078172D01*
X0104662Y0078226D01*
X0104783Y0078277D01*
X0104906Y0078324D01*
X0105030Y0078368D01*
X0105155Y0078408D01*
X0105281Y0078445D01*
X0105409Y0078478D01*
X0105537Y0078507D01*
X0105666Y0078533D01*
X0110749Y0072213D02*
X0110699Y0072099D01*
X0110646Y0071986D01*
X0110590Y0071875D01*
X0116715Y0078604D02*
X0166274Y0076287D01*
X0166903Y0076181D02*
X0215325Y0062030D01*
X0215651Y0061911D02*
X0226385Y0057197D01*
X0215651Y0061911D02*
X0215571Y0061945D01*
X0215490Y0061976D01*
X0215408Y0062004D01*
X0215325Y0062030D01*
X0238427Y0052998D02*
X0242430Y0086969D01*
X0245880Y0091088D02*
X0174874Y0087670D01*
X0174673Y0087653D02*
X0115713Y0080370D01*
X0122271Y0107469D02*
X0122263Y0107735D01*
X0122248Y0108001D01*
X0122227Y0108267D01*
X0122199Y0108532D01*
X0122165Y0108796D01*
X0122125Y0109059D01*
X0122078Y0109321D01*
X0122025Y0109583D01*
X0121965Y0109842D01*
X0121900Y0110100D01*
X0121828Y0110357D01*
X0121750Y0110612D01*
X0112385Y0097916D02*
X0112039Y0097601D01*
X0111686Y0097293D01*
X0111327Y0096992D01*
X0110962Y0096699D01*
X0110590Y0096414D01*
X0110212Y0096137D01*
X0109829Y0095868D01*
X0145916Y0050741D02*
X0166149Y0073602D01*
X0166902Y0076181D02*
X0166814Y0076205D01*
X0166726Y0076226D01*
X0166636Y0076244D01*
X0166546Y0076259D01*
X0166456Y0076271D01*
X0166365Y0076280D01*
X0166274Y0076286D01*
X0166447Y0083002D02*
X0174780Y0082309D01*
X0174918Y0082300D02*
X0206648Y0081299D01*
X0207057Y0081318D02*
X0228850Y0083971D01*
X0207057Y0081318D02*
X0206955Y0081307D01*
X0206852Y0081301D01*
X0206750Y0081298D01*
X0206647Y0081299D01*
X0180196Y0067583D02*
X0237500Y0035500D01*
X0186053Y0015220D02*
X0185785Y0015332D01*
X0185514Y0015438D01*
X0185241Y0015538D01*
X0184965Y0015631D01*
X0184687Y0015717D01*
X0184408Y0015797D01*
X0184126Y0015870D01*
X0183843Y0015936D01*
X0183558Y0015995D01*
X0183272Y0016048D01*
X0182985Y0016094D01*
X0182697Y0016133D01*
X0182407Y0016165D01*
X0182118Y0016190D01*
X0181827Y0016209D01*
X0181537Y0016220D01*
X0181246Y0016225D01*
X0180955Y0016223D01*
X0180664Y0016213D01*
X0180374Y0016197D01*
X0180084Y0016174D01*
X0179795Y0016144D01*
X0179506Y0016107D01*
X0179218Y0016063D01*
X0178932Y0016013D01*
X0178647Y0015955D01*
X0178363Y0015891D01*
X0178081Y0015820D01*
X0177801Y0015743D01*
X0177522Y0015659D01*
X0177246Y0015568D01*
X0176972Y0015470D01*
X0176700Y0015366D01*
X0176700Y0015367D02*
X0176800Y0015367D01*
X0176756Y0015365D01*
X0176713Y0015359D01*
X0176671Y0015350D01*
X0176629Y0015337D01*
X0176589Y0015320D01*
X0176550Y0015300D01*
X0176513Y0015277D01*
X0176479Y0015250D01*
X0176446Y0015221D01*
X0121041Y0033209D02*
X0123606Y0047930D01*
X0120701Y0044910D02*
X0120697Y0044790D01*
X0120689Y0044671D01*
X0120678Y0044551D01*
X0120663Y0044432D01*
X0120646Y0044314D01*
X0120624Y0044196D01*
X0120600Y0044079D01*
X0120572Y0043963D01*
X0120541Y0043847D01*
X0120506Y0043732D01*
X0120468Y0043619D01*
X0120427Y0043506D01*
X0120383Y0043395D01*
X0121041Y0033209D02*
X0121016Y0033077D01*
X0120987Y0032946D01*
X0120954Y0032815D01*
X0120918Y0032686D01*
X0120878Y0032558D01*
X0120834Y0032431D01*
X0120786Y0032305D01*
X0120735Y0032181D01*
X0120680Y0032058D01*
X0120622Y0031937D01*
X0120560Y0031818D01*
X0120495Y0031701D01*
X0120426Y0031585D01*
X0120354Y0031472D01*
X0120279Y0031361D01*
X0120200Y0031252D01*
X0120118Y0031145D01*
X0120034Y0031041D01*
X0119946Y0030939D01*
X0119855Y0030840D01*
X0119762Y0030744D01*
X0119665Y0030650D01*
X0119566Y0030559D01*
X0119465Y0030471D01*
X0119361Y0030386D01*
X0119254Y0030305D01*
X0119145Y0030226D01*
X0119034Y0030150D01*
X0118921Y0030078D01*
X0118806Y0030009D01*
X0118689Y0029944D01*
X0118569Y0029882D01*
X0118449Y0029823D01*
X0118326Y0029768D01*
X0118202Y0029717D01*
X0118076Y0029669D01*
X0117949Y0029625D01*
X0117821Y0029584D01*
X0117692Y0029548D01*
X0117562Y0029515D01*
X0117431Y0029486D01*
X0117299Y0029461D01*
X0117166Y0029439D01*
X0117033Y0029422D01*
X0116899Y0029408D01*
X0116765Y0029399D01*
X0116631Y0029393D01*
X0116497Y0029391D01*
X0106497Y0029398D01*
X0106444Y0029398D02*
X0086378Y0029643D01*
X0085727Y0029731D02*
X0059122Y0036733D01*
X0048368Y0028374D02*
X0048323Y0028394D01*
X0036500Y0034000D01*
X0048367Y0028373D02*
X0053395Y0026100D01*
X0054070Y0025896D02*
X0060466Y0024854D01*
X0054070Y0025897D02*
X0053971Y0025915D01*
X0053872Y0025937D01*
X0053775Y0025962D01*
X0053678Y0025992D01*
X0053582Y0026024D01*
X0053488Y0026061D01*
X0053395Y0026100D01*
X0085727Y0029731D02*
X0085819Y0029709D01*
X0085911Y0029690D01*
X0086004Y0029674D01*
X0086097Y0029661D01*
X0086191Y0029652D01*
X0086285Y0029646D01*
X0086379Y0029643D01*
X0108299Y0038235D02*
X0108406Y0038188D01*
X0108512Y0038138D01*
X0108617Y0038086D01*
X0106496Y0029398D02*
X0106443Y0029398D01*
X0104701Y0039764D02*
X0104586Y0039815D01*
X0104471Y0039869D01*
X0104359Y0039927D01*
X0104247Y0039987D01*
X0104138Y0040050D01*
X0104030Y0040117D01*
X0103925Y0040186D01*
X0103821Y0040258D01*
X0103719Y0040333D01*
X0103619Y0040411D01*
X0103522Y0040492D01*
X0103426Y0040575D01*
X0103334Y0040661D01*
X0093582Y0049911D02*
X0093511Y0049976D01*
X0093437Y0050038D01*
X0093362Y0050098D01*
X0093284Y0050155D01*
X0093204Y0050209D01*
X0093123Y0050261D01*
X0093039Y0050309D01*
X0092954Y0050354D01*
X0092868Y0050397D01*
X0092780Y0050436D01*
X0174673Y0087653D02*
X0174773Y0087663D01*
X0174873Y0087670D01*
X0174779Y0082309D02*
X0174849Y0082304D01*
X0174918Y0082301D01*
X0197500Y0115500D02*
X0226792Y0110946D01*
X0229624Y0111410D02*
X0237500Y0115500D01*
X0229625Y0111410D02*
X0229506Y0111350D01*
X0229386Y0111294D01*
X0229264Y0111242D01*
X0229141Y0111193D01*
X0229016Y0111147D01*
X0228890Y0111106D01*
X0228763Y0111067D01*
X0228635Y0111033D01*
X0228506Y0111002D01*
X0228376Y0110975D01*
X0228245Y0110952D01*
X0228114Y0110932D01*
X0227982Y0110916D01*
X0227850Y0110904D01*
X0227718Y0110896D01*
X0227585Y0110892D01*
X0227453Y0110891D01*
X0227320Y0110895D01*
X0227187Y0110902D01*
X0227055Y0110913D01*
X0226923Y0110927D01*
X0226792Y0110946D01*
X0168340Y0148673D02*
X0168239Y0148583D01*
X0168140Y0148491D01*
X0168044Y0148396D01*
X0167951Y0148298D01*
X0167860Y0148198D01*
X0167772Y0148095D01*
X0167687Y0147990D01*
X0167605Y0147882D01*
X0167527Y0147772D01*
X0167451Y0147660D01*
X0167378Y0147546D01*
X0167309Y0147430D01*
X0167243Y0147313D01*
X0167180Y0147193D01*
X0167120Y0147072D01*
X0167064Y0146949D01*
X0167011Y0146824D01*
X0166962Y0146698D01*
X0166917Y0146571D01*
X0166875Y0146442D01*
X0166836Y0146313D01*
X0166801Y0146182D01*
X0166205Y0143816D02*
X0166170Y0143683D01*
X0166131Y0143551D01*
X0166087Y0143420D01*
X0166041Y0143290D01*
X0165990Y0143162D01*
X0165936Y0143035D01*
X0165879Y0142910D01*
X0165817Y0142786D01*
X0165753Y0142664D01*
X0165685Y0142544D01*
X0165613Y0142426D01*
X0165538Y0142311D01*
X0165460Y0142197D01*
X0165379Y0142086D01*
X0165295Y0141976D01*
X0165207Y0141870D01*
X0165117Y0141766D01*
X0165024Y0141664D01*
X0164927Y0141566D01*
X0164828Y0141470D01*
D14*
X0204033Y0094132D03*
X0206732Y0083985D03*
X0202213Y0074874D03*
X0190239Y0076811D03*
X0186680Y0076591D03*
X0180196Y0067583D03*
X0166149Y0073602D03*
X0159338Y0070165D03*
X0166447Y0083002D03*
X0175003Y0084986D03*
X0202384Y0062643D03*
X0214571Y0059451D03*
X0214227Y0068002D03*
X0226415Y0065840D03*
X0226385Y0057197D03*
X0238427Y0052998D03*
X0247585Y0069455D03*
X0251857Y0078035D03*
X0248310Y0078385D03*
X0242430Y0086969D03*
X0245880Y0091088D03*
X0232413Y0083985D03*
X0228850Y0083971D03*
X0145916Y0050741D03*
X0142329Y0051148D03*
X0138960Y0052328D03*
X0135500Y0056435D03*
X0129356Y0052715D03*
X0123606Y0047930D03*
X0143519Y0056414D03*
X0134731Y0089983D03*
X0131961Y0092227D03*
X0090966Y0070537D03*
X0072011Y0062394D03*
X0061393Y0056736D03*
X0071293Y0052075D03*
X0088719Y0052154D03*
X0091732Y0047961D03*
X0086411Y0032330D03*
X0096454Y0023734D03*
X0088758Y0018829D03*
X0060466Y0024854D03*
X0054502Y0028548D03*
X0049474Y0030822D03*
X0059122Y0036733D03*
X0042876Y0040500D03*
X0064919Y0124500D03*
X0036823Y0150770D03*
X0037984Y0174987D03*
X0230681Y0155517D03*
M02*
