G75*
%MOIN*%
%OFA0B0*%
%FSLAX25Y25*%
%IPPOS*%
%LPD*%
%AMOC8*
5,1,8,0,0,1.08239X$1,22.5*
%
%ADD10C,0.00004*%
%ADD11C,0.04724*%
%ADD12C,0.00000*%
%ADD13C,0.04287*%
%ADD14C,0.05512*%
%ADD15C,0.01000*%
%ADD16C,0.02362*%
D10*
X0016500Y0005000D02*
X0276500Y0005000D01*
X0276500Y0015000D01*
X0286500Y0025000D01*
X0286500Y0154000D01*
X0276500Y0164000D01*
X0276500Y0209000D01*
X0270500Y0215000D01*
X0016500Y0215000D01*
X0016500Y0005000D01*
D11*
X0036500Y0014000D03*
X0036500Y0024000D03*
X0026500Y0024000D03*
X0026500Y0034000D03*
X0036500Y0034000D03*
X0036500Y0044000D03*
X0036500Y0054000D03*
X0036500Y0064000D03*
X0026500Y0064000D03*
X0026500Y0074000D03*
X0036500Y0074000D03*
X0102500Y0097500D03*
X0112500Y0097500D03*
X0122500Y0097500D03*
X0122500Y0107500D03*
X0112500Y0107500D03*
X0102500Y0107500D03*
X0106500Y0074000D03*
X0116500Y0074000D03*
X0116500Y0064000D03*
X0106500Y0064000D03*
X0106500Y0054000D03*
X0106500Y0044000D03*
X0106500Y0034000D03*
X0116500Y0034000D03*
X0116500Y0024000D03*
X0106500Y0024000D03*
X0106500Y0014000D03*
X0126500Y0015000D03*
X0136500Y0015000D03*
X0146500Y0015000D03*
X0156500Y0015000D03*
X0166500Y0015000D03*
X0176500Y0015000D03*
X0186500Y0015000D03*
X0196500Y0015000D03*
X0216500Y0015000D03*
X0226500Y0015000D03*
X0236500Y0015000D03*
X0246500Y0015000D03*
X0256500Y0015000D03*
X0266500Y0015000D03*
X0237500Y0035500D03*
X0227500Y0035500D03*
X0217500Y0035500D03*
X0207500Y0035500D03*
X0197500Y0035500D03*
X0187500Y0035500D03*
X0177500Y0035500D03*
X0187500Y0115500D03*
X0197500Y0115500D03*
X0227500Y0115500D03*
X0237500Y0115500D03*
X0236500Y0205000D03*
X0226500Y0205000D03*
X0216500Y0205000D03*
X0206500Y0205000D03*
X0196500Y0205000D03*
X0180500Y0205000D03*
X0170500Y0205000D03*
X0160500Y0205000D03*
X0150500Y0205000D03*
X0140500Y0205000D03*
X0130500Y0205000D03*
X0120500Y0205000D03*
X0110500Y0205000D03*
X0100500Y0205000D03*
X0090500Y0205000D03*
X0246500Y0205000D03*
X0256500Y0205000D03*
X0266500Y0205000D03*
D12*
X0156201Y0110500D02*
X0156203Y0110658D01*
X0156209Y0110816D01*
X0156219Y0110974D01*
X0156233Y0111132D01*
X0156251Y0111289D01*
X0156272Y0111446D01*
X0156298Y0111602D01*
X0156328Y0111758D01*
X0156361Y0111913D01*
X0156399Y0112066D01*
X0156440Y0112219D01*
X0156485Y0112371D01*
X0156534Y0112522D01*
X0156587Y0112671D01*
X0156643Y0112819D01*
X0156703Y0112965D01*
X0156767Y0113110D01*
X0156835Y0113253D01*
X0156906Y0113395D01*
X0156980Y0113535D01*
X0157058Y0113672D01*
X0157140Y0113808D01*
X0157224Y0113942D01*
X0157313Y0114073D01*
X0157404Y0114202D01*
X0157499Y0114329D01*
X0157596Y0114454D01*
X0157697Y0114576D01*
X0157801Y0114695D01*
X0157908Y0114812D01*
X0158018Y0114926D01*
X0158131Y0115037D01*
X0158246Y0115146D01*
X0158364Y0115251D01*
X0158485Y0115353D01*
X0158608Y0115453D01*
X0158734Y0115549D01*
X0158862Y0115642D01*
X0158992Y0115732D01*
X0159125Y0115818D01*
X0159260Y0115902D01*
X0159396Y0115981D01*
X0159535Y0116058D01*
X0159676Y0116130D01*
X0159818Y0116200D01*
X0159962Y0116265D01*
X0160108Y0116327D01*
X0160255Y0116385D01*
X0160404Y0116440D01*
X0160554Y0116491D01*
X0160705Y0116538D01*
X0160857Y0116581D01*
X0161010Y0116620D01*
X0161165Y0116656D01*
X0161320Y0116687D01*
X0161476Y0116715D01*
X0161632Y0116739D01*
X0161789Y0116759D01*
X0161947Y0116775D01*
X0162104Y0116787D01*
X0162263Y0116795D01*
X0162421Y0116799D01*
X0162579Y0116799D01*
X0162737Y0116795D01*
X0162896Y0116787D01*
X0163053Y0116775D01*
X0163211Y0116759D01*
X0163368Y0116739D01*
X0163524Y0116715D01*
X0163680Y0116687D01*
X0163835Y0116656D01*
X0163990Y0116620D01*
X0164143Y0116581D01*
X0164295Y0116538D01*
X0164446Y0116491D01*
X0164596Y0116440D01*
X0164745Y0116385D01*
X0164892Y0116327D01*
X0165038Y0116265D01*
X0165182Y0116200D01*
X0165324Y0116130D01*
X0165465Y0116058D01*
X0165604Y0115981D01*
X0165740Y0115902D01*
X0165875Y0115818D01*
X0166008Y0115732D01*
X0166138Y0115642D01*
X0166266Y0115549D01*
X0166392Y0115453D01*
X0166515Y0115353D01*
X0166636Y0115251D01*
X0166754Y0115146D01*
X0166869Y0115037D01*
X0166982Y0114926D01*
X0167092Y0114812D01*
X0167199Y0114695D01*
X0167303Y0114576D01*
X0167404Y0114454D01*
X0167501Y0114329D01*
X0167596Y0114202D01*
X0167687Y0114073D01*
X0167776Y0113942D01*
X0167860Y0113808D01*
X0167942Y0113672D01*
X0168020Y0113535D01*
X0168094Y0113395D01*
X0168165Y0113253D01*
X0168233Y0113110D01*
X0168297Y0112965D01*
X0168357Y0112819D01*
X0168413Y0112671D01*
X0168466Y0112522D01*
X0168515Y0112371D01*
X0168560Y0112219D01*
X0168601Y0112066D01*
X0168639Y0111913D01*
X0168672Y0111758D01*
X0168702Y0111602D01*
X0168728Y0111446D01*
X0168749Y0111289D01*
X0168767Y0111132D01*
X0168781Y0110974D01*
X0168791Y0110816D01*
X0168797Y0110658D01*
X0168799Y0110500D01*
X0168797Y0110342D01*
X0168791Y0110184D01*
X0168781Y0110026D01*
X0168767Y0109868D01*
X0168749Y0109711D01*
X0168728Y0109554D01*
X0168702Y0109398D01*
X0168672Y0109242D01*
X0168639Y0109087D01*
X0168601Y0108934D01*
X0168560Y0108781D01*
X0168515Y0108629D01*
X0168466Y0108478D01*
X0168413Y0108329D01*
X0168357Y0108181D01*
X0168297Y0108035D01*
X0168233Y0107890D01*
X0168165Y0107747D01*
X0168094Y0107605D01*
X0168020Y0107465D01*
X0167942Y0107328D01*
X0167860Y0107192D01*
X0167776Y0107058D01*
X0167687Y0106927D01*
X0167596Y0106798D01*
X0167501Y0106671D01*
X0167404Y0106546D01*
X0167303Y0106424D01*
X0167199Y0106305D01*
X0167092Y0106188D01*
X0166982Y0106074D01*
X0166869Y0105963D01*
X0166754Y0105854D01*
X0166636Y0105749D01*
X0166515Y0105647D01*
X0166392Y0105547D01*
X0166266Y0105451D01*
X0166138Y0105358D01*
X0166008Y0105268D01*
X0165875Y0105182D01*
X0165740Y0105098D01*
X0165604Y0105019D01*
X0165465Y0104942D01*
X0165324Y0104870D01*
X0165182Y0104800D01*
X0165038Y0104735D01*
X0164892Y0104673D01*
X0164745Y0104615D01*
X0164596Y0104560D01*
X0164446Y0104509D01*
X0164295Y0104462D01*
X0164143Y0104419D01*
X0163990Y0104380D01*
X0163835Y0104344D01*
X0163680Y0104313D01*
X0163524Y0104285D01*
X0163368Y0104261D01*
X0163211Y0104241D01*
X0163053Y0104225D01*
X0162896Y0104213D01*
X0162737Y0104205D01*
X0162579Y0104201D01*
X0162421Y0104201D01*
X0162263Y0104205D01*
X0162104Y0104213D01*
X0161947Y0104225D01*
X0161789Y0104241D01*
X0161632Y0104261D01*
X0161476Y0104285D01*
X0161320Y0104313D01*
X0161165Y0104344D01*
X0161010Y0104380D01*
X0160857Y0104419D01*
X0160705Y0104462D01*
X0160554Y0104509D01*
X0160404Y0104560D01*
X0160255Y0104615D01*
X0160108Y0104673D01*
X0159962Y0104735D01*
X0159818Y0104800D01*
X0159676Y0104870D01*
X0159535Y0104942D01*
X0159396Y0105019D01*
X0159260Y0105098D01*
X0159125Y0105182D01*
X0158992Y0105268D01*
X0158862Y0105358D01*
X0158734Y0105451D01*
X0158608Y0105547D01*
X0158485Y0105647D01*
X0158364Y0105749D01*
X0158246Y0105854D01*
X0158131Y0105963D01*
X0158018Y0106074D01*
X0157908Y0106188D01*
X0157801Y0106305D01*
X0157697Y0106424D01*
X0157596Y0106546D01*
X0157499Y0106671D01*
X0157404Y0106798D01*
X0157313Y0106927D01*
X0157224Y0107058D01*
X0157140Y0107192D01*
X0157058Y0107328D01*
X0156980Y0107465D01*
X0156906Y0107605D01*
X0156835Y0107747D01*
X0156767Y0107890D01*
X0156703Y0108035D01*
X0156643Y0108181D01*
X0156587Y0108329D01*
X0156534Y0108478D01*
X0156485Y0108629D01*
X0156440Y0108781D01*
X0156399Y0108934D01*
X0156361Y0109087D01*
X0156328Y0109242D01*
X0156298Y0109398D01*
X0156272Y0109554D01*
X0156251Y0109711D01*
X0156233Y0109868D01*
X0156219Y0110026D01*
X0156209Y0110184D01*
X0156203Y0110342D01*
X0156201Y0110500D01*
X0227788Y0099900D02*
X0227790Y0100048D01*
X0227796Y0100196D01*
X0227806Y0100344D01*
X0227820Y0100491D01*
X0227838Y0100638D01*
X0227859Y0100784D01*
X0227885Y0100930D01*
X0227915Y0101075D01*
X0227948Y0101219D01*
X0227986Y0101362D01*
X0228027Y0101504D01*
X0228072Y0101645D01*
X0228120Y0101785D01*
X0228173Y0101924D01*
X0228229Y0102061D01*
X0228289Y0102196D01*
X0228352Y0102330D01*
X0228419Y0102462D01*
X0228490Y0102592D01*
X0228564Y0102720D01*
X0228641Y0102846D01*
X0228722Y0102970D01*
X0228806Y0103092D01*
X0228893Y0103211D01*
X0228984Y0103328D01*
X0229078Y0103443D01*
X0229174Y0103555D01*
X0229274Y0103665D01*
X0229376Y0103771D01*
X0229482Y0103875D01*
X0229590Y0103976D01*
X0229701Y0104074D01*
X0229814Y0104170D01*
X0229930Y0104262D01*
X0230048Y0104351D01*
X0230169Y0104436D01*
X0230292Y0104519D01*
X0230417Y0104598D01*
X0230544Y0104674D01*
X0230673Y0104746D01*
X0230804Y0104815D01*
X0230937Y0104880D01*
X0231072Y0104941D01*
X0231208Y0104999D01*
X0231345Y0105054D01*
X0231484Y0105104D01*
X0231625Y0105151D01*
X0231766Y0105194D01*
X0231909Y0105234D01*
X0232053Y0105269D01*
X0232197Y0105301D01*
X0232343Y0105328D01*
X0232489Y0105352D01*
X0232636Y0105372D01*
X0232783Y0105388D01*
X0232930Y0105400D01*
X0233078Y0105408D01*
X0233226Y0105412D01*
X0233374Y0105412D01*
X0233522Y0105408D01*
X0233670Y0105400D01*
X0233817Y0105388D01*
X0233964Y0105372D01*
X0234111Y0105352D01*
X0234257Y0105328D01*
X0234403Y0105301D01*
X0234547Y0105269D01*
X0234691Y0105234D01*
X0234834Y0105194D01*
X0234975Y0105151D01*
X0235116Y0105104D01*
X0235255Y0105054D01*
X0235392Y0104999D01*
X0235528Y0104941D01*
X0235663Y0104880D01*
X0235796Y0104815D01*
X0235927Y0104746D01*
X0236056Y0104674D01*
X0236183Y0104598D01*
X0236308Y0104519D01*
X0236431Y0104436D01*
X0236552Y0104351D01*
X0236670Y0104262D01*
X0236786Y0104170D01*
X0236899Y0104074D01*
X0237010Y0103976D01*
X0237118Y0103875D01*
X0237224Y0103771D01*
X0237326Y0103665D01*
X0237426Y0103555D01*
X0237522Y0103443D01*
X0237616Y0103328D01*
X0237707Y0103211D01*
X0237794Y0103092D01*
X0237878Y0102970D01*
X0237959Y0102846D01*
X0238036Y0102720D01*
X0238110Y0102592D01*
X0238181Y0102462D01*
X0238248Y0102330D01*
X0238311Y0102196D01*
X0238371Y0102061D01*
X0238427Y0101924D01*
X0238480Y0101785D01*
X0238528Y0101645D01*
X0238573Y0101504D01*
X0238614Y0101362D01*
X0238652Y0101219D01*
X0238685Y0101075D01*
X0238715Y0100930D01*
X0238741Y0100784D01*
X0238762Y0100638D01*
X0238780Y0100491D01*
X0238794Y0100344D01*
X0238804Y0100196D01*
X0238810Y0100048D01*
X0238812Y0099900D01*
X0238810Y0099752D01*
X0238804Y0099604D01*
X0238794Y0099456D01*
X0238780Y0099309D01*
X0238762Y0099162D01*
X0238741Y0099016D01*
X0238715Y0098870D01*
X0238685Y0098725D01*
X0238652Y0098581D01*
X0238614Y0098438D01*
X0238573Y0098296D01*
X0238528Y0098155D01*
X0238480Y0098015D01*
X0238427Y0097876D01*
X0238371Y0097739D01*
X0238311Y0097604D01*
X0238248Y0097470D01*
X0238181Y0097338D01*
X0238110Y0097208D01*
X0238036Y0097080D01*
X0237959Y0096954D01*
X0237878Y0096830D01*
X0237794Y0096708D01*
X0237707Y0096589D01*
X0237616Y0096472D01*
X0237522Y0096357D01*
X0237426Y0096245D01*
X0237326Y0096135D01*
X0237224Y0096029D01*
X0237118Y0095925D01*
X0237010Y0095824D01*
X0236899Y0095726D01*
X0236786Y0095630D01*
X0236670Y0095538D01*
X0236552Y0095449D01*
X0236431Y0095364D01*
X0236308Y0095281D01*
X0236183Y0095202D01*
X0236056Y0095126D01*
X0235927Y0095054D01*
X0235796Y0094985D01*
X0235663Y0094920D01*
X0235528Y0094859D01*
X0235392Y0094801D01*
X0235255Y0094746D01*
X0235116Y0094696D01*
X0234975Y0094649D01*
X0234834Y0094606D01*
X0234691Y0094566D01*
X0234547Y0094531D01*
X0234403Y0094499D01*
X0234257Y0094472D01*
X0234111Y0094448D01*
X0233964Y0094428D01*
X0233817Y0094412D01*
X0233670Y0094400D01*
X0233522Y0094392D01*
X0233374Y0094388D01*
X0233226Y0094388D01*
X0233078Y0094392D01*
X0232930Y0094400D01*
X0232783Y0094412D01*
X0232636Y0094428D01*
X0232489Y0094448D01*
X0232343Y0094472D01*
X0232197Y0094499D01*
X0232053Y0094531D01*
X0231909Y0094566D01*
X0231766Y0094606D01*
X0231625Y0094649D01*
X0231484Y0094696D01*
X0231345Y0094746D01*
X0231208Y0094801D01*
X0231072Y0094859D01*
X0230937Y0094920D01*
X0230804Y0094985D01*
X0230673Y0095054D01*
X0230544Y0095126D01*
X0230417Y0095202D01*
X0230292Y0095281D01*
X0230169Y0095364D01*
X0230048Y0095449D01*
X0229930Y0095538D01*
X0229814Y0095630D01*
X0229701Y0095726D01*
X0229590Y0095824D01*
X0229482Y0095925D01*
X0229376Y0096029D01*
X0229274Y0096135D01*
X0229174Y0096245D01*
X0229078Y0096357D01*
X0228984Y0096472D01*
X0228893Y0096589D01*
X0228806Y0096708D01*
X0228722Y0096830D01*
X0228641Y0096954D01*
X0228564Y0097080D01*
X0228490Y0097208D01*
X0228419Y0097338D01*
X0228352Y0097470D01*
X0228289Y0097604D01*
X0228229Y0097739D01*
X0228173Y0097876D01*
X0228120Y0098015D01*
X0228072Y0098155D01*
X0228027Y0098296D01*
X0227986Y0098438D01*
X0227948Y0098581D01*
X0227915Y0098725D01*
X0227885Y0098870D01*
X0227859Y0099016D01*
X0227838Y0099162D01*
X0227820Y0099309D01*
X0227806Y0099456D01*
X0227796Y0099604D01*
X0227790Y0099752D01*
X0227788Y0099900D01*
X0156201Y0040500D02*
X0156203Y0040658D01*
X0156209Y0040816D01*
X0156219Y0040974D01*
X0156233Y0041132D01*
X0156251Y0041289D01*
X0156272Y0041446D01*
X0156298Y0041602D01*
X0156328Y0041758D01*
X0156361Y0041913D01*
X0156399Y0042066D01*
X0156440Y0042219D01*
X0156485Y0042371D01*
X0156534Y0042522D01*
X0156587Y0042671D01*
X0156643Y0042819D01*
X0156703Y0042965D01*
X0156767Y0043110D01*
X0156835Y0043253D01*
X0156906Y0043395D01*
X0156980Y0043535D01*
X0157058Y0043672D01*
X0157140Y0043808D01*
X0157224Y0043942D01*
X0157313Y0044073D01*
X0157404Y0044202D01*
X0157499Y0044329D01*
X0157596Y0044454D01*
X0157697Y0044576D01*
X0157801Y0044695D01*
X0157908Y0044812D01*
X0158018Y0044926D01*
X0158131Y0045037D01*
X0158246Y0045146D01*
X0158364Y0045251D01*
X0158485Y0045353D01*
X0158608Y0045453D01*
X0158734Y0045549D01*
X0158862Y0045642D01*
X0158992Y0045732D01*
X0159125Y0045818D01*
X0159260Y0045902D01*
X0159396Y0045981D01*
X0159535Y0046058D01*
X0159676Y0046130D01*
X0159818Y0046200D01*
X0159962Y0046265D01*
X0160108Y0046327D01*
X0160255Y0046385D01*
X0160404Y0046440D01*
X0160554Y0046491D01*
X0160705Y0046538D01*
X0160857Y0046581D01*
X0161010Y0046620D01*
X0161165Y0046656D01*
X0161320Y0046687D01*
X0161476Y0046715D01*
X0161632Y0046739D01*
X0161789Y0046759D01*
X0161947Y0046775D01*
X0162104Y0046787D01*
X0162263Y0046795D01*
X0162421Y0046799D01*
X0162579Y0046799D01*
X0162737Y0046795D01*
X0162896Y0046787D01*
X0163053Y0046775D01*
X0163211Y0046759D01*
X0163368Y0046739D01*
X0163524Y0046715D01*
X0163680Y0046687D01*
X0163835Y0046656D01*
X0163990Y0046620D01*
X0164143Y0046581D01*
X0164295Y0046538D01*
X0164446Y0046491D01*
X0164596Y0046440D01*
X0164745Y0046385D01*
X0164892Y0046327D01*
X0165038Y0046265D01*
X0165182Y0046200D01*
X0165324Y0046130D01*
X0165465Y0046058D01*
X0165604Y0045981D01*
X0165740Y0045902D01*
X0165875Y0045818D01*
X0166008Y0045732D01*
X0166138Y0045642D01*
X0166266Y0045549D01*
X0166392Y0045453D01*
X0166515Y0045353D01*
X0166636Y0045251D01*
X0166754Y0045146D01*
X0166869Y0045037D01*
X0166982Y0044926D01*
X0167092Y0044812D01*
X0167199Y0044695D01*
X0167303Y0044576D01*
X0167404Y0044454D01*
X0167501Y0044329D01*
X0167596Y0044202D01*
X0167687Y0044073D01*
X0167776Y0043942D01*
X0167860Y0043808D01*
X0167942Y0043672D01*
X0168020Y0043535D01*
X0168094Y0043395D01*
X0168165Y0043253D01*
X0168233Y0043110D01*
X0168297Y0042965D01*
X0168357Y0042819D01*
X0168413Y0042671D01*
X0168466Y0042522D01*
X0168515Y0042371D01*
X0168560Y0042219D01*
X0168601Y0042066D01*
X0168639Y0041913D01*
X0168672Y0041758D01*
X0168702Y0041602D01*
X0168728Y0041446D01*
X0168749Y0041289D01*
X0168767Y0041132D01*
X0168781Y0040974D01*
X0168791Y0040816D01*
X0168797Y0040658D01*
X0168799Y0040500D01*
X0168797Y0040342D01*
X0168791Y0040184D01*
X0168781Y0040026D01*
X0168767Y0039868D01*
X0168749Y0039711D01*
X0168728Y0039554D01*
X0168702Y0039398D01*
X0168672Y0039242D01*
X0168639Y0039087D01*
X0168601Y0038934D01*
X0168560Y0038781D01*
X0168515Y0038629D01*
X0168466Y0038478D01*
X0168413Y0038329D01*
X0168357Y0038181D01*
X0168297Y0038035D01*
X0168233Y0037890D01*
X0168165Y0037747D01*
X0168094Y0037605D01*
X0168020Y0037465D01*
X0167942Y0037328D01*
X0167860Y0037192D01*
X0167776Y0037058D01*
X0167687Y0036927D01*
X0167596Y0036798D01*
X0167501Y0036671D01*
X0167404Y0036546D01*
X0167303Y0036424D01*
X0167199Y0036305D01*
X0167092Y0036188D01*
X0166982Y0036074D01*
X0166869Y0035963D01*
X0166754Y0035854D01*
X0166636Y0035749D01*
X0166515Y0035647D01*
X0166392Y0035547D01*
X0166266Y0035451D01*
X0166138Y0035358D01*
X0166008Y0035268D01*
X0165875Y0035182D01*
X0165740Y0035098D01*
X0165604Y0035019D01*
X0165465Y0034942D01*
X0165324Y0034870D01*
X0165182Y0034800D01*
X0165038Y0034735D01*
X0164892Y0034673D01*
X0164745Y0034615D01*
X0164596Y0034560D01*
X0164446Y0034509D01*
X0164295Y0034462D01*
X0164143Y0034419D01*
X0163990Y0034380D01*
X0163835Y0034344D01*
X0163680Y0034313D01*
X0163524Y0034285D01*
X0163368Y0034261D01*
X0163211Y0034241D01*
X0163053Y0034225D01*
X0162896Y0034213D01*
X0162737Y0034205D01*
X0162579Y0034201D01*
X0162421Y0034201D01*
X0162263Y0034205D01*
X0162104Y0034213D01*
X0161947Y0034225D01*
X0161789Y0034241D01*
X0161632Y0034261D01*
X0161476Y0034285D01*
X0161320Y0034313D01*
X0161165Y0034344D01*
X0161010Y0034380D01*
X0160857Y0034419D01*
X0160705Y0034462D01*
X0160554Y0034509D01*
X0160404Y0034560D01*
X0160255Y0034615D01*
X0160108Y0034673D01*
X0159962Y0034735D01*
X0159818Y0034800D01*
X0159676Y0034870D01*
X0159535Y0034942D01*
X0159396Y0035019D01*
X0159260Y0035098D01*
X0159125Y0035182D01*
X0158992Y0035268D01*
X0158862Y0035358D01*
X0158734Y0035451D01*
X0158608Y0035547D01*
X0158485Y0035647D01*
X0158364Y0035749D01*
X0158246Y0035854D01*
X0158131Y0035963D01*
X0158018Y0036074D01*
X0157908Y0036188D01*
X0157801Y0036305D01*
X0157697Y0036424D01*
X0157596Y0036546D01*
X0157499Y0036671D01*
X0157404Y0036798D01*
X0157313Y0036927D01*
X0157224Y0037058D01*
X0157140Y0037192D01*
X0157058Y0037328D01*
X0156980Y0037465D01*
X0156906Y0037605D01*
X0156835Y0037747D01*
X0156767Y0037890D01*
X0156703Y0038035D01*
X0156643Y0038181D01*
X0156587Y0038329D01*
X0156534Y0038478D01*
X0156485Y0038629D01*
X0156440Y0038781D01*
X0156399Y0038934D01*
X0156361Y0039087D01*
X0156328Y0039242D01*
X0156298Y0039398D01*
X0156272Y0039554D01*
X0156251Y0039711D01*
X0156233Y0039868D01*
X0156219Y0040026D01*
X0156209Y0040184D01*
X0156203Y0040342D01*
X0156201Y0040500D01*
X0113600Y0045000D02*
X0113602Y0045107D01*
X0113608Y0045214D01*
X0113618Y0045321D01*
X0113632Y0045427D01*
X0113649Y0045533D01*
X0113671Y0045638D01*
X0113697Y0045742D01*
X0113726Y0045845D01*
X0113759Y0045947D01*
X0113796Y0046048D01*
X0113836Y0046147D01*
X0113881Y0046244D01*
X0113928Y0046340D01*
X0113980Y0046435D01*
X0114034Y0046527D01*
X0114092Y0046617D01*
X0114154Y0046705D01*
X0114218Y0046790D01*
X0114286Y0046873D01*
X0114357Y0046954D01*
X0114431Y0047032D01*
X0114507Y0047107D01*
X0114586Y0047179D01*
X0114668Y0047248D01*
X0114752Y0047314D01*
X0114839Y0047377D01*
X0114928Y0047437D01*
X0115019Y0047493D01*
X0115112Y0047546D01*
X0115207Y0047596D01*
X0115304Y0047642D01*
X0115403Y0047684D01*
X0115503Y0047723D01*
X0115604Y0047758D01*
X0115706Y0047789D01*
X0115810Y0047817D01*
X0115915Y0047840D01*
X0116020Y0047860D01*
X0116126Y0047876D01*
X0116232Y0047888D01*
X0116339Y0047896D01*
X0116446Y0047900D01*
X0116554Y0047900D01*
X0116661Y0047896D01*
X0116768Y0047888D01*
X0116874Y0047876D01*
X0116980Y0047860D01*
X0117085Y0047840D01*
X0117190Y0047817D01*
X0117294Y0047789D01*
X0117396Y0047758D01*
X0117497Y0047723D01*
X0117597Y0047684D01*
X0117696Y0047642D01*
X0117793Y0047596D01*
X0117888Y0047546D01*
X0117981Y0047493D01*
X0118072Y0047437D01*
X0118161Y0047377D01*
X0118248Y0047314D01*
X0118332Y0047248D01*
X0118414Y0047179D01*
X0118493Y0047107D01*
X0118569Y0047032D01*
X0118643Y0046954D01*
X0118714Y0046873D01*
X0118782Y0046790D01*
X0118846Y0046705D01*
X0118908Y0046617D01*
X0118966Y0046527D01*
X0119020Y0046435D01*
X0119072Y0046340D01*
X0119119Y0046244D01*
X0119164Y0046147D01*
X0119204Y0046048D01*
X0119241Y0045947D01*
X0119274Y0045845D01*
X0119303Y0045742D01*
X0119329Y0045638D01*
X0119351Y0045533D01*
X0119368Y0045427D01*
X0119382Y0045321D01*
X0119392Y0045214D01*
X0119398Y0045107D01*
X0119400Y0045000D01*
X0119398Y0044893D01*
X0119392Y0044786D01*
X0119382Y0044679D01*
X0119368Y0044573D01*
X0119351Y0044467D01*
X0119329Y0044362D01*
X0119303Y0044258D01*
X0119274Y0044155D01*
X0119241Y0044053D01*
X0119204Y0043952D01*
X0119164Y0043853D01*
X0119119Y0043756D01*
X0119072Y0043660D01*
X0119020Y0043565D01*
X0118966Y0043473D01*
X0118908Y0043383D01*
X0118846Y0043295D01*
X0118782Y0043210D01*
X0118714Y0043127D01*
X0118643Y0043046D01*
X0118569Y0042968D01*
X0118493Y0042893D01*
X0118414Y0042821D01*
X0118332Y0042752D01*
X0118248Y0042686D01*
X0118161Y0042623D01*
X0118072Y0042563D01*
X0117981Y0042507D01*
X0117888Y0042454D01*
X0117793Y0042404D01*
X0117696Y0042358D01*
X0117597Y0042316D01*
X0117497Y0042277D01*
X0117396Y0042242D01*
X0117294Y0042211D01*
X0117190Y0042183D01*
X0117085Y0042160D01*
X0116980Y0042140D01*
X0116874Y0042124D01*
X0116768Y0042112D01*
X0116661Y0042104D01*
X0116554Y0042100D01*
X0116446Y0042100D01*
X0116339Y0042104D01*
X0116232Y0042112D01*
X0116126Y0042124D01*
X0116020Y0042140D01*
X0115915Y0042160D01*
X0115810Y0042183D01*
X0115706Y0042211D01*
X0115604Y0042242D01*
X0115503Y0042277D01*
X0115403Y0042316D01*
X0115304Y0042358D01*
X0115207Y0042404D01*
X0115112Y0042454D01*
X0115019Y0042507D01*
X0114928Y0042563D01*
X0114839Y0042623D01*
X0114752Y0042686D01*
X0114668Y0042752D01*
X0114586Y0042821D01*
X0114507Y0042893D01*
X0114431Y0042968D01*
X0114357Y0043046D01*
X0114286Y0043127D01*
X0114218Y0043210D01*
X0114154Y0043295D01*
X0114092Y0043383D01*
X0114034Y0043473D01*
X0113980Y0043565D01*
X0113928Y0043660D01*
X0113881Y0043756D01*
X0113836Y0043853D01*
X0113796Y0043952D01*
X0113759Y0044053D01*
X0113726Y0044155D01*
X0113697Y0044258D01*
X0113671Y0044362D01*
X0113649Y0044467D01*
X0113632Y0044573D01*
X0113618Y0044679D01*
X0113608Y0044786D01*
X0113602Y0044893D01*
X0113600Y0045000D01*
X0113600Y0055000D02*
X0113602Y0055107D01*
X0113608Y0055214D01*
X0113618Y0055321D01*
X0113632Y0055427D01*
X0113649Y0055533D01*
X0113671Y0055638D01*
X0113697Y0055742D01*
X0113726Y0055845D01*
X0113759Y0055947D01*
X0113796Y0056048D01*
X0113836Y0056147D01*
X0113881Y0056244D01*
X0113928Y0056340D01*
X0113980Y0056435D01*
X0114034Y0056527D01*
X0114092Y0056617D01*
X0114154Y0056705D01*
X0114218Y0056790D01*
X0114286Y0056873D01*
X0114357Y0056954D01*
X0114431Y0057032D01*
X0114507Y0057107D01*
X0114586Y0057179D01*
X0114668Y0057248D01*
X0114752Y0057314D01*
X0114839Y0057377D01*
X0114928Y0057437D01*
X0115019Y0057493D01*
X0115112Y0057546D01*
X0115207Y0057596D01*
X0115304Y0057642D01*
X0115403Y0057684D01*
X0115503Y0057723D01*
X0115604Y0057758D01*
X0115706Y0057789D01*
X0115810Y0057817D01*
X0115915Y0057840D01*
X0116020Y0057860D01*
X0116126Y0057876D01*
X0116232Y0057888D01*
X0116339Y0057896D01*
X0116446Y0057900D01*
X0116554Y0057900D01*
X0116661Y0057896D01*
X0116768Y0057888D01*
X0116874Y0057876D01*
X0116980Y0057860D01*
X0117085Y0057840D01*
X0117190Y0057817D01*
X0117294Y0057789D01*
X0117396Y0057758D01*
X0117497Y0057723D01*
X0117597Y0057684D01*
X0117696Y0057642D01*
X0117793Y0057596D01*
X0117888Y0057546D01*
X0117981Y0057493D01*
X0118072Y0057437D01*
X0118161Y0057377D01*
X0118248Y0057314D01*
X0118332Y0057248D01*
X0118414Y0057179D01*
X0118493Y0057107D01*
X0118569Y0057032D01*
X0118643Y0056954D01*
X0118714Y0056873D01*
X0118782Y0056790D01*
X0118846Y0056705D01*
X0118908Y0056617D01*
X0118966Y0056527D01*
X0119020Y0056435D01*
X0119072Y0056340D01*
X0119119Y0056244D01*
X0119164Y0056147D01*
X0119204Y0056048D01*
X0119241Y0055947D01*
X0119274Y0055845D01*
X0119303Y0055742D01*
X0119329Y0055638D01*
X0119351Y0055533D01*
X0119368Y0055427D01*
X0119382Y0055321D01*
X0119392Y0055214D01*
X0119398Y0055107D01*
X0119400Y0055000D01*
X0119398Y0054893D01*
X0119392Y0054786D01*
X0119382Y0054679D01*
X0119368Y0054573D01*
X0119351Y0054467D01*
X0119329Y0054362D01*
X0119303Y0054258D01*
X0119274Y0054155D01*
X0119241Y0054053D01*
X0119204Y0053952D01*
X0119164Y0053853D01*
X0119119Y0053756D01*
X0119072Y0053660D01*
X0119020Y0053565D01*
X0118966Y0053473D01*
X0118908Y0053383D01*
X0118846Y0053295D01*
X0118782Y0053210D01*
X0118714Y0053127D01*
X0118643Y0053046D01*
X0118569Y0052968D01*
X0118493Y0052893D01*
X0118414Y0052821D01*
X0118332Y0052752D01*
X0118248Y0052686D01*
X0118161Y0052623D01*
X0118072Y0052563D01*
X0117981Y0052507D01*
X0117888Y0052454D01*
X0117793Y0052404D01*
X0117696Y0052358D01*
X0117597Y0052316D01*
X0117497Y0052277D01*
X0117396Y0052242D01*
X0117294Y0052211D01*
X0117190Y0052183D01*
X0117085Y0052160D01*
X0116980Y0052140D01*
X0116874Y0052124D01*
X0116768Y0052112D01*
X0116661Y0052104D01*
X0116554Y0052100D01*
X0116446Y0052100D01*
X0116339Y0052104D01*
X0116232Y0052112D01*
X0116126Y0052124D01*
X0116020Y0052140D01*
X0115915Y0052160D01*
X0115810Y0052183D01*
X0115706Y0052211D01*
X0115604Y0052242D01*
X0115503Y0052277D01*
X0115403Y0052316D01*
X0115304Y0052358D01*
X0115207Y0052404D01*
X0115112Y0052454D01*
X0115019Y0052507D01*
X0114928Y0052563D01*
X0114839Y0052623D01*
X0114752Y0052686D01*
X0114668Y0052752D01*
X0114586Y0052821D01*
X0114507Y0052893D01*
X0114431Y0052968D01*
X0114357Y0053046D01*
X0114286Y0053127D01*
X0114218Y0053210D01*
X0114154Y0053295D01*
X0114092Y0053383D01*
X0114034Y0053473D01*
X0113980Y0053565D01*
X0113928Y0053660D01*
X0113881Y0053756D01*
X0113836Y0053853D01*
X0113796Y0053952D01*
X0113759Y0054053D01*
X0113726Y0054155D01*
X0113697Y0054258D01*
X0113671Y0054362D01*
X0113649Y0054467D01*
X0113632Y0054573D01*
X0113618Y0054679D01*
X0113608Y0054786D01*
X0113602Y0054893D01*
X0113600Y0055000D01*
X0023600Y0055000D02*
X0023602Y0055107D01*
X0023608Y0055214D01*
X0023618Y0055321D01*
X0023632Y0055427D01*
X0023649Y0055533D01*
X0023671Y0055638D01*
X0023697Y0055742D01*
X0023726Y0055845D01*
X0023759Y0055947D01*
X0023796Y0056048D01*
X0023836Y0056147D01*
X0023881Y0056244D01*
X0023928Y0056340D01*
X0023980Y0056435D01*
X0024034Y0056527D01*
X0024092Y0056617D01*
X0024154Y0056705D01*
X0024218Y0056790D01*
X0024286Y0056873D01*
X0024357Y0056954D01*
X0024431Y0057032D01*
X0024507Y0057107D01*
X0024586Y0057179D01*
X0024668Y0057248D01*
X0024752Y0057314D01*
X0024839Y0057377D01*
X0024928Y0057437D01*
X0025019Y0057493D01*
X0025112Y0057546D01*
X0025207Y0057596D01*
X0025304Y0057642D01*
X0025403Y0057684D01*
X0025503Y0057723D01*
X0025604Y0057758D01*
X0025706Y0057789D01*
X0025810Y0057817D01*
X0025915Y0057840D01*
X0026020Y0057860D01*
X0026126Y0057876D01*
X0026232Y0057888D01*
X0026339Y0057896D01*
X0026446Y0057900D01*
X0026554Y0057900D01*
X0026661Y0057896D01*
X0026768Y0057888D01*
X0026874Y0057876D01*
X0026980Y0057860D01*
X0027085Y0057840D01*
X0027190Y0057817D01*
X0027294Y0057789D01*
X0027396Y0057758D01*
X0027497Y0057723D01*
X0027597Y0057684D01*
X0027696Y0057642D01*
X0027793Y0057596D01*
X0027888Y0057546D01*
X0027981Y0057493D01*
X0028072Y0057437D01*
X0028161Y0057377D01*
X0028248Y0057314D01*
X0028332Y0057248D01*
X0028414Y0057179D01*
X0028493Y0057107D01*
X0028569Y0057032D01*
X0028643Y0056954D01*
X0028714Y0056873D01*
X0028782Y0056790D01*
X0028846Y0056705D01*
X0028908Y0056617D01*
X0028966Y0056527D01*
X0029020Y0056435D01*
X0029072Y0056340D01*
X0029119Y0056244D01*
X0029164Y0056147D01*
X0029204Y0056048D01*
X0029241Y0055947D01*
X0029274Y0055845D01*
X0029303Y0055742D01*
X0029329Y0055638D01*
X0029351Y0055533D01*
X0029368Y0055427D01*
X0029382Y0055321D01*
X0029392Y0055214D01*
X0029398Y0055107D01*
X0029400Y0055000D01*
X0029398Y0054893D01*
X0029392Y0054786D01*
X0029382Y0054679D01*
X0029368Y0054573D01*
X0029351Y0054467D01*
X0029329Y0054362D01*
X0029303Y0054258D01*
X0029274Y0054155D01*
X0029241Y0054053D01*
X0029204Y0053952D01*
X0029164Y0053853D01*
X0029119Y0053756D01*
X0029072Y0053660D01*
X0029020Y0053565D01*
X0028966Y0053473D01*
X0028908Y0053383D01*
X0028846Y0053295D01*
X0028782Y0053210D01*
X0028714Y0053127D01*
X0028643Y0053046D01*
X0028569Y0052968D01*
X0028493Y0052893D01*
X0028414Y0052821D01*
X0028332Y0052752D01*
X0028248Y0052686D01*
X0028161Y0052623D01*
X0028072Y0052563D01*
X0027981Y0052507D01*
X0027888Y0052454D01*
X0027793Y0052404D01*
X0027696Y0052358D01*
X0027597Y0052316D01*
X0027497Y0052277D01*
X0027396Y0052242D01*
X0027294Y0052211D01*
X0027190Y0052183D01*
X0027085Y0052160D01*
X0026980Y0052140D01*
X0026874Y0052124D01*
X0026768Y0052112D01*
X0026661Y0052104D01*
X0026554Y0052100D01*
X0026446Y0052100D01*
X0026339Y0052104D01*
X0026232Y0052112D01*
X0026126Y0052124D01*
X0026020Y0052140D01*
X0025915Y0052160D01*
X0025810Y0052183D01*
X0025706Y0052211D01*
X0025604Y0052242D01*
X0025503Y0052277D01*
X0025403Y0052316D01*
X0025304Y0052358D01*
X0025207Y0052404D01*
X0025112Y0052454D01*
X0025019Y0052507D01*
X0024928Y0052563D01*
X0024839Y0052623D01*
X0024752Y0052686D01*
X0024668Y0052752D01*
X0024586Y0052821D01*
X0024507Y0052893D01*
X0024431Y0052968D01*
X0024357Y0053046D01*
X0024286Y0053127D01*
X0024218Y0053210D01*
X0024154Y0053295D01*
X0024092Y0053383D01*
X0024034Y0053473D01*
X0023980Y0053565D01*
X0023928Y0053660D01*
X0023881Y0053756D01*
X0023836Y0053853D01*
X0023796Y0053952D01*
X0023759Y0054053D01*
X0023726Y0054155D01*
X0023697Y0054258D01*
X0023671Y0054362D01*
X0023649Y0054467D01*
X0023632Y0054573D01*
X0023618Y0054679D01*
X0023608Y0054786D01*
X0023602Y0054893D01*
X0023600Y0055000D01*
X0023600Y0045000D02*
X0023602Y0045107D01*
X0023608Y0045214D01*
X0023618Y0045321D01*
X0023632Y0045427D01*
X0023649Y0045533D01*
X0023671Y0045638D01*
X0023697Y0045742D01*
X0023726Y0045845D01*
X0023759Y0045947D01*
X0023796Y0046048D01*
X0023836Y0046147D01*
X0023881Y0046244D01*
X0023928Y0046340D01*
X0023980Y0046435D01*
X0024034Y0046527D01*
X0024092Y0046617D01*
X0024154Y0046705D01*
X0024218Y0046790D01*
X0024286Y0046873D01*
X0024357Y0046954D01*
X0024431Y0047032D01*
X0024507Y0047107D01*
X0024586Y0047179D01*
X0024668Y0047248D01*
X0024752Y0047314D01*
X0024839Y0047377D01*
X0024928Y0047437D01*
X0025019Y0047493D01*
X0025112Y0047546D01*
X0025207Y0047596D01*
X0025304Y0047642D01*
X0025403Y0047684D01*
X0025503Y0047723D01*
X0025604Y0047758D01*
X0025706Y0047789D01*
X0025810Y0047817D01*
X0025915Y0047840D01*
X0026020Y0047860D01*
X0026126Y0047876D01*
X0026232Y0047888D01*
X0026339Y0047896D01*
X0026446Y0047900D01*
X0026554Y0047900D01*
X0026661Y0047896D01*
X0026768Y0047888D01*
X0026874Y0047876D01*
X0026980Y0047860D01*
X0027085Y0047840D01*
X0027190Y0047817D01*
X0027294Y0047789D01*
X0027396Y0047758D01*
X0027497Y0047723D01*
X0027597Y0047684D01*
X0027696Y0047642D01*
X0027793Y0047596D01*
X0027888Y0047546D01*
X0027981Y0047493D01*
X0028072Y0047437D01*
X0028161Y0047377D01*
X0028248Y0047314D01*
X0028332Y0047248D01*
X0028414Y0047179D01*
X0028493Y0047107D01*
X0028569Y0047032D01*
X0028643Y0046954D01*
X0028714Y0046873D01*
X0028782Y0046790D01*
X0028846Y0046705D01*
X0028908Y0046617D01*
X0028966Y0046527D01*
X0029020Y0046435D01*
X0029072Y0046340D01*
X0029119Y0046244D01*
X0029164Y0046147D01*
X0029204Y0046048D01*
X0029241Y0045947D01*
X0029274Y0045845D01*
X0029303Y0045742D01*
X0029329Y0045638D01*
X0029351Y0045533D01*
X0029368Y0045427D01*
X0029382Y0045321D01*
X0029392Y0045214D01*
X0029398Y0045107D01*
X0029400Y0045000D01*
X0029398Y0044893D01*
X0029392Y0044786D01*
X0029382Y0044679D01*
X0029368Y0044573D01*
X0029351Y0044467D01*
X0029329Y0044362D01*
X0029303Y0044258D01*
X0029274Y0044155D01*
X0029241Y0044053D01*
X0029204Y0043952D01*
X0029164Y0043853D01*
X0029119Y0043756D01*
X0029072Y0043660D01*
X0029020Y0043565D01*
X0028966Y0043473D01*
X0028908Y0043383D01*
X0028846Y0043295D01*
X0028782Y0043210D01*
X0028714Y0043127D01*
X0028643Y0043046D01*
X0028569Y0042968D01*
X0028493Y0042893D01*
X0028414Y0042821D01*
X0028332Y0042752D01*
X0028248Y0042686D01*
X0028161Y0042623D01*
X0028072Y0042563D01*
X0027981Y0042507D01*
X0027888Y0042454D01*
X0027793Y0042404D01*
X0027696Y0042358D01*
X0027597Y0042316D01*
X0027497Y0042277D01*
X0027396Y0042242D01*
X0027294Y0042211D01*
X0027190Y0042183D01*
X0027085Y0042160D01*
X0026980Y0042140D01*
X0026874Y0042124D01*
X0026768Y0042112D01*
X0026661Y0042104D01*
X0026554Y0042100D01*
X0026446Y0042100D01*
X0026339Y0042104D01*
X0026232Y0042112D01*
X0026126Y0042124D01*
X0026020Y0042140D01*
X0025915Y0042160D01*
X0025810Y0042183D01*
X0025706Y0042211D01*
X0025604Y0042242D01*
X0025503Y0042277D01*
X0025403Y0042316D01*
X0025304Y0042358D01*
X0025207Y0042404D01*
X0025112Y0042454D01*
X0025019Y0042507D01*
X0024928Y0042563D01*
X0024839Y0042623D01*
X0024752Y0042686D01*
X0024668Y0042752D01*
X0024586Y0042821D01*
X0024507Y0042893D01*
X0024431Y0042968D01*
X0024357Y0043046D01*
X0024286Y0043127D01*
X0024218Y0043210D01*
X0024154Y0043295D01*
X0024092Y0043383D01*
X0024034Y0043473D01*
X0023980Y0043565D01*
X0023928Y0043660D01*
X0023881Y0043756D01*
X0023836Y0043853D01*
X0023796Y0043952D01*
X0023759Y0044053D01*
X0023726Y0044155D01*
X0023697Y0044258D01*
X0023671Y0044362D01*
X0023649Y0044467D01*
X0023632Y0044573D01*
X0023618Y0044679D01*
X0023608Y0044786D01*
X0023602Y0044893D01*
X0023600Y0045000D01*
X0022228Y0159094D02*
X0022230Y0159178D01*
X0022236Y0159261D01*
X0022246Y0159344D01*
X0022260Y0159427D01*
X0022277Y0159509D01*
X0022299Y0159590D01*
X0022324Y0159669D01*
X0022353Y0159748D01*
X0022386Y0159825D01*
X0022422Y0159900D01*
X0022462Y0159974D01*
X0022505Y0160046D01*
X0022552Y0160115D01*
X0022602Y0160182D01*
X0022655Y0160247D01*
X0022711Y0160309D01*
X0022769Y0160369D01*
X0022831Y0160426D01*
X0022895Y0160479D01*
X0022962Y0160530D01*
X0023031Y0160577D01*
X0023102Y0160622D01*
X0023175Y0160662D01*
X0023250Y0160699D01*
X0023327Y0160733D01*
X0023405Y0160763D01*
X0023484Y0160789D01*
X0023565Y0160812D01*
X0023647Y0160830D01*
X0023729Y0160845D01*
X0023812Y0160856D01*
X0023895Y0160863D01*
X0023979Y0160866D01*
X0024063Y0160865D01*
X0024146Y0160860D01*
X0024230Y0160851D01*
X0024312Y0160838D01*
X0024394Y0160822D01*
X0024475Y0160801D01*
X0024556Y0160777D01*
X0024634Y0160749D01*
X0024712Y0160717D01*
X0024788Y0160681D01*
X0024862Y0160642D01*
X0024934Y0160600D01*
X0025004Y0160554D01*
X0025072Y0160505D01*
X0025137Y0160453D01*
X0025200Y0160398D01*
X0025260Y0160340D01*
X0025318Y0160279D01*
X0025372Y0160215D01*
X0025424Y0160149D01*
X0025472Y0160081D01*
X0025517Y0160010D01*
X0025558Y0159937D01*
X0025597Y0159863D01*
X0025631Y0159787D01*
X0025662Y0159709D01*
X0025689Y0159630D01*
X0025713Y0159549D01*
X0025732Y0159468D01*
X0025748Y0159386D01*
X0025760Y0159303D01*
X0025768Y0159219D01*
X0025772Y0159136D01*
X0025772Y0159052D01*
X0025768Y0158969D01*
X0025760Y0158885D01*
X0025748Y0158802D01*
X0025732Y0158720D01*
X0025713Y0158639D01*
X0025689Y0158558D01*
X0025662Y0158479D01*
X0025631Y0158401D01*
X0025597Y0158325D01*
X0025558Y0158251D01*
X0025517Y0158178D01*
X0025472Y0158107D01*
X0025424Y0158039D01*
X0025372Y0157973D01*
X0025318Y0157909D01*
X0025260Y0157848D01*
X0025200Y0157790D01*
X0025137Y0157735D01*
X0025072Y0157683D01*
X0025004Y0157634D01*
X0024934Y0157588D01*
X0024862Y0157546D01*
X0024788Y0157507D01*
X0024712Y0157471D01*
X0024634Y0157439D01*
X0024556Y0157411D01*
X0024475Y0157387D01*
X0024394Y0157366D01*
X0024312Y0157350D01*
X0024230Y0157337D01*
X0024146Y0157328D01*
X0024063Y0157323D01*
X0023979Y0157322D01*
X0023895Y0157325D01*
X0023812Y0157332D01*
X0023729Y0157343D01*
X0023647Y0157358D01*
X0023565Y0157376D01*
X0023484Y0157399D01*
X0023405Y0157425D01*
X0023327Y0157455D01*
X0023250Y0157489D01*
X0023175Y0157526D01*
X0023102Y0157566D01*
X0023031Y0157611D01*
X0022962Y0157658D01*
X0022895Y0157709D01*
X0022831Y0157762D01*
X0022769Y0157819D01*
X0022711Y0157879D01*
X0022655Y0157941D01*
X0022602Y0158006D01*
X0022552Y0158073D01*
X0022505Y0158142D01*
X0022462Y0158214D01*
X0022422Y0158288D01*
X0022386Y0158363D01*
X0022353Y0158440D01*
X0022324Y0158519D01*
X0022299Y0158598D01*
X0022277Y0158679D01*
X0022260Y0158761D01*
X0022246Y0158844D01*
X0022236Y0158927D01*
X0022230Y0159010D01*
X0022228Y0159094D01*
X0022228Y0170906D02*
X0022230Y0170990D01*
X0022236Y0171073D01*
X0022246Y0171156D01*
X0022260Y0171239D01*
X0022277Y0171321D01*
X0022299Y0171402D01*
X0022324Y0171481D01*
X0022353Y0171560D01*
X0022386Y0171637D01*
X0022422Y0171712D01*
X0022462Y0171786D01*
X0022505Y0171858D01*
X0022552Y0171927D01*
X0022602Y0171994D01*
X0022655Y0172059D01*
X0022711Y0172121D01*
X0022769Y0172181D01*
X0022831Y0172238D01*
X0022895Y0172291D01*
X0022962Y0172342D01*
X0023031Y0172389D01*
X0023102Y0172434D01*
X0023175Y0172474D01*
X0023250Y0172511D01*
X0023327Y0172545D01*
X0023405Y0172575D01*
X0023484Y0172601D01*
X0023565Y0172624D01*
X0023647Y0172642D01*
X0023729Y0172657D01*
X0023812Y0172668D01*
X0023895Y0172675D01*
X0023979Y0172678D01*
X0024063Y0172677D01*
X0024146Y0172672D01*
X0024230Y0172663D01*
X0024312Y0172650D01*
X0024394Y0172634D01*
X0024475Y0172613D01*
X0024556Y0172589D01*
X0024634Y0172561D01*
X0024712Y0172529D01*
X0024788Y0172493D01*
X0024862Y0172454D01*
X0024934Y0172412D01*
X0025004Y0172366D01*
X0025072Y0172317D01*
X0025137Y0172265D01*
X0025200Y0172210D01*
X0025260Y0172152D01*
X0025318Y0172091D01*
X0025372Y0172027D01*
X0025424Y0171961D01*
X0025472Y0171893D01*
X0025517Y0171822D01*
X0025558Y0171749D01*
X0025597Y0171675D01*
X0025631Y0171599D01*
X0025662Y0171521D01*
X0025689Y0171442D01*
X0025713Y0171361D01*
X0025732Y0171280D01*
X0025748Y0171198D01*
X0025760Y0171115D01*
X0025768Y0171031D01*
X0025772Y0170948D01*
X0025772Y0170864D01*
X0025768Y0170781D01*
X0025760Y0170697D01*
X0025748Y0170614D01*
X0025732Y0170532D01*
X0025713Y0170451D01*
X0025689Y0170370D01*
X0025662Y0170291D01*
X0025631Y0170213D01*
X0025597Y0170137D01*
X0025558Y0170063D01*
X0025517Y0169990D01*
X0025472Y0169919D01*
X0025424Y0169851D01*
X0025372Y0169785D01*
X0025318Y0169721D01*
X0025260Y0169660D01*
X0025200Y0169602D01*
X0025137Y0169547D01*
X0025072Y0169495D01*
X0025004Y0169446D01*
X0024934Y0169400D01*
X0024862Y0169358D01*
X0024788Y0169319D01*
X0024712Y0169283D01*
X0024634Y0169251D01*
X0024556Y0169223D01*
X0024475Y0169199D01*
X0024394Y0169178D01*
X0024312Y0169162D01*
X0024230Y0169149D01*
X0024146Y0169140D01*
X0024063Y0169135D01*
X0023979Y0169134D01*
X0023895Y0169137D01*
X0023812Y0169144D01*
X0023729Y0169155D01*
X0023647Y0169170D01*
X0023565Y0169188D01*
X0023484Y0169211D01*
X0023405Y0169237D01*
X0023327Y0169267D01*
X0023250Y0169301D01*
X0023175Y0169338D01*
X0023102Y0169378D01*
X0023031Y0169423D01*
X0022962Y0169470D01*
X0022895Y0169521D01*
X0022831Y0169574D01*
X0022769Y0169631D01*
X0022711Y0169691D01*
X0022655Y0169753D01*
X0022602Y0169818D01*
X0022552Y0169885D01*
X0022505Y0169954D01*
X0022462Y0170026D01*
X0022422Y0170100D01*
X0022386Y0170175D01*
X0022353Y0170252D01*
X0022324Y0170331D01*
X0022299Y0170410D01*
X0022277Y0170491D01*
X0022260Y0170573D01*
X0022246Y0170656D01*
X0022236Y0170739D01*
X0022230Y0170822D01*
X0022228Y0170906D01*
X0039518Y0207500D02*
X0039520Y0207584D01*
X0039526Y0207667D01*
X0039536Y0207750D01*
X0039550Y0207833D01*
X0039567Y0207915D01*
X0039589Y0207996D01*
X0039614Y0208075D01*
X0039643Y0208154D01*
X0039676Y0208231D01*
X0039712Y0208306D01*
X0039752Y0208380D01*
X0039795Y0208452D01*
X0039842Y0208521D01*
X0039892Y0208588D01*
X0039945Y0208653D01*
X0040001Y0208715D01*
X0040059Y0208775D01*
X0040121Y0208832D01*
X0040185Y0208885D01*
X0040252Y0208936D01*
X0040321Y0208983D01*
X0040392Y0209028D01*
X0040465Y0209068D01*
X0040540Y0209105D01*
X0040617Y0209139D01*
X0040695Y0209169D01*
X0040774Y0209195D01*
X0040855Y0209218D01*
X0040937Y0209236D01*
X0041019Y0209251D01*
X0041102Y0209262D01*
X0041185Y0209269D01*
X0041269Y0209272D01*
X0041353Y0209271D01*
X0041436Y0209266D01*
X0041520Y0209257D01*
X0041602Y0209244D01*
X0041684Y0209228D01*
X0041765Y0209207D01*
X0041846Y0209183D01*
X0041924Y0209155D01*
X0042002Y0209123D01*
X0042078Y0209087D01*
X0042152Y0209048D01*
X0042224Y0209006D01*
X0042294Y0208960D01*
X0042362Y0208911D01*
X0042427Y0208859D01*
X0042490Y0208804D01*
X0042550Y0208746D01*
X0042608Y0208685D01*
X0042662Y0208621D01*
X0042714Y0208555D01*
X0042762Y0208487D01*
X0042807Y0208416D01*
X0042848Y0208343D01*
X0042887Y0208269D01*
X0042921Y0208193D01*
X0042952Y0208115D01*
X0042979Y0208036D01*
X0043003Y0207955D01*
X0043022Y0207874D01*
X0043038Y0207792D01*
X0043050Y0207709D01*
X0043058Y0207625D01*
X0043062Y0207542D01*
X0043062Y0207458D01*
X0043058Y0207375D01*
X0043050Y0207291D01*
X0043038Y0207208D01*
X0043022Y0207126D01*
X0043003Y0207045D01*
X0042979Y0206964D01*
X0042952Y0206885D01*
X0042921Y0206807D01*
X0042887Y0206731D01*
X0042848Y0206657D01*
X0042807Y0206584D01*
X0042762Y0206513D01*
X0042714Y0206445D01*
X0042662Y0206379D01*
X0042608Y0206315D01*
X0042550Y0206254D01*
X0042490Y0206196D01*
X0042427Y0206141D01*
X0042362Y0206089D01*
X0042294Y0206040D01*
X0042224Y0205994D01*
X0042152Y0205952D01*
X0042078Y0205913D01*
X0042002Y0205877D01*
X0041924Y0205845D01*
X0041846Y0205817D01*
X0041765Y0205793D01*
X0041684Y0205772D01*
X0041602Y0205756D01*
X0041520Y0205743D01*
X0041436Y0205734D01*
X0041353Y0205729D01*
X0041269Y0205728D01*
X0041185Y0205731D01*
X0041102Y0205738D01*
X0041019Y0205749D01*
X0040937Y0205764D01*
X0040855Y0205782D01*
X0040774Y0205805D01*
X0040695Y0205831D01*
X0040617Y0205861D01*
X0040540Y0205895D01*
X0040465Y0205932D01*
X0040392Y0205972D01*
X0040321Y0206017D01*
X0040252Y0206064D01*
X0040185Y0206115D01*
X0040121Y0206168D01*
X0040059Y0206225D01*
X0040001Y0206285D01*
X0039945Y0206347D01*
X0039892Y0206412D01*
X0039842Y0206479D01*
X0039795Y0206548D01*
X0039752Y0206620D01*
X0039712Y0206694D01*
X0039676Y0206769D01*
X0039643Y0206846D01*
X0039614Y0206925D01*
X0039589Y0207004D01*
X0039567Y0207085D01*
X0039550Y0207167D01*
X0039536Y0207250D01*
X0039526Y0207333D01*
X0039520Y0207416D01*
X0039518Y0207500D01*
X0051329Y0207500D02*
X0051331Y0207584D01*
X0051337Y0207667D01*
X0051347Y0207750D01*
X0051361Y0207833D01*
X0051378Y0207915D01*
X0051400Y0207996D01*
X0051425Y0208075D01*
X0051454Y0208154D01*
X0051487Y0208231D01*
X0051523Y0208306D01*
X0051563Y0208380D01*
X0051606Y0208452D01*
X0051653Y0208521D01*
X0051703Y0208588D01*
X0051756Y0208653D01*
X0051812Y0208715D01*
X0051870Y0208775D01*
X0051932Y0208832D01*
X0051996Y0208885D01*
X0052063Y0208936D01*
X0052132Y0208983D01*
X0052203Y0209028D01*
X0052276Y0209068D01*
X0052351Y0209105D01*
X0052428Y0209139D01*
X0052506Y0209169D01*
X0052585Y0209195D01*
X0052666Y0209218D01*
X0052748Y0209236D01*
X0052830Y0209251D01*
X0052913Y0209262D01*
X0052996Y0209269D01*
X0053080Y0209272D01*
X0053164Y0209271D01*
X0053247Y0209266D01*
X0053331Y0209257D01*
X0053413Y0209244D01*
X0053495Y0209228D01*
X0053576Y0209207D01*
X0053657Y0209183D01*
X0053735Y0209155D01*
X0053813Y0209123D01*
X0053889Y0209087D01*
X0053963Y0209048D01*
X0054035Y0209006D01*
X0054105Y0208960D01*
X0054173Y0208911D01*
X0054238Y0208859D01*
X0054301Y0208804D01*
X0054361Y0208746D01*
X0054419Y0208685D01*
X0054473Y0208621D01*
X0054525Y0208555D01*
X0054573Y0208487D01*
X0054618Y0208416D01*
X0054659Y0208343D01*
X0054698Y0208269D01*
X0054732Y0208193D01*
X0054763Y0208115D01*
X0054790Y0208036D01*
X0054814Y0207955D01*
X0054833Y0207874D01*
X0054849Y0207792D01*
X0054861Y0207709D01*
X0054869Y0207625D01*
X0054873Y0207542D01*
X0054873Y0207458D01*
X0054869Y0207375D01*
X0054861Y0207291D01*
X0054849Y0207208D01*
X0054833Y0207126D01*
X0054814Y0207045D01*
X0054790Y0206964D01*
X0054763Y0206885D01*
X0054732Y0206807D01*
X0054698Y0206731D01*
X0054659Y0206657D01*
X0054618Y0206584D01*
X0054573Y0206513D01*
X0054525Y0206445D01*
X0054473Y0206379D01*
X0054419Y0206315D01*
X0054361Y0206254D01*
X0054301Y0206196D01*
X0054238Y0206141D01*
X0054173Y0206089D01*
X0054105Y0206040D01*
X0054035Y0205994D01*
X0053963Y0205952D01*
X0053889Y0205913D01*
X0053813Y0205877D01*
X0053735Y0205845D01*
X0053657Y0205817D01*
X0053576Y0205793D01*
X0053495Y0205772D01*
X0053413Y0205756D01*
X0053331Y0205743D01*
X0053247Y0205734D01*
X0053164Y0205729D01*
X0053080Y0205728D01*
X0052996Y0205731D01*
X0052913Y0205738D01*
X0052830Y0205749D01*
X0052748Y0205764D01*
X0052666Y0205782D01*
X0052585Y0205805D01*
X0052506Y0205831D01*
X0052428Y0205861D01*
X0052351Y0205895D01*
X0052276Y0205932D01*
X0052203Y0205972D01*
X0052132Y0206017D01*
X0052063Y0206064D01*
X0051996Y0206115D01*
X0051932Y0206168D01*
X0051870Y0206225D01*
X0051812Y0206285D01*
X0051756Y0206347D01*
X0051703Y0206412D01*
X0051653Y0206479D01*
X0051606Y0206548D01*
X0051563Y0206620D01*
X0051523Y0206694D01*
X0051487Y0206769D01*
X0051454Y0206846D01*
X0051425Y0206925D01*
X0051400Y0207004D01*
X0051378Y0207085D01*
X0051361Y0207167D01*
X0051347Y0207250D01*
X0051337Y0207333D01*
X0051331Y0207416D01*
X0051329Y0207500D01*
D13*
X0026500Y0055000D03*
X0026500Y0045000D03*
X0116500Y0045000D03*
X0116500Y0055000D03*
D14*
X0111500Y0145000D03*
X0121500Y0145000D03*
X0131500Y0145000D03*
X0141500Y0145000D03*
X0151500Y0145000D03*
X0161500Y0145000D03*
X0171500Y0145000D03*
X0181500Y0145000D03*
X0191500Y0145000D03*
X0191500Y0175000D03*
X0181500Y0175000D03*
X0171500Y0175000D03*
X0161500Y0175000D03*
X0151500Y0175000D03*
X0141500Y0175000D03*
X0131500Y0175000D03*
X0121500Y0175000D03*
X0111500Y0175000D03*
X0101500Y0175000D03*
X0091500Y0175000D03*
X0081500Y0175000D03*
X0081500Y0145000D03*
X0091500Y0145000D03*
X0101500Y0145000D03*
D15*
X0096863Y0143597D02*
X0096829Y0143714D01*
X0096798Y0143832D01*
X0096770Y0143951D01*
X0096745Y0144071D01*
X0096723Y0144191D01*
X0096723Y0144190D02*
X0091500Y0175000D01*
X0111500Y0175000D02*
X0116289Y0145785D01*
X0116332Y0144560D02*
X0113231Y0110514D01*
X0113232Y0110513D02*
X0113230Y0110491D01*
X0113230Y0110468D01*
X0108278Y0105890D02*
X0108296Y0105836D01*
X0108316Y0105783D01*
X0108338Y0105730D01*
X0108339Y0105731D02*
X0110815Y0100262D01*
X0110908Y0100123D02*
X0110917Y0100115D01*
X0110908Y0100124D02*
X0110880Y0100156D01*
X0110855Y0100189D01*
X0110833Y0100225D01*
X0110814Y0100263D01*
X0106752Y0098989D02*
X0111982Y0073088D01*
X0112410Y0071876D02*
X0116500Y0064000D01*
X0108624Y0059910D01*
X0108294Y0059755D02*
X0104708Y0058239D01*
X0103604Y0057576D02*
X0091732Y0047961D01*
X0089550Y0046393D02*
X0089602Y0046324D01*
X0089655Y0046257D01*
X0089711Y0046191D01*
X0103037Y0030969D01*
X0106147Y0029411D02*
X0116853Y0028589D01*
X0118016Y0028345D02*
X0145109Y0018891D01*
X0145487Y0018654D02*
X0145516Y0018621D01*
X0145543Y0018587D01*
X0145566Y0018550D01*
X0145586Y0018511D01*
X0145603Y0018471D01*
X0145616Y0018429D01*
X0145625Y0018387D01*
X0145631Y0018344D01*
X0145633Y0018300D01*
X0145487Y0018653D02*
X0145446Y0018692D01*
X0145403Y0018728D01*
X0145358Y0018762D01*
X0145312Y0018793D01*
X0145263Y0018821D01*
X0145213Y0018847D01*
X0145162Y0018870D01*
X0145110Y0018890D01*
X0151068Y0013309D02*
X0151049Y0013242D01*
X0151026Y0013175D01*
X0151000Y0013110D01*
X0150970Y0013047D01*
X0150937Y0012985D01*
X0150901Y0012925D01*
X0150862Y0012867D01*
X0150819Y0012811D01*
X0150774Y0012758D01*
X0150725Y0012707D01*
X0150726Y0012707D02*
X0148793Y0010774D01*
X0147867Y0010391D02*
X0145133Y0010391D01*
X0145133Y0010391D01*
X0125133Y0010398D01*
X0124575Y0010524D02*
X0108471Y0018158D01*
X0108299Y0018235D02*
X0104701Y0019765D01*
X0103247Y0020745D02*
X0098353Y0025635D01*
X0097750Y0026088D02*
X0086411Y0032330D01*
X0097750Y0026088D02*
X0097832Y0026041D01*
X0097912Y0025991D01*
X0097991Y0025938D01*
X0098067Y0025883D01*
X0098142Y0025825D01*
X0098215Y0025764D01*
X0098285Y0025701D01*
X0098353Y0025635D01*
X0103247Y0020745D02*
X0103337Y0020657D01*
X0103430Y0020572D01*
X0103525Y0020489D01*
X0103622Y0020409D01*
X0103722Y0020331D01*
X0103823Y0020257D01*
X0103927Y0020185D01*
X0104032Y0020116D01*
X0104139Y0020050D01*
X0104249Y0019986D01*
X0104359Y0019926D01*
X0104472Y0019869D01*
X0104585Y0019815D01*
X0104701Y0019764D01*
X0108299Y0018236D02*
X0108385Y0018198D01*
X0108471Y0018159D01*
X0116853Y0028588D02*
X0116985Y0028576D01*
X0117116Y0028560D01*
X0117247Y0028541D01*
X0117378Y0028517D01*
X0117507Y0028490D01*
X0117636Y0028459D01*
X0117764Y0028425D01*
X0117891Y0028387D01*
X0118016Y0028345D01*
X0106147Y0029412D02*
X0106016Y0029424D01*
X0105885Y0029439D01*
X0105754Y0029459D01*
X0105624Y0029482D01*
X0105495Y0029509D01*
X0105366Y0029540D01*
X0105239Y0029574D01*
X0105112Y0029612D01*
X0104987Y0029654D01*
X0104863Y0029699D01*
X0104740Y0029748D01*
X0104619Y0029800D01*
X0104499Y0029856D01*
X0104381Y0029915D01*
X0104264Y0029977D01*
X0104150Y0030043D01*
X0104037Y0030112D01*
X0103927Y0030185D01*
X0103818Y0030260D01*
X0103712Y0030339D01*
X0103608Y0030420D01*
X0103507Y0030505D01*
X0103408Y0030592D01*
X0103311Y0030682D01*
X0103217Y0030775D01*
X0103126Y0030870D01*
X0103037Y0030969D01*
X0089550Y0046393D02*
X0086537Y0050586D01*
X0086215Y0051179D02*
X0037984Y0174987D01*
X0096863Y0143596D02*
X0108279Y0105891D01*
X0104185Y0104738D02*
X0106661Y0099270D01*
X0106661Y0099269D02*
X0106684Y0099215D01*
X0106705Y0099159D01*
X0106723Y0099103D01*
X0106738Y0099046D01*
X0106751Y0098988D01*
X0104185Y0104737D02*
X0104169Y0104770D01*
X0104151Y0104801D01*
X0104131Y0104830D01*
X0104108Y0104858D01*
X0104083Y0104885D01*
X0118342Y0099276D02*
X0120917Y0104885D01*
X0118342Y0099276D02*
X0118316Y0099214D01*
X0118292Y0099151D01*
X0118272Y0099086D01*
X0118256Y0099021D01*
X0118242Y0098955D01*
X0118233Y0098888D01*
X0118226Y0098821D01*
X0118226Y0098820D02*
X0116500Y0074000D01*
X0112410Y0071876D02*
X0112352Y0071991D01*
X0112297Y0072108D01*
X0112246Y0072226D01*
X0112198Y0072346D01*
X0112153Y0072467D01*
X0112112Y0072589D01*
X0112075Y0072712D01*
X0112040Y0072837D01*
X0112009Y0072962D01*
X0111982Y0073088D01*
X0108624Y0059910D02*
X0108516Y0059855D01*
X0108406Y0059804D01*
X0108295Y0059755D01*
X0104709Y0058239D02*
X0104590Y0058187D01*
X0104473Y0058131D01*
X0104358Y0058073D01*
X0104245Y0058011D01*
X0104133Y0057946D01*
X0104023Y0057878D01*
X0103915Y0057807D01*
X0103809Y0057733D01*
X0103705Y0057656D01*
X0103604Y0057576D01*
X0086537Y0050586D02*
X0086482Y0050666D01*
X0086430Y0050747D01*
X0086381Y0050830D01*
X0086335Y0050915D01*
X0086292Y0051002D01*
X0086252Y0051090D01*
X0086215Y0051179D01*
X0071293Y0052075D02*
X0072011Y0062394D01*
X0031108Y0063901D02*
X0030701Y0044910D01*
X0030383Y0043395D02*
X0026500Y0034000D01*
X0030383Y0043395D02*
X0030427Y0043506D01*
X0030468Y0043619D01*
X0030506Y0043732D01*
X0030541Y0043847D01*
X0030572Y0043963D01*
X0030600Y0044079D01*
X0030624Y0044196D01*
X0030646Y0044314D01*
X0030663Y0044432D01*
X0030678Y0044551D01*
X0030689Y0044671D01*
X0030697Y0044790D01*
X0030701Y0044910D01*
X0049474Y0030822D02*
X0054502Y0028548D01*
X0031108Y0063901D02*
X0031109Y0064029D01*
X0031106Y0064157D01*
X0031100Y0064285D01*
X0031090Y0064413D01*
X0031077Y0064541D01*
X0031060Y0064668D01*
X0031040Y0064794D01*
X0031016Y0064920D01*
X0030989Y0065045D01*
X0030958Y0065170D01*
X0030924Y0065293D01*
X0030886Y0065416D01*
X0030845Y0065537D01*
X0030801Y0065657D01*
X0030753Y0065776D01*
X0030702Y0065894D01*
X0030648Y0066010D01*
X0030590Y0066124D01*
X0026500Y0074000D01*
X0123606Y0047930D02*
X0125663Y0092517D01*
X0127665Y0090900D02*
X0138067Y0057229D01*
X0138146Y0056906D02*
X0138960Y0052328D01*
X0142329Y0051148D02*
X0129403Y0091405D01*
X0129556Y0093424D02*
X0129880Y0094075D01*
X0130151Y0094737D02*
X0146111Y0143490D01*
X0146352Y0144952D02*
X0146648Y0175048D01*
X0146678Y0175545D02*
X0149630Y0201644D01*
X0149632Y0201672D01*
X0149633Y0201700D01*
X0139630Y0201644D02*
X0136678Y0175545D01*
X0136648Y0175048D02*
X0136352Y0144952D01*
X0136292Y0144234D02*
X0128548Y0095778D01*
X0128260Y0094881D02*
X0127936Y0094230D01*
X0126317Y0095036D02*
X0126641Y0095687D01*
X0126778Y0096270D02*
X0126778Y0108730D01*
X0126778Y0108734D01*
X0126648Y0144983D01*
X0126648Y0145000D01*
X0126648Y0175000D01*
X0126678Y0175545D02*
X0129630Y0201644D01*
X0129632Y0201672D01*
X0129633Y0201700D01*
X0139630Y0201644D02*
X0139632Y0201672D01*
X0139633Y0201700D01*
X0136679Y0175545D02*
X0136666Y0175421D01*
X0136657Y0175297D01*
X0136651Y0175172D01*
X0136648Y0175048D01*
X0126679Y0175545D02*
X0126665Y0175409D01*
X0126656Y0175273D01*
X0126650Y0175136D01*
X0126648Y0175000D01*
X0146648Y0175048D02*
X0146651Y0175172D01*
X0146657Y0175297D01*
X0146666Y0175421D01*
X0146679Y0175545D01*
X0146352Y0144953D02*
X0146349Y0144817D01*
X0146342Y0144682D01*
X0146331Y0144548D01*
X0146316Y0144413D01*
X0146298Y0144279D01*
X0146276Y0144146D01*
X0146251Y0144013D01*
X0146221Y0143881D01*
X0146188Y0143750D01*
X0146152Y0143620D01*
X0146111Y0143491D01*
X0136293Y0144234D02*
X0136310Y0144353D01*
X0136324Y0144473D01*
X0136336Y0144592D01*
X0136345Y0144712D01*
X0136350Y0144832D01*
X0136353Y0144953D01*
X0116332Y0144560D02*
X0116342Y0144696D01*
X0116349Y0144833D01*
X0116352Y0144969D01*
X0116351Y0145106D01*
X0116346Y0145242D01*
X0116337Y0145378D01*
X0116325Y0145514D01*
X0116308Y0145650D01*
X0116288Y0145785D01*
X0130151Y0094737D02*
X0130113Y0094624D01*
X0130071Y0094512D01*
X0130027Y0094401D01*
X0129981Y0094291D01*
X0129931Y0094182D01*
X0129879Y0094075D01*
X0127936Y0094230D02*
X0127879Y0094111D01*
X0127826Y0093991D01*
X0127776Y0093869D01*
X0127729Y0093746D01*
X0127687Y0093621D01*
X0127648Y0093496D01*
X0127612Y0093369D01*
X0127581Y0093241D01*
X0127553Y0093112D01*
X0127529Y0092983D01*
X0127509Y0092853D01*
X0127492Y0092722D01*
X0127480Y0092591D01*
X0127471Y0092460D01*
X0127466Y0092328D01*
X0127465Y0092196D01*
X0127468Y0092065D01*
X0127475Y0091933D01*
X0127485Y0091802D01*
X0127500Y0091671D01*
X0127518Y0091541D01*
X0127540Y0091411D01*
X0127566Y0091282D01*
X0127595Y0091153D01*
X0127628Y0091026D01*
X0127665Y0090900D01*
X0125663Y0092518D02*
X0125672Y0092672D01*
X0125684Y0092825D01*
X0125701Y0092979D01*
X0125721Y0093132D01*
X0125745Y0093284D01*
X0125773Y0093436D01*
X0125804Y0093586D01*
X0125839Y0093737D01*
X0125878Y0093886D01*
X0125921Y0094034D01*
X0125967Y0094181D01*
X0126016Y0094327D01*
X0126069Y0094472D01*
X0126126Y0094615D01*
X0126186Y0094757D01*
X0126250Y0094898D01*
X0126317Y0095037D01*
X0126640Y0095687D02*
X0126668Y0095748D01*
X0126694Y0095810D01*
X0126716Y0095874D01*
X0126734Y0095938D01*
X0126750Y0096004D01*
X0126762Y0096070D01*
X0126770Y0096136D01*
X0126775Y0096203D01*
X0126777Y0096270D01*
X0128548Y0095778D02*
X0128529Y0095675D01*
X0128508Y0095572D01*
X0128482Y0095470D01*
X0128454Y0095369D01*
X0128422Y0095269D01*
X0128386Y0095170D01*
X0128347Y0095072D01*
X0128305Y0094976D01*
X0128260Y0094881D01*
X0129555Y0093424D02*
X0129513Y0093335D01*
X0129474Y0093244D01*
X0129438Y0093152D01*
X0129406Y0093059D01*
X0129377Y0092964D01*
X0129352Y0092869D01*
X0129330Y0092772D01*
X0129312Y0092675D01*
X0129297Y0092577D01*
X0129286Y0092479D01*
X0129278Y0092380D01*
X0129275Y0092282D01*
X0129274Y0092183D01*
X0129278Y0092084D01*
X0129285Y0091985D01*
X0129296Y0091887D01*
X0129310Y0091789D01*
X0129328Y0091692D01*
X0129349Y0091596D01*
X0129374Y0091500D01*
X0129403Y0091405D01*
X0131961Y0092227D02*
X0134269Y0092630D01*
X0136294Y0092169D02*
X0161953Y0073822D01*
X0162435Y0073424D02*
X0164298Y0071654D01*
X0164600Y0071407D02*
X0210157Y0039266D01*
X0211749Y0037287D02*
X0213251Y0033713D01*
X0213797Y0032756D02*
X0224731Y0018002D01*
X0224732Y0018002D02*
X0224755Y0017973D01*
X0224780Y0017946D01*
X0214780Y0017946D02*
X0214755Y0017973D01*
X0214732Y0018002D01*
X0214731Y0018002D02*
X0203797Y0032756D01*
X0203251Y0033713D02*
X0201749Y0037287D01*
X0200457Y0039035D02*
X0163264Y0070154D01*
X0163052Y0070343D02*
X0161189Y0072113D01*
X0160839Y0072393D02*
X0134731Y0089983D01*
X0136294Y0092169D02*
X0136210Y0092226D01*
X0136124Y0092281D01*
X0136036Y0092332D01*
X0135947Y0092379D01*
X0135855Y0092424D01*
X0135762Y0092464D01*
X0135668Y0092501D01*
X0135572Y0092535D01*
X0135475Y0092565D01*
X0135377Y0092591D01*
X0135278Y0092614D01*
X0135178Y0092633D01*
X0135077Y0092648D01*
X0134977Y0092659D01*
X0134875Y0092666D01*
X0134774Y0092670D01*
X0134672Y0092669D01*
X0134571Y0092665D01*
X0134469Y0092657D01*
X0134369Y0092645D01*
X0134268Y0092630D01*
X0161953Y0073822D02*
X0162054Y0073748D01*
X0162152Y0073671D01*
X0162249Y0073592D01*
X0162343Y0073509D01*
X0162435Y0073424D01*
X0163052Y0070343D02*
X0163121Y0070278D01*
X0163192Y0070216D01*
X0163263Y0070154D01*
X0161189Y0072113D02*
X0161123Y0072174D01*
X0161055Y0072232D01*
X0160985Y0072288D01*
X0160913Y0072342D01*
X0160840Y0072393D01*
X0164299Y0071654D02*
X0164370Y0071588D01*
X0164445Y0071524D01*
X0164521Y0071464D01*
X0164600Y0071406D01*
X0175003Y0084986D02*
X0184732Y0074740D01*
X0185168Y0074370D02*
X0202384Y0062643D01*
X0214571Y0059451D02*
X0217500Y0035500D01*
X0213252Y0033714D02*
X0213301Y0033601D01*
X0213353Y0033490D01*
X0213408Y0033380D01*
X0213466Y0033272D01*
X0213527Y0033165D01*
X0213590Y0033060D01*
X0213657Y0032957D01*
X0213726Y0032855D01*
X0213798Y0032756D01*
X0211749Y0037287D02*
X0211697Y0037405D01*
X0211642Y0037521D01*
X0211584Y0037636D01*
X0211523Y0037749D01*
X0211459Y0037860D01*
X0211391Y0037970D01*
X0211321Y0038078D01*
X0211247Y0038183D01*
X0211171Y0038287D01*
X0211092Y0038388D01*
X0211010Y0038487D01*
X0210925Y0038584D01*
X0210838Y0038679D01*
X0210748Y0038770D01*
X0210655Y0038860D01*
X0210560Y0038947D01*
X0210463Y0039031D01*
X0210363Y0039112D01*
X0210261Y0039190D01*
X0210157Y0039266D01*
X0203252Y0033714D02*
X0203301Y0033601D01*
X0203353Y0033490D01*
X0203408Y0033380D01*
X0203466Y0033272D01*
X0203527Y0033165D01*
X0203590Y0033060D01*
X0203657Y0032957D01*
X0203726Y0032855D01*
X0203798Y0032756D01*
X0201749Y0037287D02*
X0201697Y0037405D01*
X0201642Y0037522D01*
X0201584Y0037637D01*
X0201522Y0037751D01*
X0201458Y0037862D01*
X0201390Y0037972D01*
X0201319Y0038080D01*
X0201245Y0038186D01*
X0201169Y0038290D01*
X0201089Y0038391D01*
X0201007Y0038491D01*
X0200922Y0038588D01*
X0200834Y0038682D01*
X0200743Y0038775D01*
X0200651Y0038864D01*
X0200555Y0038951D01*
X0200457Y0039035D01*
X0197500Y0035500D02*
X0189624Y0031410D01*
X0188977Y0031134D02*
X0154713Y0019540D01*
X0154207Y0019226D02*
X0152274Y0017293D01*
X0151931Y0016691D02*
X0151069Y0013309D01*
X0148793Y0010774D02*
X0148743Y0010727D01*
X0148691Y0010683D01*
X0148636Y0010641D01*
X0148580Y0010602D01*
X0148522Y0010566D01*
X0148461Y0010534D01*
X0148399Y0010504D01*
X0148336Y0010478D01*
X0148272Y0010455D01*
X0148206Y0010436D01*
X0148139Y0010420D01*
X0148072Y0010407D01*
X0148004Y0010398D01*
X0147936Y0010393D01*
X0147867Y0010391D01*
X0151932Y0016691D02*
X0151951Y0016758D01*
X0151974Y0016825D01*
X0152000Y0016890D01*
X0152030Y0016953D01*
X0152063Y0017015D01*
X0152099Y0017075D01*
X0152138Y0017133D01*
X0152181Y0017189D01*
X0152226Y0017242D01*
X0152275Y0017293D01*
X0154208Y0019225D02*
X0154256Y0019271D01*
X0154307Y0019315D01*
X0154360Y0019356D01*
X0154415Y0019394D01*
X0154471Y0019429D01*
X0154530Y0019461D01*
X0154590Y0019491D01*
X0154651Y0019517D01*
X0154714Y0019540D01*
X0125133Y0010398D02*
X0125069Y0010400D01*
X0125005Y0010404D01*
X0124941Y0010412D01*
X0124878Y0010423D01*
X0124816Y0010437D01*
X0124754Y0010454D01*
X0124693Y0010475D01*
X0124634Y0010498D01*
X0124575Y0010524D01*
X0188977Y0031134D02*
X0189087Y0031173D01*
X0189197Y0031215D01*
X0189306Y0031259D01*
X0189413Y0031307D01*
X0189519Y0031357D01*
X0189624Y0031410D01*
X0231662Y0037464D02*
X0231713Y0037351D01*
X0231762Y0037237D01*
X0231807Y0037121D01*
X0231849Y0037004D01*
X0231888Y0036886D01*
X0231924Y0036767D01*
X0231957Y0036647D01*
X0231986Y0036526D01*
X0232012Y0036405D01*
X0235623Y0018398D01*
X0235623Y0018399D02*
X0235629Y0018366D01*
X0235632Y0018333D01*
X0235633Y0018300D01*
X0231662Y0037464D02*
X0209162Y0085132D01*
X0209066Y0085317D02*
X0204033Y0094132D01*
X0209066Y0085318D02*
X0209100Y0085257D01*
X0209132Y0085195D01*
X0209162Y0085132D01*
X0226987Y0097335D02*
X0232413Y0083985D01*
X0244155Y0089028D02*
X0244231Y0088962D01*
X0244303Y0088894D01*
X0244373Y0088824D01*
X0244441Y0088750D01*
X0244506Y0088675D01*
X0244567Y0088596D01*
X0244626Y0088516D01*
X0244682Y0088434D01*
X0244735Y0088349D01*
X0244784Y0088263D01*
X0244831Y0088175D01*
X0244874Y0088085D01*
X0244914Y0087993D01*
X0244950Y0087901D01*
X0244983Y0087807D01*
X0245012Y0087711D01*
X0245038Y0087615D01*
X0245060Y0087518D01*
X0245079Y0087420D01*
X0245094Y0087322D01*
X0245105Y0087223D01*
X0245112Y0087124D01*
X0245627Y0078230D01*
X0245690Y0077789D02*
X0247585Y0069455D01*
X0251857Y0078035D02*
X0248490Y0091730D01*
X0248480Y0091769D02*
X0241959Y0116668D01*
X0241926Y0116785D02*
X0230681Y0155517D01*
X0191500Y0145000D02*
X0226415Y0065840D01*
X0248310Y0078385D02*
X0265613Y0018439D01*
X0265622Y0018405D01*
X0265628Y0018370D01*
X0265632Y0018335D01*
X0265633Y0018300D01*
X0185168Y0074370D02*
X0185090Y0074425D01*
X0185014Y0074483D01*
X0184940Y0074544D01*
X0184868Y0074607D01*
X0184799Y0074673D01*
X0184732Y0074741D01*
X0226501Y0100348D02*
X0227500Y0115500D01*
X0233078Y0114200D02*
X0207387Y0201559D01*
X0207379Y0201594D01*
X0207372Y0201629D01*
X0207368Y0201665D01*
X0207367Y0201700D01*
X0241926Y0116785D02*
X0241959Y0116668D01*
X0233505Y0113200D02*
X0233446Y0113306D01*
X0233390Y0113413D01*
X0233337Y0113522D01*
X0233286Y0113632D01*
X0233239Y0113743D01*
X0233194Y0113856D01*
X0233152Y0113969D01*
X0233114Y0114084D01*
X0233078Y0114200D01*
X0233506Y0113200D02*
X0239205Y0103299D01*
X0239824Y0101867D02*
X0243308Y0090313D01*
X0244155Y0089028D02*
X0244155Y0089028D01*
X0248490Y0091730D02*
X0248480Y0091769D01*
X0244154Y0089029D02*
X0244081Y0089093D01*
X0244009Y0089159D01*
X0243941Y0089228D01*
X0243874Y0089300D01*
X0243811Y0089374D01*
X0243750Y0089450D01*
X0243692Y0089528D01*
X0243637Y0089609D01*
X0243585Y0089691D01*
X0243535Y0089775D01*
X0243489Y0089861D01*
X0243446Y0089949D01*
X0243407Y0090038D01*
X0243370Y0090128D01*
X0243337Y0090220D01*
X0243307Y0090313D01*
X0239824Y0101867D02*
X0239777Y0102017D01*
X0239727Y0102165D01*
X0239673Y0102312D01*
X0239616Y0102457D01*
X0239556Y0102601D01*
X0239492Y0102744D01*
X0239425Y0102886D01*
X0239355Y0103025D01*
X0239282Y0103163D01*
X0239205Y0103300D01*
X0226501Y0100348D02*
X0226492Y0100187D01*
X0226487Y0100025D01*
X0226486Y0099863D01*
X0226489Y0099701D01*
X0226496Y0099539D01*
X0226506Y0099377D01*
X0226520Y0099215D01*
X0226539Y0099054D01*
X0226561Y0098894D01*
X0226587Y0098734D01*
X0226616Y0098575D01*
X0226650Y0098416D01*
X0226687Y0098258D01*
X0226728Y0098102D01*
X0226772Y0097946D01*
X0226821Y0097791D01*
X0226873Y0097638D01*
X0226928Y0097485D01*
X0226987Y0097335D01*
X0245628Y0078230D02*
X0245634Y0078141D01*
X0245644Y0078052D01*
X0245656Y0077964D01*
X0245672Y0077876D01*
X0245690Y0077789D01*
X0138145Y0056906D02*
X0138130Y0056988D01*
X0138111Y0057069D01*
X0138090Y0057149D01*
X0138067Y0057229D01*
D16*
X0135500Y0056435D03*
X0138960Y0052328D03*
X0142329Y0051148D03*
X0145916Y0050741D03*
X0143519Y0056414D03*
X0129356Y0052715D03*
X0123606Y0047930D03*
X0091732Y0047961D03*
X0088719Y0052154D03*
X0071293Y0052075D03*
X0061393Y0056736D03*
X0072011Y0062394D03*
X0090966Y0070537D03*
X0131961Y0092227D03*
X0134731Y0089983D03*
X0159338Y0070165D03*
X0166149Y0073602D03*
X0180196Y0067583D03*
X0186680Y0076591D03*
X0190239Y0076811D03*
X0202213Y0074874D03*
X0206732Y0083985D03*
X0204033Y0094132D03*
X0228850Y0083971D03*
X0232413Y0083985D03*
X0242430Y0086969D03*
X0245880Y0091088D03*
X0248310Y0078385D03*
X0251857Y0078035D03*
X0247585Y0069455D03*
X0226415Y0065840D03*
X0226385Y0057197D03*
X0214571Y0059451D03*
X0214227Y0068002D03*
X0202384Y0062643D03*
X0175003Y0084986D03*
X0166447Y0083002D03*
X0238427Y0052998D03*
X0096454Y0023734D03*
X0088758Y0018829D03*
X0086411Y0032330D03*
X0060466Y0024854D03*
X0054502Y0028548D03*
X0049474Y0030822D03*
X0059122Y0036733D03*
X0042876Y0040500D03*
X0064919Y0124500D03*
X0036823Y0150770D03*
X0037984Y0174987D03*
X0230681Y0155517D03*
M02*
