G75*
%MOIN*%
%OFA0B0*%
%FSLAX25Y25*%
%IPPOS*%
%LPD*%
%AMOC8*
5,1,8,0,0,1.08239X$1,22.5*
%
%ADD10C,0.04724*%
%ADD11C,0.04287*%
%ADD12C,0.05512*%
%ADD13C,0.01000*%
%ADD14C,0.02362*%
D10*
X0026500Y0024000D03*
X0036500Y0024000D03*
X0036500Y0014000D03*
X0036500Y0034000D03*
X0026500Y0034000D03*
X0036500Y0044000D03*
X0036500Y0054000D03*
X0036500Y0064000D03*
X0026500Y0064000D03*
X0026500Y0074000D03*
X0036500Y0074000D03*
X0102500Y0097500D03*
X0112500Y0097500D03*
X0122500Y0097500D03*
X0122500Y0107500D03*
X0112500Y0107500D03*
X0102500Y0107500D03*
X0106500Y0074000D03*
X0116500Y0074000D03*
X0116500Y0064000D03*
X0106500Y0064000D03*
X0106500Y0054000D03*
X0106500Y0044000D03*
X0106500Y0034000D03*
X0116500Y0034000D03*
X0116500Y0024000D03*
X0106500Y0024000D03*
X0106500Y0014000D03*
X0126500Y0015000D03*
X0136500Y0015000D03*
X0146500Y0015000D03*
X0156500Y0015000D03*
X0166500Y0015000D03*
X0176500Y0015000D03*
X0186500Y0015000D03*
X0196500Y0015000D03*
X0216500Y0015000D03*
X0226500Y0015000D03*
X0236500Y0015000D03*
X0246500Y0015000D03*
X0256500Y0015000D03*
X0266500Y0015000D03*
X0237500Y0035500D03*
X0227500Y0035500D03*
X0217500Y0035500D03*
X0207500Y0035500D03*
X0197500Y0035500D03*
X0187500Y0035500D03*
X0177500Y0035500D03*
X0187500Y0115500D03*
X0197500Y0115500D03*
X0227500Y0115500D03*
X0237500Y0115500D03*
X0236500Y0205000D03*
X0226500Y0205000D03*
X0216500Y0205000D03*
X0206500Y0205000D03*
X0196500Y0205000D03*
X0180500Y0205000D03*
X0170500Y0205000D03*
X0160500Y0205000D03*
X0150500Y0205000D03*
X0140500Y0205000D03*
X0130500Y0205000D03*
X0120500Y0205000D03*
X0110500Y0205000D03*
X0100500Y0205000D03*
X0090500Y0205000D03*
X0246500Y0205000D03*
X0256500Y0205000D03*
X0266500Y0205000D03*
D11*
X0116500Y0055000D03*
X0116500Y0045000D03*
X0026500Y0045000D03*
X0026500Y0055000D03*
D12*
X0081500Y0145000D03*
X0091500Y0145000D03*
X0101500Y0145000D03*
X0111500Y0145000D03*
X0121500Y0145000D03*
X0131500Y0145000D03*
X0141500Y0145000D03*
X0151500Y0145000D03*
X0161500Y0145000D03*
X0171500Y0145000D03*
X0181500Y0145000D03*
X0191500Y0145000D03*
X0191500Y0175000D03*
X0181500Y0175000D03*
X0171500Y0175000D03*
X0161500Y0175000D03*
X0151500Y0175000D03*
X0141500Y0175000D03*
X0131500Y0175000D03*
X0121500Y0175000D03*
X0111500Y0175000D03*
X0101500Y0175000D03*
X0091500Y0175000D03*
X0081500Y0175000D03*
D13*
X0091500Y0175000D02*
X0096723Y0144190D01*
X0096863Y0143596D02*
X0108279Y0105891D01*
X0108339Y0105731D02*
X0110815Y0100262D01*
X0110908Y0100123D02*
X0112417Y0098115D01*
X0110908Y0100124D02*
X0110880Y0100156D01*
X0110855Y0100189D01*
X0110833Y0100225D01*
X0110814Y0100263D01*
X0106752Y0098989D02*
X0111982Y0073088D01*
X0112410Y0071876D02*
X0116500Y0064000D01*
X0108624Y0059910D01*
X0108294Y0059755D02*
X0104708Y0058239D01*
X0103604Y0057576D02*
X0091732Y0047961D01*
X0089550Y0046393D02*
X0089602Y0046324D01*
X0089655Y0046257D01*
X0089711Y0046191D01*
X0103037Y0030969D01*
X0106147Y0029411D02*
X0116853Y0028589D01*
X0118016Y0028345D02*
X0145109Y0018891D01*
X0145110Y0018890D02*
X0145162Y0018870D01*
X0145213Y0018847D01*
X0145263Y0018821D01*
X0145312Y0018793D01*
X0145358Y0018762D01*
X0145403Y0018728D01*
X0145446Y0018692D01*
X0145487Y0018653D01*
X0145486Y0018654D02*
X0145575Y0018542D01*
X0145660Y0018428D01*
X0145742Y0018312D01*
X0145820Y0018193D01*
X0145896Y0018073D01*
X0145968Y0017950D01*
X0146037Y0017826D01*
X0146103Y0017700D01*
X0146165Y0017572D01*
X0146223Y0017442D01*
X0146279Y0017311D01*
X0146330Y0017178D01*
X0146378Y0017044D01*
X0146422Y0016909D01*
X0146463Y0016773D01*
X0146500Y0016635D01*
X0146533Y0016497D01*
X0146562Y0016358D01*
X0146588Y0016218D01*
X0146609Y0016077D01*
X0146627Y0015936D01*
X0146642Y0015794D01*
X0146652Y0015653D01*
X0146658Y0015510D01*
X0146661Y0015368D01*
X0146660Y0015226D01*
X0146655Y0015084D01*
X0146646Y0014942D01*
X0146633Y0014800D01*
X0148793Y0010774D02*
X0148743Y0010727D01*
X0148691Y0010683D01*
X0148636Y0010641D01*
X0148580Y0010602D01*
X0148522Y0010566D01*
X0148461Y0010534D01*
X0148399Y0010504D01*
X0148336Y0010478D01*
X0148272Y0010455D01*
X0148206Y0010436D01*
X0148139Y0010420D01*
X0148072Y0010407D01*
X0148004Y0010398D01*
X0147936Y0010393D01*
X0147867Y0010391D01*
X0145133Y0010391D01*
X0145133Y0010391D01*
X0125133Y0010398D01*
X0124575Y0010524D02*
X0108471Y0018158D01*
X0108299Y0018235D02*
X0104701Y0019765D01*
X0103247Y0020745D02*
X0098353Y0025635D01*
X0097750Y0026088D02*
X0086411Y0032330D01*
X0097750Y0026088D02*
X0097832Y0026041D01*
X0097912Y0025991D01*
X0097991Y0025938D01*
X0098067Y0025883D01*
X0098142Y0025825D01*
X0098215Y0025764D01*
X0098285Y0025701D01*
X0098353Y0025635D01*
X0103247Y0020745D02*
X0103337Y0020657D01*
X0103430Y0020572D01*
X0103525Y0020489D01*
X0103622Y0020409D01*
X0103722Y0020331D01*
X0103823Y0020257D01*
X0103927Y0020185D01*
X0104032Y0020116D01*
X0104139Y0020050D01*
X0104249Y0019986D01*
X0104359Y0019926D01*
X0104472Y0019869D01*
X0104585Y0019815D01*
X0104701Y0019764D01*
X0108299Y0018236D02*
X0108385Y0018198D01*
X0108471Y0018159D01*
X0116853Y0028588D02*
X0116985Y0028576D01*
X0117116Y0028560D01*
X0117247Y0028541D01*
X0117378Y0028517D01*
X0117507Y0028490D01*
X0117636Y0028459D01*
X0117764Y0028425D01*
X0117891Y0028387D01*
X0118016Y0028345D01*
X0106147Y0029412D02*
X0106016Y0029424D01*
X0105885Y0029439D01*
X0105754Y0029459D01*
X0105624Y0029482D01*
X0105495Y0029509D01*
X0105366Y0029540D01*
X0105239Y0029574D01*
X0105112Y0029612D01*
X0104987Y0029654D01*
X0104863Y0029699D01*
X0104740Y0029748D01*
X0104619Y0029800D01*
X0104499Y0029856D01*
X0104381Y0029915D01*
X0104264Y0029977D01*
X0104150Y0030043D01*
X0104037Y0030112D01*
X0103927Y0030185D01*
X0103818Y0030260D01*
X0103712Y0030339D01*
X0103608Y0030420D01*
X0103507Y0030505D01*
X0103408Y0030592D01*
X0103311Y0030682D01*
X0103217Y0030775D01*
X0103126Y0030870D01*
X0103037Y0030969D01*
X0089550Y0046393D02*
X0086537Y0050586D01*
X0086215Y0051179D02*
X0037984Y0174987D01*
X0096723Y0144191D02*
X0096745Y0144071D01*
X0096770Y0143951D01*
X0096798Y0143832D01*
X0096829Y0143714D01*
X0096863Y0143597D01*
X0116332Y0144560D02*
X0116342Y0144696D01*
X0116349Y0144833D01*
X0116352Y0144969D01*
X0116351Y0145106D01*
X0116346Y0145242D01*
X0116337Y0145378D01*
X0116325Y0145514D01*
X0116308Y0145650D01*
X0116288Y0145785D01*
X0116289Y0145785D02*
X0111500Y0175000D01*
X0126648Y0175000D02*
X0126648Y0144983D01*
X0126778Y0108734D01*
X0126778Y0096270D01*
X0126641Y0095687D02*
X0126317Y0095036D01*
X0126640Y0095687D02*
X0126668Y0095748D01*
X0126694Y0095810D01*
X0126716Y0095874D01*
X0126734Y0095938D01*
X0126750Y0096004D01*
X0126762Y0096070D01*
X0126770Y0096136D01*
X0126775Y0096203D01*
X0126777Y0096270D01*
X0130151Y0094737D02*
X0130113Y0094624D01*
X0130071Y0094512D01*
X0130027Y0094401D01*
X0129981Y0094291D01*
X0129931Y0094182D01*
X0129879Y0094075D01*
X0129880Y0094075D02*
X0129556Y0093424D01*
X0130151Y0094737D02*
X0146111Y0143490D01*
X0146352Y0144952D02*
X0146648Y0175048D01*
X0146678Y0175545D02*
X0149630Y0201644D01*
X0139630Y0201644D02*
X0136678Y0175545D01*
X0136648Y0175048D02*
X0136352Y0144952D01*
X0136292Y0144234D02*
X0128548Y0095778D01*
X0128260Y0094881D02*
X0127936Y0094230D01*
X0125663Y0092517D02*
X0123606Y0047930D01*
X0138145Y0056906D02*
X0138130Y0056988D01*
X0138111Y0057069D01*
X0138090Y0057149D01*
X0138067Y0057229D01*
X0127665Y0090900D01*
X0129403Y0091405D02*
X0142329Y0051148D01*
X0138960Y0052328D02*
X0138146Y0056906D01*
X0161953Y0073822D02*
X0162054Y0073748D01*
X0162152Y0073671D01*
X0162249Y0073592D01*
X0162343Y0073509D01*
X0162435Y0073424D01*
X0164298Y0071654D01*
X0164600Y0071407D02*
X0210157Y0039266D01*
X0211749Y0037287D02*
X0213251Y0033713D01*
X0213797Y0032756D02*
X0224731Y0018002D01*
X0235624Y0018399D02*
X0235710Y0018060D01*
X0235790Y0017720D01*
X0235862Y0017378D01*
X0235926Y0017034D01*
X0235983Y0016690D01*
X0236032Y0016344D01*
X0236073Y0015997D01*
X0236107Y0015649D01*
X0236133Y0015300D01*
X0235623Y0018398D02*
X0232012Y0036405D01*
X0231662Y0037464D02*
X0209162Y0085132D01*
X0209066Y0085317D02*
X0204033Y0094132D01*
X0209066Y0085318D02*
X0209100Y0085257D01*
X0209132Y0085195D01*
X0209162Y0085132D01*
X0226987Y0097335D02*
X0232413Y0083985D01*
X0244155Y0089028D02*
X0244231Y0088962D01*
X0244303Y0088894D01*
X0244373Y0088824D01*
X0244441Y0088750D01*
X0244506Y0088675D01*
X0244567Y0088596D01*
X0244626Y0088516D01*
X0244682Y0088434D01*
X0244735Y0088349D01*
X0244784Y0088263D01*
X0244831Y0088175D01*
X0244874Y0088085D01*
X0244914Y0087993D01*
X0244950Y0087901D01*
X0244983Y0087807D01*
X0245012Y0087711D01*
X0245038Y0087615D01*
X0245060Y0087518D01*
X0245079Y0087420D01*
X0245094Y0087322D01*
X0245105Y0087223D01*
X0245112Y0087124D01*
X0245627Y0078230D01*
X0245690Y0077789D02*
X0247585Y0069455D01*
X0251857Y0078035D02*
X0248490Y0091730D01*
X0248480Y0091769D02*
X0241959Y0116668D01*
X0241926Y0116785D02*
X0230681Y0155517D01*
X0191500Y0145000D02*
X0226415Y0065840D01*
X0214571Y0059451D02*
X0217500Y0035500D01*
X0213252Y0033714D02*
X0213301Y0033601D01*
X0213353Y0033490D01*
X0213408Y0033380D01*
X0213466Y0033272D01*
X0213527Y0033165D01*
X0213590Y0033060D01*
X0213657Y0032957D01*
X0213726Y0032855D01*
X0213798Y0032756D01*
X0211749Y0037287D02*
X0211697Y0037405D01*
X0211642Y0037521D01*
X0211584Y0037636D01*
X0211523Y0037749D01*
X0211459Y0037860D01*
X0211391Y0037970D01*
X0211321Y0038078D01*
X0211247Y0038183D01*
X0211171Y0038287D01*
X0211092Y0038388D01*
X0211010Y0038487D01*
X0210925Y0038584D01*
X0210838Y0038679D01*
X0210748Y0038770D01*
X0210655Y0038860D01*
X0210560Y0038947D01*
X0210463Y0039031D01*
X0210363Y0039112D01*
X0210261Y0039190D01*
X0210157Y0039266D01*
X0203252Y0033714D02*
X0203301Y0033601D01*
X0203353Y0033490D01*
X0203408Y0033380D01*
X0203466Y0033272D01*
X0203527Y0033165D01*
X0203590Y0033060D01*
X0203657Y0032957D01*
X0203726Y0032855D01*
X0203798Y0032756D01*
X0203797Y0032756D02*
X0214731Y0018002D01*
X0203251Y0033713D02*
X0201749Y0037287D01*
X0200457Y0039035D02*
X0163264Y0070154D01*
X0163052Y0070343D02*
X0161189Y0072113D01*
X0160839Y0072393D02*
X0134731Y0089983D01*
X0136294Y0092169D02*
X0136210Y0092226D01*
X0136124Y0092281D01*
X0136036Y0092332D01*
X0135947Y0092379D01*
X0135855Y0092424D01*
X0135762Y0092464D01*
X0135668Y0092501D01*
X0135572Y0092535D01*
X0135475Y0092565D01*
X0135377Y0092591D01*
X0135278Y0092614D01*
X0135178Y0092633D01*
X0135077Y0092648D01*
X0134977Y0092659D01*
X0134875Y0092666D01*
X0134774Y0092670D01*
X0134672Y0092669D01*
X0134571Y0092665D01*
X0134469Y0092657D01*
X0134369Y0092645D01*
X0134268Y0092630D01*
X0134269Y0092630D02*
X0131961Y0092227D01*
X0127936Y0094230D02*
X0127879Y0094111D01*
X0127826Y0093991D01*
X0127776Y0093869D01*
X0127729Y0093746D01*
X0127687Y0093621D01*
X0127648Y0093496D01*
X0127612Y0093369D01*
X0127581Y0093241D01*
X0127553Y0093112D01*
X0127529Y0092983D01*
X0127509Y0092853D01*
X0127492Y0092722D01*
X0127480Y0092591D01*
X0127471Y0092460D01*
X0127466Y0092328D01*
X0127465Y0092196D01*
X0127468Y0092065D01*
X0127475Y0091933D01*
X0127485Y0091802D01*
X0127500Y0091671D01*
X0127518Y0091541D01*
X0127540Y0091411D01*
X0127566Y0091282D01*
X0127595Y0091153D01*
X0127628Y0091026D01*
X0127665Y0090900D01*
X0125663Y0092518D02*
X0125672Y0092672D01*
X0125684Y0092825D01*
X0125701Y0092979D01*
X0125721Y0093132D01*
X0125745Y0093284D01*
X0125773Y0093436D01*
X0125804Y0093586D01*
X0125839Y0093737D01*
X0125878Y0093886D01*
X0125921Y0094034D01*
X0125967Y0094181D01*
X0126016Y0094327D01*
X0126069Y0094472D01*
X0126126Y0094615D01*
X0126186Y0094757D01*
X0126250Y0094898D01*
X0126317Y0095037D01*
X0128260Y0094881D02*
X0128305Y0094976D01*
X0128347Y0095072D01*
X0128386Y0095170D01*
X0128422Y0095269D01*
X0128454Y0095369D01*
X0128482Y0095470D01*
X0128508Y0095572D01*
X0128529Y0095675D01*
X0128548Y0095778D01*
X0129555Y0093424D02*
X0129513Y0093335D01*
X0129474Y0093244D01*
X0129438Y0093152D01*
X0129406Y0093059D01*
X0129377Y0092964D01*
X0129352Y0092869D01*
X0129330Y0092772D01*
X0129312Y0092675D01*
X0129297Y0092577D01*
X0129286Y0092479D01*
X0129278Y0092380D01*
X0129275Y0092282D01*
X0129274Y0092183D01*
X0129278Y0092084D01*
X0129285Y0091985D01*
X0129296Y0091887D01*
X0129310Y0091789D01*
X0129328Y0091692D01*
X0129349Y0091596D01*
X0129374Y0091500D01*
X0129403Y0091405D01*
X0136294Y0092169D02*
X0161953Y0073822D01*
X0163052Y0070343D02*
X0163121Y0070278D01*
X0163192Y0070216D01*
X0163263Y0070154D01*
X0161189Y0072113D02*
X0161123Y0072174D01*
X0161055Y0072232D01*
X0160985Y0072288D01*
X0160913Y0072342D01*
X0160840Y0072393D01*
X0164299Y0071654D02*
X0164370Y0071588D01*
X0164445Y0071524D01*
X0164521Y0071464D01*
X0164600Y0071406D01*
X0175003Y0084986D02*
X0184732Y0074740D01*
X0185168Y0074370D02*
X0202384Y0062643D01*
X0185168Y0074370D02*
X0185090Y0074425D01*
X0185014Y0074483D01*
X0184940Y0074544D01*
X0184868Y0074607D01*
X0184799Y0074673D01*
X0184732Y0074741D01*
X0112729Y0107469D02*
X0112829Y0108234D01*
X0112945Y0108997D01*
X0113080Y0109757D01*
X0113231Y0110514D01*
X0116332Y0144560D01*
X0136293Y0144234D02*
X0136310Y0144353D01*
X0136324Y0144473D01*
X0136336Y0144592D01*
X0136345Y0144712D01*
X0136350Y0144832D01*
X0136353Y0144953D01*
X0146111Y0143491D02*
X0146152Y0143620D01*
X0146188Y0143750D01*
X0146221Y0143881D01*
X0146251Y0144013D01*
X0146276Y0144146D01*
X0146298Y0144279D01*
X0146316Y0144413D01*
X0146331Y0144548D01*
X0146342Y0144682D01*
X0146349Y0144817D01*
X0146352Y0144953D01*
X0136648Y0175048D02*
X0136651Y0175172D01*
X0136657Y0175297D01*
X0136666Y0175421D01*
X0136679Y0175545D01*
X0126679Y0175545D02*
X0126665Y0175409D01*
X0126656Y0175273D01*
X0126650Y0175136D01*
X0126648Y0175000D01*
X0126678Y0175545D02*
X0129630Y0201644D01*
X0149630Y0201643D02*
X0149862Y0202345D01*
X0150079Y0203052D01*
X0150280Y0203764D01*
X0150464Y0204480D01*
X0150633Y0205200D01*
X0146679Y0175545D02*
X0146666Y0175421D01*
X0146657Y0175297D01*
X0146651Y0175172D01*
X0146648Y0175048D01*
X0129630Y0201644D02*
X0129759Y0202250D01*
X0129873Y0202860D01*
X0129974Y0203471D01*
X0130061Y0204085D01*
X0130134Y0204700D01*
X0139630Y0201643D02*
X0139862Y0202345D01*
X0140079Y0203052D01*
X0140280Y0203764D01*
X0140464Y0204480D01*
X0140633Y0205200D01*
X0207387Y0201559D02*
X0233078Y0114200D01*
X0233506Y0113200D02*
X0239205Y0103299D01*
X0239824Y0101867D02*
X0243308Y0090313D01*
X0244155Y0089028D02*
X0244155Y0089028D01*
X0248490Y0091730D02*
X0248480Y0091769D01*
X0244154Y0089029D02*
X0244081Y0089093D01*
X0244009Y0089159D01*
X0243941Y0089228D01*
X0243874Y0089300D01*
X0243811Y0089374D01*
X0243750Y0089450D01*
X0243692Y0089528D01*
X0243637Y0089609D01*
X0243585Y0089691D01*
X0243535Y0089775D01*
X0243489Y0089861D01*
X0243446Y0089949D01*
X0243407Y0090038D01*
X0243370Y0090128D01*
X0243337Y0090220D01*
X0243307Y0090313D01*
X0239824Y0101867D02*
X0239777Y0102017D01*
X0239727Y0102165D01*
X0239673Y0102312D01*
X0239616Y0102457D01*
X0239556Y0102601D01*
X0239492Y0102744D01*
X0239425Y0102886D01*
X0239355Y0103025D01*
X0239282Y0103163D01*
X0239205Y0103300D01*
X0226501Y0100348D02*
X0226492Y0100187D01*
X0226487Y0100025D01*
X0226486Y0099863D01*
X0226489Y0099701D01*
X0226496Y0099539D01*
X0226506Y0099377D01*
X0226520Y0099215D01*
X0226539Y0099054D01*
X0226561Y0098894D01*
X0226587Y0098734D01*
X0226616Y0098575D01*
X0226650Y0098416D01*
X0226687Y0098258D01*
X0226728Y0098102D01*
X0226772Y0097946D01*
X0226821Y0097791D01*
X0226873Y0097638D01*
X0226928Y0097485D01*
X0226987Y0097335D01*
X0226501Y0100348D02*
X0227500Y0115500D01*
X0241926Y0116785D02*
X0241959Y0116668D01*
X0233505Y0113200D02*
X0233446Y0113306D01*
X0233390Y0113413D01*
X0233337Y0113522D01*
X0233286Y0113632D01*
X0233239Y0113743D01*
X0233194Y0113856D01*
X0233152Y0113969D01*
X0233114Y0114084D01*
X0233078Y0114200D01*
X0245628Y0078230D02*
X0245634Y0078141D01*
X0245644Y0078052D01*
X0245656Y0077964D01*
X0245672Y0077876D01*
X0245690Y0077789D01*
X0248310Y0078385D02*
X0265613Y0018439D01*
X0265613Y0018438D02*
X0265695Y0018142D01*
X0265771Y0017844D01*
X0265839Y0017545D01*
X0265900Y0017243D01*
X0265954Y0016941D01*
X0266001Y0016637D01*
X0266041Y0016333D01*
X0266074Y0016027D01*
X0266099Y0015721D01*
X0266118Y0015414D01*
X0266129Y0015107D01*
X0266133Y0014800D01*
X0226280Y0015446D02*
X0226036Y0015797D01*
X0225799Y0016153D01*
X0225570Y0016513D01*
X0225349Y0016879D01*
X0225135Y0017249D01*
X0224929Y0017623D01*
X0224732Y0018002D01*
X0216279Y0014946D02*
X0216030Y0015368D01*
X0215791Y0015795D01*
X0215560Y0016228D01*
X0215339Y0016665D01*
X0215127Y0017106D01*
X0214924Y0017552D01*
X0214731Y0018002D01*
X0232012Y0036405D02*
X0231986Y0036526D01*
X0231957Y0036647D01*
X0231924Y0036767D01*
X0231888Y0036886D01*
X0231849Y0037004D01*
X0231807Y0037121D01*
X0231762Y0037237D01*
X0231713Y0037351D01*
X0231662Y0037464D01*
X0201749Y0037287D02*
X0201697Y0037405D01*
X0201642Y0037522D01*
X0201584Y0037637D01*
X0201522Y0037751D01*
X0201458Y0037862D01*
X0201390Y0037972D01*
X0201319Y0038080D01*
X0201245Y0038186D01*
X0201169Y0038290D01*
X0201089Y0038391D01*
X0201007Y0038491D01*
X0200922Y0038588D01*
X0200834Y0038682D01*
X0200743Y0038775D01*
X0200651Y0038864D01*
X0200555Y0038951D01*
X0200457Y0039035D01*
X0197500Y0035500D02*
X0189624Y0031410D01*
X0188977Y0031134D02*
X0154713Y0019540D01*
X0154207Y0019226D02*
X0152274Y0017293D01*
X0151931Y0016691D02*
X0151069Y0013309D01*
X0150726Y0012707D02*
X0148793Y0010774D01*
X0150725Y0012707D02*
X0150774Y0012758D01*
X0150819Y0012811D01*
X0150862Y0012867D01*
X0150901Y0012925D01*
X0150937Y0012985D01*
X0150970Y0013047D01*
X0151000Y0013110D01*
X0151026Y0013175D01*
X0151049Y0013242D01*
X0151068Y0013309D01*
X0151932Y0016691D02*
X0151951Y0016758D01*
X0151974Y0016825D01*
X0152000Y0016890D01*
X0152030Y0016953D01*
X0152063Y0017015D01*
X0152099Y0017075D01*
X0152138Y0017133D01*
X0152181Y0017189D01*
X0152226Y0017242D01*
X0152275Y0017293D01*
X0154208Y0019225D02*
X0154256Y0019271D01*
X0154307Y0019315D01*
X0154360Y0019356D01*
X0154415Y0019394D01*
X0154471Y0019429D01*
X0154530Y0019461D01*
X0154590Y0019491D01*
X0154651Y0019517D01*
X0154714Y0019540D01*
X0125133Y0010398D02*
X0125069Y0010400D01*
X0125005Y0010404D01*
X0124941Y0010412D01*
X0124878Y0010423D01*
X0124816Y0010437D01*
X0124754Y0010454D01*
X0124693Y0010475D01*
X0124634Y0010498D01*
X0124575Y0010524D01*
X0086537Y0050586D02*
X0086482Y0050666D01*
X0086430Y0050747D01*
X0086381Y0050830D01*
X0086335Y0050915D01*
X0086292Y0051002D01*
X0086252Y0051090D01*
X0086215Y0051179D01*
X0071293Y0052075D02*
X0072011Y0062394D01*
X0108295Y0059755D02*
X0108406Y0059804D01*
X0108516Y0059855D01*
X0108624Y0059910D01*
X0104709Y0058239D02*
X0104590Y0058187D01*
X0104473Y0058131D01*
X0104358Y0058073D01*
X0104245Y0058011D01*
X0104133Y0057946D01*
X0104023Y0057878D01*
X0103915Y0057807D01*
X0103809Y0057733D01*
X0103705Y0057656D01*
X0103604Y0057576D01*
X0112410Y0071876D02*
X0112352Y0071991D01*
X0112297Y0072108D01*
X0112246Y0072226D01*
X0112198Y0072346D01*
X0112153Y0072467D01*
X0112112Y0072589D01*
X0112075Y0072712D01*
X0112040Y0072837D01*
X0112009Y0072962D01*
X0111982Y0073088D01*
X0116500Y0074000D02*
X0118226Y0098820D01*
X0118342Y0099276D02*
X0122417Y0107385D01*
X0118342Y0099276D02*
X0118316Y0099214D01*
X0118292Y0099151D01*
X0118272Y0099086D01*
X0118256Y0099021D01*
X0118242Y0098955D01*
X0118233Y0098888D01*
X0118226Y0098821D01*
X0108338Y0105730D02*
X0108316Y0105783D01*
X0108296Y0105836D01*
X0108278Y0105890D01*
X0104185Y0104738D02*
X0106661Y0099270D01*
X0106661Y0099269D02*
X0106684Y0099215D01*
X0106705Y0099159D01*
X0106723Y0099103D01*
X0106738Y0099046D01*
X0106751Y0098988D01*
X0104186Y0104738D02*
X0104143Y0104926D01*
X0104095Y0105112D01*
X0104043Y0105297D01*
X0103986Y0105481D01*
X0103925Y0105663D01*
X0103860Y0105844D01*
X0103791Y0106023D01*
X0103717Y0106200D01*
X0103639Y0106376D01*
X0103556Y0106550D01*
X0103470Y0106721D01*
X0103379Y0106891D01*
X0103285Y0107058D01*
X0103186Y0107223D01*
X0103084Y0107386D01*
X0030590Y0066124D02*
X0026500Y0074000D01*
X0030590Y0066124D02*
X0030648Y0066010D01*
X0030702Y0065894D01*
X0030753Y0065776D01*
X0030801Y0065657D01*
X0030845Y0065537D01*
X0030886Y0065416D01*
X0030924Y0065293D01*
X0030958Y0065170D01*
X0030989Y0065045D01*
X0031016Y0064920D01*
X0031040Y0064794D01*
X0031060Y0064668D01*
X0031077Y0064541D01*
X0031090Y0064413D01*
X0031100Y0064285D01*
X0031106Y0064157D01*
X0031109Y0064029D01*
X0031108Y0063901D01*
X0030701Y0044910D01*
X0030383Y0043395D02*
X0026500Y0034000D01*
X0030383Y0043395D02*
X0030427Y0043506D01*
X0030468Y0043619D01*
X0030506Y0043732D01*
X0030541Y0043847D01*
X0030572Y0043963D01*
X0030600Y0044079D01*
X0030624Y0044196D01*
X0030646Y0044314D01*
X0030663Y0044432D01*
X0030678Y0044551D01*
X0030689Y0044671D01*
X0030697Y0044790D01*
X0030701Y0044910D01*
X0049474Y0030822D02*
X0054502Y0028548D01*
X0188977Y0031134D02*
X0189087Y0031173D01*
X0189197Y0031215D01*
X0189306Y0031259D01*
X0189413Y0031307D01*
X0189519Y0031357D01*
X0189624Y0031410D01*
X0207387Y0201559D02*
X0207305Y0201855D01*
X0207229Y0202153D01*
X0207160Y0202453D01*
X0207098Y0202754D01*
X0207044Y0203057D01*
X0206997Y0203361D01*
X0206957Y0203666D01*
X0206924Y0203972D01*
X0206899Y0204278D01*
X0206881Y0204585D01*
X0206870Y0204892D01*
X0206867Y0205200D01*
D14*
X0230681Y0155517D03*
X0204033Y0094132D03*
X0206732Y0083985D03*
X0202213Y0074874D03*
X0190239Y0076811D03*
X0186680Y0076591D03*
X0180196Y0067583D03*
X0166149Y0073602D03*
X0159338Y0070165D03*
X0166447Y0083002D03*
X0175003Y0084986D03*
X0202384Y0062643D03*
X0214571Y0059451D03*
X0214227Y0068002D03*
X0226415Y0065840D03*
X0226385Y0057197D03*
X0238427Y0052998D03*
X0247585Y0069455D03*
X0251857Y0078035D03*
X0248310Y0078385D03*
X0242430Y0086969D03*
X0245880Y0091088D03*
X0232413Y0083985D03*
X0228850Y0083971D03*
X0145916Y0050741D03*
X0142329Y0051148D03*
X0138960Y0052328D03*
X0135500Y0056435D03*
X0129356Y0052715D03*
X0123606Y0047930D03*
X0143519Y0056414D03*
X0134731Y0089983D03*
X0131961Y0092227D03*
X0090966Y0070537D03*
X0072011Y0062394D03*
X0061393Y0056736D03*
X0071293Y0052075D03*
X0088719Y0052154D03*
X0091732Y0047961D03*
X0086411Y0032330D03*
X0096454Y0023734D03*
X0088758Y0018829D03*
X0060466Y0024854D03*
X0054502Y0028548D03*
X0049474Y0030822D03*
X0059122Y0036733D03*
X0042876Y0040500D03*
X0064919Y0124500D03*
X0036823Y0150770D03*
X0037984Y0174987D03*
M02*
