G75*
%MOIN*%
%OFA0B0*%
%FSLAX25Y25*%
%IPPOS*%
%LPD*%
%AMOC8*
5,1,8,0,0,1.08239X$1,22.5*
%
%ADD10C,0.00004*%
%ADD11R,0.03150X0.04724*%
%ADD12R,0.04724X0.03150*%
%ADD13R,0.04200X0.08600*%
%ADD14OC8,0.07144*%
%ADD15R,0.04724X0.04724*%
%ADD16R,0.03150X0.03937*%
%ADD17R,0.05906X0.02756*%
%ADD18C,0.00000*%
%ADD19R,0.04803X0.03583*%
%ADD20C,0.06600*%
%ADD21R,0.02500X0.04000*%
%ADD22R,0.08000X0.02600*%
%ADD23R,0.04000X0.02500*%
%ADD24R,0.07874X0.07874*%
%ADD25OC8,0.06426*%
%ADD26R,0.02559X0.01969*%
%ADD27C,0.05500*%
%ADD28R,0.01969X0.02559*%
%ADD29C,0.07087*%
%ADD30R,0.03937X0.03150*%
%ADD31R,0.02756X0.05906*%
%ADD32C,0.01000*%
%ADD33C,0.02756*%
D10*
X0016500Y0005000D02*
X0276500Y0005000D01*
X0276500Y0015000D01*
X0286500Y0025000D01*
X0286500Y0154000D01*
X0276500Y0164000D01*
X0276500Y0209000D01*
X0270500Y0215000D01*
X0016500Y0215000D01*
X0016500Y0005000D01*
D11*
X0060457Y0050000D03*
X0067543Y0050000D03*
X0250557Y0073500D03*
X0257643Y0073500D03*
X0257743Y0065500D03*
X0250657Y0065500D03*
X0250657Y0057500D03*
X0257743Y0057500D03*
X0257843Y0050000D03*
X0250757Y0050000D03*
X0247457Y0110000D03*
X0254543Y0110000D03*
X0254543Y0120000D03*
X0247457Y0120000D03*
X0246957Y0192500D03*
X0241043Y0192500D03*
X0233957Y0192500D03*
X0254043Y0192500D03*
X0259457Y0192500D03*
X0266543Y0192500D03*
D12*
X0210000Y0102543D03*
X0210000Y0095457D03*
X0199500Y0095457D03*
X0199500Y0102543D03*
X0190000Y0073043D03*
X0190000Y0065957D03*
X0164000Y0066543D03*
X0155500Y0066543D03*
X0155500Y0059457D03*
X0164000Y0059457D03*
X0147500Y0059457D03*
X0147500Y0066543D03*
X0139500Y0066543D03*
X0131500Y0066543D03*
X0131500Y0059457D03*
X0139500Y0059457D03*
X0028593Y0188959D03*
X0028593Y0196046D03*
D13*
X0176000Y0072500D03*
X0176000Y0055500D03*
X0228500Y0162000D03*
X0242000Y0161500D03*
X0256000Y0161500D03*
X0269000Y0161500D03*
X0269000Y0178500D03*
X0256000Y0178500D03*
X0242000Y0178500D03*
X0228500Y0179000D03*
D14*
X0226500Y0205000D03*
X0216500Y0205000D03*
X0206500Y0205000D03*
X0196500Y0205000D03*
X0180500Y0205000D03*
X0170500Y0205000D03*
X0160500Y0205000D03*
X0150500Y0205000D03*
X0140500Y0205000D03*
X0130500Y0205000D03*
X0120500Y0205000D03*
X0110500Y0205000D03*
X0100500Y0205000D03*
X0090500Y0205000D03*
X0236500Y0205000D03*
X0246500Y0205000D03*
X0256500Y0205000D03*
X0266500Y0205000D03*
X0266500Y0015000D03*
X0256500Y0015000D03*
X0246500Y0015000D03*
X0236500Y0015000D03*
X0226500Y0015000D03*
X0216500Y0015000D03*
X0196500Y0015000D03*
X0186500Y0015000D03*
X0176500Y0015000D03*
X0166500Y0015000D03*
X0156500Y0015000D03*
X0146500Y0015000D03*
X0136500Y0015000D03*
X0126500Y0015000D03*
D15*
X0263866Y0050000D03*
X0272134Y0050000D03*
X0272134Y0057500D03*
X0263866Y0057500D03*
X0264366Y0065500D03*
X0272634Y0065500D03*
X0272134Y0073500D03*
X0263866Y0073500D03*
X0264366Y0089000D03*
X0272634Y0089000D03*
X0272634Y0095000D03*
X0264366Y0095000D03*
X0264366Y0101500D03*
X0272634Y0101500D03*
X0272634Y0107500D03*
X0264366Y0107500D03*
X0264366Y0114000D03*
X0264366Y0120000D03*
X0272634Y0120000D03*
X0272634Y0114000D03*
D16*
X0028331Y0148661D03*
X0019669Y0148661D03*
X0019669Y0181339D03*
X0028331Y0181339D03*
D17*
X0032858Y0173858D03*
X0032858Y0162047D03*
X0032858Y0156142D03*
D18*
X0022228Y0159094D02*
X0022230Y0159178D01*
X0022236Y0159261D01*
X0022246Y0159344D01*
X0022260Y0159427D01*
X0022277Y0159509D01*
X0022299Y0159590D01*
X0022324Y0159669D01*
X0022353Y0159748D01*
X0022386Y0159825D01*
X0022422Y0159900D01*
X0022462Y0159974D01*
X0022505Y0160046D01*
X0022552Y0160115D01*
X0022602Y0160182D01*
X0022655Y0160247D01*
X0022711Y0160309D01*
X0022769Y0160369D01*
X0022831Y0160426D01*
X0022895Y0160479D01*
X0022962Y0160530D01*
X0023031Y0160577D01*
X0023102Y0160622D01*
X0023175Y0160662D01*
X0023250Y0160699D01*
X0023327Y0160733D01*
X0023405Y0160763D01*
X0023484Y0160789D01*
X0023565Y0160812D01*
X0023647Y0160830D01*
X0023729Y0160845D01*
X0023812Y0160856D01*
X0023895Y0160863D01*
X0023979Y0160866D01*
X0024063Y0160865D01*
X0024146Y0160860D01*
X0024230Y0160851D01*
X0024312Y0160838D01*
X0024394Y0160822D01*
X0024475Y0160801D01*
X0024556Y0160777D01*
X0024634Y0160749D01*
X0024712Y0160717D01*
X0024788Y0160681D01*
X0024862Y0160642D01*
X0024934Y0160600D01*
X0025004Y0160554D01*
X0025072Y0160505D01*
X0025137Y0160453D01*
X0025200Y0160398D01*
X0025260Y0160340D01*
X0025318Y0160279D01*
X0025372Y0160215D01*
X0025424Y0160149D01*
X0025472Y0160081D01*
X0025517Y0160010D01*
X0025558Y0159937D01*
X0025597Y0159863D01*
X0025631Y0159787D01*
X0025662Y0159709D01*
X0025689Y0159630D01*
X0025713Y0159549D01*
X0025732Y0159468D01*
X0025748Y0159386D01*
X0025760Y0159303D01*
X0025768Y0159219D01*
X0025772Y0159136D01*
X0025772Y0159052D01*
X0025768Y0158969D01*
X0025760Y0158885D01*
X0025748Y0158802D01*
X0025732Y0158720D01*
X0025713Y0158639D01*
X0025689Y0158558D01*
X0025662Y0158479D01*
X0025631Y0158401D01*
X0025597Y0158325D01*
X0025558Y0158251D01*
X0025517Y0158178D01*
X0025472Y0158107D01*
X0025424Y0158039D01*
X0025372Y0157973D01*
X0025318Y0157909D01*
X0025260Y0157848D01*
X0025200Y0157790D01*
X0025137Y0157735D01*
X0025072Y0157683D01*
X0025004Y0157634D01*
X0024934Y0157588D01*
X0024862Y0157546D01*
X0024788Y0157507D01*
X0024712Y0157471D01*
X0024634Y0157439D01*
X0024556Y0157411D01*
X0024475Y0157387D01*
X0024394Y0157366D01*
X0024312Y0157350D01*
X0024230Y0157337D01*
X0024146Y0157328D01*
X0024063Y0157323D01*
X0023979Y0157322D01*
X0023895Y0157325D01*
X0023812Y0157332D01*
X0023729Y0157343D01*
X0023647Y0157358D01*
X0023565Y0157376D01*
X0023484Y0157399D01*
X0023405Y0157425D01*
X0023327Y0157455D01*
X0023250Y0157489D01*
X0023175Y0157526D01*
X0023102Y0157566D01*
X0023031Y0157611D01*
X0022962Y0157658D01*
X0022895Y0157709D01*
X0022831Y0157762D01*
X0022769Y0157819D01*
X0022711Y0157879D01*
X0022655Y0157941D01*
X0022602Y0158006D01*
X0022552Y0158073D01*
X0022505Y0158142D01*
X0022462Y0158214D01*
X0022422Y0158288D01*
X0022386Y0158363D01*
X0022353Y0158440D01*
X0022324Y0158519D01*
X0022299Y0158598D01*
X0022277Y0158679D01*
X0022260Y0158761D01*
X0022246Y0158844D01*
X0022236Y0158927D01*
X0022230Y0159010D01*
X0022228Y0159094D01*
X0022228Y0170906D02*
X0022230Y0170990D01*
X0022236Y0171073D01*
X0022246Y0171156D01*
X0022260Y0171239D01*
X0022277Y0171321D01*
X0022299Y0171402D01*
X0022324Y0171481D01*
X0022353Y0171560D01*
X0022386Y0171637D01*
X0022422Y0171712D01*
X0022462Y0171786D01*
X0022505Y0171858D01*
X0022552Y0171927D01*
X0022602Y0171994D01*
X0022655Y0172059D01*
X0022711Y0172121D01*
X0022769Y0172181D01*
X0022831Y0172238D01*
X0022895Y0172291D01*
X0022962Y0172342D01*
X0023031Y0172389D01*
X0023102Y0172434D01*
X0023175Y0172474D01*
X0023250Y0172511D01*
X0023327Y0172545D01*
X0023405Y0172575D01*
X0023484Y0172601D01*
X0023565Y0172624D01*
X0023647Y0172642D01*
X0023729Y0172657D01*
X0023812Y0172668D01*
X0023895Y0172675D01*
X0023979Y0172678D01*
X0024063Y0172677D01*
X0024146Y0172672D01*
X0024230Y0172663D01*
X0024312Y0172650D01*
X0024394Y0172634D01*
X0024475Y0172613D01*
X0024556Y0172589D01*
X0024634Y0172561D01*
X0024712Y0172529D01*
X0024788Y0172493D01*
X0024862Y0172454D01*
X0024934Y0172412D01*
X0025004Y0172366D01*
X0025072Y0172317D01*
X0025137Y0172265D01*
X0025200Y0172210D01*
X0025260Y0172152D01*
X0025318Y0172091D01*
X0025372Y0172027D01*
X0025424Y0171961D01*
X0025472Y0171893D01*
X0025517Y0171822D01*
X0025558Y0171749D01*
X0025597Y0171675D01*
X0025631Y0171599D01*
X0025662Y0171521D01*
X0025689Y0171442D01*
X0025713Y0171361D01*
X0025732Y0171280D01*
X0025748Y0171198D01*
X0025760Y0171115D01*
X0025768Y0171031D01*
X0025772Y0170948D01*
X0025772Y0170864D01*
X0025768Y0170781D01*
X0025760Y0170697D01*
X0025748Y0170614D01*
X0025732Y0170532D01*
X0025713Y0170451D01*
X0025689Y0170370D01*
X0025662Y0170291D01*
X0025631Y0170213D01*
X0025597Y0170137D01*
X0025558Y0170063D01*
X0025517Y0169990D01*
X0025472Y0169919D01*
X0025424Y0169851D01*
X0025372Y0169785D01*
X0025318Y0169721D01*
X0025260Y0169660D01*
X0025200Y0169602D01*
X0025137Y0169547D01*
X0025072Y0169495D01*
X0025004Y0169446D01*
X0024934Y0169400D01*
X0024862Y0169358D01*
X0024788Y0169319D01*
X0024712Y0169283D01*
X0024634Y0169251D01*
X0024556Y0169223D01*
X0024475Y0169199D01*
X0024394Y0169178D01*
X0024312Y0169162D01*
X0024230Y0169149D01*
X0024146Y0169140D01*
X0024063Y0169135D01*
X0023979Y0169134D01*
X0023895Y0169137D01*
X0023812Y0169144D01*
X0023729Y0169155D01*
X0023647Y0169170D01*
X0023565Y0169188D01*
X0023484Y0169211D01*
X0023405Y0169237D01*
X0023327Y0169267D01*
X0023250Y0169301D01*
X0023175Y0169338D01*
X0023102Y0169378D01*
X0023031Y0169423D01*
X0022962Y0169470D01*
X0022895Y0169521D01*
X0022831Y0169574D01*
X0022769Y0169631D01*
X0022711Y0169691D01*
X0022655Y0169753D01*
X0022602Y0169818D01*
X0022552Y0169885D01*
X0022505Y0169954D01*
X0022462Y0170026D01*
X0022422Y0170100D01*
X0022386Y0170175D01*
X0022353Y0170252D01*
X0022324Y0170331D01*
X0022299Y0170410D01*
X0022277Y0170491D01*
X0022260Y0170573D01*
X0022246Y0170656D01*
X0022236Y0170739D01*
X0022230Y0170822D01*
X0022228Y0170906D01*
X0039518Y0207500D02*
X0039520Y0207584D01*
X0039526Y0207667D01*
X0039536Y0207750D01*
X0039550Y0207833D01*
X0039567Y0207915D01*
X0039589Y0207996D01*
X0039614Y0208075D01*
X0039643Y0208154D01*
X0039676Y0208231D01*
X0039712Y0208306D01*
X0039752Y0208380D01*
X0039795Y0208452D01*
X0039842Y0208521D01*
X0039892Y0208588D01*
X0039945Y0208653D01*
X0040001Y0208715D01*
X0040059Y0208775D01*
X0040121Y0208832D01*
X0040185Y0208885D01*
X0040252Y0208936D01*
X0040321Y0208983D01*
X0040392Y0209028D01*
X0040465Y0209068D01*
X0040540Y0209105D01*
X0040617Y0209139D01*
X0040695Y0209169D01*
X0040774Y0209195D01*
X0040855Y0209218D01*
X0040937Y0209236D01*
X0041019Y0209251D01*
X0041102Y0209262D01*
X0041185Y0209269D01*
X0041269Y0209272D01*
X0041353Y0209271D01*
X0041436Y0209266D01*
X0041520Y0209257D01*
X0041602Y0209244D01*
X0041684Y0209228D01*
X0041765Y0209207D01*
X0041846Y0209183D01*
X0041924Y0209155D01*
X0042002Y0209123D01*
X0042078Y0209087D01*
X0042152Y0209048D01*
X0042224Y0209006D01*
X0042294Y0208960D01*
X0042362Y0208911D01*
X0042427Y0208859D01*
X0042490Y0208804D01*
X0042550Y0208746D01*
X0042608Y0208685D01*
X0042662Y0208621D01*
X0042714Y0208555D01*
X0042762Y0208487D01*
X0042807Y0208416D01*
X0042848Y0208343D01*
X0042887Y0208269D01*
X0042921Y0208193D01*
X0042952Y0208115D01*
X0042979Y0208036D01*
X0043003Y0207955D01*
X0043022Y0207874D01*
X0043038Y0207792D01*
X0043050Y0207709D01*
X0043058Y0207625D01*
X0043062Y0207542D01*
X0043062Y0207458D01*
X0043058Y0207375D01*
X0043050Y0207291D01*
X0043038Y0207208D01*
X0043022Y0207126D01*
X0043003Y0207045D01*
X0042979Y0206964D01*
X0042952Y0206885D01*
X0042921Y0206807D01*
X0042887Y0206731D01*
X0042848Y0206657D01*
X0042807Y0206584D01*
X0042762Y0206513D01*
X0042714Y0206445D01*
X0042662Y0206379D01*
X0042608Y0206315D01*
X0042550Y0206254D01*
X0042490Y0206196D01*
X0042427Y0206141D01*
X0042362Y0206089D01*
X0042294Y0206040D01*
X0042224Y0205994D01*
X0042152Y0205952D01*
X0042078Y0205913D01*
X0042002Y0205877D01*
X0041924Y0205845D01*
X0041846Y0205817D01*
X0041765Y0205793D01*
X0041684Y0205772D01*
X0041602Y0205756D01*
X0041520Y0205743D01*
X0041436Y0205734D01*
X0041353Y0205729D01*
X0041269Y0205728D01*
X0041185Y0205731D01*
X0041102Y0205738D01*
X0041019Y0205749D01*
X0040937Y0205764D01*
X0040855Y0205782D01*
X0040774Y0205805D01*
X0040695Y0205831D01*
X0040617Y0205861D01*
X0040540Y0205895D01*
X0040465Y0205932D01*
X0040392Y0205972D01*
X0040321Y0206017D01*
X0040252Y0206064D01*
X0040185Y0206115D01*
X0040121Y0206168D01*
X0040059Y0206225D01*
X0040001Y0206285D01*
X0039945Y0206347D01*
X0039892Y0206412D01*
X0039842Y0206479D01*
X0039795Y0206548D01*
X0039752Y0206620D01*
X0039712Y0206694D01*
X0039676Y0206769D01*
X0039643Y0206846D01*
X0039614Y0206925D01*
X0039589Y0207004D01*
X0039567Y0207085D01*
X0039550Y0207167D01*
X0039536Y0207250D01*
X0039526Y0207333D01*
X0039520Y0207416D01*
X0039518Y0207500D01*
X0051329Y0207500D02*
X0051331Y0207584D01*
X0051337Y0207667D01*
X0051347Y0207750D01*
X0051361Y0207833D01*
X0051378Y0207915D01*
X0051400Y0207996D01*
X0051425Y0208075D01*
X0051454Y0208154D01*
X0051487Y0208231D01*
X0051523Y0208306D01*
X0051563Y0208380D01*
X0051606Y0208452D01*
X0051653Y0208521D01*
X0051703Y0208588D01*
X0051756Y0208653D01*
X0051812Y0208715D01*
X0051870Y0208775D01*
X0051932Y0208832D01*
X0051996Y0208885D01*
X0052063Y0208936D01*
X0052132Y0208983D01*
X0052203Y0209028D01*
X0052276Y0209068D01*
X0052351Y0209105D01*
X0052428Y0209139D01*
X0052506Y0209169D01*
X0052585Y0209195D01*
X0052666Y0209218D01*
X0052748Y0209236D01*
X0052830Y0209251D01*
X0052913Y0209262D01*
X0052996Y0209269D01*
X0053080Y0209272D01*
X0053164Y0209271D01*
X0053247Y0209266D01*
X0053331Y0209257D01*
X0053413Y0209244D01*
X0053495Y0209228D01*
X0053576Y0209207D01*
X0053657Y0209183D01*
X0053735Y0209155D01*
X0053813Y0209123D01*
X0053889Y0209087D01*
X0053963Y0209048D01*
X0054035Y0209006D01*
X0054105Y0208960D01*
X0054173Y0208911D01*
X0054238Y0208859D01*
X0054301Y0208804D01*
X0054361Y0208746D01*
X0054419Y0208685D01*
X0054473Y0208621D01*
X0054525Y0208555D01*
X0054573Y0208487D01*
X0054618Y0208416D01*
X0054659Y0208343D01*
X0054698Y0208269D01*
X0054732Y0208193D01*
X0054763Y0208115D01*
X0054790Y0208036D01*
X0054814Y0207955D01*
X0054833Y0207874D01*
X0054849Y0207792D01*
X0054861Y0207709D01*
X0054869Y0207625D01*
X0054873Y0207542D01*
X0054873Y0207458D01*
X0054869Y0207375D01*
X0054861Y0207291D01*
X0054849Y0207208D01*
X0054833Y0207126D01*
X0054814Y0207045D01*
X0054790Y0206964D01*
X0054763Y0206885D01*
X0054732Y0206807D01*
X0054698Y0206731D01*
X0054659Y0206657D01*
X0054618Y0206584D01*
X0054573Y0206513D01*
X0054525Y0206445D01*
X0054473Y0206379D01*
X0054419Y0206315D01*
X0054361Y0206254D01*
X0054301Y0206196D01*
X0054238Y0206141D01*
X0054173Y0206089D01*
X0054105Y0206040D01*
X0054035Y0205994D01*
X0053963Y0205952D01*
X0053889Y0205913D01*
X0053813Y0205877D01*
X0053735Y0205845D01*
X0053657Y0205817D01*
X0053576Y0205793D01*
X0053495Y0205772D01*
X0053413Y0205756D01*
X0053331Y0205743D01*
X0053247Y0205734D01*
X0053164Y0205729D01*
X0053080Y0205728D01*
X0052996Y0205731D01*
X0052913Y0205738D01*
X0052830Y0205749D01*
X0052748Y0205764D01*
X0052666Y0205782D01*
X0052585Y0205805D01*
X0052506Y0205831D01*
X0052428Y0205861D01*
X0052351Y0205895D01*
X0052276Y0205932D01*
X0052203Y0205972D01*
X0052132Y0206017D01*
X0052063Y0206064D01*
X0051996Y0206115D01*
X0051932Y0206168D01*
X0051870Y0206225D01*
X0051812Y0206285D01*
X0051756Y0206347D01*
X0051703Y0206412D01*
X0051653Y0206479D01*
X0051606Y0206548D01*
X0051563Y0206620D01*
X0051523Y0206694D01*
X0051487Y0206769D01*
X0051454Y0206846D01*
X0051425Y0206925D01*
X0051400Y0207004D01*
X0051378Y0207085D01*
X0051361Y0207167D01*
X0051347Y0207250D01*
X0051337Y0207333D01*
X0051331Y0207416D01*
X0051329Y0207500D01*
X0156201Y0110500D02*
X0156203Y0110658D01*
X0156209Y0110816D01*
X0156219Y0110974D01*
X0156233Y0111132D01*
X0156251Y0111289D01*
X0156272Y0111446D01*
X0156298Y0111602D01*
X0156328Y0111758D01*
X0156361Y0111913D01*
X0156399Y0112066D01*
X0156440Y0112219D01*
X0156485Y0112371D01*
X0156534Y0112522D01*
X0156587Y0112671D01*
X0156643Y0112819D01*
X0156703Y0112965D01*
X0156767Y0113110D01*
X0156835Y0113253D01*
X0156906Y0113395D01*
X0156980Y0113535D01*
X0157058Y0113672D01*
X0157140Y0113808D01*
X0157224Y0113942D01*
X0157313Y0114073D01*
X0157404Y0114202D01*
X0157499Y0114329D01*
X0157596Y0114454D01*
X0157697Y0114576D01*
X0157801Y0114695D01*
X0157908Y0114812D01*
X0158018Y0114926D01*
X0158131Y0115037D01*
X0158246Y0115146D01*
X0158364Y0115251D01*
X0158485Y0115353D01*
X0158608Y0115453D01*
X0158734Y0115549D01*
X0158862Y0115642D01*
X0158992Y0115732D01*
X0159125Y0115818D01*
X0159260Y0115902D01*
X0159396Y0115981D01*
X0159535Y0116058D01*
X0159676Y0116130D01*
X0159818Y0116200D01*
X0159962Y0116265D01*
X0160108Y0116327D01*
X0160255Y0116385D01*
X0160404Y0116440D01*
X0160554Y0116491D01*
X0160705Y0116538D01*
X0160857Y0116581D01*
X0161010Y0116620D01*
X0161165Y0116656D01*
X0161320Y0116687D01*
X0161476Y0116715D01*
X0161632Y0116739D01*
X0161789Y0116759D01*
X0161947Y0116775D01*
X0162104Y0116787D01*
X0162263Y0116795D01*
X0162421Y0116799D01*
X0162579Y0116799D01*
X0162737Y0116795D01*
X0162896Y0116787D01*
X0163053Y0116775D01*
X0163211Y0116759D01*
X0163368Y0116739D01*
X0163524Y0116715D01*
X0163680Y0116687D01*
X0163835Y0116656D01*
X0163990Y0116620D01*
X0164143Y0116581D01*
X0164295Y0116538D01*
X0164446Y0116491D01*
X0164596Y0116440D01*
X0164745Y0116385D01*
X0164892Y0116327D01*
X0165038Y0116265D01*
X0165182Y0116200D01*
X0165324Y0116130D01*
X0165465Y0116058D01*
X0165604Y0115981D01*
X0165740Y0115902D01*
X0165875Y0115818D01*
X0166008Y0115732D01*
X0166138Y0115642D01*
X0166266Y0115549D01*
X0166392Y0115453D01*
X0166515Y0115353D01*
X0166636Y0115251D01*
X0166754Y0115146D01*
X0166869Y0115037D01*
X0166982Y0114926D01*
X0167092Y0114812D01*
X0167199Y0114695D01*
X0167303Y0114576D01*
X0167404Y0114454D01*
X0167501Y0114329D01*
X0167596Y0114202D01*
X0167687Y0114073D01*
X0167776Y0113942D01*
X0167860Y0113808D01*
X0167942Y0113672D01*
X0168020Y0113535D01*
X0168094Y0113395D01*
X0168165Y0113253D01*
X0168233Y0113110D01*
X0168297Y0112965D01*
X0168357Y0112819D01*
X0168413Y0112671D01*
X0168466Y0112522D01*
X0168515Y0112371D01*
X0168560Y0112219D01*
X0168601Y0112066D01*
X0168639Y0111913D01*
X0168672Y0111758D01*
X0168702Y0111602D01*
X0168728Y0111446D01*
X0168749Y0111289D01*
X0168767Y0111132D01*
X0168781Y0110974D01*
X0168791Y0110816D01*
X0168797Y0110658D01*
X0168799Y0110500D01*
X0168797Y0110342D01*
X0168791Y0110184D01*
X0168781Y0110026D01*
X0168767Y0109868D01*
X0168749Y0109711D01*
X0168728Y0109554D01*
X0168702Y0109398D01*
X0168672Y0109242D01*
X0168639Y0109087D01*
X0168601Y0108934D01*
X0168560Y0108781D01*
X0168515Y0108629D01*
X0168466Y0108478D01*
X0168413Y0108329D01*
X0168357Y0108181D01*
X0168297Y0108035D01*
X0168233Y0107890D01*
X0168165Y0107747D01*
X0168094Y0107605D01*
X0168020Y0107465D01*
X0167942Y0107328D01*
X0167860Y0107192D01*
X0167776Y0107058D01*
X0167687Y0106927D01*
X0167596Y0106798D01*
X0167501Y0106671D01*
X0167404Y0106546D01*
X0167303Y0106424D01*
X0167199Y0106305D01*
X0167092Y0106188D01*
X0166982Y0106074D01*
X0166869Y0105963D01*
X0166754Y0105854D01*
X0166636Y0105749D01*
X0166515Y0105647D01*
X0166392Y0105547D01*
X0166266Y0105451D01*
X0166138Y0105358D01*
X0166008Y0105268D01*
X0165875Y0105182D01*
X0165740Y0105098D01*
X0165604Y0105019D01*
X0165465Y0104942D01*
X0165324Y0104870D01*
X0165182Y0104800D01*
X0165038Y0104735D01*
X0164892Y0104673D01*
X0164745Y0104615D01*
X0164596Y0104560D01*
X0164446Y0104509D01*
X0164295Y0104462D01*
X0164143Y0104419D01*
X0163990Y0104380D01*
X0163835Y0104344D01*
X0163680Y0104313D01*
X0163524Y0104285D01*
X0163368Y0104261D01*
X0163211Y0104241D01*
X0163053Y0104225D01*
X0162896Y0104213D01*
X0162737Y0104205D01*
X0162579Y0104201D01*
X0162421Y0104201D01*
X0162263Y0104205D01*
X0162104Y0104213D01*
X0161947Y0104225D01*
X0161789Y0104241D01*
X0161632Y0104261D01*
X0161476Y0104285D01*
X0161320Y0104313D01*
X0161165Y0104344D01*
X0161010Y0104380D01*
X0160857Y0104419D01*
X0160705Y0104462D01*
X0160554Y0104509D01*
X0160404Y0104560D01*
X0160255Y0104615D01*
X0160108Y0104673D01*
X0159962Y0104735D01*
X0159818Y0104800D01*
X0159676Y0104870D01*
X0159535Y0104942D01*
X0159396Y0105019D01*
X0159260Y0105098D01*
X0159125Y0105182D01*
X0158992Y0105268D01*
X0158862Y0105358D01*
X0158734Y0105451D01*
X0158608Y0105547D01*
X0158485Y0105647D01*
X0158364Y0105749D01*
X0158246Y0105854D01*
X0158131Y0105963D01*
X0158018Y0106074D01*
X0157908Y0106188D01*
X0157801Y0106305D01*
X0157697Y0106424D01*
X0157596Y0106546D01*
X0157499Y0106671D01*
X0157404Y0106798D01*
X0157313Y0106927D01*
X0157224Y0107058D01*
X0157140Y0107192D01*
X0157058Y0107328D01*
X0156980Y0107465D01*
X0156906Y0107605D01*
X0156835Y0107747D01*
X0156767Y0107890D01*
X0156703Y0108035D01*
X0156643Y0108181D01*
X0156587Y0108329D01*
X0156534Y0108478D01*
X0156485Y0108629D01*
X0156440Y0108781D01*
X0156399Y0108934D01*
X0156361Y0109087D01*
X0156328Y0109242D01*
X0156298Y0109398D01*
X0156272Y0109554D01*
X0156251Y0109711D01*
X0156233Y0109868D01*
X0156219Y0110026D01*
X0156209Y0110184D01*
X0156203Y0110342D01*
X0156201Y0110500D01*
X0227788Y0099900D02*
X0227790Y0100048D01*
X0227796Y0100196D01*
X0227806Y0100344D01*
X0227820Y0100491D01*
X0227838Y0100638D01*
X0227859Y0100784D01*
X0227885Y0100930D01*
X0227915Y0101075D01*
X0227948Y0101219D01*
X0227986Y0101362D01*
X0228027Y0101504D01*
X0228072Y0101645D01*
X0228120Y0101785D01*
X0228173Y0101924D01*
X0228229Y0102061D01*
X0228289Y0102196D01*
X0228352Y0102330D01*
X0228419Y0102462D01*
X0228490Y0102592D01*
X0228564Y0102720D01*
X0228641Y0102846D01*
X0228722Y0102970D01*
X0228806Y0103092D01*
X0228893Y0103211D01*
X0228984Y0103328D01*
X0229078Y0103443D01*
X0229174Y0103555D01*
X0229274Y0103665D01*
X0229376Y0103771D01*
X0229482Y0103875D01*
X0229590Y0103976D01*
X0229701Y0104074D01*
X0229814Y0104170D01*
X0229930Y0104262D01*
X0230048Y0104351D01*
X0230169Y0104436D01*
X0230292Y0104519D01*
X0230417Y0104598D01*
X0230544Y0104674D01*
X0230673Y0104746D01*
X0230804Y0104815D01*
X0230937Y0104880D01*
X0231072Y0104941D01*
X0231208Y0104999D01*
X0231345Y0105054D01*
X0231484Y0105104D01*
X0231625Y0105151D01*
X0231766Y0105194D01*
X0231909Y0105234D01*
X0232053Y0105269D01*
X0232197Y0105301D01*
X0232343Y0105328D01*
X0232489Y0105352D01*
X0232636Y0105372D01*
X0232783Y0105388D01*
X0232930Y0105400D01*
X0233078Y0105408D01*
X0233226Y0105412D01*
X0233374Y0105412D01*
X0233522Y0105408D01*
X0233670Y0105400D01*
X0233817Y0105388D01*
X0233964Y0105372D01*
X0234111Y0105352D01*
X0234257Y0105328D01*
X0234403Y0105301D01*
X0234547Y0105269D01*
X0234691Y0105234D01*
X0234834Y0105194D01*
X0234975Y0105151D01*
X0235116Y0105104D01*
X0235255Y0105054D01*
X0235392Y0104999D01*
X0235528Y0104941D01*
X0235663Y0104880D01*
X0235796Y0104815D01*
X0235927Y0104746D01*
X0236056Y0104674D01*
X0236183Y0104598D01*
X0236308Y0104519D01*
X0236431Y0104436D01*
X0236552Y0104351D01*
X0236670Y0104262D01*
X0236786Y0104170D01*
X0236899Y0104074D01*
X0237010Y0103976D01*
X0237118Y0103875D01*
X0237224Y0103771D01*
X0237326Y0103665D01*
X0237426Y0103555D01*
X0237522Y0103443D01*
X0237616Y0103328D01*
X0237707Y0103211D01*
X0237794Y0103092D01*
X0237878Y0102970D01*
X0237959Y0102846D01*
X0238036Y0102720D01*
X0238110Y0102592D01*
X0238181Y0102462D01*
X0238248Y0102330D01*
X0238311Y0102196D01*
X0238371Y0102061D01*
X0238427Y0101924D01*
X0238480Y0101785D01*
X0238528Y0101645D01*
X0238573Y0101504D01*
X0238614Y0101362D01*
X0238652Y0101219D01*
X0238685Y0101075D01*
X0238715Y0100930D01*
X0238741Y0100784D01*
X0238762Y0100638D01*
X0238780Y0100491D01*
X0238794Y0100344D01*
X0238804Y0100196D01*
X0238810Y0100048D01*
X0238812Y0099900D01*
X0238810Y0099752D01*
X0238804Y0099604D01*
X0238794Y0099456D01*
X0238780Y0099309D01*
X0238762Y0099162D01*
X0238741Y0099016D01*
X0238715Y0098870D01*
X0238685Y0098725D01*
X0238652Y0098581D01*
X0238614Y0098438D01*
X0238573Y0098296D01*
X0238528Y0098155D01*
X0238480Y0098015D01*
X0238427Y0097876D01*
X0238371Y0097739D01*
X0238311Y0097604D01*
X0238248Y0097470D01*
X0238181Y0097338D01*
X0238110Y0097208D01*
X0238036Y0097080D01*
X0237959Y0096954D01*
X0237878Y0096830D01*
X0237794Y0096708D01*
X0237707Y0096589D01*
X0237616Y0096472D01*
X0237522Y0096357D01*
X0237426Y0096245D01*
X0237326Y0096135D01*
X0237224Y0096029D01*
X0237118Y0095925D01*
X0237010Y0095824D01*
X0236899Y0095726D01*
X0236786Y0095630D01*
X0236670Y0095538D01*
X0236552Y0095449D01*
X0236431Y0095364D01*
X0236308Y0095281D01*
X0236183Y0095202D01*
X0236056Y0095126D01*
X0235927Y0095054D01*
X0235796Y0094985D01*
X0235663Y0094920D01*
X0235528Y0094859D01*
X0235392Y0094801D01*
X0235255Y0094746D01*
X0235116Y0094696D01*
X0234975Y0094649D01*
X0234834Y0094606D01*
X0234691Y0094566D01*
X0234547Y0094531D01*
X0234403Y0094499D01*
X0234257Y0094472D01*
X0234111Y0094448D01*
X0233964Y0094428D01*
X0233817Y0094412D01*
X0233670Y0094400D01*
X0233522Y0094392D01*
X0233374Y0094388D01*
X0233226Y0094388D01*
X0233078Y0094392D01*
X0232930Y0094400D01*
X0232783Y0094412D01*
X0232636Y0094428D01*
X0232489Y0094448D01*
X0232343Y0094472D01*
X0232197Y0094499D01*
X0232053Y0094531D01*
X0231909Y0094566D01*
X0231766Y0094606D01*
X0231625Y0094649D01*
X0231484Y0094696D01*
X0231345Y0094746D01*
X0231208Y0094801D01*
X0231072Y0094859D01*
X0230937Y0094920D01*
X0230804Y0094985D01*
X0230673Y0095054D01*
X0230544Y0095126D01*
X0230417Y0095202D01*
X0230292Y0095281D01*
X0230169Y0095364D01*
X0230048Y0095449D01*
X0229930Y0095538D01*
X0229814Y0095630D01*
X0229701Y0095726D01*
X0229590Y0095824D01*
X0229482Y0095925D01*
X0229376Y0096029D01*
X0229274Y0096135D01*
X0229174Y0096245D01*
X0229078Y0096357D01*
X0228984Y0096472D01*
X0228893Y0096589D01*
X0228806Y0096708D01*
X0228722Y0096830D01*
X0228641Y0096954D01*
X0228564Y0097080D01*
X0228490Y0097208D01*
X0228419Y0097338D01*
X0228352Y0097470D01*
X0228289Y0097604D01*
X0228229Y0097739D01*
X0228173Y0097876D01*
X0228120Y0098015D01*
X0228072Y0098155D01*
X0228027Y0098296D01*
X0227986Y0098438D01*
X0227948Y0098581D01*
X0227915Y0098725D01*
X0227885Y0098870D01*
X0227859Y0099016D01*
X0227838Y0099162D01*
X0227820Y0099309D01*
X0227806Y0099456D01*
X0227796Y0099604D01*
X0227790Y0099752D01*
X0227788Y0099900D01*
X0156201Y0040500D02*
X0156203Y0040658D01*
X0156209Y0040816D01*
X0156219Y0040974D01*
X0156233Y0041132D01*
X0156251Y0041289D01*
X0156272Y0041446D01*
X0156298Y0041602D01*
X0156328Y0041758D01*
X0156361Y0041913D01*
X0156399Y0042066D01*
X0156440Y0042219D01*
X0156485Y0042371D01*
X0156534Y0042522D01*
X0156587Y0042671D01*
X0156643Y0042819D01*
X0156703Y0042965D01*
X0156767Y0043110D01*
X0156835Y0043253D01*
X0156906Y0043395D01*
X0156980Y0043535D01*
X0157058Y0043672D01*
X0157140Y0043808D01*
X0157224Y0043942D01*
X0157313Y0044073D01*
X0157404Y0044202D01*
X0157499Y0044329D01*
X0157596Y0044454D01*
X0157697Y0044576D01*
X0157801Y0044695D01*
X0157908Y0044812D01*
X0158018Y0044926D01*
X0158131Y0045037D01*
X0158246Y0045146D01*
X0158364Y0045251D01*
X0158485Y0045353D01*
X0158608Y0045453D01*
X0158734Y0045549D01*
X0158862Y0045642D01*
X0158992Y0045732D01*
X0159125Y0045818D01*
X0159260Y0045902D01*
X0159396Y0045981D01*
X0159535Y0046058D01*
X0159676Y0046130D01*
X0159818Y0046200D01*
X0159962Y0046265D01*
X0160108Y0046327D01*
X0160255Y0046385D01*
X0160404Y0046440D01*
X0160554Y0046491D01*
X0160705Y0046538D01*
X0160857Y0046581D01*
X0161010Y0046620D01*
X0161165Y0046656D01*
X0161320Y0046687D01*
X0161476Y0046715D01*
X0161632Y0046739D01*
X0161789Y0046759D01*
X0161947Y0046775D01*
X0162104Y0046787D01*
X0162263Y0046795D01*
X0162421Y0046799D01*
X0162579Y0046799D01*
X0162737Y0046795D01*
X0162896Y0046787D01*
X0163053Y0046775D01*
X0163211Y0046759D01*
X0163368Y0046739D01*
X0163524Y0046715D01*
X0163680Y0046687D01*
X0163835Y0046656D01*
X0163990Y0046620D01*
X0164143Y0046581D01*
X0164295Y0046538D01*
X0164446Y0046491D01*
X0164596Y0046440D01*
X0164745Y0046385D01*
X0164892Y0046327D01*
X0165038Y0046265D01*
X0165182Y0046200D01*
X0165324Y0046130D01*
X0165465Y0046058D01*
X0165604Y0045981D01*
X0165740Y0045902D01*
X0165875Y0045818D01*
X0166008Y0045732D01*
X0166138Y0045642D01*
X0166266Y0045549D01*
X0166392Y0045453D01*
X0166515Y0045353D01*
X0166636Y0045251D01*
X0166754Y0045146D01*
X0166869Y0045037D01*
X0166982Y0044926D01*
X0167092Y0044812D01*
X0167199Y0044695D01*
X0167303Y0044576D01*
X0167404Y0044454D01*
X0167501Y0044329D01*
X0167596Y0044202D01*
X0167687Y0044073D01*
X0167776Y0043942D01*
X0167860Y0043808D01*
X0167942Y0043672D01*
X0168020Y0043535D01*
X0168094Y0043395D01*
X0168165Y0043253D01*
X0168233Y0043110D01*
X0168297Y0042965D01*
X0168357Y0042819D01*
X0168413Y0042671D01*
X0168466Y0042522D01*
X0168515Y0042371D01*
X0168560Y0042219D01*
X0168601Y0042066D01*
X0168639Y0041913D01*
X0168672Y0041758D01*
X0168702Y0041602D01*
X0168728Y0041446D01*
X0168749Y0041289D01*
X0168767Y0041132D01*
X0168781Y0040974D01*
X0168791Y0040816D01*
X0168797Y0040658D01*
X0168799Y0040500D01*
X0168797Y0040342D01*
X0168791Y0040184D01*
X0168781Y0040026D01*
X0168767Y0039868D01*
X0168749Y0039711D01*
X0168728Y0039554D01*
X0168702Y0039398D01*
X0168672Y0039242D01*
X0168639Y0039087D01*
X0168601Y0038934D01*
X0168560Y0038781D01*
X0168515Y0038629D01*
X0168466Y0038478D01*
X0168413Y0038329D01*
X0168357Y0038181D01*
X0168297Y0038035D01*
X0168233Y0037890D01*
X0168165Y0037747D01*
X0168094Y0037605D01*
X0168020Y0037465D01*
X0167942Y0037328D01*
X0167860Y0037192D01*
X0167776Y0037058D01*
X0167687Y0036927D01*
X0167596Y0036798D01*
X0167501Y0036671D01*
X0167404Y0036546D01*
X0167303Y0036424D01*
X0167199Y0036305D01*
X0167092Y0036188D01*
X0166982Y0036074D01*
X0166869Y0035963D01*
X0166754Y0035854D01*
X0166636Y0035749D01*
X0166515Y0035647D01*
X0166392Y0035547D01*
X0166266Y0035451D01*
X0166138Y0035358D01*
X0166008Y0035268D01*
X0165875Y0035182D01*
X0165740Y0035098D01*
X0165604Y0035019D01*
X0165465Y0034942D01*
X0165324Y0034870D01*
X0165182Y0034800D01*
X0165038Y0034735D01*
X0164892Y0034673D01*
X0164745Y0034615D01*
X0164596Y0034560D01*
X0164446Y0034509D01*
X0164295Y0034462D01*
X0164143Y0034419D01*
X0163990Y0034380D01*
X0163835Y0034344D01*
X0163680Y0034313D01*
X0163524Y0034285D01*
X0163368Y0034261D01*
X0163211Y0034241D01*
X0163053Y0034225D01*
X0162896Y0034213D01*
X0162737Y0034205D01*
X0162579Y0034201D01*
X0162421Y0034201D01*
X0162263Y0034205D01*
X0162104Y0034213D01*
X0161947Y0034225D01*
X0161789Y0034241D01*
X0161632Y0034261D01*
X0161476Y0034285D01*
X0161320Y0034313D01*
X0161165Y0034344D01*
X0161010Y0034380D01*
X0160857Y0034419D01*
X0160705Y0034462D01*
X0160554Y0034509D01*
X0160404Y0034560D01*
X0160255Y0034615D01*
X0160108Y0034673D01*
X0159962Y0034735D01*
X0159818Y0034800D01*
X0159676Y0034870D01*
X0159535Y0034942D01*
X0159396Y0035019D01*
X0159260Y0035098D01*
X0159125Y0035182D01*
X0158992Y0035268D01*
X0158862Y0035358D01*
X0158734Y0035451D01*
X0158608Y0035547D01*
X0158485Y0035647D01*
X0158364Y0035749D01*
X0158246Y0035854D01*
X0158131Y0035963D01*
X0158018Y0036074D01*
X0157908Y0036188D01*
X0157801Y0036305D01*
X0157697Y0036424D01*
X0157596Y0036546D01*
X0157499Y0036671D01*
X0157404Y0036798D01*
X0157313Y0036927D01*
X0157224Y0037058D01*
X0157140Y0037192D01*
X0157058Y0037328D01*
X0156980Y0037465D01*
X0156906Y0037605D01*
X0156835Y0037747D01*
X0156767Y0037890D01*
X0156703Y0038035D01*
X0156643Y0038181D01*
X0156587Y0038329D01*
X0156534Y0038478D01*
X0156485Y0038629D01*
X0156440Y0038781D01*
X0156399Y0038934D01*
X0156361Y0039087D01*
X0156328Y0039242D01*
X0156298Y0039398D01*
X0156272Y0039554D01*
X0156251Y0039711D01*
X0156233Y0039868D01*
X0156219Y0040026D01*
X0156209Y0040184D01*
X0156203Y0040342D01*
X0156201Y0040500D01*
X0113600Y0045000D02*
X0113602Y0045107D01*
X0113608Y0045214D01*
X0113618Y0045321D01*
X0113632Y0045427D01*
X0113649Y0045533D01*
X0113671Y0045638D01*
X0113697Y0045742D01*
X0113726Y0045845D01*
X0113759Y0045947D01*
X0113796Y0046048D01*
X0113836Y0046147D01*
X0113881Y0046244D01*
X0113928Y0046340D01*
X0113980Y0046435D01*
X0114034Y0046527D01*
X0114092Y0046617D01*
X0114154Y0046705D01*
X0114218Y0046790D01*
X0114286Y0046873D01*
X0114357Y0046954D01*
X0114431Y0047032D01*
X0114507Y0047107D01*
X0114586Y0047179D01*
X0114668Y0047248D01*
X0114752Y0047314D01*
X0114839Y0047377D01*
X0114928Y0047437D01*
X0115019Y0047493D01*
X0115112Y0047546D01*
X0115207Y0047596D01*
X0115304Y0047642D01*
X0115403Y0047684D01*
X0115503Y0047723D01*
X0115604Y0047758D01*
X0115706Y0047789D01*
X0115810Y0047817D01*
X0115915Y0047840D01*
X0116020Y0047860D01*
X0116126Y0047876D01*
X0116232Y0047888D01*
X0116339Y0047896D01*
X0116446Y0047900D01*
X0116554Y0047900D01*
X0116661Y0047896D01*
X0116768Y0047888D01*
X0116874Y0047876D01*
X0116980Y0047860D01*
X0117085Y0047840D01*
X0117190Y0047817D01*
X0117294Y0047789D01*
X0117396Y0047758D01*
X0117497Y0047723D01*
X0117597Y0047684D01*
X0117696Y0047642D01*
X0117793Y0047596D01*
X0117888Y0047546D01*
X0117981Y0047493D01*
X0118072Y0047437D01*
X0118161Y0047377D01*
X0118248Y0047314D01*
X0118332Y0047248D01*
X0118414Y0047179D01*
X0118493Y0047107D01*
X0118569Y0047032D01*
X0118643Y0046954D01*
X0118714Y0046873D01*
X0118782Y0046790D01*
X0118846Y0046705D01*
X0118908Y0046617D01*
X0118966Y0046527D01*
X0119020Y0046435D01*
X0119072Y0046340D01*
X0119119Y0046244D01*
X0119164Y0046147D01*
X0119204Y0046048D01*
X0119241Y0045947D01*
X0119274Y0045845D01*
X0119303Y0045742D01*
X0119329Y0045638D01*
X0119351Y0045533D01*
X0119368Y0045427D01*
X0119382Y0045321D01*
X0119392Y0045214D01*
X0119398Y0045107D01*
X0119400Y0045000D01*
X0119398Y0044893D01*
X0119392Y0044786D01*
X0119382Y0044679D01*
X0119368Y0044573D01*
X0119351Y0044467D01*
X0119329Y0044362D01*
X0119303Y0044258D01*
X0119274Y0044155D01*
X0119241Y0044053D01*
X0119204Y0043952D01*
X0119164Y0043853D01*
X0119119Y0043756D01*
X0119072Y0043660D01*
X0119020Y0043565D01*
X0118966Y0043473D01*
X0118908Y0043383D01*
X0118846Y0043295D01*
X0118782Y0043210D01*
X0118714Y0043127D01*
X0118643Y0043046D01*
X0118569Y0042968D01*
X0118493Y0042893D01*
X0118414Y0042821D01*
X0118332Y0042752D01*
X0118248Y0042686D01*
X0118161Y0042623D01*
X0118072Y0042563D01*
X0117981Y0042507D01*
X0117888Y0042454D01*
X0117793Y0042404D01*
X0117696Y0042358D01*
X0117597Y0042316D01*
X0117497Y0042277D01*
X0117396Y0042242D01*
X0117294Y0042211D01*
X0117190Y0042183D01*
X0117085Y0042160D01*
X0116980Y0042140D01*
X0116874Y0042124D01*
X0116768Y0042112D01*
X0116661Y0042104D01*
X0116554Y0042100D01*
X0116446Y0042100D01*
X0116339Y0042104D01*
X0116232Y0042112D01*
X0116126Y0042124D01*
X0116020Y0042140D01*
X0115915Y0042160D01*
X0115810Y0042183D01*
X0115706Y0042211D01*
X0115604Y0042242D01*
X0115503Y0042277D01*
X0115403Y0042316D01*
X0115304Y0042358D01*
X0115207Y0042404D01*
X0115112Y0042454D01*
X0115019Y0042507D01*
X0114928Y0042563D01*
X0114839Y0042623D01*
X0114752Y0042686D01*
X0114668Y0042752D01*
X0114586Y0042821D01*
X0114507Y0042893D01*
X0114431Y0042968D01*
X0114357Y0043046D01*
X0114286Y0043127D01*
X0114218Y0043210D01*
X0114154Y0043295D01*
X0114092Y0043383D01*
X0114034Y0043473D01*
X0113980Y0043565D01*
X0113928Y0043660D01*
X0113881Y0043756D01*
X0113836Y0043853D01*
X0113796Y0043952D01*
X0113759Y0044053D01*
X0113726Y0044155D01*
X0113697Y0044258D01*
X0113671Y0044362D01*
X0113649Y0044467D01*
X0113632Y0044573D01*
X0113618Y0044679D01*
X0113608Y0044786D01*
X0113602Y0044893D01*
X0113600Y0045000D01*
X0113600Y0055000D02*
X0113602Y0055107D01*
X0113608Y0055214D01*
X0113618Y0055321D01*
X0113632Y0055427D01*
X0113649Y0055533D01*
X0113671Y0055638D01*
X0113697Y0055742D01*
X0113726Y0055845D01*
X0113759Y0055947D01*
X0113796Y0056048D01*
X0113836Y0056147D01*
X0113881Y0056244D01*
X0113928Y0056340D01*
X0113980Y0056435D01*
X0114034Y0056527D01*
X0114092Y0056617D01*
X0114154Y0056705D01*
X0114218Y0056790D01*
X0114286Y0056873D01*
X0114357Y0056954D01*
X0114431Y0057032D01*
X0114507Y0057107D01*
X0114586Y0057179D01*
X0114668Y0057248D01*
X0114752Y0057314D01*
X0114839Y0057377D01*
X0114928Y0057437D01*
X0115019Y0057493D01*
X0115112Y0057546D01*
X0115207Y0057596D01*
X0115304Y0057642D01*
X0115403Y0057684D01*
X0115503Y0057723D01*
X0115604Y0057758D01*
X0115706Y0057789D01*
X0115810Y0057817D01*
X0115915Y0057840D01*
X0116020Y0057860D01*
X0116126Y0057876D01*
X0116232Y0057888D01*
X0116339Y0057896D01*
X0116446Y0057900D01*
X0116554Y0057900D01*
X0116661Y0057896D01*
X0116768Y0057888D01*
X0116874Y0057876D01*
X0116980Y0057860D01*
X0117085Y0057840D01*
X0117190Y0057817D01*
X0117294Y0057789D01*
X0117396Y0057758D01*
X0117497Y0057723D01*
X0117597Y0057684D01*
X0117696Y0057642D01*
X0117793Y0057596D01*
X0117888Y0057546D01*
X0117981Y0057493D01*
X0118072Y0057437D01*
X0118161Y0057377D01*
X0118248Y0057314D01*
X0118332Y0057248D01*
X0118414Y0057179D01*
X0118493Y0057107D01*
X0118569Y0057032D01*
X0118643Y0056954D01*
X0118714Y0056873D01*
X0118782Y0056790D01*
X0118846Y0056705D01*
X0118908Y0056617D01*
X0118966Y0056527D01*
X0119020Y0056435D01*
X0119072Y0056340D01*
X0119119Y0056244D01*
X0119164Y0056147D01*
X0119204Y0056048D01*
X0119241Y0055947D01*
X0119274Y0055845D01*
X0119303Y0055742D01*
X0119329Y0055638D01*
X0119351Y0055533D01*
X0119368Y0055427D01*
X0119382Y0055321D01*
X0119392Y0055214D01*
X0119398Y0055107D01*
X0119400Y0055000D01*
X0119398Y0054893D01*
X0119392Y0054786D01*
X0119382Y0054679D01*
X0119368Y0054573D01*
X0119351Y0054467D01*
X0119329Y0054362D01*
X0119303Y0054258D01*
X0119274Y0054155D01*
X0119241Y0054053D01*
X0119204Y0053952D01*
X0119164Y0053853D01*
X0119119Y0053756D01*
X0119072Y0053660D01*
X0119020Y0053565D01*
X0118966Y0053473D01*
X0118908Y0053383D01*
X0118846Y0053295D01*
X0118782Y0053210D01*
X0118714Y0053127D01*
X0118643Y0053046D01*
X0118569Y0052968D01*
X0118493Y0052893D01*
X0118414Y0052821D01*
X0118332Y0052752D01*
X0118248Y0052686D01*
X0118161Y0052623D01*
X0118072Y0052563D01*
X0117981Y0052507D01*
X0117888Y0052454D01*
X0117793Y0052404D01*
X0117696Y0052358D01*
X0117597Y0052316D01*
X0117497Y0052277D01*
X0117396Y0052242D01*
X0117294Y0052211D01*
X0117190Y0052183D01*
X0117085Y0052160D01*
X0116980Y0052140D01*
X0116874Y0052124D01*
X0116768Y0052112D01*
X0116661Y0052104D01*
X0116554Y0052100D01*
X0116446Y0052100D01*
X0116339Y0052104D01*
X0116232Y0052112D01*
X0116126Y0052124D01*
X0116020Y0052140D01*
X0115915Y0052160D01*
X0115810Y0052183D01*
X0115706Y0052211D01*
X0115604Y0052242D01*
X0115503Y0052277D01*
X0115403Y0052316D01*
X0115304Y0052358D01*
X0115207Y0052404D01*
X0115112Y0052454D01*
X0115019Y0052507D01*
X0114928Y0052563D01*
X0114839Y0052623D01*
X0114752Y0052686D01*
X0114668Y0052752D01*
X0114586Y0052821D01*
X0114507Y0052893D01*
X0114431Y0052968D01*
X0114357Y0053046D01*
X0114286Y0053127D01*
X0114218Y0053210D01*
X0114154Y0053295D01*
X0114092Y0053383D01*
X0114034Y0053473D01*
X0113980Y0053565D01*
X0113928Y0053660D01*
X0113881Y0053756D01*
X0113836Y0053853D01*
X0113796Y0053952D01*
X0113759Y0054053D01*
X0113726Y0054155D01*
X0113697Y0054258D01*
X0113671Y0054362D01*
X0113649Y0054467D01*
X0113632Y0054573D01*
X0113618Y0054679D01*
X0113608Y0054786D01*
X0113602Y0054893D01*
X0113600Y0055000D01*
X0023600Y0055000D02*
X0023602Y0055107D01*
X0023608Y0055214D01*
X0023618Y0055321D01*
X0023632Y0055427D01*
X0023649Y0055533D01*
X0023671Y0055638D01*
X0023697Y0055742D01*
X0023726Y0055845D01*
X0023759Y0055947D01*
X0023796Y0056048D01*
X0023836Y0056147D01*
X0023881Y0056244D01*
X0023928Y0056340D01*
X0023980Y0056435D01*
X0024034Y0056527D01*
X0024092Y0056617D01*
X0024154Y0056705D01*
X0024218Y0056790D01*
X0024286Y0056873D01*
X0024357Y0056954D01*
X0024431Y0057032D01*
X0024507Y0057107D01*
X0024586Y0057179D01*
X0024668Y0057248D01*
X0024752Y0057314D01*
X0024839Y0057377D01*
X0024928Y0057437D01*
X0025019Y0057493D01*
X0025112Y0057546D01*
X0025207Y0057596D01*
X0025304Y0057642D01*
X0025403Y0057684D01*
X0025503Y0057723D01*
X0025604Y0057758D01*
X0025706Y0057789D01*
X0025810Y0057817D01*
X0025915Y0057840D01*
X0026020Y0057860D01*
X0026126Y0057876D01*
X0026232Y0057888D01*
X0026339Y0057896D01*
X0026446Y0057900D01*
X0026554Y0057900D01*
X0026661Y0057896D01*
X0026768Y0057888D01*
X0026874Y0057876D01*
X0026980Y0057860D01*
X0027085Y0057840D01*
X0027190Y0057817D01*
X0027294Y0057789D01*
X0027396Y0057758D01*
X0027497Y0057723D01*
X0027597Y0057684D01*
X0027696Y0057642D01*
X0027793Y0057596D01*
X0027888Y0057546D01*
X0027981Y0057493D01*
X0028072Y0057437D01*
X0028161Y0057377D01*
X0028248Y0057314D01*
X0028332Y0057248D01*
X0028414Y0057179D01*
X0028493Y0057107D01*
X0028569Y0057032D01*
X0028643Y0056954D01*
X0028714Y0056873D01*
X0028782Y0056790D01*
X0028846Y0056705D01*
X0028908Y0056617D01*
X0028966Y0056527D01*
X0029020Y0056435D01*
X0029072Y0056340D01*
X0029119Y0056244D01*
X0029164Y0056147D01*
X0029204Y0056048D01*
X0029241Y0055947D01*
X0029274Y0055845D01*
X0029303Y0055742D01*
X0029329Y0055638D01*
X0029351Y0055533D01*
X0029368Y0055427D01*
X0029382Y0055321D01*
X0029392Y0055214D01*
X0029398Y0055107D01*
X0029400Y0055000D01*
X0029398Y0054893D01*
X0029392Y0054786D01*
X0029382Y0054679D01*
X0029368Y0054573D01*
X0029351Y0054467D01*
X0029329Y0054362D01*
X0029303Y0054258D01*
X0029274Y0054155D01*
X0029241Y0054053D01*
X0029204Y0053952D01*
X0029164Y0053853D01*
X0029119Y0053756D01*
X0029072Y0053660D01*
X0029020Y0053565D01*
X0028966Y0053473D01*
X0028908Y0053383D01*
X0028846Y0053295D01*
X0028782Y0053210D01*
X0028714Y0053127D01*
X0028643Y0053046D01*
X0028569Y0052968D01*
X0028493Y0052893D01*
X0028414Y0052821D01*
X0028332Y0052752D01*
X0028248Y0052686D01*
X0028161Y0052623D01*
X0028072Y0052563D01*
X0027981Y0052507D01*
X0027888Y0052454D01*
X0027793Y0052404D01*
X0027696Y0052358D01*
X0027597Y0052316D01*
X0027497Y0052277D01*
X0027396Y0052242D01*
X0027294Y0052211D01*
X0027190Y0052183D01*
X0027085Y0052160D01*
X0026980Y0052140D01*
X0026874Y0052124D01*
X0026768Y0052112D01*
X0026661Y0052104D01*
X0026554Y0052100D01*
X0026446Y0052100D01*
X0026339Y0052104D01*
X0026232Y0052112D01*
X0026126Y0052124D01*
X0026020Y0052140D01*
X0025915Y0052160D01*
X0025810Y0052183D01*
X0025706Y0052211D01*
X0025604Y0052242D01*
X0025503Y0052277D01*
X0025403Y0052316D01*
X0025304Y0052358D01*
X0025207Y0052404D01*
X0025112Y0052454D01*
X0025019Y0052507D01*
X0024928Y0052563D01*
X0024839Y0052623D01*
X0024752Y0052686D01*
X0024668Y0052752D01*
X0024586Y0052821D01*
X0024507Y0052893D01*
X0024431Y0052968D01*
X0024357Y0053046D01*
X0024286Y0053127D01*
X0024218Y0053210D01*
X0024154Y0053295D01*
X0024092Y0053383D01*
X0024034Y0053473D01*
X0023980Y0053565D01*
X0023928Y0053660D01*
X0023881Y0053756D01*
X0023836Y0053853D01*
X0023796Y0053952D01*
X0023759Y0054053D01*
X0023726Y0054155D01*
X0023697Y0054258D01*
X0023671Y0054362D01*
X0023649Y0054467D01*
X0023632Y0054573D01*
X0023618Y0054679D01*
X0023608Y0054786D01*
X0023602Y0054893D01*
X0023600Y0055000D01*
X0023600Y0045000D02*
X0023602Y0045107D01*
X0023608Y0045214D01*
X0023618Y0045321D01*
X0023632Y0045427D01*
X0023649Y0045533D01*
X0023671Y0045638D01*
X0023697Y0045742D01*
X0023726Y0045845D01*
X0023759Y0045947D01*
X0023796Y0046048D01*
X0023836Y0046147D01*
X0023881Y0046244D01*
X0023928Y0046340D01*
X0023980Y0046435D01*
X0024034Y0046527D01*
X0024092Y0046617D01*
X0024154Y0046705D01*
X0024218Y0046790D01*
X0024286Y0046873D01*
X0024357Y0046954D01*
X0024431Y0047032D01*
X0024507Y0047107D01*
X0024586Y0047179D01*
X0024668Y0047248D01*
X0024752Y0047314D01*
X0024839Y0047377D01*
X0024928Y0047437D01*
X0025019Y0047493D01*
X0025112Y0047546D01*
X0025207Y0047596D01*
X0025304Y0047642D01*
X0025403Y0047684D01*
X0025503Y0047723D01*
X0025604Y0047758D01*
X0025706Y0047789D01*
X0025810Y0047817D01*
X0025915Y0047840D01*
X0026020Y0047860D01*
X0026126Y0047876D01*
X0026232Y0047888D01*
X0026339Y0047896D01*
X0026446Y0047900D01*
X0026554Y0047900D01*
X0026661Y0047896D01*
X0026768Y0047888D01*
X0026874Y0047876D01*
X0026980Y0047860D01*
X0027085Y0047840D01*
X0027190Y0047817D01*
X0027294Y0047789D01*
X0027396Y0047758D01*
X0027497Y0047723D01*
X0027597Y0047684D01*
X0027696Y0047642D01*
X0027793Y0047596D01*
X0027888Y0047546D01*
X0027981Y0047493D01*
X0028072Y0047437D01*
X0028161Y0047377D01*
X0028248Y0047314D01*
X0028332Y0047248D01*
X0028414Y0047179D01*
X0028493Y0047107D01*
X0028569Y0047032D01*
X0028643Y0046954D01*
X0028714Y0046873D01*
X0028782Y0046790D01*
X0028846Y0046705D01*
X0028908Y0046617D01*
X0028966Y0046527D01*
X0029020Y0046435D01*
X0029072Y0046340D01*
X0029119Y0046244D01*
X0029164Y0046147D01*
X0029204Y0046048D01*
X0029241Y0045947D01*
X0029274Y0045845D01*
X0029303Y0045742D01*
X0029329Y0045638D01*
X0029351Y0045533D01*
X0029368Y0045427D01*
X0029382Y0045321D01*
X0029392Y0045214D01*
X0029398Y0045107D01*
X0029400Y0045000D01*
X0029398Y0044893D01*
X0029392Y0044786D01*
X0029382Y0044679D01*
X0029368Y0044573D01*
X0029351Y0044467D01*
X0029329Y0044362D01*
X0029303Y0044258D01*
X0029274Y0044155D01*
X0029241Y0044053D01*
X0029204Y0043952D01*
X0029164Y0043853D01*
X0029119Y0043756D01*
X0029072Y0043660D01*
X0029020Y0043565D01*
X0028966Y0043473D01*
X0028908Y0043383D01*
X0028846Y0043295D01*
X0028782Y0043210D01*
X0028714Y0043127D01*
X0028643Y0043046D01*
X0028569Y0042968D01*
X0028493Y0042893D01*
X0028414Y0042821D01*
X0028332Y0042752D01*
X0028248Y0042686D01*
X0028161Y0042623D01*
X0028072Y0042563D01*
X0027981Y0042507D01*
X0027888Y0042454D01*
X0027793Y0042404D01*
X0027696Y0042358D01*
X0027597Y0042316D01*
X0027497Y0042277D01*
X0027396Y0042242D01*
X0027294Y0042211D01*
X0027190Y0042183D01*
X0027085Y0042160D01*
X0026980Y0042140D01*
X0026874Y0042124D01*
X0026768Y0042112D01*
X0026661Y0042104D01*
X0026554Y0042100D01*
X0026446Y0042100D01*
X0026339Y0042104D01*
X0026232Y0042112D01*
X0026126Y0042124D01*
X0026020Y0042140D01*
X0025915Y0042160D01*
X0025810Y0042183D01*
X0025706Y0042211D01*
X0025604Y0042242D01*
X0025503Y0042277D01*
X0025403Y0042316D01*
X0025304Y0042358D01*
X0025207Y0042404D01*
X0025112Y0042454D01*
X0025019Y0042507D01*
X0024928Y0042563D01*
X0024839Y0042623D01*
X0024752Y0042686D01*
X0024668Y0042752D01*
X0024586Y0042821D01*
X0024507Y0042893D01*
X0024431Y0042968D01*
X0024357Y0043046D01*
X0024286Y0043127D01*
X0024218Y0043210D01*
X0024154Y0043295D01*
X0024092Y0043383D01*
X0024034Y0043473D01*
X0023980Y0043565D01*
X0023928Y0043660D01*
X0023881Y0043756D01*
X0023836Y0043853D01*
X0023796Y0043952D01*
X0023759Y0044053D01*
X0023726Y0044155D01*
X0023697Y0044258D01*
X0023671Y0044362D01*
X0023649Y0044467D01*
X0023632Y0044573D01*
X0023618Y0044679D01*
X0023608Y0044786D01*
X0023602Y0044893D01*
X0023600Y0045000D01*
D19*
X0188500Y0092563D03*
X0188500Y0105437D03*
D20*
X0187500Y0115500D03*
X0197500Y0115500D03*
X0227500Y0115500D03*
X0237500Y0115500D03*
X0237500Y0035500D03*
X0227500Y0035500D03*
X0217500Y0035500D03*
X0207500Y0035500D03*
X0197500Y0035500D03*
X0187500Y0035500D03*
X0177500Y0035500D03*
X0116500Y0034000D03*
X0106500Y0034000D03*
X0106500Y0044000D03*
X0106500Y0054000D03*
X0106500Y0064000D03*
X0116500Y0064000D03*
X0116500Y0074000D03*
X0106500Y0074000D03*
X0036500Y0074000D03*
X0026500Y0074000D03*
X0026500Y0064000D03*
X0036500Y0064000D03*
X0036500Y0054000D03*
X0036500Y0044000D03*
X0036500Y0034000D03*
X0026500Y0034000D03*
X0026500Y0024000D03*
X0036500Y0024000D03*
X0036500Y0014000D03*
X0106500Y0014000D03*
X0106500Y0024000D03*
X0116500Y0024000D03*
D21*
X0070500Y0066563D03*
X0066760Y0074437D03*
X0074240Y0074437D03*
X0164760Y0088563D03*
X0172240Y0088563D03*
X0168500Y0096437D03*
D22*
X0208400Y0080500D03*
X0208400Y0075500D03*
X0208400Y0070500D03*
X0208400Y0065500D03*
X0208400Y0060500D03*
X0208400Y0055500D03*
X0208400Y0050500D03*
X0232600Y0050500D03*
X0232600Y0055500D03*
X0232600Y0060500D03*
X0232600Y0065500D03*
X0232600Y0070500D03*
X0232600Y0075500D03*
X0232600Y0080500D03*
D23*
X0092437Y0057500D03*
X0084563Y0053760D03*
X0084563Y0061240D03*
X0084563Y0043240D03*
X0084563Y0035760D03*
X0092437Y0039500D03*
X0084563Y0025240D03*
X0092437Y0021500D03*
X0084563Y0017760D03*
X0054937Y0038000D03*
X0047063Y0034260D03*
X0047063Y0041740D03*
X0047063Y0051760D03*
X0047063Y0059240D03*
X0054937Y0055500D03*
X0047063Y0068260D03*
X0047063Y0075740D03*
X0054937Y0072000D03*
D24*
X0060600Y0094789D03*
X0030500Y0094689D03*
X0030500Y0118311D03*
X0060600Y0118411D03*
D25*
X0102500Y0107500D03*
X0112500Y0107500D03*
X0122500Y0107500D03*
X0122500Y0097500D03*
X0112500Y0097500D03*
X0102500Y0097500D03*
D26*
X0056961Y0025724D03*
X0056961Y0022575D03*
X0052039Y0022575D03*
X0052039Y0025724D03*
X0052039Y0019425D03*
X0052039Y0016276D03*
X0056961Y0016276D03*
X0056961Y0019425D03*
X0248539Y0093776D03*
X0253461Y0093776D03*
X0253461Y0096925D03*
X0253461Y0100075D03*
X0248539Y0100075D03*
X0248539Y0096925D03*
X0248539Y0103224D03*
X0253461Y0103224D03*
D27*
X0116500Y0055000D03*
X0116500Y0045000D03*
X0026500Y0045000D03*
X0026500Y0055000D03*
D28*
X0126776Y0047461D03*
X0129925Y0047461D03*
X0133075Y0047461D03*
X0136224Y0047461D03*
X0136224Y0042539D03*
X0133075Y0042539D03*
X0129925Y0042539D03*
X0126776Y0042539D03*
D29*
X0131500Y0145000D03*
X0121500Y0145000D03*
X0111500Y0145000D03*
X0101500Y0145000D03*
X0091500Y0145000D03*
X0081500Y0145000D03*
X0081500Y0175000D03*
X0091500Y0175000D03*
X0101500Y0175000D03*
X0111500Y0175000D03*
X0121500Y0175000D03*
X0131500Y0175000D03*
X0141500Y0175000D03*
X0151500Y0175000D03*
X0161500Y0175000D03*
X0171500Y0175000D03*
X0181500Y0175000D03*
X0191500Y0175000D03*
X0191500Y0145000D03*
X0181500Y0145000D03*
X0171500Y0145000D03*
X0161500Y0145000D03*
X0151500Y0145000D03*
X0141500Y0145000D03*
D30*
X0063534Y0203169D03*
X0063534Y0211831D03*
X0030857Y0211831D03*
X0030857Y0203169D03*
D31*
X0038337Y0198642D03*
X0044243Y0198642D03*
X0056054Y0198642D03*
D32*
X0055176Y0201094D01*
X0054676Y0201094D01*
X0054576Y0201105D02*
X0045882Y0202877D01*
X0045620Y0202904D02*
X0036959Y0202904D01*
X0036119Y0202598D02*
X0030634Y0198004D01*
X0030455Y0197620D02*
X0030455Y0197120D01*
X0028593Y0196046D01*
X0030455Y0197621D02*
X0030457Y0197664D01*
X0030463Y0197708D01*
X0030472Y0197750D01*
X0030485Y0197792D01*
X0030502Y0197832D01*
X0030522Y0197871D01*
X0030545Y0197908D01*
X0030572Y0197942D01*
X0030601Y0197975D01*
X0030634Y0198004D01*
X0036118Y0202598D02*
X0036173Y0202641D01*
X0036231Y0202682D01*
X0036290Y0202719D01*
X0036351Y0202753D01*
X0036414Y0202784D01*
X0036479Y0202812D01*
X0036545Y0202836D01*
X0036612Y0202856D01*
X0036680Y0202873D01*
X0036749Y0202886D01*
X0036819Y0202895D01*
X0036889Y0202901D01*
X0036959Y0202903D01*
X0038337Y0198642D02*
X0039215Y0196189D01*
X0039715Y0196189D01*
X0040079Y0196032D02*
X0085031Y0148328D01*
X0086209Y0146170D02*
X0086791Y0143830D01*
X0087872Y0141778D02*
X0117147Y0110399D01*
X0117352Y0110090D02*
X0117748Y0105210D01*
X0117748Y0104752D01*
X0119500Y0103000D01*
X0122942Y0103000D01*
X0124290Y0101652D01*
X0124540Y0101496D02*
X0133624Y0094337D01*
X0135781Y0094598D02*
X0126581Y0109420D01*
X0126448Y0109598D02*
X0097876Y0141783D01*
X0096801Y0143818D02*
X0096206Y0146184D01*
X0095410Y0147873D02*
X0077590Y0172127D01*
X0081500Y0175000D02*
X0131500Y0145000D01*
X0136209Y0146170D02*
X0136174Y0146302D01*
X0136136Y0146432D01*
X0136094Y0146562D01*
X0136048Y0146690D01*
X0135999Y0146817D01*
X0135946Y0146942D01*
X0135890Y0147066D01*
X0135830Y0147189D01*
X0135767Y0147309D01*
X0135701Y0147428D01*
X0135631Y0147545D01*
X0135558Y0147660D01*
X0135482Y0147772D01*
X0135403Y0147883D01*
X0135320Y0147991D01*
X0135235Y0148097D01*
X0135147Y0148201D01*
X0135055Y0148302D01*
X0134962Y0148400D01*
X0134865Y0148496D01*
X0134765Y0148589D01*
X0134664Y0148679D01*
X0108336Y0171321D01*
X0108233Y0171413D01*
X0108132Y0171508D01*
X0108033Y0171605D01*
X0107938Y0171706D01*
X0107845Y0171809D01*
X0107756Y0171914D01*
X0107669Y0172022D01*
X0107586Y0172133D01*
X0107505Y0172246D01*
X0107428Y0172361D01*
X0107355Y0172478D01*
X0107284Y0172598D01*
X0107218Y0172719D01*
X0107154Y0172842D01*
X0107094Y0172967D01*
X0107038Y0173094D01*
X0106986Y0173222D01*
X0106937Y0173351D01*
X0106891Y0173482D01*
X0106850Y0173614D01*
X0106812Y0173748D01*
X0106779Y0173882D01*
X0106749Y0174017D01*
X0106722Y0174153D01*
X0106700Y0174290D01*
X0106682Y0174427D01*
X0106668Y0174565D01*
X0106657Y0174703D01*
X0106651Y0174842D01*
X0106648Y0174980D01*
X0106649Y0175119D01*
X0106655Y0175257D01*
X0106664Y0175395D01*
X0106677Y0175533D01*
X0106695Y0175671D01*
X0106716Y0175807D01*
X0106741Y0175944D01*
X0106770Y0176079D01*
X0106802Y0176214D01*
X0106839Y0176347D01*
X0106879Y0176480D01*
X0106923Y0176611D01*
X0106971Y0176741D01*
X0107023Y0176870D01*
X0107078Y0176997D01*
X0107137Y0177122D01*
X0107199Y0177246D01*
X0107265Y0177368D01*
X0107334Y0177488D01*
X0107407Y0177606D01*
X0107483Y0177721D01*
X0107562Y0177835D01*
X0107645Y0177946D01*
X0107730Y0178055D01*
X0107819Y0178161D01*
X0107911Y0178265D01*
X0108006Y0178366D01*
X0108103Y0178465D01*
X0108203Y0178560D01*
X0108306Y0178653D01*
X0108412Y0178742D01*
X0108520Y0178829D01*
X0108631Y0178913D01*
X0108743Y0178993D01*
X0108859Y0179070D01*
X0108976Y0179144D01*
X0109095Y0179214D01*
X0109216Y0179281D01*
X0109339Y0179344D01*
X0109464Y0179404D01*
X0109591Y0179461D01*
X0109719Y0179513D01*
X0109849Y0179562D01*
X0109848Y0179563D02*
X0163426Y0198275D01*
X0163466Y0198289D02*
X0169633Y0200618D01*
X0169487Y0201346D02*
X0169516Y0201379D01*
X0169543Y0201413D01*
X0169566Y0201450D01*
X0169586Y0201489D01*
X0169603Y0201529D01*
X0169616Y0201571D01*
X0169625Y0201613D01*
X0169631Y0201656D01*
X0169633Y0201700D01*
X0169486Y0201346D02*
X0169517Y0201269D01*
X0169545Y0201191D01*
X0169569Y0201111D01*
X0169589Y0201030D01*
X0169605Y0200949D01*
X0169618Y0200867D01*
X0169626Y0200784D01*
X0169631Y0200701D01*
X0169632Y0200618D01*
X0165561Y0202808D02*
X0165432Y0206693D01*
X0165774Y0207293D02*
X0167707Y0209226D01*
X0169133Y0210109D02*
X0171867Y0210109D01*
X0173988Y0209952D02*
X0177554Y0206720D01*
X0173988Y0209952D02*
X0173868Y0209990D01*
X0173746Y0210025D01*
X0173623Y0210056D01*
X0173500Y0210083D01*
X0173376Y0210107D01*
X0173251Y0210127D01*
X0173126Y0210144D01*
X0173000Y0210157D01*
X0172874Y0210166D01*
X0172748Y0210172D01*
X0172621Y0210174D01*
X0172495Y0210172D01*
X0172369Y0210167D01*
X0172243Y0210158D01*
X0172117Y0210145D01*
X0171992Y0210129D01*
X0171867Y0210109D01*
X0169133Y0210108D02*
X0169044Y0210092D01*
X0168956Y0210072D01*
X0168869Y0210048D01*
X0168782Y0210021D01*
X0168697Y0209990D01*
X0168613Y0209955D01*
X0168531Y0209917D01*
X0168450Y0209876D01*
X0168372Y0209832D01*
X0168295Y0209784D01*
X0168220Y0209733D01*
X0168147Y0209679D01*
X0168076Y0209623D01*
X0168008Y0209563D01*
X0167943Y0209500D01*
X0167880Y0209435D01*
X0167820Y0209367D01*
X0167762Y0209297D01*
X0167708Y0209225D01*
X0165774Y0207293D02*
X0165726Y0207242D01*
X0165681Y0207189D01*
X0165639Y0207133D01*
X0165599Y0207076D01*
X0165563Y0207016D01*
X0165530Y0206955D01*
X0165501Y0206891D01*
X0165474Y0206827D01*
X0165452Y0206761D01*
X0165432Y0206693D01*
X0165562Y0202809D02*
X0165543Y0202742D01*
X0165520Y0202676D01*
X0165494Y0202612D01*
X0165464Y0202549D01*
X0165431Y0202488D01*
X0165395Y0202428D01*
X0165356Y0202371D01*
X0165314Y0202316D01*
X0165269Y0202263D01*
X0165221Y0202213D01*
X0165220Y0202213D02*
X0163787Y0200780D01*
X0163500Y0200500D01*
X0163187Y0200438D01*
X0162500Y0200000D01*
X0161100Y0199700D01*
X0080309Y0179704D01*
X0080309Y0179703D02*
X0080176Y0179668D01*
X0080044Y0179628D01*
X0079913Y0179585D01*
X0079784Y0179538D01*
X0079656Y0179488D01*
X0079530Y0179434D01*
X0079405Y0179376D01*
X0079281Y0179315D01*
X0079160Y0179250D01*
X0079040Y0179182D01*
X0078923Y0179111D01*
X0078807Y0179036D01*
X0078694Y0178958D01*
X0078583Y0178877D01*
X0078474Y0178793D01*
X0078368Y0178706D01*
X0078264Y0178615D01*
X0078163Y0178522D01*
X0078064Y0178426D01*
X0077969Y0178327D01*
X0077876Y0178226D01*
X0077786Y0178122D01*
X0077699Y0178015D01*
X0077615Y0177906D01*
X0077534Y0177795D01*
X0077456Y0177681D01*
X0077382Y0177566D01*
X0077311Y0177448D01*
X0077243Y0177328D01*
X0077179Y0177207D01*
X0077118Y0177083D01*
X0077061Y0176958D01*
X0077007Y0176831D01*
X0076957Y0176703D01*
X0076910Y0176574D01*
X0076868Y0176443D01*
X0076829Y0176311D01*
X0076793Y0176178D01*
X0076762Y0176044D01*
X0076734Y0175910D01*
X0076710Y0175774D01*
X0076690Y0175638D01*
X0076674Y0175501D01*
X0076662Y0175364D01*
X0076653Y0175227D01*
X0076649Y0175090D01*
X0076648Y0174952D01*
X0076652Y0174814D01*
X0076659Y0174677D01*
X0076670Y0174540D01*
X0076685Y0174403D01*
X0076704Y0174267D01*
X0076726Y0174131D01*
X0076753Y0173996D01*
X0076783Y0173862D01*
X0076817Y0173729D01*
X0076855Y0173597D01*
X0076897Y0173465D01*
X0076942Y0173336D01*
X0076991Y0173207D01*
X0077044Y0173080D01*
X0077100Y0172954D01*
X0077160Y0172830D01*
X0077223Y0172708D01*
X0077290Y0172588D01*
X0077360Y0172470D01*
X0077433Y0172353D01*
X0077510Y0172239D01*
X0077590Y0172127D01*
X0077630Y0196365D02*
X0057560Y0194386D01*
X0057431Y0194380D02*
X0054676Y0194380D01*
X0054414Y0194406D02*
X0045720Y0196179D01*
X0045620Y0196189D02*
X0045120Y0196189D01*
X0044243Y0198642D01*
X0045621Y0196189D02*
X0045654Y0196188D01*
X0045688Y0196184D01*
X0045721Y0196179D01*
X0040079Y0196032D02*
X0040050Y0196060D01*
X0040018Y0196086D01*
X0039985Y0196110D01*
X0039950Y0196130D01*
X0039913Y0196148D01*
X0039875Y0196163D01*
X0039836Y0196174D01*
X0039796Y0196182D01*
X0039756Y0196187D01*
X0039715Y0196189D01*
X0045620Y0202903D02*
X0045686Y0202901D01*
X0045751Y0202896D01*
X0045817Y0202888D01*
X0045881Y0202877D01*
X0054575Y0201104D02*
X0054608Y0201099D01*
X0054642Y0201095D01*
X0054675Y0201094D01*
X0054415Y0194406D02*
X0054479Y0194395D01*
X0054545Y0194387D01*
X0054610Y0194382D01*
X0054676Y0194380D01*
X0057432Y0194380D02*
X0057496Y0194382D01*
X0057560Y0194386D01*
X0077630Y0196365D02*
X0077639Y0196366D01*
X0111519Y0199907D01*
X0112479Y0200051D02*
X0117435Y0203192D01*
X0117467Y0203210D01*
X0117498Y0203231D01*
X0117527Y0203254D01*
X0117554Y0203280D01*
X0112480Y0200051D02*
X0112387Y0200020D01*
X0112293Y0199993D01*
X0112198Y0199970D01*
X0112102Y0199950D01*
X0112006Y0199934D01*
X0111909Y0199921D01*
X0111812Y0199912D01*
X0111714Y0199907D01*
X0111617Y0199905D01*
X0111519Y0199907D01*
X0111500Y0175000D02*
X0119152Y0170761D01*
X0119982Y0170399D02*
X0183018Y0149601D01*
X0183848Y0149239D02*
X0191500Y0145000D01*
X0183848Y0149239D02*
X0183734Y0149300D01*
X0183618Y0149358D01*
X0183501Y0149413D01*
X0183382Y0149465D01*
X0183262Y0149514D01*
X0183141Y0149559D01*
X0183018Y0149601D01*
X0161500Y0145000D02*
X0171887Y0114384D01*
X0171931Y0114240D02*
X0172461Y0112262D01*
X0172497Y0112103D02*
X0177641Y0085496D01*
X0177690Y0084957D02*
X0177600Y0076806D01*
X0177600Y0076800D01*
X0177600Y0076300D01*
X0176000Y0072500D01*
X0177600Y0068700D01*
X0178100Y0068700D01*
X0178347Y0068635D02*
X0180196Y0067583D01*
X0178347Y0068635D02*
X0178309Y0068654D01*
X0178269Y0068671D01*
X0178228Y0068683D01*
X0178186Y0068693D01*
X0178143Y0068698D01*
X0178100Y0068700D01*
X0174400Y0068700D02*
X0176000Y0072500D01*
X0174400Y0068700D02*
X0173900Y0068700D01*
X0173606Y0068605D02*
X0167131Y0063909D01*
X0166491Y0063666D02*
X0153009Y0062334D01*
X0152415Y0062123D02*
X0150138Y0060615D01*
X0149862Y0060531D02*
X0149362Y0060531D01*
X0147500Y0059457D01*
X0145638Y0058382D01*
X0145638Y0057882D01*
X0145636Y0057841D01*
X0145631Y0057800D01*
X0145623Y0057760D01*
X0145611Y0057721D01*
X0145597Y0057683D01*
X0145579Y0057646D01*
X0145558Y0057611D01*
X0145534Y0057577D01*
X0145508Y0057546D01*
X0145479Y0057517D01*
X0145448Y0057490D01*
X0145415Y0057466D01*
X0145380Y0057445D01*
X0145380Y0057444D02*
X0143519Y0056414D01*
X0142624Y0053881D02*
X0142720Y0053849D01*
X0142817Y0053821D01*
X0142916Y0053796D01*
X0143015Y0053775D01*
X0143115Y0053758D01*
X0143216Y0053744D01*
X0143317Y0053735D01*
X0143418Y0053729D01*
X0143520Y0053727D01*
X0143519Y0053727D02*
X0173900Y0053727D01*
X0174400Y0053727D01*
X0176000Y0055500D01*
X0166463Y0060542D02*
X0187537Y0064872D01*
X0187638Y0064882D02*
X0188138Y0064882D01*
X0190000Y0065957D01*
X0188138Y0067031D01*
X0188138Y0067531D01*
X0188082Y0067761D02*
X0186475Y0070867D01*
X0186461Y0070896D01*
X0184264Y0075416D01*
X0184039Y0077086D02*
X0186590Y0090680D01*
X0186598Y0090772D02*
X0186598Y0091272D01*
X0188500Y0092563D01*
X0190402Y0093854D01*
X0190902Y0093854D01*
X0191200Y0093952D02*
X0192170Y0094671D01*
X0192168Y0094680D01*
X0192170Y0094671D02*
X0196603Y0092687D01*
X0196923Y0092591D02*
X0203592Y0091481D01*
X0205507Y0091885D02*
X0207912Y0093464D01*
X0208138Y0093882D02*
X0208138Y0094382D01*
X0210000Y0095457D01*
X0213671Y0093882D02*
X0213669Y0093813D01*
X0213664Y0093744D01*
X0213655Y0093675D01*
X0213642Y0093607D01*
X0213626Y0093540D01*
X0213606Y0093474D01*
X0213582Y0093409D01*
X0213556Y0093345D01*
X0213526Y0093283D01*
X0213492Y0093222D01*
X0213456Y0093163D01*
X0213416Y0093106D01*
X0213374Y0093052D01*
X0213329Y0092999D01*
X0213281Y0092950D01*
X0213230Y0092902D01*
X0213177Y0092858D01*
X0213122Y0092816D01*
X0213065Y0092778D01*
X0213005Y0092742D01*
X0213006Y0092742D02*
X0188918Y0079151D01*
X0188108Y0078448D02*
X0186680Y0076591D01*
X0184039Y0077087D02*
X0184022Y0076987D01*
X0184009Y0076887D01*
X0184000Y0076787D01*
X0183995Y0076686D01*
X0183993Y0076585D01*
X0183995Y0076484D01*
X0184001Y0076384D01*
X0184011Y0076283D01*
X0184024Y0076183D01*
X0184041Y0076084D01*
X0184062Y0075985D01*
X0184087Y0075888D01*
X0184115Y0075791D01*
X0184147Y0075695D01*
X0184182Y0075601D01*
X0184221Y0075508D01*
X0184263Y0075416D01*
X0186680Y0076591D02*
X0187150Y0074508D01*
X0187161Y0074467D01*
X0187176Y0074428D01*
X0187193Y0074390D01*
X0187214Y0074353D01*
X0187238Y0074318D01*
X0187265Y0074286D01*
X0187294Y0074255D01*
X0187326Y0074228D01*
X0187360Y0074203D01*
X0187396Y0074181D01*
X0187433Y0074162D01*
X0187473Y0074146D01*
X0187513Y0074134D01*
X0187554Y0074125D01*
X0187596Y0074120D01*
X0187638Y0074118D01*
X0188138Y0074118D01*
X0190000Y0073043D01*
X0192822Y0075844D02*
X0192862Y0075828D01*
X0201188Y0072391D01*
X0201331Y0072336D02*
X0204236Y0071327D01*
X0204400Y0071300D02*
X0204900Y0071300D01*
X0208400Y0070500D01*
X0211900Y0069700D01*
X0212400Y0069700D01*
X0212763Y0069544D02*
X0214227Y0068002D01*
X0214227Y0065315D02*
X0214328Y0065317D01*
X0214429Y0065323D01*
X0214530Y0065332D01*
X0214630Y0065345D01*
X0214730Y0065362D01*
X0214829Y0065383D01*
X0214927Y0065408D01*
X0215024Y0065436D01*
X0215120Y0065468D01*
X0215215Y0065503D01*
X0215309Y0065542D01*
X0215400Y0065585D01*
X0215491Y0065631D01*
X0215579Y0065680D01*
X0215666Y0065732D01*
X0215750Y0065788D01*
X0215832Y0065847D01*
X0215912Y0065909D01*
X0215990Y0065974D01*
X0216065Y0066042D01*
X0216137Y0066113D01*
X0216207Y0066186D01*
X0216274Y0066262D01*
X0216338Y0066340D01*
X0216399Y0066421D01*
X0216457Y0066504D01*
X0216512Y0066589D01*
X0216564Y0066676D01*
X0216612Y0066765D01*
X0216657Y0066855D01*
X0216699Y0066948D01*
X0216699Y0066947D02*
X0224714Y0085735D01*
X0226313Y0084859D02*
X0217107Y0058563D01*
X0218489Y0057246D02*
X0228164Y0074445D01*
X0228187Y0074483D01*
X0228214Y0074518D01*
X0228243Y0074551D01*
X0228276Y0074581D01*
X0228311Y0074608D01*
X0228348Y0074632D01*
X0228387Y0074652D01*
X0228427Y0074669D01*
X0228469Y0074683D01*
X0228512Y0074692D01*
X0228556Y0074698D01*
X0228600Y0074700D01*
X0229100Y0074700D01*
X0232600Y0075500D01*
X0236100Y0074700D01*
X0236600Y0074700D01*
X0236978Y0074529D02*
X0249459Y0060191D01*
X0249582Y0059862D02*
X0249582Y0059362D01*
X0250657Y0057500D01*
X0251731Y0059362D01*
X0252231Y0059362D01*
X0252461Y0059418D02*
X0255567Y0061025D01*
X0256088Y0061169D02*
X0266809Y0061831D01*
X0267476Y0062063D02*
X0267990Y0062421D01*
X0268254Y0062586D02*
X0270028Y0063574D01*
X0270272Y0063638D02*
X0270772Y0063638D01*
X0272634Y0065500D01*
X0272384Y0067362D01*
X0272384Y0071638D01*
X0272134Y0073500D01*
X0263866Y0073500D02*
X0262004Y0073500D01*
X0261504Y0073500D01*
X0259218Y0073500D01*
X0258718Y0073500D01*
X0257643Y0073500D01*
X0251631Y0075862D02*
X0251632Y0075888D01*
X0251634Y0075914D01*
X0251634Y0075915D02*
X0251857Y0078035D01*
X0251090Y0080610D02*
X0250998Y0080581D01*
X0250908Y0080548D01*
X0250818Y0080513D01*
X0250730Y0080474D01*
X0250644Y0080432D01*
X0250559Y0080387D01*
X0250475Y0080339D01*
X0250394Y0080288D01*
X0250314Y0080234D01*
X0250236Y0080177D01*
X0250161Y0080118D01*
X0250087Y0080056D01*
X0250016Y0079991D01*
X0250015Y0079992D02*
X0248310Y0078385D01*
X0236656Y0079697D01*
X0236600Y0079700D02*
X0236100Y0079700D01*
X0232600Y0080500D01*
X0232413Y0081300D01*
X0232413Y0083985D01*
X0232600Y0080500D02*
X0229100Y0081300D01*
X0229100Y0081800D01*
X0229096Y0081858D02*
X0228850Y0083971D01*
X0224715Y0085735D02*
X0224769Y0085857D01*
X0224826Y0085977D01*
X0224888Y0086095D01*
X0224952Y0086212D01*
X0225020Y0086326D01*
X0225092Y0086439D01*
X0225167Y0086549D01*
X0225244Y0086657D01*
X0225326Y0086763D01*
X0225410Y0086866D01*
X0225497Y0086966D01*
X0225587Y0087064D01*
X0225680Y0087160D01*
X0225776Y0087252D01*
X0225875Y0087342D01*
X0225976Y0087428D01*
X0226080Y0087512D01*
X0226186Y0087593D01*
X0226294Y0087670D01*
X0226405Y0087744D01*
X0226518Y0087815D01*
X0226517Y0087815D02*
X0236835Y0094075D01*
X0237854Y0094831D02*
X0245176Y0101410D01*
X0245526Y0101683D02*
X0246982Y0102656D01*
X0247260Y0102740D02*
X0247760Y0102740D01*
X0248539Y0103224D01*
X0247260Y0102740D02*
X0247218Y0102738D01*
X0247176Y0102733D01*
X0247135Y0102724D01*
X0247095Y0102712D01*
X0247056Y0102696D01*
X0247018Y0102678D01*
X0246982Y0102656D01*
X0248539Y0100075D02*
X0247760Y0099591D01*
X0247260Y0099591D01*
X0246982Y0099506D02*
X0245526Y0098533D01*
X0245333Y0098392D02*
X0238630Y0093122D01*
X0237773Y0092528D02*
X0227456Y0086268D01*
X0227455Y0086268D02*
X0227369Y0086213D01*
X0227284Y0086155D01*
X0227202Y0086094D01*
X0227122Y0086029D01*
X0227044Y0085961D01*
X0226969Y0085891D01*
X0226897Y0085818D01*
X0226828Y0085742D01*
X0226762Y0085663D01*
X0226698Y0085582D01*
X0226638Y0085498D01*
X0226582Y0085413D01*
X0226528Y0085325D01*
X0226478Y0085235D01*
X0226431Y0085144D01*
X0226388Y0085050D01*
X0226349Y0084955D01*
X0226313Y0084859D01*
X0229096Y0081857D02*
X0229099Y0081829D01*
X0229100Y0081800D01*
X0236600Y0079700D02*
X0236628Y0079699D01*
X0236656Y0079697D01*
X0236600Y0074701D02*
X0236643Y0074699D01*
X0236685Y0074694D01*
X0236727Y0074685D01*
X0236768Y0074672D01*
X0236807Y0074656D01*
X0236846Y0074637D01*
X0236882Y0074614D01*
X0236916Y0074589D01*
X0236948Y0074560D01*
X0236978Y0074529D01*
X0232600Y0065500D02*
X0229100Y0065840D01*
X0228600Y0065840D01*
X0226415Y0065840D01*
X0219815Y0055951D01*
X0219439Y0055443D02*
X0214807Y0049818D01*
X0214639Y0049630D02*
X0213340Y0048289D01*
X0212966Y0048019D02*
X0195509Y0039657D01*
X0195376Y0039590D02*
X0187500Y0035500D01*
X0185326Y0039564D02*
X0185210Y0039500D01*
X0185095Y0039432D01*
X0184983Y0039361D01*
X0184872Y0039286D01*
X0184764Y0039209D01*
X0184658Y0039129D01*
X0184554Y0039045D01*
X0184453Y0038958D01*
X0184355Y0038869D01*
X0184259Y0038777D01*
X0184166Y0038682D01*
X0184075Y0038584D01*
X0183988Y0038484D01*
X0183903Y0038382D01*
X0183821Y0038277D01*
X0183743Y0038169D01*
X0183667Y0038060D01*
X0183595Y0037948D01*
X0183526Y0037834D01*
X0183460Y0037718D01*
X0183398Y0037601D01*
X0183339Y0037482D01*
X0183283Y0037361D01*
X0183231Y0037238D01*
X0183183Y0037114D01*
X0183138Y0036989D01*
X0183097Y0036862D01*
X0183059Y0036735D01*
X0183026Y0036606D01*
X0182996Y0036476D01*
X0182969Y0036346D01*
X0182947Y0036215D01*
X0182928Y0036083D01*
X0182913Y0035951D01*
X0182902Y0035818D01*
X0182895Y0035685D01*
X0182891Y0035552D01*
X0182892Y0035419D01*
X0182896Y0035286D01*
X0182904Y0035153D01*
X0182916Y0035021D01*
X0182932Y0034889D01*
X0182951Y0034757D01*
X0185626Y0018381D01*
X0185631Y0018340D01*
X0185633Y0018300D01*
X0195376Y0039591D02*
X0195442Y0039624D01*
X0195509Y0039657D01*
X0185326Y0039564D02*
X0204164Y0049641D01*
X0204400Y0049700D02*
X0204900Y0049700D01*
X0208400Y0050500D01*
X0211900Y0051300D01*
X0212400Y0051300D01*
X0212748Y0051440D02*
X0217694Y0056217D01*
X0215085Y0056813D02*
X0212496Y0056309D01*
X0212400Y0056300D02*
X0211900Y0056300D01*
X0208400Y0055500D01*
X0212400Y0056300D02*
X0212432Y0056301D01*
X0212464Y0056304D01*
X0212496Y0056309D01*
X0212457Y0059696D02*
X0212429Y0059699D01*
X0212400Y0059700D01*
X0211900Y0059700D01*
X0208400Y0060500D01*
X0204900Y0061300D01*
X0204400Y0061300D01*
X0204106Y0061395D02*
X0202384Y0062643D01*
X0204107Y0061395D02*
X0204139Y0061373D01*
X0204173Y0061354D01*
X0204209Y0061338D01*
X0204246Y0061324D01*
X0204283Y0061314D01*
X0204322Y0061306D01*
X0204361Y0061302D01*
X0204400Y0061300D01*
X0208400Y0065500D02*
X0211900Y0065315D01*
X0212400Y0065315D01*
X0214227Y0065315D01*
X0212763Y0069544D02*
X0212734Y0069572D01*
X0212702Y0069598D01*
X0212669Y0069621D01*
X0212634Y0069642D01*
X0212597Y0069659D01*
X0212559Y0069674D01*
X0212520Y0069685D01*
X0212481Y0069693D01*
X0212440Y0069698D01*
X0212400Y0069700D01*
X0211900Y0076300D02*
X0208400Y0075500D01*
X0211900Y0076300D02*
X0212400Y0076300D01*
X0212441Y0076302D01*
X0212482Y0076307D01*
X0212522Y0076315D01*
X0212562Y0076327D01*
X0212600Y0076342D01*
X0212637Y0076360D01*
X0212673Y0076381D01*
X0212706Y0076405D01*
X0212738Y0076432D01*
X0212767Y0076461D01*
X0212794Y0076492D01*
X0212818Y0076525D01*
X0212839Y0076561D01*
X0227315Y0103157D01*
X0232554Y0106673D02*
X0245827Y0108135D01*
X0245882Y0108138D02*
X0246382Y0108138D01*
X0247457Y0110000D01*
X0245882Y0108138D02*
X0245854Y0108137D01*
X0245827Y0108135D01*
X0253461Y0103224D02*
X0254240Y0103709D01*
X0254740Y0103709D01*
X0254871Y0103726D02*
X0261873Y0105620D01*
X0262004Y0105638D02*
X0262504Y0105638D01*
X0264366Y0107500D01*
X0262004Y0105638D02*
X0261960Y0105636D01*
X0261917Y0105630D01*
X0261874Y0105621D01*
X0264366Y0101500D02*
X0262504Y0100559D01*
X0262004Y0100559D01*
X0254740Y0100559D01*
X0254240Y0100559D01*
X0253461Y0100075D01*
X0253461Y0096925D02*
X0254240Y0096441D01*
X0254740Y0096441D01*
X0262004Y0096441D01*
X0262504Y0096441D01*
X0264366Y0095000D01*
X0262004Y0090862D02*
X0261963Y0090864D01*
X0261922Y0090869D01*
X0261882Y0090877D01*
X0261843Y0090889D01*
X0261842Y0090889D02*
X0254902Y0093265D01*
X0254740Y0093291D02*
X0254240Y0093291D01*
X0253461Y0093776D01*
X0254741Y0093291D02*
X0254782Y0093289D01*
X0254823Y0093284D01*
X0254863Y0093276D01*
X0254902Y0093264D01*
X0248539Y0093776D02*
X0247760Y0093291D01*
X0247760Y0092791D01*
X0247567Y0092396D02*
X0245880Y0091088D01*
X0243857Y0092856D02*
X0243794Y0092782D01*
X0243734Y0092705D01*
X0243677Y0092626D01*
X0243622Y0092545D01*
X0243571Y0092462D01*
X0243523Y0092377D01*
X0243477Y0092291D01*
X0243435Y0092203D01*
X0243396Y0092113D01*
X0243361Y0092022D01*
X0243328Y0091930D01*
X0243300Y0091837D01*
X0243274Y0091743D01*
X0243252Y0091648D01*
X0243233Y0091552D01*
X0243234Y0091552D02*
X0242430Y0086969D01*
X0243857Y0092857D02*
X0246274Y0095621D01*
X0246306Y0095657D02*
X0246896Y0096283D01*
X0247260Y0096441D02*
X0247760Y0096441D01*
X0248539Y0096925D01*
X0245527Y0098533D02*
X0245461Y0098487D01*
X0245396Y0098440D01*
X0245333Y0098392D01*
X0246982Y0099507D02*
X0247018Y0099529D01*
X0247056Y0099547D01*
X0247095Y0099563D01*
X0247135Y0099575D01*
X0247176Y0099584D01*
X0247218Y0099589D01*
X0247260Y0099591D01*
X0245526Y0101682D02*
X0245435Y0101619D01*
X0245346Y0101552D01*
X0245260Y0101482D01*
X0245176Y0101410D01*
X0247260Y0096441D02*
X0247219Y0096439D01*
X0247179Y0096434D01*
X0247139Y0096426D01*
X0247100Y0096415D01*
X0247062Y0096400D01*
X0247025Y0096382D01*
X0246990Y0096362D01*
X0246956Y0096338D01*
X0246925Y0096312D01*
X0246896Y0096284D01*
X0246306Y0095656D02*
X0246274Y0095621D01*
X0247760Y0092791D02*
X0247758Y0092750D01*
X0247753Y0092709D01*
X0247745Y0092668D01*
X0247733Y0092628D01*
X0247718Y0092590D01*
X0247700Y0092553D01*
X0247678Y0092517D01*
X0247654Y0092484D01*
X0247628Y0092452D01*
X0247598Y0092423D01*
X0247567Y0092396D01*
X0262004Y0090862D02*
X0262504Y0090862D01*
X0264366Y0089000D01*
X0267102Y0085383D02*
X0267163Y0085403D01*
X0267224Y0085426D01*
X0267283Y0085452D01*
X0267340Y0085481D01*
X0267397Y0085512D01*
X0270017Y0087068D01*
X0270272Y0087138D02*
X0270772Y0087138D01*
X0272634Y0089000D01*
X0272634Y0095000D01*
X0272634Y0101500D01*
X0272634Y0107500D01*
X0272634Y0114000D01*
X0272634Y0120000D01*
X0276305Y0122362D02*
X0276303Y0122433D01*
X0276297Y0122504D01*
X0276288Y0122574D01*
X0276274Y0122643D01*
X0276257Y0122712D01*
X0276236Y0122780D01*
X0276212Y0122847D01*
X0276184Y0122912D01*
X0276153Y0122975D01*
X0276118Y0123037D01*
X0276079Y0123097D01*
X0276038Y0123154D01*
X0275994Y0123209D01*
X0275946Y0123262D01*
X0275896Y0123312D01*
X0275843Y0123360D01*
X0275788Y0123404D01*
X0275731Y0123445D01*
X0275671Y0123484D01*
X0275609Y0123519D01*
X0275546Y0123550D01*
X0275481Y0123578D01*
X0275414Y0123602D01*
X0275346Y0123623D01*
X0275277Y0123640D01*
X0275208Y0123654D01*
X0275138Y0123663D01*
X0275067Y0123669D01*
X0274996Y0123671D01*
X0252969Y0123671D01*
X0252367Y0123525D02*
X0249261Y0121918D01*
X0249031Y0121862D02*
X0248531Y0121862D01*
X0247457Y0120000D01*
X0249032Y0121862D02*
X0249072Y0121864D01*
X0249111Y0121868D01*
X0249150Y0121876D01*
X0249188Y0121887D01*
X0249226Y0121901D01*
X0249262Y0121918D01*
X0252367Y0123525D02*
X0252430Y0123555D01*
X0252494Y0123582D01*
X0252559Y0123605D01*
X0252626Y0123625D01*
X0252693Y0123642D01*
X0252761Y0123654D01*
X0252830Y0123664D01*
X0252900Y0123669D01*
X0252969Y0123671D01*
X0254543Y0120000D02*
X0255618Y0120000D01*
X0256118Y0120000D01*
X0262004Y0120000D01*
X0262504Y0120000D01*
X0264366Y0120000D01*
X0264366Y0114000D02*
X0262504Y0112138D01*
X0262004Y0112138D01*
X0261980Y0112137D01*
X0256142Y0111863D01*
X0256118Y0111862D01*
X0255618Y0111862D01*
X0254543Y0110000D01*
X0254870Y0103726D02*
X0254827Y0103717D01*
X0254784Y0103711D01*
X0254740Y0103709D01*
X0237854Y0094831D02*
X0237734Y0094726D01*
X0237612Y0094624D01*
X0237488Y0094525D01*
X0237362Y0094429D01*
X0237233Y0094336D01*
X0237102Y0094245D01*
X0236969Y0094158D01*
X0236834Y0094074D01*
X0227315Y0103158D02*
X0227395Y0103301D01*
X0227479Y0103442D01*
X0227566Y0103581D01*
X0227656Y0103718D01*
X0227749Y0103852D01*
X0227846Y0103985D01*
X0227946Y0104115D01*
X0228049Y0104243D01*
X0228155Y0104368D01*
X0228264Y0104490D01*
X0228376Y0104610D01*
X0228491Y0104727D01*
X0228608Y0104841D01*
X0228728Y0104953D01*
X0228851Y0105061D01*
X0228977Y0105167D01*
X0229105Y0105269D01*
X0229235Y0105369D01*
X0229368Y0105465D01*
X0229503Y0105558D01*
X0229640Y0105648D01*
X0229780Y0105734D01*
X0229921Y0105817D01*
X0230065Y0105897D01*
X0230210Y0105973D01*
X0230357Y0106046D01*
X0230506Y0106115D01*
X0230656Y0106180D01*
X0230808Y0106242D01*
X0230961Y0106300D01*
X0231116Y0106354D01*
X0231272Y0106405D01*
X0231429Y0106452D01*
X0231587Y0106495D01*
X0231746Y0106534D01*
X0231906Y0106570D01*
X0232067Y0106602D01*
X0232229Y0106629D01*
X0232391Y0106653D01*
X0232554Y0106673D01*
X0238630Y0093121D02*
X0238464Y0092994D01*
X0238296Y0092871D01*
X0238124Y0092753D01*
X0237950Y0092638D01*
X0237773Y0092528D01*
X0251090Y0080611D02*
X0267102Y0085383D01*
X0270017Y0087068D02*
X0270050Y0087086D01*
X0270085Y0087102D01*
X0270121Y0087115D01*
X0270158Y0087125D01*
X0270196Y0087132D01*
X0270234Y0087137D01*
X0270272Y0087138D01*
X0251631Y0075862D02*
X0251631Y0075362D01*
X0250557Y0073500D01*
X0247585Y0069455D02*
X0248649Y0067612D01*
X0249082Y0067362D02*
X0249582Y0067362D01*
X0250657Y0065500D01*
X0249082Y0067362D02*
X0249038Y0067364D01*
X0248995Y0067370D01*
X0248953Y0067379D01*
X0248911Y0067392D01*
X0248871Y0067409D01*
X0248832Y0067429D01*
X0248795Y0067452D01*
X0248761Y0067479D01*
X0248728Y0067508D01*
X0248699Y0067541D01*
X0248672Y0067575D01*
X0248649Y0067612D01*
X0257743Y0065500D02*
X0258818Y0065500D01*
X0259318Y0065500D01*
X0262004Y0065500D01*
X0262504Y0065500D01*
X0264366Y0065500D01*
X0266809Y0061831D02*
X0266880Y0061838D01*
X0266951Y0061848D01*
X0267021Y0061862D01*
X0267090Y0061880D01*
X0267158Y0061902D01*
X0267225Y0061927D01*
X0267291Y0061956D01*
X0267354Y0061989D01*
X0267416Y0062024D01*
X0267476Y0062064D01*
X0268485Y0060102D02*
X0267515Y0054898D01*
X0267500Y0054828D01*
X0267481Y0054759D01*
X0267458Y0054691D01*
X0267432Y0054624D01*
X0267402Y0054559D01*
X0267368Y0054495D01*
X0267331Y0054434D01*
X0267291Y0054374D01*
X0267248Y0054317D01*
X0267201Y0054263D01*
X0267152Y0054211D01*
X0267100Y0054161D01*
X0267045Y0054115D01*
X0266987Y0054072D01*
X0266928Y0054032D01*
X0266866Y0053995D01*
X0266803Y0053962D01*
X0266737Y0053932D01*
X0266670Y0053906D01*
X0266602Y0053884D01*
X0266533Y0053865D01*
X0266463Y0053850D01*
X0266392Y0053839D01*
X0266320Y0053832D01*
X0266249Y0053829D01*
X0256248Y0053671D01*
X0256177Y0053668D01*
X0256107Y0053661D01*
X0256037Y0053650D01*
X0255967Y0053636D01*
X0255899Y0053618D01*
X0255831Y0053596D01*
X0255765Y0053570D01*
X0255701Y0053541D01*
X0255638Y0053509D01*
X0255576Y0053473D01*
X0255517Y0053434D01*
X0255460Y0053391D01*
X0255406Y0053346D01*
X0255354Y0053298D01*
X0255305Y0053247D01*
X0255258Y0053194D01*
X0255215Y0053138D01*
X0255174Y0053079D01*
X0255137Y0053019D01*
X0255103Y0052957D01*
X0255072Y0052893D01*
X0255045Y0052827D01*
X0255022Y0052760D01*
X0255002Y0052692D01*
X0255002Y0052693D02*
X0253598Y0047307D01*
X0253598Y0047308D02*
X0253578Y0047239D01*
X0253554Y0047171D01*
X0253526Y0047105D01*
X0253495Y0047040D01*
X0253461Y0046977D01*
X0253423Y0046916D01*
X0253382Y0046858D01*
X0253338Y0046801D01*
X0253290Y0046747D01*
X0253240Y0046696D01*
X0253187Y0046648D01*
X0253131Y0046602D01*
X0253073Y0046560D01*
X0253013Y0046521D01*
X0252951Y0046485D01*
X0252887Y0046453D01*
X0252821Y0046424D01*
X0252754Y0046399D01*
X0252685Y0046378D01*
X0252616Y0046360D01*
X0252545Y0046347D01*
X0252474Y0046337D01*
X0252403Y0046331D01*
X0252331Y0046329D01*
X0249182Y0046329D01*
X0248199Y0046773D02*
X0236976Y0059531D01*
X0236600Y0059700D02*
X0236100Y0059700D01*
X0232600Y0060500D01*
X0236600Y0059700D02*
X0236642Y0059698D01*
X0236684Y0059693D01*
X0236726Y0059684D01*
X0236766Y0059671D01*
X0236806Y0059656D01*
X0236844Y0059637D01*
X0236880Y0059614D01*
X0236914Y0059589D01*
X0236946Y0059561D01*
X0236975Y0059530D01*
X0232600Y0055500D02*
X0229100Y0056300D01*
X0228600Y0056300D01*
X0228404Y0056339D02*
X0226385Y0057197D01*
X0228405Y0056340D02*
X0228442Y0056326D01*
X0228481Y0056314D01*
X0228520Y0056306D01*
X0228560Y0056302D01*
X0228600Y0056300D01*
X0236600Y0051300D02*
X0236640Y0051302D01*
X0236681Y0051307D01*
X0236720Y0051315D01*
X0236759Y0051326D01*
X0236797Y0051341D01*
X0236834Y0051358D01*
X0236869Y0051379D01*
X0236902Y0051402D01*
X0236934Y0051428D01*
X0236963Y0051456D01*
X0238427Y0052998D01*
X0236600Y0051300D02*
X0236100Y0051300D01*
X0232600Y0050500D01*
X0248199Y0046774D02*
X0248246Y0046723D01*
X0248296Y0046674D01*
X0248349Y0046629D01*
X0248403Y0046586D01*
X0248460Y0046546D01*
X0248519Y0046509D01*
X0248580Y0046476D01*
X0248643Y0046445D01*
X0248707Y0046418D01*
X0248772Y0046395D01*
X0248838Y0046375D01*
X0248906Y0046358D01*
X0248974Y0046346D01*
X0249043Y0046336D01*
X0249112Y0046331D01*
X0249182Y0046329D01*
X0250757Y0050000D02*
X0250707Y0051862D01*
X0250707Y0055638D01*
X0250657Y0057500D01*
X0252232Y0059362D02*
X0252272Y0059364D01*
X0252311Y0059368D01*
X0252350Y0059376D01*
X0252388Y0059387D01*
X0252426Y0059401D01*
X0252462Y0059418D01*
X0249582Y0059862D02*
X0249580Y0059902D01*
X0249576Y0059941D01*
X0249568Y0059980D01*
X0249557Y0060018D01*
X0249543Y0060056D01*
X0249526Y0060092D01*
X0249506Y0060126D01*
X0249484Y0060159D01*
X0249459Y0060190D01*
X0255567Y0061024D02*
X0255628Y0061054D01*
X0255691Y0061081D01*
X0255755Y0061104D01*
X0255820Y0061124D01*
X0255886Y0061140D01*
X0255953Y0061153D01*
X0256020Y0061163D01*
X0256088Y0061168D01*
X0257743Y0057500D02*
X0258818Y0057500D01*
X0259318Y0057500D01*
X0261504Y0057500D01*
X0262004Y0057500D01*
X0263866Y0057500D01*
X0268484Y0060102D02*
X0268499Y0060172D01*
X0268518Y0060242D01*
X0268541Y0060310D01*
X0268568Y0060377D01*
X0268598Y0060442D01*
X0268631Y0060506D01*
X0268668Y0060568D01*
X0268709Y0060627D01*
X0268753Y0060684D01*
X0268799Y0060739D01*
X0268849Y0060791D01*
X0268902Y0060841D01*
X0268957Y0060887D01*
X0269014Y0060930D01*
X0269074Y0060970D01*
X0269136Y0061007D01*
X0269200Y0061040D01*
X0269266Y0061070D01*
X0269333Y0061095D01*
X0269401Y0061118D01*
X0269471Y0061136D01*
X0269541Y0061151D01*
X0269613Y0061161D01*
X0275155Y0061839D01*
X0275154Y0061839D02*
X0275224Y0061849D01*
X0275293Y0061863D01*
X0275361Y0061881D01*
X0275428Y0061902D01*
X0275493Y0061927D01*
X0275558Y0061956D01*
X0275620Y0061987D01*
X0275681Y0062023D01*
X0275740Y0062061D01*
X0275797Y0062102D01*
X0275851Y0062147D01*
X0275903Y0062194D01*
X0275952Y0062244D01*
X0275999Y0062297D01*
X0276043Y0062352D01*
X0276083Y0062409D01*
X0276121Y0062469D01*
X0276155Y0062530D01*
X0276186Y0062593D01*
X0276214Y0062658D01*
X0276238Y0062724D01*
X0276258Y0062791D01*
X0276275Y0062859D01*
X0276288Y0062928D01*
X0276297Y0062998D01*
X0276303Y0063068D01*
X0276305Y0063138D01*
X0276305Y0122362D01*
X0271875Y0156145D02*
X0201566Y0104521D01*
X0201362Y0104118D02*
X0201362Y0103618D01*
X0199500Y0102543D01*
X0201362Y0103618D01*
X0201862Y0103618D01*
X0202019Y0103643D02*
X0207228Y0105361D01*
X0207638Y0105427D02*
X0212362Y0105427D01*
X0212433Y0105425D01*
X0212504Y0105419D01*
X0212574Y0105410D01*
X0212643Y0105396D01*
X0212712Y0105379D01*
X0212780Y0105358D01*
X0212847Y0105334D01*
X0212912Y0105306D01*
X0212975Y0105275D01*
X0213037Y0105240D01*
X0213097Y0105201D01*
X0213154Y0105160D01*
X0213209Y0105116D01*
X0213262Y0105068D01*
X0213312Y0105018D01*
X0213360Y0104965D01*
X0213404Y0104910D01*
X0213445Y0104853D01*
X0213484Y0104793D01*
X0213519Y0104731D01*
X0213550Y0104668D01*
X0213578Y0104603D01*
X0213602Y0104536D01*
X0213623Y0104468D01*
X0213640Y0104399D01*
X0213654Y0104330D01*
X0213663Y0104260D01*
X0213669Y0104189D01*
X0213671Y0104118D01*
X0213671Y0093882D01*
X0208138Y0093882D02*
X0208136Y0093841D01*
X0208131Y0093800D01*
X0208123Y0093760D01*
X0208111Y0093720D01*
X0208096Y0093682D01*
X0208078Y0093645D01*
X0208057Y0093609D01*
X0208033Y0093576D01*
X0208006Y0093544D01*
X0207977Y0093515D01*
X0207946Y0093488D01*
X0207912Y0093464D01*
X0204033Y0094132D02*
X0201920Y0094378D01*
X0201862Y0094382D02*
X0201362Y0094382D01*
X0199500Y0095457D01*
X0201362Y0096531D01*
X0201362Y0097031D01*
X0201581Y0097444D02*
X0207356Y0101381D01*
X0207638Y0101469D02*
X0208138Y0101469D01*
X0210000Y0102543D01*
X0207638Y0101468D02*
X0207595Y0101466D01*
X0207553Y0101461D01*
X0207511Y0101452D01*
X0207470Y0101439D01*
X0207430Y0101423D01*
X0207392Y0101404D01*
X0207356Y0101381D01*
X0207228Y0105361D02*
X0207295Y0105381D01*
X0207362Y0105398D01*
X0207431Y0105410D01*
X0207500Y0105420D01*
X0207569Y0105425D01*
X0207638Y0105427D01*
X0201566Y0104521D02*
X0201533Y0104494D01*
X0201502Y0104465D01*
X0201474Y0104433D01*
X0201448Y0104399D01*
X0201426Y0104362D01*
X0201407Y0104324D01*
X0201391Y0104285D01*
X0201378Y0104244D01*
X0201369Y0104203D01*
X0201364Y0104160D01*
X0201362Y0104118D01*
X0201862Y0103618D02*
X0201902Y0103620D01*
X0201941Y0103624D01*
X0201980Y0103632D01*
X0202019Y0103643D01*
X0199500Y0102543D02*
X0197638Y0103618D01*
X0197138Y0103618D01*
X0197095Y0103620D02*
X0190944Y0104144D01*
X0190902Y0104146D02*
X0190402Y0104146D01*
X0188500Y0105437D01*
X0190902Y0104146D02*
X0190944Y0104144D01*
X0185122Y0102773D02*
X0185078Y0102825D01*
X0185037Y0102879D01*
X0184998Y0102936D01*
X0184963Y0102994D01*
X0184930Y0103054D01*
X0184901Y0103116D01*
X0184875Y0103179D01*
X0184853Y0103243D01*
X0184833Y0103309D01*
X0184817Y0103375D01*
X0184805Y0103442D01*
X0184796Y0103510D01*
X0184791Y0103578D01*
X0184789Y0103646D01*
X0184789Y0107228D01*
X0185431Y0108355D02*
X0197500Y0115500D01*
X0185431Y0108354D02*
X0185371Y0108316D01*
X0185312Y0108275D01*
X0185257Y0108231D01*
X0185203Y0108183D01*
X0185152Y0108133D01*
X0185104Y0108080D01*
X0185059Y0108025D01*
X0185018Y0107967D01*
X0184979Y0107907D01*
X0184944Y0107845D01*
X0184912Y0107781D01*
X0184883Y0107716D01*
X0184858Y0107649D01*
X0184837Y0107581D01*
X0184820Y0107511D01*
X0184806Y0107441D01*
X0184797Y0107371D01*
X0184791Y0107299D01*
X0184789Y0107228D01*
X0185123Y0102773D02*
X0191876Y0095226D01*
X0191200Y0093952D02*
X0191167Y0093930D01*
X0191132Y0093910D01*
X0191096Y0093893D01*
X0191059Y0093879D01*
X0191020Y0093868D01*
X0190981Y0093860D01*
X0190942Y0093856D01*
X0190902Y0093854D01*
X0192168Y0094679D02*
X0192149Y0094746D01*
X0192126Y0094812D01*
X0192100Y0094876D01*
X0192071Y0094939D01*
X0192038Y0095001D01*
X0192002Y0095060D01*
X0191963Y0095118D01*
X0191921Y0095173D01*
X0191876Y0095226D01*
X0196603Y0092687D02*
X0196665Y0092661D01*
X0196728Y0092639D01*
X0196792Y0092620D01*
X0196857Y0092604D01*
X0196923Y0092591D01*
X0201863Y0094382D02*
X0201892Y0094381D01*
X0201920Y0094378D01*
X0203592Y0091481D02*
X0203691Y0091467D01*
X0203791Y0091456D01*
X0203891Y0091449D01*
X0203991Y0091445D01*
X0204091Y0091446D01*
X0204191Y0091450D01*
X0204291Y0091457D01*
X0204391Y0091469D01*
X0204490Y0091484D01*
X0204588Y0091503D01*
X0204686Y0091525D01*
X0204782Y0091552D01*
X0204878Y0091581D01*
X0204972Y0091615D01*
X0205066Y0091651D01*
X0205157Y0091692D01*
X0205248Y0091735D01*
X0205336Y0091782D01*
X0205423Y0091832D01*
X0205507Y0091886D01*
X0201362Y0097031D02*
X0201364Y0097075D01*
X0201370Y0097119D01*
X0201380Y0097162D01*
X0201393Y0097204D01*
X0201410Y0097245D01*
X0201431Y0097284D01*
X0201455Y0097321D01*
X0201482Y0097356D01*
X0201512Y0097388D01*
X0201545Y0097418D01*
X0201581Y0097444D01*
X0197138Y0103618D02*
X0197096Y0103620D01*
X0186599Y0090771D02*
X0186598Y0090741D01*
X0186595Y0090710D01*
X0186590Y0090679D01*
X0175003Y0084986D02*
X0173920Y0086817D01*
X0173490Y0087063D02*
X0172990Y0087063D01*
X0172240Y0088563D01*
X0171491Y0090063D01*
X0171491Y0090563D01*
X0171490Y0090581D01*
X0170730Y0111682D01*
X0170713Y0111794D02*
X0170183Y0113772D01*
X0170133Y0113893D02*
X0169109Y0115666D01*
X0169040Y0115759D02*
X0141500Y0145000D01*
X0136791Y0143829D02*
X0136825Y0143702D01*
X0136862Y0143575D01*
X0136902Y0143449D01*
X0136946Y0143325D01*
X0136994Y0143202D01*
X0137044Y0143080D01*
X0137098Y0142959D01*
X0137155Y0142840D01*
X0137155Y0142841D02*
X0154758Y0107416D01*
X0154773Y0107388D01*
X0155797Y0105615D01*
X0155876Y0105511D02*
X0157324Y0104064D01*
X0157413Y0103993D02*
X0166985Y0098013D01*
X0167250Y0097937D02*
X0167750Y0097937D01*
X0168500Y0096437D01*
X0169134Y0094937D01*
X0169134Y0083002D01*
X0168996Y0082153D02*
X0166149Y0073602D01*
X0163600Y0074451D02*
X0163571Y0074360D01*
X0163546Y0074267D01*
X0163524Y0074174D01*
X0163505Y0074080D01*
X0163489Y0073985D01*
X0163477Y0073890D01*
X0163469Y0073794D01*
X0163464Y0073698D01*
X0163462Y0073602D01*
X0163462Y0067618D01*
X0164000Y0066543D01*
X0155500Y0066543D01*
X0153638Y0065469D01*
X0153138Y0065469D01*
X0152862Y0065385D02*
X0150585Y0063877D01*
X0149862Y0063659D02*
X0145138Y0063659D01*
X0144415Y0063877D02*
X0142138Y0065385D01*
X0141862Y0065469D02*
X0141362Y0065469D01*
X0139500Y0066543D01*
X0131500Y0066543D01*
X0129638Y0065469D01*
X0129138Y0065469D01*
X0129080Y0065465D02*
X0116500Y0064000D01*
X0117607Y0059526D02*
X0117485Y0059498D01*
X0117362Y0059472D01*
X0117238Y0059451D01*
X0117113Y0059432D01*
X0116988Y0059417D01*
X0116863Y0059405D01*
X0116737Y0059397D01*
X0094463Y0058250D01*
X0094437Y0058250D01*
X0093937Y0058250D01*
X0092437Y0057500D01*
X0087372Y0058961D02*
X0106500Y0074000D01*
X0090966Y0070537D02*
X0086138Y0062754D01*
X0086063Y0062490D02*
X0086063Y0061990D01*
X0084563Y0061240D01*
X0083063Y0061990D01*
X0082563Y0061990D01*
X0082257Y0062094D02*
X0072551Y0069598D01*
X0071999Y0069848D02*
X0065261Y0071152D01*
X0064996Y0071233D02*
X0057451Y0074454D01*
X0057008Y0074557D02*
X0049090Y0074990D01*
X0049063Y0074991D01*
X0048563Y0074991D01*
X0047063Y0075740D01*
X0049380Y0070780D02*
X0036500Y0074000D01*
X0034376Y0069910D02*
X0034496Y0069850D01*
X0034617Y0069794D01*
X0034739Y0069741D01*
X0034864Y0069692D01*
X0034989Y0069646D01*
X0035116Y0069604D01*
X0035244Y0069566D01*
X0035373Y0069531D01*
X0035503Y0069500D01*
X0035634Y0069473D01*
X0035766Y0069450D01*
X0035898Y0069431D01*
X0036031Y0069415D01*
X0036164Y0069403D01*
X0036297Y0069396D01*
X0036297Y0069395D02*
X0045041Y0069010D01*
X0045063Y0069009D01*
X0045563Y0069009D01*
X0047063Y0068260D01*
X0045563Y0067510D01*
X0045563Y0067010D01*
X0045543Y0066871D02*
X0043806Y0060854D01*
X0043754Y0060490D02*
X0043754Y0057990D01*
X0043843Y0057515D02*
X0045529Y0053191D01*
X0045563Y0053010D02*
X0045563Y0052510D01*
X0047063Y0051760D01*
X0048563Y0051010D01*
X0059382Y0051010D01*
X0060457Y0050000D01*
X0061531Y0051862D01*
X0062031Y0051862D01*
X0062261Y0051918D02*
X0065367Y0053525D01*
X0065699Y0053643D02*
X0070739Y0054705D01*
X0071354Y0054761D02*
X0082552Y0054509D01*
X0083063Y0054509D01*
X0084563Y0053760D01*
X0086063Y0053010D01*
X0086563Y0053010D01*
X0086755Y0052972D02*
X0088719Y0052154D01*
X0086755Y0052971D02*
X0086718Y0052985D01*
X0086680Y0052996D01*
X0086641Y0053004D01*
X0086602Y0053008D01*
X0086563Y0053010D01*
X0091732Y0047961D02*
X0086874Y0044098D01*
X0086563Y0043990D02*
X0086063Y0043990D01*
X0084563Y0043240D01*
X0083063Y0043990D01*
X0082563Y0043990D01*
X0082269Y0044085D02*
X0071293Y0052075D01*
X0069167Y0051865D01*
X0069118Y0051862D02*
X0068618Y0051862D01*
X0067543Y0050000D01*
X0066469Y0048138D01*
X0065969Y0048138D01*
X0065739Y0048082D02*
X0062633Y0046475D01*
X0062400Y0046381D02*
X0049204Y0042510D01*
X0049063Y0042490D02*
X0048563Y0042490D01*
X0047063Y0041740D01*
X0045563Y0042490D01*
X0045563Y0042990D01*
X0045531Y0043167D02*
X0040810Y0055632D01*
X0036500Y0054000D02*
X0032410Y0046124D01*
X0032410Y0046125D02*
X0032350Y0046005D01*
X0032294Y0045884D01*
X0032241Y0045761D01*
X0032192Y0045637D01*
X0032146Y0045512D01*
X0032104Y0045385D01*
X0032066Y0045257D01*
X0032031Y0045128D01*
X0032000Y0044998D01*
X0031973Y0044867D01*
X0031950Y0044736D01*
X0031931Y0044604D01*
X0031915Y0044471D01*
X0031903Y0044338D01*
X0031896Y0044205D01*
X0031892Y0044071D01*
X0031891Y0043937D01*
X0031895Y0043804D01*
X0031903Y0043671D01*
X0031914Y0043538D01*
X0031930Y0043405D01*
X0031949Y0043273D01*
X0031972Y0043141D01*
X0031999Y0043010D01*
X0032029Y0042880D01*
X0032063Y0042751D01*
X0032101Y0042623D01*
X0032143Y0042496D01*
X0032189Y0042371D01*
X0032238Y0042246D01*
X0032290Y0042124D01*
X0032346Y0042002D01*
X0032406Y0041883D01*
X0032469Y0041765D01*
X0032535Y0041649D01*
X0032605Y0041535D01*
X0032678Y0041424D01*
X0032755Y0041314D01*
X0032834Y0041207D01*
X0032916Y0041102D01*
X0033002Y0040999D01*
X0033090Y0040899D01*
X0033182Y0040801D01*
X0033276Y0040707D01*
X0033373Y0040614D01*
X0033472Y0040525D01*
X0033574Y0040439D01*
X0033678Y0040356D01*
X0033785Y0040275D01*
X0033894Y0040198D01*
X0034005Y0040124D01*
X0034119Y0040054D01*
X0034234Y0039986D01*
X0034351Y0039923D01*
X0034470Y0039862D01*
X0034591Y0039805D01*
X0034713Y0039751D01*
X0038287Y0038249D01*
X0040804Y0038789D02*
X0036500Y0044000D01*
X0041055Y0038524D02*
X0044724Y0035142D01*
X0045063Y0035009D02*
X0045563Y0035009D01*
X0047063Y0034260D01*
X0048563Y0033510D01*
X0048563Y0033010D01*
X0048605Y0032809D02*
X0049474Y0030822D01*
X0052109Y0030298D02*
X0052128Y0030400D01*
X0052142Y0030501D01*
X0052152Y0030604D01*
X0052159Y0030706D01*
X0052161Y0030809D01*
X0052159Y0030912D01*
X0052154Y0031015D01*
X0052145Y0031117D01*
X0052131Y0031219D01*
X0052114Y0031321D01*
X0052093Y0031421D01*
X0052068Y0031521D01*
X0052040Y0031620D01*
X0052007Y0031717D01*
X0051971Y0031814D01*
X0051972Y0031814D02*
X0048598Y0040306D01*
X0048563Y0040490D02*
X0048563Y0040990D01*
X0047063Y0041740D01*
X0048563Y0040490D02*
X0048564Y0040452D01*
X0048569Y0040414D01*
X0048576Y0040377D01*
X0048586Y0040341D01*
X0048598Y0040305D01*
X0049063Y0042490D02*
X0049099Y0042491D01*
X0049135Y0042495D01*
X0049170Y0042501D01*
X0049204Y0042510D01*
X0045563Y0042991D02*
X0045562Y0043027D01*
X0045558Y0043063D01*
X0045551Y0043098D01*
X0045542Y0043133D01*
X0045531Y0043168D01*
X0042876Y0040500D02*
X0045501Y0035752D01*
X0045563Y0035510D02*
X0045563Y0035010D01*
X0047063Y0034260D01*
X0045063Y0035010D02*
X0045021Y0035012D01*
X0044980Y0035017D01*
X0044940Y0035025D01*
X0044900Y0035037D01*
X0044862Y0035052D01*
X0044825Y0035071D01*
X0044789Y0035092D01*
X0044755Y0035116D01*
X0044724Y0035143D01*
X0045563Y0035510D02*
X0045561Y0035552D01*
X0045556Y0035593D01*
X0045547Y0035635D01*
X0045535Y0035675D01*
X0045520Y0035714D01*
X0045501Y0035752D01*
X0048563Y0033009D02*
X0048565Y0032968D01*
X0048570Y0032927D01*
X0048578Y0032887D01*
X0048590Y0032847D01*
X0048605Y0032809D01*
X0052110Y0030298D02*
X0051867Y0029072D01*
X0051815Y0028548D02*
X0051815Y0026209D01*
X0052039Y0025724D01*
X0052039Y0022575D01*
X0052039Y0019425D01*
X0052039Y0016276D01*
X0050760Y0012173D02*
X0050651Y0012175D01*
X0050542Y0012181D01*
X0050433Y0012190D01*
X0050324Y0012204D01*
X0050216Y0012221D01*
X0050109Y0012242D01*
X0050003Y0012266D01*
X0049897Y0012295D01*
X0049793Y0012327D01*
X0049689Y0012363D01*
X0049588Y0012402D01*
X0049487Y0012445D01*
X0049388Y0012491D01*
X0049291Y0012541D01*
X0049195Y0012594D01*
X0049102Y0012651D01*
X0049010Y0012710D01*
X0048921Y0012773D01*
X0048834Y0012839D01*
X0048749Y0012908D01*
X0048667Y0012980D01*
X0036500Y0024000D01*
X0034706Y0019755D02*
X0034584Y0019808D01*
X0034464Y0019865D01*
X0034346Y0019926D01*
X0034229Y0019989D01*
X0034114Y0020056D01*
X0034002Y0020127D01*
X0033891Y0020200D01*
X0033783Y0020277D01*
X0033677Y0020357D01*
X0033573Y0020440D01*
X0033471Y0020526D01*
X0033372Y0020615D01*
X0033276Y0020706D01*
X0033183Y0020800D01*
X0033092Y0020897D01*
X0033004Y0020997D01*
X0032919Y0021099D01*
X0032836Y0021203D01*
X0032757Y0021310D01*
X0032681Y0021419D01*
X0032609Y0021530D01*
X0032539Y0021643D01*
X0032473Y0021759D01*
X0032410Y0021876D01*
X0032350Y0021994D01*
X0032294Y0022115D01*
X0032242Y0022237D01*
X0032193Y0022360D01*
X0032147Y0022485D01*
X0032105Y0022611D01*
X0032067Y0022738D01*
X0032032Y0022867D01*
X0032002Y0022996D01*
X0031975Y0023126D01*
X0031951Y0023257D01*
X0031932Y0023388D01*
X0031916Y0023520D01*
X0031904Y0023653D01*
X0031096Y0034347D01*
X0029259Y0037692D02*
X0023984Y0041634D01*
X0022299Y0044910D02*
X0021892Y0063901D01*
X0021891Y0064000D02*
X0021891Y0074000D01*
X0021891Y0074042D02*
X0023046Y0146181D01*
X0023046Y0150130D01*
X0022820Y0151587D02*
X0020987Y0158487D01*
X0020987Y0158486D02*
X0020967Y0158595D01*
X0020951Y0158704D01*
X0020939Y0158813D01*
X0020931Y0158923D01*
X0020927Y0159034D01*
X0020926Y0159144D01*
X0020930Y0159254D01*
X0020938Y0159364D01*
X0020950Y0159474D01*
X0020965Y0159583D01*
X0020985Y0159692D01*
X0021008Y0159800D01*
X0021035Y0159906D01*
X0021066Y0160012D01*
X0021101Y0160117D01*
X0021140Y0160220D01*
X0021182Y0160322D01*
X0021228Y0160422D01*
X0021277Y0160521D01*
X0021330Y0160618D01*
X0021387Y0160713D01*
X0021446Y0160805D01*
X0021509Y0160896D01*
X0021576Y0160984D01*
X0030300Y0172173D01*
X0030406Y0172480D02*
X0030406Y0172980D01*
X0032858Y0173858D01*
X0030405Y0172480D02*
X0030403Y0172439D01*
X0030398Y0172398D01*
X0030390Y0172357D01*
X0030378Y0172318D01*
X0030363Y0172279D01*
X0030345Y0172242D01*
X0030324Y0172206D01*
X0030300Y0172173D01*
X0037984Y0174987D02*
X0030529Y0187122D01*
X0030455Y0187384D02*
X0030455Y0187884D01*
X0028593Y0188959D01*
X0030455Y0187384D02*
X0030457Y0187345D01*
X0030461Y0187306D01*
X0030469Y0187267D01*
X0030480Y0187229D01*
X0030493Y0187192D01*
X0030510Y0187157D01*
X0030529Y0187122D01*
X0032858Y0162047D02*
X0030406Y0161169D01*
X0030406Y0160669D01*
X0030315Y0160382D02*
X0028834Y0158272D01*
X0028715Y0158063D02*
X0025071Y0151570D01*
X0024954Y0150639D02*
X0025254Y0122257D01*
X0025254Y0114374D01*
X0025256Y0114303D01*
X0025262Y0114233D01*
X0025271Y0114163D01*
X0025284Y0114093D01*
X0025302Y0114024D01*
X0025322Y0113957D01*
X0025347Y0113890D01*
X0025375Y0113825D01*
X0025406Y0113762D01*
X0025441Y0113700D01*
X0025479Y0113640D01*
X0025520Y0113583D01*
X0025564Y0113528D01*
X0025612Y0113475D01*
X0025662Y0113425D01*
X0025714Y0113378D01*
X0025769Y0113333D01*
X0025827Y0113292D01*
X0025886Y0113254D01*
X0025948Y0113219D01*
X0026011Y0113187D01*
X0026076Y0113159D01*
X0026143Y0113134D01*
X0064957Y0099966D01*
X0065023Y0099941D01*
X0065088Y0099913D01*
X0065151Y0099882D01*
X0065212Y0099847D01*
X0065272Y0099809D01*
X0065329Y0099768D01*
X0065384Y0099724D01*
X0065436Y0099677D01*
X0065486Y0099628D01*
X0065533Y0099575D01*
X0065577Y0099521D01*
X0065618Y0099464D01*
X0065656Y0099404D01*
X0065691Y0099343D01*
X0065723Y0099280D01*
X0065751Y0099216D01*
X0065775Y0099150D01*
X0065796Y0099083D01*
X0065814Y0099015D01*
X0065827Y0098946D01*
X0065837Y0098876D01*
X0065844Y0098806D01*
X0065846Y0098735D01*
X0066010Y0076441D01*
X0066010Y0075937D01*
X0066760Y0074437D01*
X0065262Y0071152D02*
X0065194Y0071167D01*
X0065127Y0071185D01*
X0065061Y0071207D01*
X0064997Y0071233D01*
X0070500Y0066563D02*
X0071250Y0065063D01*
X0071250Y0064563D01*
X0071280Y0064391D02*
X0072011Y0062394D01*
X0070296Y0060325D02*
X0070374Y0060263D01*
X0070455Y0060203D01*
X0070538Y0060147D01*
X0070622Y0060094D01*
X0070709Y0060044D01*
X0070797Y0059997D01*
X0070887Y0059953D01*
X0070979Y0059913D01*
X0071072Y0059876D01*
X0071167Y0059843D01*
X0071262Y0059813D01*
X0071359Y0059787D01*
X0071456Y0059765D01*
X0071555Y0059746D01*
X0071653Y0059731D01*
X0071753Y0059719D01*
X0082437Y0058687D01*
X0082563Y0058681D02*
X0086563Y0058681D01*
X0086630Y0058683D01*
X0086697Y0058688D01*
X0086763Y0058696D01*
X0086829Y0058708D01*
X0086895Y0058724D01*
X0086959Y0058742D01*
X0087023Y0058764D01*
X0087085Y0058789D01*
X0087146Y0058818D01*
X0087205Y0058849D01*
X0087262Y0058884D01*
X0087318Y0058921D01*
X0087372Y0058961D01*
X0086063Y0062490D02*
X0086065Y0062530D01*
X0086069Y0062569D01*
X0086077Y0062608D01*
X0086088Y0062646D01*
X0086102Y0062683D01*
X0086119Y0062719D01*
X0086138Y0062754D01*
X0082563Y0061990D02*
X0082522Y0061992D01*
X0082481Y0061997D01*
X0082441Y0062005D01*
X0082402Y0062017D01*
X0082363Y0062032D01*
X0082326Y0062050D01*
X0082291Y0062070D01*
X0082257Y0062094D01*
X0082437Y0058687D02*
X0082500Y0058682D01*
X0082563Y0058681D01*
X0071280Y0064391D02*
X0071267Y0064432D01*
X0071258Y0064475D01*
X0071252Y0064519D01*
X0071250Y0064563D01*
X0070296Y0060325D02*
X0057256Y0071135D01*
X0056937Y0071250D02*
X0056437Y0071250D01*
X0054937Y0072000D01*
X0053437Y0071250D01*
X0052937Y0071250D01*
X0052706Y0071194D02*
X0050571Y0070079D01*
X0049788Y0070600D01*
X0050571Y0070079D02*
X0050369Y0066926D01*
X0050320Y0066646D02*
X0048583Y0060629D01*
X0048563Y0060490D02*
X0048563Y0059990D01*
X0047063Y0059240D01*
X0048563Y0060490D02*
X0048564Y0060525D01*
X0048568Y0060560D01*
X0048574Y0060595D01*
X0048583Y0060629D01*
X0043806Y0060854D02*
X0043790Y0060794D01*
X0043777Y0060734D01*
X0043767Y0060674D01*
X0043760Y0060613D01*
X0043755Y0060552D01*
X0043754Y0060490D01*
X0038294Y0058245D02*
X0036208Y0058761D01*
X0034082Y0059514D02*
X0026500Y0064000D01*
X0021891Y0064000D02*
X0021892Y0063902D01*
X0026500Y0074000D02*
X0034376Y0069910D01*
X0026500Y0074000D02*
X0027063Y0090735D01*
X0027063Y0090752D01*
X0027063Y0091252D01*
X0030500Y0094689D01*
X0033937Y0094739D01*
X0057163Y0094739D01*
X0060600Y0094789D01*
X0036208Y0058760D02*
X0035671Y0058933D01*
X0035138Y0059116D01*
X0034608Y0059310D01*
X0034082Y0059514D01*
X0038295Y0058245D02*
X0038416Y0058192D01*
X0038537Y0058135D01*
X0038655Y0058074D01*
X0038772Y0058010D01*
X0038887Y0057943D01*
X0039000Y0057872D01*
X0039111Y0057798D01*
X0039219Y0057721D01*
X0039326Y0057641D01*
X0039430Y0057558D01*
X0039531Y0057472D01*
X0039630Y0057383D01*
X0039727Y0057291D01*
X0039820Y0057197D01*
X0039911Y0057099D01*
X0039999Y0057000D01*
X0040084Y0056897D01*
X0040167Y0056793D01*
X0040246Y0056685D01*
X0040322Y0056576D01*
X0040395Y0056465D01*
X0040464Y0056351D01*
X0040530Y0056236D01*
X0040593Y0056118D01*
X0040653Y0055999D01*
X0040709Y0055878D01*
X0040761Y0055756D01*
X0040810Y0055632D01*
X0043843Y0057515D02*
X0043820Y0057580D01*
X0043800Y0057647D01*
X0043783Y0057714D01*
X0043771Y0057782D01*
X0043761Y0057851D01*
X0043756Y0057921D01*
X0043754Y0057990D01*
X0045529Y0053191D02*
X0045541Y0053156D01*
X0045551Y0053120D01*
X0045557Y0053083D01*
X0045562Y0053046D01*
X0045563Y0053009D01*
X0054937Y0055500D02*
X0056437Y0056250D01*
X0056937Y0056250D01*
X0056992Y0056253D02*
X0061393Y0056736D01*
X0062262Y0051918D02*
X0062226Y0051901D01*
X0062188Y0051887D01*
X0062150Y0051876D01*
X0062111Y0051868D01*
X0062072Y0051864D01*
X0062032Y0051862D01*
X0065367Y0053524D02*
X0065431Y0053555D01*
X0065496Y0053582D01*
X0065562Y0053606D01*
X0065630Y0053626D01*
X0065699Y0053643D01*
X0069118Y0051862D02*
X0069143Y0051863D01*
X0069168Y0051864D01*
X0070740Y0054705D02*
X0070841Y0054724D01*
X0070943Y0054739D01*
X0071045Y0054751D01*
X0071148Y0054758D01*
X0071251Y0054762D01*
X0071354Y0054761D01*
X0065968Y0048138D02*
X0065928Y0048136D01*
X0065889Y0048132D01*
X0065850Y0048124D01*
X0065812Y0048113D01*
X0065774Y0048099D01*
X0065738Y0048082D01*
X0062633Y0046475D02*
X0062576Y0046447D01*
X0062518Y0046422D01*
X0062459Y0046400D01*
X0062400Y0046381D01*
X0056437Y0037250D02*
X0054937Y0038000D01*
X0056437Y0037250D02*
X0056937Y0037250D01*
X0057056Y0037236D02*
X0059122Y0036733D01*
X0057055Y0037236D02*
X0057016Y0037244D01*
X0056977Y0037248D01*
X0056937Y0037250D01*
X0054502Y0028548D02*
X0056029Y0027068D01*
X0056181Y0026709D02*
X0056181Y0026209D01*
X0056961Y0025724D01*
X0056181Y0026709D02*
X0056179Y0026749D01*
X0056175Y0026789D01*
X0056167Y0026828D01*
X0056156Y0026866D01*
X0056141Y0026904D01*
X0056124Y0026940D01*
X0056104Y0026975D01*
X0056082Y0027008D01*
X0056057Y0027039D01*
X0056029Y0027068D01*
X0051815Y0028549D02*
X0051816Y0028636D01*
X0051821Y0028724D01*
X0051828Y0028812D01*
X0051838Y0028899D01*
X0051851Y0028986D01*
X0051867Y0029072D01*
X0056961Y0022575D02*
X0057740Y0023059D01*
X0058240Y0023059D01*
X0058571Y0023184D02*
X0060466Y0024854D01*
X0082353Y0034964D01*
X0082563Y0035010D02*
X0083063Y0035010D01*
X0084563Y0035760D01*
X0086063Y0035010D01*
X0086063Y0034510D01*
X0086069Y0034430D02*
X0086411Y0032330D01*
X0088700Y0030923D02*
X0088751Y0031009D01*
X0088798Y0031097D01*
X0088842Y0031186D01*
X0088883Y0031277D01*
X0088921Y0031370D01*
X0088955Y0031464D01*
X0088985Y0031559D01*
X0089012Y0031655D01*
X0089035Y0031752D01*
X0089055Y0031850D01*
X0089071Y0031949D01*
X0089083Y0032048D01*
X0089092Y0032147D01*
X0089097Y0032247D01*
X0089098Y0032347D01*
X0089095Y0032446D01*
X0089089Y0032546D01*
X0089079Y0032645D01*
X0089066Y0032744D01*
X0089049Y0032842D01*
X0089028Y0032940D01*
X0089003Y0033037D01*
X0089004Y0033037D02*
X0087826Y0037354D01*
X0087783Y0037485D02*
X0086097Y0041809D01*
X0086063Y0041990D02*
X0086063Y0042490D01*
X0084563Y0043240D01*
X0086063Y0041991D02*
X0086064Y0041954D01*
X0086069Y0041917D01*
X0086075Y0041880D01*
X0086085Y0041844D01*
X0086097Y0041809D01*
X0086563Y0043990D02*
X0086605Y0043992D01*
X0086647Y0043997D01*
X0086688Y0044006D01*
X0086728Y0044018D01*
X0086767Y0044033D01*
X0086804Y0044052D01*
X0086840Y0044074D01*
X0086874Y0044099D01*
X0082563Y0043989D02*
X0082524Y0043991D01*
X0082485Y0043995D01*
X0082446Y0044003D01*
X0082408Y0044014D01*
X0082371Y0044027D01*
X0082336Y0044044D01*
X0082301Y0044063D01*
X0082268Y0044085D01*
X0087783Y0037486D02*
X0087806Y0037421D01*
X0087826Y0037354D01*
X0086063Y0034510D02*
X0086065Y0034470D01*
X0086069Y0034430D01*
X0082563Y0035010D02*
X0082520Y0035008D01*
X0082477Y0035003D01*
X0082435Y0034993D01*
X0082393Y0034980D01*
X0082353Y0034964D01*
X0088700Y0030923D02*
X0086137Y0026752D01*
X0086063Y0026490D02*
X0086063Y0025990D01*
X0084563Y0025240D01*
X0086063Y0026490D02*
X0086065Y0026529D01*
X0086069Y0026568D01*
X0086077Y0026607D01*
X0086088Y0026645D01*
X0086101Y0026682D01*
X0086118Y0026717D01*
X0086137Y0026752D01*
X0080661Y0022299D02*
X0082959Y0019315D01*
X0083063Y0019010D02*
X0083063Y0018510D01*
X0084563Y0017760D01*
X0086063Y0018509D01*
X0086563Y0018509D01*
X0086636Y0018515D02*
X0088758Y0018829D01*
X0089721Y0016321D02*
X0089794Y0016350D01*
X0089865Y0016381D01*
X0089936Y0016414D01*
X0090005Y0016449D01*
X0095045Y0019091D01*
X0095277Y0019246D02*
X0098178Y0021674D01*
X0098451Y0021937D02*
X0103080Y0027079D01*
X0106150Y0028589D02*
X0116850Y0029404D01*
X0120426Y0031585D02*
X0126217Y0040998D01*
X0126291Y0041260D02*
X0126291Y0041760D01*
X0126776Y0042539D01*
X0129925Y0042539D01*
X0133075Y0042539D01*
X0136224Y0042539D01*
X0136709Y0041760D01*
X0137209Y0041760D01*
X0137554Y0041621D02*
X0163554Y0016720D01*
X0137554Y0041621D02*
X0137522Y0041649D01*
X0137488Y0041674D01*
X0137452Y0041696D01*
X0137414Y0041716D01*
X0137375Y0041731D01*
X0137334Y0041744D01*
X0137293Y0041753D01*
X0137251Y0041758D01*
X0137208Y0041760D01*
X0136224Y0047461D02*
X0136709Y0047881D01*
X0138960Y0047881D01*
X0139751Y0047952D02*
X0142807Y0048504D01*
X0144113Y0049139D02*
X0145916Y0050741D01*
X0142329Y0051148D02*
X0140282Y0049991D01*
X0142807Y0048504D02*
X0142904Y0048523D01*
X0142999Y0048546D01*
X0143093Y0048572D01*
X0143187Y0048602D01*
X0143279Y0048635D01*
X0143370Y0048671D01*
X0143460Y0048711D01*
X0143548Y0048753D01*
X0143634Y0048799D01*
X0143719Y0048849D01*
X0143802Y0048901D01*
X0143883Y0048956D01*
X0143962Y0049014D01*
X0144039Y0049075D01*
X0144113Y0049139D01*
X0142623Y0053881D02*
X0139856Y0054860D01*
X0137230Y0054382D02*
X0137230Y0054381D01*
X0133995Y0054211D02*
X0133914Y0054268D01*
X0133835Y0054328D01*
X0133759Y0054391D01*
X0133685Y0054457D01*
X0133614Y0054526D01*
X0133546Y0054597D01*
X0133480Y0054671D01*
X0133417Y0054747D01*
X0133357Y0054826D01*
X0133300Y0054907D01*
X0133247Y0054990D01*
X0133196Y0055075D01*
X0133149Y0055162D01*
X0133105Y0055251D01*
X0133065Y0055341D01*
X0133028Y0055433D01*
X0132995Y0055526D01*
X0132965Y0055620D01*
X0132939Y0055715D01*
X0132917Y0055812D01*
X0132898Y0055909D01*
X0132883Y0056007D01*
X0132872Y0056105D01*
X0132864Y0056203D01*
X0132860Y0056302D01*
X0132861Y0056401D01*
X0132864Y0056500D01*
X0132872Y0056598D01*
X0132884Y0056697D01*
X0132899Y0056794D01*
X0132918Y0056891D01*
X0132940Y0056988D01*
X0132967Y0057083D01*
X0132996Y0057177D01*
X0133030Y0057270D01*
X0133067Y0057362D01*
X0133108Y0057452D01*
X0133152Y0057541D01*
X0133199Y0057627D01*
X0133250Y0057712D01*
X0133303Y0057795D01*
X0133304Y0057796D02*
X0133362Y0057882D01*
X0133362Y0058382D01*
X0131500Y0059457D01*
X0133862Y0062341D02*
X0133932Y0062339D01*
X0134001Y0062334D01*
X0134070Y0062324D01*
X0134138Y0062311D01*
X0134206Y0062295D01*
X0134273Y0062275D01*
X0134338Y0062251D01*
X0134402Y0062224D01*
X0134465Y0062194D01*
X0134526Y0062160D01*
X0134585Y0062123D01*
X0136862Y0060615D01*
X0137138Y0060531D02*
X0137638Y0060531D01*
X0139500Y0059457D01*
X0137638Y0058382D01*
X0137638Y0057882D01*
X0137636Y0057841D01*
X0137631Y0057800D01*
X0137623Y0057759D01*
X0137611Y0057719D01*
X0137596Y0057681D01*
X0137577Y0057643D01*
X0137556Y0057608D01*
X0137532Y0057574D01*
X0137505Y0057543D01*
X0137476Y0057513D01*
X0137444Y0057487D01*
X0137410Y0057463D01*
X0137375Y0057442D01*
X0137374Y0057441D02*
X0135500Y0056435D01*
X0137230Y0054382D02*
X0137150Y0054317D01*
X0137069Y0054256D01*
X0136984Y0054198D01*
X0136898Y0054143D01*
X0136810Y0054091D01*
X0136720Y0054043D01*
X0136628Y0053998D01*
X0136534Y0053957D01*
X0136439Y0053920D01*
X0136342Y0053886D01*
X0136245Y0053855D01*
X0136146Y0053829D01*
X0136046Y0053806D01*
X0135946Y0053787D01*
X0135845Y0053772D01*
X0135743Y0053761D01*
X0135641Y0053754D01*
X0135539Y0053750D01*
X0135436Y0053751D01*
X0135334Y0053755D01*
X0135232Y0053763D01*
X0135131Y0053776D01*
X0135030Y0053791D01*
X0134929Y0053811D01*
X0134830Y0053835D01*
X0134731Y0053862D01*
X0134634Y0053893D01*
X0134538Y0053928D01*
X0134443Y0053967D01*
X0134350Y0054009D01*
X0134258Y0054054D01*
X0134169Y0054103D01*
X0134081Y0054156D01*
X0133995Y0054211D01*
X0131654Y0054107D02*
X0131654Y0054106D01*
X0129356Y0052715D02*
X0133809Y0050023D01*
X0135216Y0050049D01*
X0135240Y0050049D01*
X0136709Y0050049D01*
X0136713Y0050049D01*
X0137213Y0050048D01*
X0137782Y0049915D02*
X0137782Y0049914D01*
X0137782Y0049916D02*
X0137723Y0049943D01*
X0137662Y0049967D01*
X0137600Y0049988D01*
X0137537Y0050006D01*
X0137473Y0050021D01*
X0137408Y0050033D01*
X0137343Y0050041D01*
X0137278Y0050046D01*
X0137212Y0050048D01*
X0136044Y0051972D02*
X0138960Y0052328D01*
X0139856Y0054860D02*
X0139758Y0054893D01*
X0139658Y0054922D01*
X0139558Y0054947D01*
X0139457Y0054968D01*
X0139354Y0054985D01*
X0139252Y0054998D01*
X0139149Y0055007D01*
X0139045Y0055013D01*
X0138942Y0055014D01*
X0138839Y0055011D01*
X0138735Y0055005D01*
X0138632Y0054994D01*
X0138530Y0054979D01*
X0138428Y0054961D01*
X0138327Y0054938D01*
X0138227Y0054912D01*
X0138128Y0054882D01*
X0138030Y0054848D01*
X0137934Y0054810D01*
X0137839Y0054769D01*
X0137746Y0054724D01*
X0137655Y0054675D01*
X0137565Y0054623D01*
X0137478Y0054568D01*
X0137393Y0054509D01*
X0137310Y0054447D01*
X0137229Y0054382D01*
X0136044Y0051973D02*
X0135913Y0051959D01*
X0135781Y0051949D01*
X0135649Y0051942D01*
X0135516Y0051940D01*
X0135384Y0051941D01*
X0135252Y0051947D01*
X0135120Y0051956D01*
X0134988Y0051969D01*
X0134857Y0051986D01*
X0134727Y0052007D01*
X0134597Y0052032D01*
X0134467Y0052060D01*
X0134339Y0052092D01*
X0134212Y0052129D01*
X0134086Y0052168D01*
X0133961Y0052212D01*
X0133837Y0052259D01*
X0133715Y0052310D01*
X0133594Y0052364D01*
X0133475Y0052422D01*
X0133358Y0052483D01*
X0133243Y0052548D01*
X0133129Y0052616D01*
X0133018Y0052687D01*
X0132909Y0052762D01*
X0132802Y0052840D01*
X0132697Y0052921D01*
X0132595Y0053005D01*
X0132495Y0053092D01*
X0132398Y0053181D01*
X0132304Y0053274D01*
X0132212Y0053369D01*
X0132123Y0053468D01*
X0132037Y0053568D01*
X0131955Y0053671D01*
X0131875Y0053777D01*
X0131798Y0053885D01*
X0131725Y0053995D01*
X0131654Y0054107D01*
X0131654Y0054106D02*
X0131599Y0054193D01*
X0131541Y0054277D01*
X0131480Y0054359D01*
X0131416Y0054439D01*
X0131349Y0054516D01*
X0131279Y0054591D01*
X0131206Y0054663D01*
X0131130Y0054732D01*
X0131052Y0054798D01*
X0130972Y0054861D01*
X0130889Y0054921D01*
X0130803Y0054978D01*
X0130716Y0055031D01*
X0130627Y0055081D01*
X0130536Y0055128D01*
X0130443Y0055171D01*
X0130349Y0055211D01*
X0130253Y0055247D01*
X0130156Y0055279D01*
X0130057Y0055308D01*
X0129958Y0055333D01*
X0129858Y0055354D01*
X0129757Y0055371D01*
X0129655Y0055384D01*
X0129553Y0055394D01*
X0129451Y0055399D01*
X0129349Y0055401D01*
X0129246Y0055399D01*
X0129144Y0055393D01*
X0129042Y0055383D01*
X0128941Y0055369D01*
X0128840Y0055351D01*
X0128740Y0055329D01*
X0128641Y0055304D01*
X0128543Y0055275D01*
X0128446Y0055242D01*
X0128350Y0055206D01*
X0128256Y0055165D01*
X0128163Y0055122D01*
X0128072Y0055075D01*
X0127983Y0055024D01*
X0127896Y0054970D01*
X0127812Y0054913D01*
X0127729Y0054852D01*
X0127649Y0054789D01*
X0127571Y0054722D01*
X0127496Y0054653D01*
X0127423Y0054581D01*
X0127353Y0054506D01*
X0127287Y0054428D01*
X0127223Y0054348D01*
X0127162Y0054265D01*
X0127105Y0054181D01*
X0127050Y0054094D01*
X0126999Y0054005D01*
X0126952Y0053914D01*
X0126908Y0053822D01*
X0126868Y0053728D01*
X0126831Y0053632D01*
X0126831Y0053633D02*
X0126300Y0052174D01*
X0127298Y0050986D01*
X0127524Y0050748D02*
X0128652Y0049698D01*
X0128657Y0049694D01*
X0129283Y0049104D01*
X0129441Y0048740D02*
X0129441Y0048240D01*
X0129925Y0047461D01*
X0129441Y0048740D02*
X0129439Y0048781D01*
X0129434Y0048821D01*
X0129426Y0048861D01*
X0129415Y0048900D01*
X0129400Y0048938D01*
X0129382Y0048975D01*
X0129362Y0049010D01*
X0129338Y0049044D01*
X0129312Y0049075D01*
X0129284Y0049104D01*
X0126776Y0047461D02*
X0126291Y0047930D01*
X0125791Y0047930D01*
X0123606Y0047930D01*
X0121000Y0050500D02*
X0122674Y0052174D01*
X0126300Y0052174D01*
X0127299Y0050986D02*
X0127353Y0050924D01*
X0127408Y0050864D01*
X0127466Y0050805D01*
X0127525Y0050749D01*
X0133075Y0047461D02*
X0133559Y0048240D01*
X0133559Y0048740D01*
X0133569Y0048839D02*
X0133809Y0050023D01*
X0133569Y0048840D02*
X0133563Y0048807D01*
X0133560Y0048774D01*
X0133559Y0048741D01*
X0137782Y0049914D02*
X0137873Y0049872D01*
X0137965Y0049833D01*
X0138059Y0049798D01*
X0138154Y0049766D01*
X0138250Y0049738D01*
X0138347Y0049713D01*
X0138445Y0049692D01*
X0138543Y0049675D01*
X0138642Y0049661D01*
X0138742Y0049651D01*
X0138842Y0049645D01*
X0138942Y0049642D01*
X0139042Y0049643D01*
X0139142Y0049648D01*
X0139242Y0049657D01*
X0139341Y0049669D01*
X0139440Y0049685D01*
X0139538Y0049705D01*
X0139635Y0049728D01*
X0139732Y0049755D01*
X0139827Y0049786D01*
X0139921Y0049820D01*
X0140014Y0049857D01*
X0140105Y0049898D01*
X0140195Y0049943D01*
X0140283Y0049990D01*
X0139751Y0047952D02*
X0139620Y0047930D01*
X0139489Y0047913D01*
X0139357Y0047899D01*
X0139224Y0047889D01*
X0139092Y0047883D01*
X0138959Y0047881D01*
X0126291Y0041259D02*
X0126289Y0041220D01*
X0126285Y0041181D01*
X0126277Y0041142D01*
X0126266Y0041104D01*
X0126253Y0041067D01*
X0126236Y0041032D01*
X0126217Y0040997D01*
X0120425Y0031585D02*
X0120355Y0031473D01*
X0120281Y0031364D01*
X0120204Y0031257D01*
X0120124Y0031153D01*
X0120041Y0031050D01*
X0119956Y0030950D01*
X0119867Y0030853D01*
X0119776Y0030758D01*
X0119682Y0030666D01*
X0119585Y0030576D01*
X0119486Y0030489D01*
X0119385Y0030405D01*
X0119281Y0030324D01*
X0119175Y0030246D01*
X0119066Y0030171D01*
X0118956Y0030100D01*
X0118843Y0030031D01*
X0118729Y0029966D01*
X0118613Y0029904D01*
X0118495Y0029845D01*
X0118375Y0029790D01*
X0118254Y0029738D01*
X0118132Y0029689D01*
X0118008Y0029645D01*
X0117883Y0029603D01*
X0117757Y0029566D01*
X0117629Y0029531D01*
X0117501Y0029501D01*
X0117372Y0029474D01*
X0117242Y0029451D01*
X0117112Y0029432D01*
X0116981Y0029416D01*
X0116850Y0029404D01*
X0106151Y0028589D02*
X0106016Y0028577D01*
X0105882Y0028560D01*
X0105749Y0028540D01*
X0105616Y0028516D01*
X0105484Y0028489D01*
X0105353Y0028457D01*
X0105223Y0028421D01*
X0105094Y0028382D01*
X0104966Y0028339D01*
X0104840Y0028292D01*
X0104715Y0028242D01*
X0104591Y0028188D01*
X0104470Y0028130D01*
X0104349Y0028069D01*
X0104231Y0028004D01*
X0104115Y0027936D01*
X0104000Y0027864D01*
X0103888Y0027789D01*
X0103778Y0027711D01*
X0103671Y0027630D01*
X0103566Y0027545D01*
X0103463Y0027458D01*
X0103363Y0027367D01*
X0103266Y0027274D01*
X0103171Y0027178D01*
X0103080Y0027079D01*
X0098452Y0021937D02*
X0098387Y0021867D01*
X0098320Y0021800D01*
X0098250Y0021736D01*
X0098179Y0021674D01*
X0096454Y0023734D02*
X0094751Y0022361D01*
X0094437Y0022250D02*
X0093937Y0022250D01*
X0092437Y0021500D01*
X0094437Y0022250D02*
X0094480Y0022252D01*
X0094522Y0022257D01*
X0094563Y0022266D01*
X0094604Y0022279D01*
X0094643Y0022294D01*
X0094681Y0022313D01*
X0094717Y0022336D01*
X0094751Y0022361D01*
X0095277Y0019246D02*
X0095222Y0019203D01*
X0095165Y0019162D01*
X0095106Y0019125D01*
X0095045Y0019091D01*
X0089721Y0016321D02*
X0087032Y0015288D01*
X0086563Y0015201D02*
X0082563Y0015201D01*
X0082493Y0015203D01*
X0082423Y0015209D01*
X0082353Y0015218D01*
X0082284Y0015231D01*
X0082216Y0015248D01*
X0082148Y0015268D01*
X0082082Y0015293D01*
X0082017Y0015320D01*
X0081954Y0015351D01*
X0081893Y0015385D01*
X0081834Y0015423D01*
X0081776Y0015464D01*
X0081721Y0015508D01*
X0081669Y0015554D01*
X0081618Y0015604D01*
X0081571Y0015656D01*
X0081527Y0015710D01*
X0081485Y0015767D01*
X0081447Y0015826D01*
X0081412Y0015887D01*
X0081380Y0015950D01*
X0081352Y0016014D01*
X0081327Y0016080D01*
X0081305Y0016147D01*
X0080481Y0019004D01*
X0080433Y0019116D02*
X0079315Y0021053D01*
X0079315Y0021054D01*
X0079264Y0021142D01*
X0079185Y0021244D02*
X0077532Y0022898D01*
X0077428Y0022978D02*
X0076924Y0023269D01*
X0076923Y0023269D01*
X0075403Y0024146D01*
X0075282Y0024197D02*
X0073024Y0024802D01*
X0072894Y0024819D02*
X0070655Y0024819D01*
X0070554Y0024819D01*
X0070426Y0024802D02*
X0068265Y0024223D01*
X0068263Y0024222D01*
X0068166Y0024196D01*
X0068046Y0024146D02*
X0066109Y0023028D01*
X0066109Y0023028D01*
X0066021Y0022977D01*
X0065918Y0022898D02*
X0064264Y0021244D01*
X0064184Y0021141D02*
X0063015Y0019116D01*
X0062980Y0019041D02*
X0061159Y0014194D01*
X0060444Y0013086D02*
X0059164Y0011806D01*
X0057885Y0013086D02*
X0059166Y0014365D01*
X0059549Y0015291D02*
X0059549Y0017260D01*
X0059194Y0018157D02*
X0058604Y0018783D01*
X0058240Y0018941D02*
X0057740Y0018941D01*
X0056961Y0019425D01*
X0057740Y0019909D01*
X0058240Y0019909D01*
X0058518Y0019994D02*
X0059974Y0020967D01*
X0060024Y0021002D02*
X0064950Y0024438D01*
X0065115Y0024543D02*
X0065203Y0024594D01*
X0065205Y0024595D01*
X0067142Y0025713D01*
X0067692Y0025942D02*
X0067789Y0025968D01*
X0067797Y0025970D01*
X0069958Y0026549D01*
X0070547Y0026628D02*
X0070648Y0026628D01*
X0070657Y0026628D01*
X0072894Y0026628D01*
X0073492Y0026549D02*
X0075750Y0025944D01*
X0076308Y0025713D02*
X0077828Y0024836D01*
X0077828Y0024835D01*
X0078333Y0024544D01*
X0078811Y0024177D02*
X0080464Y0022523D01*
X0079185Y0021244D02*
X0079214Y0021212D01*
X0079241Y0021178D01*
X0079264Y0021141D01*
X0080661Y0022299D02*
X0080614Y0022358D01*
X0080566Y0022414D01*
X0080516Y0022470D01*
X0080464Y0022523D01*
X0077532Y0022898D02*
X0077500Y0022927D01*
X0077465Y0022954D01*
X0077428Y0022978D01*
X0078332Y0024544D02*
X0078406Y0024499D01*
X0078479Y0024452D01*
X0078549Y0024402D01*
X0078618Y0024349D01*
X0078684Y0024294D01*
X0078748Y0024237D01*
X0078811Y0024177D01*
X0076308Y0025713D02*
X0076232Y0025755D01*
X0076155Y0025793D01*
X0076076Y0025829D01*
X0075997Y0025863D01*
X0075916Y0025893D01*
X0075833Y0025920D01*
X0075750Y0025943D01*
X0075282Y0024197D02*
X0075324Y0024183D01*
X0075364Y0024166D01*
X0075403Y0024146D01*
X0073023Y0024802D02*
X0072981Y0024811D01*
X0072937Y0024817D01*
X0072893Y0024819D01*
X0072894Y0026628D02*
X0072980Y0026626D01*
X0073067Y0026622D01*
X0073153Y0026613D01*
X0073238Y0026602D01*
X0073324Y0026588D01*
X0073408Y0026570D01*
X0073492Y0026549D01*
X0070546Y0026628D02*
X0070461Y0026626D01*
X0070376Y0026621D01*
X0070292Y0026613D01*
X0070207Y0026602D01*
X0070124Y0026587D01*
X0070040Y0026570D01*
X0069958Y0026549D01*
X0070426Y0024802D02*
X0070468Y0024811D01*
X0070511Y0024817D01*
X0070554Y0024819D01*
X0068166Y0024196D02*
X0068125Y0024183D01*
X0068085Y0024166D01*
X0068047Y0024146D01*
X0067141Y0025713D02*
X0067216Y0025754D01*
X0067292Y0025793D01*
X0067370Y0025828D01*
X0067449Y0025861D01*
X0067529Y0025891D01*
X0067610Y0025918D01*
X0067692Y0025942D01*
X0065116Y0024543D02*
X0065060Y0024509D01*
X0065005Y0024474D01*
X0064951Y0024438D01*
X0066022Y0022978D02*
X0065985Y0022954D01*
X0065950Y0022927D01*
X0065918Y0022898D01*
X0064264Y0021244D02*
X0064235Y0021212D01*
X0064208Y0021177D01*
X0064184Y0021140D01*
X0063016Y0019117D02*
X0062996Y0019080D01*
X0062980Y0019042D01*
X0058604Y0018784D02*
X0058575Y0018812D01*
X0058544Y0018838D01*
X0058510Y0018862D01*
X0058475Y0018882D01*
X0058438Y0018900D01*
X0058400Y0018915D01*
X0058361Y0018926D01*
X0058321Y0018934D01*
X0058281Y0018939D01*
X0058240Y0018941D01*
X0058240Y0019909D02*
X0058282Y0019911D01*
X0058324Y0019916D01*
X0058365Y0019925D01*
X0058405Y0019937D01*
X0058444Y0019953D01*
X0058482Y0019971D01*
X0058518Y0019993D01*
X0059194Y0018157D02*
X0059240Y0018104D01*
X0059284Y0018049D01*
X0059325Y0017992D01*
X0059363Y0017932D01*
X0059398Y0017871D01*
X0059429Y0017807D01*
X0059457Y0017742D01*
X0059481Y0017676D01*
X0059502Y0017609D01*
X0059519Y0017540D01*
X0059532Y0017471D01*
X0059541Y0017401D01*
X0059547Y0017331D01*
X0059549Y0017260D01*
X0061159Y0014194D02*
X0061118Y0014091D01*
X0061074Y0013990D01*
X0061026Y0013890D01*
X0060974Y0013792D01*
X0060919Y0013696D01*
X0060861Y0013602D01*
X0060799Y0013510D01*
X0060734Y0013420D01*
X0060666Y0013333D01*
X0060595Y0013248D01*
X0060521Y0013165D01*
X0060444Y0013086D01*
X0059166Y0014365D02*
X0059213Y0014415D01*
X0059257Y0014467D01*
X0059299Y0014522D01*
X0059338Y0014578D01*
X0059374Y0014637D01*
X0059406Y0014697D01*
X0059436Y0014759D01*
X0059462Y0014822D01*
X0059485Y0014887D01*
X0059504Y0014952D01*
X0059520Y0015019D01*
X0059533Y0015086D01*
X0059542Y0015154D01*
X0059547Y0015223D01*
X0059549Y0015291D01*
X0056961Y0016276D02*
X0056181Y0015791D01*
X0056181Y0015291D01*
X0057885Y0013086D02*
X0057805Y0013008D01*
X0057722Y0012934D01*
X0057637Y0012863D01*
X0057549Y0012794D01*
X0057459Y0012729D01*
X0057366Y0012668D01*
X0057271Y0012609D01*
X0057175Y0012554D01*
X0057076Y0012503D01*
X0056976Y0012455D01*
X0056874Y0012410D01*
X0056770Y0012369D01*
X0056665Y0012332D01*
X0056559Y0012299D01*
X0056452Y0012270D01*
X0056343Y0012244D01*
X0056234Y0012222D01*
X0056124Y0012205D01*
X0056014Y0012191D01*
X0055903Y0012181D01*
X0055792Y0012175D01*
X0055681Y0012173D01*
X0050760Y0012173D01*
X0050760Y0010364D02*
X0055681Y0010364D01*
X0053767Y0014061D02*
X0055852Y0014822D01*
X0055681Y0010364D02*
X0055819Y0010366D01*
X0055957Y0010372D01*
X0056095Y0010381D01*
X0056232Y0010395D01*
X0056369Y0010412D01*
X0056506Y0010434D01*
X0056642Y0010459D01*
X0056777Y0010487D01*
X0056911Y0010520D01*
X0057044Y0010556D01*
X0057177Y0010596D01*
X0057308Y0010640D01*
X0057437Y0010688D01*
X0057566Y0010739D01*
X0057693Y0010793D01*
X0057818Y0010852D01*
X0057942Y0010913D01*
X0058063Y0010978D01*
X0058183Y0011047D01*
X0058301Y0011119D01*
X0058417Y0011194D01*
X0058531Y0011272D01*
X0058643Y0011354D01*
X0058752Y0011438D01*
X0058859Y0011526D01*
X0058963Y0011616D01*
X0059065Y0011710D01*
X0059164Y0011806D01*
X0055852Y0014821D02*
X0055892Y0014838D01*
X0055931Y0014858D01*
X0055968Y0014882D01*
X0056003Y0014908D01*
X0056035Y0014938D01*
X0056064Y0014970D01*
X0056091Y0015004D01*
X0056114Y0015041D01*
X0056134Y0015080D01*
X0056151Y0015120D01*
X0056164Y0015162D01*
X0056173Y0015204D01*
X0056179Y0015247D01*
X0056181Y0015291D01*
X0053767Y0014061D02*
X0053705Y0014040D01*
X0053642Y0014023D01*
X0053579Y0014008D01*
X0053514Y0013997D01*
X0053449Y0013989D01*
X0053384Y0013984D01*
X0053319Y0013982D01*
X0050760Y0013982D01*
X0050690Y0013984D01*
X0050620Y0013989D01*
X0050551Y0013999D01*
X0050483Y0014012D01*
X0050415Y0014028D01*
X0050348Y0014049D01*
X0050282Y0014072D01*
X0050218Y0014100D01*
X0050155Y0014130D01*
X0050094Y0014164D01*
X0050035Y0014201D01*
X0049978Y0014241D01*
X0049923Y0014285D01*
X0049870Y0014331D01*
X0049820Y0014380D01*
X0049773Y0014431D01*
X0049729Y0014485D01*
X0049687Y0014541D01*
X0049649Y0014599D01*
X0049613Y0014660D01*
X0049581Y0014722D01*
X0049553Y0014785D01*
X0040751Y0035782D01*
X0040698Y0035903D01*
X0040641Y0036023D01*
X0040581Y0036141D01*
X0040518Y0036258D01*
X0040452Y0036372D01*
X0040382Y0036485D01*
X0040309Y0036595D01*
X0040233Y0036703D01*
X0040154Y0036810D01*
X0040071Y0036913D01*
X0039986Y0037015D01*
X0039898Y0037114D01*
X0039807Y0037210D01*
X0039714Y0037304D01*
X0039618Y0037395D01*
X0039519Y0037483D01*
X0039417Y0037568D01*
X0039314Y0037651D01*
X0039208Y0037730D01*
X0039099Y0037806D01*
X0038989Y0037879D01*
X0038876Y0037949D01*
X0038762Y0038016D01*
X0038646Y0038079D01*
X0038528Y0038139D01*
X0038408Y0038196D01*
X0038287Y0038249D01*
X0040805Y0038789D02*
X0040864Y0038719D01*
X0040925Y0038652D01*
X0040989Y0038587D01*
X0041055Y0038524D01*
X0031096Y0034347D02*
X0031084Y0034478D01*
X0031069Y0034608D01*
X0031050Y0034738D01*
X0031027Y0034867D01*
X0031000Y0034995D01*
X0030970Y0035123D01*
X0030936Y0035250D01*
X0030899Y0035375D01*
X0030858Y0035500D01*
X0030814Y0035623D01*
X0030766Y0035745D01*
X0030714Y0035866D01*
X0030660Y0035985D01*
X0030601Y0036103D01*
X0030540Y0036219D01*
X0030475Y0036333D01*
X0030407Y0036445D01*
X0030336Y0036555D01*
X0030262Y0036663D01*
X0030185Y0036769D01*
X0030104Y0036873D01*
X0030021Y0036974D01*
X0029935Y0037073D01*
X0029846Y0037169D01*
X0029755Y0037263D01*
X0029661Y0037355D01*
X0029564Y0037443D01*
X0029465Y0037529D01*
X0029363Y0037612D01*
X0029259Y0037692D01*
X0023984Y0041634D02*
X0023884Y0041712D01*
X0023785Y0041793D01*
X0023690Y0041876D01*
X0023596Y0041962D01*
X0023506Y0042052D01*
X0023418Y0042144D01*
X0023333Y0042238D01*
X0023251Y0042335D01*
X0023172Y0042435D01*
X0023096Y0042536D01*
X0023023Y0042641D01*
X0022953Y0042747D01*
X0022887Y0042855D01*
X0022823Y0042965D01*
X0022764Y0043077D01*
X0022707Y0043191D01*
X0022654Y0043307D01*
X0022605Y0043424D01*
X0022559Y0043542D01*
X0022517Y0043662D01*
X0022478Y0043783D01*
X0022443Y0043906D01*
X0022412Y0044029D01*
X0022384Y0044153D01*
X0022361Y0044278D01*
X0022341Y0044403D01*
X0022324Y0044529D01*
X0022312Y0044656D01*
X0022304Y0044783D01*
X0022299Y0044910D01*
X0045543Y0066871D02*
X0045552Y0066905D01*
X0045558Y0066940D01*
X0045562Y0066975D01*
X0045563Y0067010D01*
X0050321Y0066646D02*
X0050338Y0066715D01*
X0050353Y0066785D01*
X0050363Y0066856D01*
X0050369Y0066926D01*
X0049788Y0070600D02*
X0049734Y0070634D01*
X0049679Y0070665D01*
X0049621Y0070694D01*
X0049563Y0070720D01*
X0049503Y0070743D01*
X0049442Y0070763D01*
X0049381Y0070780D01*
X0052706Y0071193D02*
X0052742Y0071210D01*
X0052780Y0071225D01*
X0052818Y0071236D01*
X0052857Y0071244D01*
X0052897Y0071248D01*
X0052937Y0071250D01*
X0056937Y0071250D02*
X0056980Y0071248D01*
X0057023Y0071242D01*
X0057066Y0071233D01*
X0057107Y0071220D01*
X0057147Y0071204D01*
X0057185Y0071184D01*
X0057222Y0071161D01*
X0057256Y0071135D01*
X0057451Y0074454D02*
X0057390Y0074478D01*
X0057329Y0074499D01*
X0057266Y0074517D01*
X0057202Y0074532D01*
X0057138Y0074543D01*
X0057073Y0074552D01*
X0057008Y0074557D01*
X0071999Y0069848D02*
X0072065Y0069834D01*
X0072131Y0069815D01*
X0072195Y0069794D01*
X0072258Y0069769D01*
X0072320Y0069741D01*
X0072380Y0069710D01*
X0072439Y0069676D01*
X0072496Y0069639D01*
X0072551Y0069599D01*
X0074240Y0074437D02*
X0074990Y0075937D01*
X0075490Y0075937D01*
X0075584Y0075946D02*
X0135235Y0087344D01*
X0135335Y0087365D01*
X0135433Y0087389D01*
X0135531Y0087418D01*
X0135627Y0087450D01*
X0135722Y0087486D01*
X0135816Y0087525D01*
X0135908Y0087568D01*
X0135999Y0087614D01*
X0136088Y0087664D01*
X0136174Y0087717D01*
X0136259Y0087773D01*
X0136341Y0087832D01*
X0136422Y0087894D01*
X0136499Y0087960D01*
X0136575Y0088028D01*
X0136647Y0088099D01*
X0136717Y0088173D01*
X0136784Y0088250D01*
X0136848Y0088328D01*
X0136909Y0088410D01*
X0136967Y0088493D01*
X0137022Y0088579D01*
X0137073Y0088666D01*
X0137121Y0088756D01*
X0137166Y0088847D01*
X0137207Y0088940D01*
X0137245Y0089034D01*
X0137279Y0089130D01*
X0137309Y0089227D01*
X0137336Y0089325D01*
X0137359Y0089424D01*
X0137378Y0089524D01*
X0137394Y0089624D01*
X0137406Y0089725D01*
X0137413Y0089827D01*
X0137417Y0089928D01*
X0137418Y0090030D01*
X0137414Y0090131D01*
X0137406Y0090233D01*
X0137395Y0090334D01*
X0137380Y0090434D01*
X0137361Y0090534D01*
X0137338Y0090633D01*
X0137312Y0090731D01*
X0137282Y0090828D01*
X0137248Y0090924D01*
X0136172Y0093801D01*
X0134646Y0092324D02*
X0134731Y0089983D01*
X0134646Y0092324D02*
X0134641Y0092426D01*
X0134631Y0092526D01*
X0134618Y0092627D01*
X0134601Y0092727D01*
X0134580Y0092826D01*
X0134556Y0092924D01*
X0134528Y0093022D01*
X0134496Y0093118D01*
X0134461Y0093213D01*
X0134422Y0093306D01*
X0134379Y0093398D01*
X0134334Y0093488D01*
X0134284Y0093577D01*
X0134232Y0093664D01*
X0134176Y0093748D01*
X0134117Y0093830D01*
X0134055Y0093911D01*
X0133990Y0093988D01*
X0133922Y0094064D01*
X0133852Y0094136D01*
X0133778Y0094206D01*
X0133703Y0094273D01*
X0133624Y0094337D01*
X0135781Y0094598D02*
X0135847Y0094489D01*
X0135909Y0094378D01*
X0135968Y0094266D01*
X0136024Y0094152D01*
X0136077Y0094036D01*
X0136126Y0093919D01*
X0136173Y0093801D01*
X0131961Y0092227D02*
X0101328Y0092423D01*
X0100065Y0092687D02*
X0034592Y0114850D01*
X0034437Y0114874D02*
X0033937Y0114874D01*
X0030500Y0118311D01*
X0034437Y0114874D02*
X0034476Y0114872D01*
X0034515Y0114868D01*
X0034553Y0114860D01*
X0034591Y0114850D01*
X0060600Y0118411D02*
X0064037Y0121848D01*
X0064037Y0122348D01*
X0064078Y0122546D02*
X0064919Y0124500D01*
X0064078Y0122545D02*
X0064063Y0122507D01*
X0064052Y0122468D01*
X0064044Y0122429D01*
X0064039Y0122388D01*
X0064037Y0122348D01*
X0086209Y0146170D02*
X0086174Y0146304D01*
X0086135Y0146436D01*
X0086092Y0146567D01*
X0086045Y0146697D01*
X0085995Y0146826D01*
X0085942Y0146953D01*
X0085884Y0147079D01*
X0085823Y0147202D01*
X0085759Y0147325D01*
X0085691Y0147445D01*
X0085620Y0147563D01*
X0085545Y0147679D01*
X0085467Y0147793D01*
X0085386Y0147905D01*
X0085302Y0148014D01*
X0085215Y0148121D01*
X0085125Y0148226D01*
X0085031Y0148327D01*
X0095410Y0147873D02*
X0095488Y0147764D01*
X0095563Y0147652D01*
X0095635Y0147539D01*
X0095703Y0147424D01*
X0095769Y0147306D01*
X0095831Y0147188D01*
X0095890Y0147067D01*
X0095945Y0146945D01*
X0095997Y0146821D01*
X0096046Y0146696D01*
X0096091Y0146570D01*
X0096133Y0146442D01*
X0096171Y0146314D01*
X0096205Y0146184D01*
X0096801Y0143818D02*
X0096837Y0143686D01*
X0096876Y0143555D01*
X0096918Y0143425D01*
X0096964Y0143296D01*
X0097014Y0143169D01*
X0097068Y0143043D01*
X0097125Y0142919D01*
X0097185Y0142797D01*
X0097249Y0142676D01*
X0097316Y0142557D01*
X0097387Y0142440D01*
X0097460Y0142325D01*
X0097538Y0142212D01*
X0097618Y0142101D01*
X0097701Y0141993D01*
X0097787Y0141887D01*
X0097877Y0141784D01*
X0087872Y0141778D02*
X0087782Y0141883D01*
X0087695Y0141990D01*
X0087611Y0142099D01*
X0087530Y0142210D01*
X0087453Y0142324D01*
X0087378Y0142440D01*
X0087307Y0142558D01*
X0087240Y0142678D01*
X0087176Y0142800D01*
X0087115Y0142923D01*
X0087058Y0143049D01*
X0087004Y0143176D01*
X0086954Y0143304D01*
X0086908Y0143434D01*
X0086865Y0143565D01*
X0086826Y0143697D01*
X0086791Y0143830D01*
X0119152Y0170761D02*
X0119266Y0170700D01*
X0119382Y0170642D01*
X0119499Y0170587D01*
X0119618Y0170535D01*
X0119738Y0170486D01*
X0119859Y0170441D01*
X0119982Y0170399D01*
X0136209Y0146170D02*
X0136791Y0143830D01*
X0169040Y0115759D02*
X0169066Y0115729D01*
X0169089Y0115698D01*
X0169109Y0115666D01*
X0171887Y0114384D02*
X0171910Y0114312D01*
X0171931Y0114239D01*
X0170184Y0113771D02*
X0170171Y0113813D01*
X0170154Y0113854D01*
X0170133Y0113893D01*
X0172461Y0112263D02*
X0172480Y0112183D01*
X0172497Y0112103D01*
X0170713Y0111794D02*
X0170721Y0111757D01*
X0170727Y0111720D01*
X0170730Y0111682D01*
X0157413Y0103994D02*
X0157381Y0104015D01*
X0157352Y0104039D01*
X0157324Y0104064D01*
X0155876Y0105512D02*
X0155847Y0105544D01*
X0155820Y0105579D01*
X0155797Y0105616D01*
X0166985Y0098013D02*
X0167020Y0097993D01*
X0167056Y0097976D01*
X0167093Y0097962D01*
X0167131Y0097951D01*
X0167171Y0097943D01*
X0167210Y0097939D01*
X0167250Y0097937D01*
X0164760Y0088563D02*
X0165509Y0087063D01*
X0165509Y0086563D01*
X0165526Y0086433D02*
X0166447Y0083002D01*
X0163600Y0074452D01*
X0159338Y0070165D02*
X0152985Y0069418D01*
X0152415Y0069209D02*
X0150138Y0067701D01*
X0149862Y0067618D02*
X0149362Y0067618D01*
X0147500Y0066543D01*
X0149862Y0063660D02*
X0149932Y0063662D01*
X0150001Y0063667D01*
X0150070Y0063677D01*
X0150138Y0063690D01*
X0150206Y0063706D01*
X0150273Y0063726D01*
X0150338Y0063750D01*
X0150402Y0063777D01*
X0150465Y0063807D01*
X0150526Y0063841D01*
X0150585Y0063878D01*
X0152862Y0065386D02*
X0152898Y0065408D01*
X0152935Y0065426D01*
X0152974Y0065441D01*
X0153014Y0065453D01*
X0153055Y0065462D01*
X0153096Y0065467D01*
X0153138Y0065469D01*
X0152415Y0069209D02*
X0152473Y0069245D01*
X0152532Y0069279D01*
X0152594Y0069308D01*
X0152656Y0069335D01*
X0152720Y0069359D01*
X0152785Y0069379D01*
X0152851Y0069395D01*
X0152918Y0069408D01*
X0152985Y0069418D01*
X0150138Y0067701D02*
X0150102Y0067679D01*
X0150065Y0067661D01*
X0150026Y0067646D01*
X0149986Y0067634D01*
X0149945Y0067625D01*
X0149904Y0067620D01*
X0149862Y0067618D01*
X0145138Y0063659D02*
X0145068Y0063661D01*
X0144999Y0063666D01*
X0144930Y0063676D01*
X0144862Y0063689D01*
X0144794Y0063705D01*
X0144727Y0063725D01*
X0144662Y0063749D01*
X0144598Y0063776D01*
X0144535Y0063806D01*
X0144474Y0063840D01*
X0144415Y0063877D01*
X0142138Y0065386D02*
X0142102Y0065408D01*
X0142065Y0065426D01*
X0142026Y0065441D01*
X0141986Y0065453D01*
X0141945Y0065462D01*
X0141904Y0065467D01*
X0141862Y0065469D01*
X0137138Y0060531D02*
X0137096Y0060533D01*
X0137055Y0060538D01*
X0137014Y0060547D01*
X0136974Y0060559D01*
X0136935Y0060574D01*
X0136898Y0060592D01*
X0136862Y0060614D01*
X0133862Y0062341D02*
X0129138Y0062341D01*
X0128823Y0062302D02*
X0117607Y0059526D01*
X0128823Y0062302D02*
X0128885Y0062316D01*
X0128948Y0062326D01*
X0129011Y0062334D01*
X0129074Y0062338D01*
X0129138Y0062340D01*
X0129080Y0065465D02*
X0129108Y0065468D01*
X0129137Y0065469D01*
X0121000Y0050500D02*
X0105199Y0048531D01*
X0103093Y0047567D02*
X0094753Y0040362D01*
X0094437Y0040250D02*
X0093937Y0040250D01*
X0092437Y0039500D01*
X0094437Y0040250D02*
X0094480Y0040252D01*
X0094522Y0040257D01*
X0094564Y0040266D01*
X0094605Y0040279D01*
X0094644Y0040295D01*
X0094682Y0040314D01*
X0094719Y0040337D01*
X0094753Y0040363D01*
X0103092Y0047567D02*
X0103194Y0047648D01*
X0103299Y0047726D01*
X0103405Y0047801D01*
X0103514Y0047872D01*
X0103624Y0047941D01*
X0103736Y0048007D01*
X0103851Y0048069D01*
X0103966Y0048128D01*
X0104084Y0048184D01*
X0104203Y0048237D01*
X0104323Y0048286D01*
X0104445Y0048331D01*
X0104568Y0048374D01*
X0104693Y0048412D01*
X0104818Y0048448D01*
X0104944Y0048479D01*
X0105071Y0048507D01*
X0105199Y0048532D01*
X0086636Y0018516D02*
X0086600Y0018511D01*
X0086563Y0018510D01*
X0087032Y0015288D02*
X0086968Y0015265D01*
X0086902Y0015246D01*
X0086835Y0015230D01*
X0086768Y0015217D01*
X0086700Y0015208D01*
X0086632Y0015203D01*
X0086563Y0015201D01*
X0083063Y0019010D02*
X0083061Y0019051D01*
X0083056Y0019092D01*
X0083048Y0019132D01*
X0083036Y0019171D01*
X0083021Y0019209D01*
X0083004Y0019246D01*
X0082983Y0019282D01*
X0082959Y0019315D01*
X0080481Y0019004D02*
X0080468Y0019043D01*
X0080452Y0019080D01*
X0080434Y0019116D01*
X0058570Y0023184D02*
X0058539Y0023159D01*
X0058506Y0023136D01*
X0058471Y0023116D01*
X0058435Y0023099D01*
X0058398Y0023084D01*
X0058359Y0023073D01*
X0058320Y0023065D01*
X0058280Y0023061D01*
X0058240Y0023059D01*
X0059973Y0020967D02*
X0060024Y0021002D01*
X0050760Y0010364D02*
X0050623Y0010366D01*
X0050487Y0010372D01*
X0050351Y0010381D01*
X0050215Y0010394D01*
X0050079Y0010411D01*
X0049944Y0010432D01*
X0049810Y0010457D01*
X0049676Y0010485D01*
X0049543Y0010517D01*
X0049411Y0010552D01*
X0049280Y0010591D01*
X0049150Y0010634D01*
X0049022Y0010681D01*
X0048895Y0010731D01*
X0048769Y0010784D01*
X0048645Y0010841D01*
X0048522Y0010902D01*
X0048401Y0010965D01*
X0048282Y0011032D01*
X0048165Y0011103D01*
X0048050Y0011176D01*
X0047937Y0011253D01*
X0047826Y0011333D01*
X0039241Y0017697D01*
X0038292Y0018239D02*
X0034706Y0019755D01*
X0038291Y0018240D02*
X0038403Y0018191D01*
X0038513Y0018139D01*
X0038622Y0018084D01*
X0038729Y0018027D01*
X0038835Y0017966D01*
X0038939Y0017903D01*
X0039041Y0017837D01*
X0039142Y0017769D01*
X0039240Y0017697D01*
X0056937Y0056250D02*
X0056965Y0056251D01*
X0056992Y0056253D01*
X0075490Y0075937D02*
X0075521Y0075938D01*
X0075553Y0075941D01*
X0075584Y0075946D01*
X0100065Y0092687D02*
X0100188Y0092645D01*
X0100311Y0092606D01*
X0100436Y0092571D01*
X0100561Y0092539D01*
X0100687Y0092511D01*
X0100814Y0092486D01*
X0100942Y0092465D01*
X0101070Y0092448D01*
X0101199Y0092434D01*
X0101328Y0092424D01*
X0117352Y0110090D02*
X0117324Y0110145D01*
X0117293Y0110199D01*
X0117261Y0110252D01*
X0117225Y0110302D01*
X0117187Y0110351D01*
X0117147Y0110399D01*
X0126448Y0109598D02*
X0126484Y0109556D01*
X0126518Y0109512D01*
X0126550Y0109466D01*
X0126581Y0109420D01*
X0124290Y0101651D02*
X0124342Y0101625D01*
X0124394Y0101596D01*
X0124444Y0101565D01*
X0124492Y0101532D01*
X0124539Y0101496D01*
X0165510Y0086563D02*
X0165512Y0086520D01*
X0165518Y0086477D01*
X0165527Y0086434D01*
X0169134Y0083002D02*
X0169132Y0082906D01*
X0169127Y0082810D01*
X0169119Y0082714D01*
X0169107Y0082619D01*
X0169091Y0082524D01*
X0169072Y0082430D01*
X0169050Y0082337D01*
X0169025Y0082244D01*
X0168996Y0082153D01*
X0173490Y0087063D02*
X0173533Y0087061D01*
X0173576Y0087056D01*
X0173618Y0087046D01*
X0173660Y0087033D01*
X0173699Y0087017D01*
X0173738Y0086997D01*
X0173774Y0086974D01*
X0173809Y0086948D01*
X0173841Y0086919D01*
X0173870Y0086888D01*
X0173897Y0086853D01*
X0173921Y0086817D01*
X0177641Y0085496D02*
X0177657Y0085407D01*
X0177669Y0085317D01*
X0177679Y0085227D01*
X0177686Y0085137D01*
X0177689Y0085047D01*
X0177690Y0084956D01*
X0188108Y0078449D02*
X0188169Y0078525D01*
X0188233Y0078600D01*
X0188300Y0078672D01*
X0188369Y0078741D01*
X0188441Y0078808D01*
X0188515Y0078873D01*
X0188591Y0078934D01*
X0188670Y0078993D01*
X0188751Y0079049D01*
X0188833Y0079102D01*
X0188918Y0079151D01*
X0190239Y0076811D02*
X0192821Y0075844D01*
X0201188Y0072391D02*
X0201260Y0072363D01*
X0201332Y0072337D01*
X0202213Y0074874D02*
X0203933Y0079378D01*
X0203950Y0079418D01*
X0203970Y0079456D01*
X0203994Y0079492D01*
X0204020Y0079526D01*
X0204050Y0079557D01*
X0204082Y0079586D01*
X0204116Y0079612D01*
X0204153Y0079635D01*
X0204191Y0079654D01*
X0204231Y0079671D01*
X0204272Y0079683D01*
X0204314Y0079693D01*
X0204357Y0079698D01*
X0204400Y0079700D01*
X0204900Y0079700D01*
X0208400Y0080500D01*
X0206732Y0081300D01*
X0206732Y0081800D01*
X0206732Y0083985D01*
X0204400Y0071299D02*
X0204359Y0071301D01*
X0204317Y0071306D01*
X0204276Y0071315D01*
X0204236Y0071327D01*
X0191862Y0064382D02*
X0191864Y0064340D01*
X0191869Y0064298D01*
X0191878Y0064256D01*
X0191890Y0064216D01*
X0191906Y0064176D01*
X0191925Y0064139D01*
X0191947Y0064102D01*
X0191973Y0064068D01*
X0192001Y0064036D01*
X0204039Y0051454D01*
X0204400Y0051300D02*
X0204900Y0051300D01*
X0208400Y0050500D01*
X0214639Y0049630D02*
X0214696Y0049691D01*
X0214752Y0049754D01*
X0214807Y0049818D01*
X0213340Y0048289D02*
X0213293Y0048243D01*
X0213243Y0048199D01*
X0213192Y0048158D01*
X0213138Y0048119D01*
X0213082Y0048083D01*
X0213025Y0048050D01*
X0212966Y0048020D01*
X0212400Y0051300D02*
X0212443Y0051302D01*
X0212485Y0051307D01*
X0212527Y0051316D01*
X0212567Y0051329D01*
X0212607Y0051345D01*
X0212645Y0051364D01*
X0212681Y0051387D01*
X0212716Y0051412D01*
X0212747Y0051440D01*
X0217694Y0056216D02*
X0217787Y0056308D01*
X0217877Y0056403D01*
X0217964Y0056500D01*
X0218048Y0056600D01*
X0218130Y0056702D01*
X0218208Y0056807D01*
X0218283Y0056913D01*
X0218355Y0057022D01*
X0218424Y0057133D01*
X0218490Y0057246D01*
X0217107Y0058563D02*
X0217072Y0058469D01*
X0217034Y0058377D01*
X0216992Y0058286D01*
X0216947Y0058197D01*
X0216899Y0058109D01*
X0216848Y0058024D01*
X0216793Y0057940D01*
X0216735Y0057858D01*
X0216674Y0057779D01*
X0216611Y0057702D01*
X0216544Y0057627D01*
X0216475Y0057555D01*
X0216403Y0057486D01*
X0216329Y0057419D01*
X0216252Y0057355D01*
X0216173Y0057294D01*
X0216092Y0057236D01*
X0216008Y0057181D01*
X0215923Y0057129D01*
X0215835Y0057080D01*
X0215746Y0057035D01*
X0215656Y0056993D01*
X0215564Y0056954D01*
X0215470Y0056919D01*
X0215375Y0056887D01*
X0215279Y0056859D01*
X0215182Y0056834D01*
X0215085Y0056814D01*
X0214571Y0059451D02*
X0212458Y0059697D01*
X0219439Y0055444D02*
X0219538Y0055567D01*
X0219633Y0055693D01*
X0219726Y0055821D01*
X0219815Y0055951D01*
X0204400Y0051300D02*
X0204360Y0051302D01*
X0204320Y0051307D01*
X0204280Y0051315D01*
X0204241Y0051326D01*
X0204204Y0051340D01*
X0204167Y0051357D01*
X0204132Y0051378D01*
X0204099Y0051401D01*
X0204068Y0051426D01*
X0204039Y0051454D01*
X0204400Y0049700D02*
X0204359Y0049698D01*
X0204319Y0049693D01*
X0204279Y0049685D01*
X0204239Y0049674D01*
X0204201Y0049659D01*
X0204164Y0049641D01*
X0191862Y0064382D02*
X0191862Y0064882D01*
X0190000Y0065957D01*
X0188138Y0067532D02*
X0188136Y0067572D01*
X0188132Y0067611D01*
X0188124Y0067650D01*
X0188113Y0067688D01*
X0188099Y0067726D01*
X0188082Y0067762D01*
X0187638Y0064882D02*
X0187604Y0064881D01*
X0187571Y0064877D01*
X0187537Y0064872D01*
X0173900Y0068700D02*
X0173861Y0068698D01*
X0173822Y0068694D01*
X0173783Y0068686D01*
X0173746Y0068676D01*
X0173709Y0068662D01*
X0173673Y0068646D01*
X0173639Y0068626D01*
X0173606Y0068605D01*
X0167130Y0063909D02*
X0167073Y0063870D01*
X0167014Y0063834D01*
X0166953Y0063801D01*
X0166891Y0063772D01*
X0166827Y0063745D01*
X0166761Y0063722D01*
X0166695Y0063703D01*
X0166627Y0063687D01*
X0166559Y0063675D01*
X0166491Y0063666D01*
X0166463Y0060541D02*
X0166429Y0060536D01*
X0166396Y0060532D01*
X0166362Y0060531D01*
X0165862Y0060531D01*
X0164000Y0059457D01*
X0155500Y0059457D01*
X0153009Y0062335D02*
X0152939Y0062326D01*
X0152869Y0062313D01*
X0152800Y0062297D01*
X0152733Y0062277D01*
X0152666Y0062253D01*
X0152601Y0062226D01*
X0152537Y0062195D01*
X0152475Y0062161D01*
X0152415Y0062123D01*
X0150138Y0060614D02*
X0150102Y0060592D01*
X0150065Y0060574D01*
X0150026Y0060559D01*
X0149986Y0060547D01*
X0149945Y0060538D01*
X0149904Y0060533D01*
X0149862Y0060531D01*
X0248221Y0017947D02*
X0248244Y0017971D01*
X0248265Y0017998D01*
X0248285Y0018025D01*
X0248284Y0018025D02*
X0267321Y0046918D01*
X0267515Y0047398D02*
X0268485Y0052602D01*
X0268779Y0053215D02*
X0270151Y0054812D01*
X0270272Y0055138D02*
X0270272Y0055638D01*
X0272134Y0057500D01*
X0268254Y0062586D02*
X0268164Y0062534D01*
X0268076Y0062479D01*
X0267990Y0062421D01*
X0270028Y0063575D02*
X0270066Y0063594D01*
X0270105Y0063609D01*
X0270146Y0063622D01*
X0270187Y0063631D01*
X0270229Y0063636D01*
X0270272Y0063638D01*
X0270272Y0055138D02*
X0270270Y0055099D01*
X0270266Y0055059D01*
X0270258Y0055021D01*
X0270247Y0054983D01*
X0270234Y0054946D01*
X0270217Y0054910D01*
X0270198Y0054876D01*
X0270176Y0054843D01*
X0270151Y0054812D01*
X0268779Y0053215D02*
X0268736Y0053162D01*
X0268695Y0053106D01*
X0268658Y0053049D01*
X0268623Y0052989D01*
X0268592Y0052928D01*
X0268564Y0052865D01*
X0268539Y0052801D01*
X0268517Y0052736D01*
X0268500Y0052669D01*
X0268485Y0052602D01*
X0272134Y0050000D02*
X0270272Y0048138D01*
X0270272Y0047638D01*
X0270229Y0047435D02*
X0257410Y0018502D01*
X0257410Y0018503D02*
X0257395Y0018464D01*
X0257383Y0018424D01*
X0257374Y0018383D01*
X0257369Y0018342D01*
X0257367Y0018300D01*
X0267322Y0046918D02*
X0267356Y0046973D01*
X0267388Y0047030D01*
X0267417Y0047089D01*
X0267443Y0047149D01*
X0267466Y0047210D01*
X0267485Y0047272D01*
X0267502Y0047335D01*
X0267516Y0047398D01*
X0270229Y0047435D02*
X0270244Y0047474D01*
X0270256Y0047514D01*
X0270265Y0047555D01*
X0270270Y0047596D01*
X0270272Y0047638D01*
X0263866Y0050000D02*
X0262004Y0050000D01*
X0261504Y0050000D01*
X0259418Y0050000D01*
X0258918Y0050000D01*
X0257843Y0050000D01*
X0230681Y0155517D02*
X0230118Y0157568D01*
X0230100Y0157700D02*
X0230100Y0158200D01*
X0228500Y0162000D01*
X0226900Y0165800D01*
X0226900Y0166300D01*
X0226888Y0166408D02*
X0225122Y0174418D01*
X0225091Y0174700D02*
X0225091Y0183300D01*
X0225091Y0183339D01*
X0225633Y0201685D01*
X0225633Y0201700D01*
X0235631Y0201656D02*
X0235633Y0201700D01*
X0235631Y0201656D02*
X0235033Y0194906D01*
X0235031Y0194862D02*
X0235031Y0194362D01*
X0233957Y0192500D01*
X0235031Y0194862D02*
X0235033Y0194906D01*
X0238202Y0195193D02*
X0236798Y0189807D01*
X0236404Y0189162D02*
X0230267Y0183673D01*
X0230100Y0183300D02*
X0230100Y0182800D01*
X0228500Y0179000D01*
X0230100Y0175200D01*
X0230600Y0175200D01*
X0230973Y0175033D02*
X0239527Y0165467D01*
X0239900Y0165300D02*
X0240400Y0165300D01*
X0242000Y0161500D01*
X0239900Y0165300D02*
X0239858Y0165302D01*
X0239816Y0165307D01*
X0239775Y0165316D01*
X0239735Y0165328D01*
X0239696Y0165343D01*
X0239658Y0165362D01*
X0239623Y0165384D01*
X0239589Y0165409D01*
X0239557Y0165436D01*
X0239528Y0165466D01*
X0244100Y0174700D02*
X0244144Y0174698D01*
X0244187Y0174692D01*
X0244230Y0174683D01*
X0244271Y0174670D01*
X0244312Y0174653D01*
X0244350Y0174633D01*
X0244387Y0174609D01*
X0244422Y0174583D01*
X0244454Y0174553D01*
X0253546Y0165447D01*
X0253900Y0165300D02*
X0254400Y0165300D01*
X0256000Y0161500D01*
X0253900Y0165300D02*
X0253856Y0165302D01*
X0253813Y0165308D01*
X0253770Y0165317D01*
X0253729Y0165330D01*
X0253688Y0165347D01*
X0253650Y0165367D01*
X0253613Y0165391D01*
X0253578Y0165417D01*
X0253546Y0165447D01*
X0258100Y0174700D02*
X0258142Y0174698D01*
X0258184Y0174693D01*
X0258226Y0174684D01*
X0258266Y0174672D01*
X0258305Y0174656D01*
X0258343Y0174637D01*
X0258379Y0174615D01*
X0258413Y0174590D01*
X0258445Y0174562D01*
X0258474Y0174532D01*
X0266526Y0165468D01*
X0266900Y0165300D02*
X0267400Y0165300D01*
X0269000Y0161500D01*
X0266900Y0165300D02*
X0266858Y0165302D01*
X0266816Y0165307D01*
X0266774Y0165316D01*
X0266734Y0165328D01*
X0266695Y0165344D01*
X0266657Y0165363D01*
X0266621Y0165385D01*
X0266587Y0165410D01*
X0266555Y0165438D01*
X0266526Y0165468D01*
X0272378Y0166082D02*
X0272392Y0166012D01*
X0272401Y0165942D01*
X0272407Y0165871D01*
X0272409Y0165800D01*
X0272409Y0157200D01*
X0272407Y0157132D01*
X0272402Y0157064D01*
X0272393Y0156996D01*
X0272381Y0156929D01*
X0272365Y0156863D01*
X0272346Y0156798D01*
X0272323Y0156733D01*
X0272297Y0156670D01*
X0272268Y0156609D01*
X0272235Y0156549D01*
X0272200Y0156490D01*
X0272162Y0156434D01*
X0272120Y0156380D01*
X0272076Y0156328D01*
X0272030Y0156278D01*
X0271980Y0156231D01*
X0271929Y0156187D01*
X0271875Y0156145D01*
X0272378Y0166082D02*
X0270612Y0174092D01*
X0270600Y0174200D02*
X0270600Y0174700D01*
X0269000Y0178500D01*
X0270600Y0174200D02*
X0270601Y0174164D01*
X0270605Y0174128D01*
X0270612Y0174092D01*
X0258100Y0174700D02*
X0257600Y0174700D01*
X0256000Y0178500D01*
X0257600Y0182300D01*
X0257600Y0182800D01*
X0257771Y0183176D02*
X0265298Y0189761D01*
X0265469Y0190138D02*
X0265469Y0190638D01*
X0266543Y0192500D01*
X0265469Y0190138D02*
X0265467Y0190095D01*
X0265462Y0190053D01*
X0265453Y0190012D01*
X0265440Y0189971D01*
X0265424Y0189931D01*
X0265405Y0189893D01*
X0265383Y0189857D01*
X0265357Y0189823D01*
X0265329Y0189791D01*
X0265298Y0189762D01*
X0259457Y0192500D02*
X0258382Y0192500D01*
X0257882Y0192500D01*
X0255618Y0192500D01*
X0255118Y0192500D01*
X0254043Y0192500D01*
X0252969Y0194362D01*
X0252969Y0194862D01*
X0252883Y0195141D02*
X0248282Y0201979D01*
X0248263Y0202005D01*
X0248242Y0202030D01*
X0248220Y0202053D01*
X0245382Y0194362D02*
X0245342Y0194364D01*
X0245303Y0194368D01*
X0245264Y0194376D01*
X0245226Y0194387D01*
X0245189Y0194401D01*
X0245153Y0194418D01*
X0245118Y0194437D01*
X0245086Y0194459D01*
X0245055Y0194484D01*
X0243475Y0195852D01*
X0242618Y0196171D02*
X0239469Y0196171D01*
X0239397Y0196169D01*
X0239326Y0196163D01*
X0239255Y0196153D01*
X0239184Y0196140D01*
X0239115Y0196122D01*
X0239046Y0196101D01*
X0238979Y0196076D01*
X0238913Y0196047D01*
X0238849Y0196015D01*
X0238787Y0195979D01*
X0238727Y0195940D01*
X0238669Y0195898D01*
X0238613Y0195852D01*
X0238560Y0195804D01*
X0238510Y0195753D01*
X0238462Y0195699D01*
X0238418Y0195642D01*
X0238377Y0195584D01*
X0238339Y0195523D01*
X0238305Y0195460D01*
X0238274Y0195395D01*
X0238246Y0195329D01*
X0238222Y0195261D01*
X0238202Y0195192D01*
X0241043Y0192500D02*
X0241522Y0190638D01*
X0241522Y0190138D01*
X0241522Y0182800D01*
X0241522Y0182300D01*
X0242000Y0178500D01*
X0243600Y0174700D01*
X0244100Y0174700D01*
X0230972Y0175034D02*
X0230943Y0175064D01*
X0230911Y0175091D01*
X0230877Y0175116D01*
X0230842Y0175138D01*
X0230804Y0175157D01*
X0230765Y0175172D01*
X0230725Y0175184D01*
X0230684Y0175193D01*
X0230642Y0175198D01*
X0230600Y0175200D01*
X0225091Y0174700D02*
X0225093Y0174629D01*
X0225099Y0174558D01*
X0225108Y0174488D01*
X0225122Y0174418D01*
X0226888Y0166408D02*
X0226895Y0166372D01*
X0226899Y0166336D01*
X0226900Y0166300D01*
X0230100Y0157700D02*
X0230101Y0157667D01*
X0230104Y0157634D01*
X0230110Y0157601D01*
X0230118Y0157568D01*
X0257600Y0182800D02*
X0257602Y0182843D01*
X0257607Y0182885D01*
X0257616Y0182926D01*
X0257629Y0182967D01*
X0257645Y0183007D01*
X0257664Y0183045D01*
X0257686Y0183081D01*
X0257712Y0183115D01*
X0257740Y0183147D01*
X0257771Y0183176D01*
X0246957Y0192500D02*
X0245882Y0194362D01*
X0245382Y0194362D01*
X0243475Y0195852D02*
X0243419Y0195897D01*
X0243361Y0195940D01*
X0243301Y0195979D01*
X0243239Y0196015D01*
X0243174Y0196047D01*
X0243109Y0196076D01*
X0243041Y0196101D01*
X0242973Y0196122D01*
X0242903Y0196140D01*
X0242833Y0196153D01*
X0242761Y0196163D01*
X0242690Y0196169D01*
X0242618Y0196171D01*
X0236798Y0189808D02*
X0236778Y0189741D01*
X0236755Y0189675D01*
X0236729Y0189611D01*
X0236699Y0189548D01*
X0236666Y0189486D01*
X0236630Y0189427D01*
X0236590Y0189369D01*
X0236548Y0189314D01*
X0236503Y0189261D01*
X0236455Y0189210D01*
X0236404Y0189163D01*
X0230266Y0183672D02*
X0230236Y0183643D01*
X0230209Y0183611D01*
X0230184Y0183577D01*
X0230162Y0183542D01*
X0230143Y0183504D01*
X0230128Y0183465D01*
X0230116Y0183425D01*
X0230107Y0183384D01*
X0230102Y0183342D01*
X0230100Y0183300D01*
X0252968Y0194862D02*
X0252966Y0194904D01*
X0252961Y0194946D01*
X0252952Y0194987D01*
X0252940Y0195028D01*
X0252924Y0195067D01*
X0252905Y0195105D01*
X0252883Y0195141D01*
X0163466Y0198289D02*
X0163426Y0198274D01*
X0035311Y0154764D02*
X0035312Y0154727D01*
X0035316Y0154690D01*
X0035323Y0154654D01*
X0035333Y0154618D01*
X0035345Y0154583D01*
X0036823Y0150770D01*
X0035311Y0154764D02*
X0035311Y0155264D01*
X0032858Y0156142D01*
X0028834Y0158271D02*
X0028801Y0158221D01*
X0028770Y0158170D01*
X0028741Y0158117D01*
X0028715Y0158063D01*
X0030314Y0160382D02*
X0030338Y0160419D01*
X0030358Y0160458D01*
X0030375Y0160498D01*
X0030388Y0160540D01*
X0030397Y0160582D01*
X0030403Y0160625D01*
X0030405Y0160669D01*
X0025071Y0151570D02*
X0025042Y0151480D01*
X0025017Y0151389D01*
X0024995Y0151297D01*
X0024977Y0151204D01*
X0024964Y0151111D01*
X0024954Y0151017D01*
X0024948Y0150922D01*
X0024946Y0150828D01*
X0024948Y0150733D01*
X0024954Y0150639D01*
X0023046Y0150130D02*
X0023035Y0150294D01*
X0023021Y0150457D01*
X0023003Y0150620D01*
X0022982Y0150783D01*
X0022957Y0150945D01*
X0022928Y0151107D01*
X0022896Y0151268D01*
X0022860Y0151428D01*
X0022821Y0151587D01*
X0021891Y0074042D02*
X0021891Y0074000D01*
D33*
X0061393Y0056736D03*
X0071293Y0052075D03*
X0072011Y0062394D03*
X0088719Y0052154D03*
X0091732Y0047961D03*
X0086411Y0032330D03*
X0096454Y0023734D03*
X0088758Y0018829D03*
X0060466Y0024854D03*
X0054502Y0028548D03*
X0049474Y0030822D03*
X0059122Y0036733D03*
X0042876Y0040500D03*
X0090966Y0070537D03*
X0123606Y0047930D03*
X0129356Y0052715D03*
X0135500Y0056435D03*
X0138960Y0052328D03*
X0142329Y0051148D03*
X0145916Y0050741D03*
X0143519Y0056414D03*
X0159338Y0070165D03*
X0166149Y0073602D03*
X0180196Y0067583D03*
X0186680Y0076591D03*
X0190239Y0076811D03*
X0202213Y0074874D03*
X0206732Y0083985D03*
X0204033Y0094132D03*
X0228850Y0083971D03*
X0232413Y0083985D03*
X0242430Y0086969D03*
X0245880Y0091088D03*
X0248310Y0078385D03*
X0251857Y0078035D03*
X0247585Y0069455D03*
X0226415Y0065840D03*
X0226385Y0057197D03*
X0214571Y0059451D03*
X0214227Y0068002D03*
X0202384Y0062643D03*
X0175003Y0084986D03*
X0166447Y0083002D03*
X0134731Y0089983D03*
X0131961Y0092227D03*
X0064919Y0124500D03*
X0036823Y0150770D03*
X0037984Y0174987D03*
X0230681Y0155517D03*
X0238427Y0052998D03*
M02*
