G75*
%MOIN*%
%OFA0B0*%
%FSLAX25Y25*%
%IPPOS*%
%LPD*%
%AMOC8*
5,1,8,0,0,1.08239X$1,22.5*
%
%ADD10OC8,0.06600*%
%ADD11C,0.06600*%
%ADD12OC8,0.05937*%
%ADD13C,0.07087*%
%ADD14C,0.00800*%
%ADD15C,0.02775*%
%ADD16C,0.00600*%
D10*
X0126500Y0015000D03*
X0136500Y0015000D03*
X0146500Y0015000D03*
X0156500Y0015000D03*
X0166500Y0015000D03*
X0176500Y0015000D03*
X0186500Y0015000D03*
X0196500Y0015000D03*
X0216500Y0015000D03*
X0226500Y0015000D03*
X0236500Y0015000D03*
X0246500Y0015000D03*
X0256500Y0015000D03*
X0266500Y0015000D03*
X0266500Y0205000D03*
X0256500Y0205000D03*
X0246500Y0205000D03*
X0236500Y0205000D03*
X0226500Y0205000D03*
X0216500Y0205000D03*
X0206500Y0205000D03*
X0196500Y0205000D03*
X0180500Y0205000D03*
X0170500Y0205000D03*
X0160500Y0205000D03*
X0150500Y0205000D03*
X0140500Y0205000D03*
X0130500Y0205000D03*
X0120500Y0205000D03*
X0110500Y0205000D03*
X0100500Y0205000D03*
X0090500Y0205000D03*
D11*
X0026500Y0024000D03*
X0036500Y0024000D03*
X0036500Y0014000D03*
X0036500Y0034000D03*
X0026500Y0034000D03*
X0036500Y0044000D03*
X0036500Y0054000D03*
X0036500Y0064000D03*
X0026500Y0064000D03*
X0026500Y0074000D03*
X0036500Y0074000D03*
X0106500Y0074000D03*
X0106500Y0064000D03*
X0116500Y0064000D03*
X0116500Y0074000D03*
X0106500Y0054000D03*
X0106500Y0044000D03*
X0106500Y0034000D03*
X0116500Y0034000D03*
X0116500Y0024000D03*
X0106500Y0024000D03*
X0106500Y0014000D03*
X0177500Y0035500D03*
X0187500Y0035500D03*
X0197500Y0035500D03*
X0207500Y0035500D03*
X0217500Y0035500D03*
X0227500Y0035500D03*
X0237500Y0035500D03*
X0237500Y0115500D03*
X0227500Y0115500D03*
X0197500Y0115500D03*
X0187500Y0115500D03*
D12*
X0122500Y0108000D03*
X0112500Y0108000D03*
X0102500Y0108000D03*
X0102500Y0098000D03*
X0112500Y0098000D03*
X0122500Y0098000D03*
D13*
X0121500Y0142000D03*
X0111500Y0142000D03*
X0101500Y0142000D03*
X0091500Y0142000D03*
X0081500Y0142000D03*
X0081500Y0172000D03*
X0091500Y0172000D03*
X0101500Y0172000D03*
X0111500Y0172000D03*
X0121500Y0172000D03*
X0131500Y0172000D03*
X0141500Y0172000D03*
X0151500Y0172000D03*
X0161500Y0172000D03*
X0171500Y0172000D03*
X0181500Y0172000D03*
X0191500Y0172000D03*
X0191500Y0142000D03*
X0181500Y0142000D03*
X0171500Y0142000D03*
X0161500Y0142000D03*
X0151500Y0142000D03*
X0141500Y0142000D03*
X0131500Y0142000D03*
D14*
X0123750Y0146176D01*
X0123067Y0146477D02*
X0083726Y0160241D01*
X0062045Y0141615D01*
X0059795Y0142873D02*
X0059750Y0142790D01*
X0059709Y0142705D01*
X0059671Y0142619D01*
X0059635Y0142532D01*
X0059604Y0142443D01*
X0059575Y0142353D01*
X0059550Y0142262D01*
X0059528Y0142171D01*
X0059509Y0142078D01*
X0059494Y0141985D01*
X0059482Y0141892D01*
X0059474Y0141798D01*
X0059469Y0141704D01*
X0059467Y0141610D01*
X0059485Y0133619D01*
X0059795Y0142872D02*
X0077359Y0174313D01*
X0076378Y0175742D02*
X0065616Y0161010D01*
X0065527Y0160895D02*
X0054354Y0147284D01*
X0052145Y0148614D02*
X0052095Y0148528D01*
X0052049Y0148441D01*
X0052006Y0148351D01*
X0051967Y0148260D01*
X0051931Y0148168D01*
X0051899Y0148074D01*
X0051870Y0147979D01*
X0051846Y0147883D01*
X0051824Y0147786D01*
X0051807Y0147689D01*
X0051793Y0147591D01*
X0051783Y0147492D01*
X0051777Y0147393D01*
X0051778Y0147393D02*
X0049024Y0082359D01*
X0049082Y0081696D02*
X0057421Y0043856D01*
X0057618Y0041286D02*
X0057521Y0041280D01*
X0057424Y0041278D01*
X0057327Y0041280D01*
X0057231Y0041285D01*
X0057134Y0041294D01*
X0057038Y0041307D01*
X0056943Y0041323D01*
X0056848Y0041343D01*
X0056754Y0041366D01*
X0056661Y0041393D01*
X0056569Y0041423D01*
X0056478Y0041457D01*
X0056388Y0041494D01*
X0056300Y0041534D01*
X0056214Y0041578D01*
X0056129Y0041625D01*
X0056046Y0041675D01*
X0036500Y0054000D01*
X0021502Y0063405D02*
X0021520Y0063553D01*
X0021543Y0063700D01*
X0021569Y0063846D01*
X0021600Y0063992D01*
X0021633Y0064136D01*
X0021671Y0064280D01*
X0021712Y0064423D01*
X0021757Y0064565D01*
X0021806Y0064706D01*
X0021858Y0064845D01*
X0021913Y0064983D01*
X0021973Y0065119D01*
X0022035Y0065254D01*
X0022101Y0065387D01*
X0022171Y0065519D01*
X0022244Y0065648D01*
X0022320Y0065776D01*
X0022399Y0065902D01*
X0022482Y0066025D01*
X0022481Y0066025D02*
X0026500Y0074000D01*
X0036500Y0074000D02*
X0045837Y0068851D01*
X0049082Y0081696D02*
X0049063Y0081790D01*
X0049048Y0081884D01*
X0049036Y0081979D01*
X0049028Y0082074D01*
X0049023Y0082169D01*
X0049022Y0082264D01*
X0049024Y0082360D01*
X0051600Y0082250D02*
X0074098Y0078244D01*
X0088749Y0081055D02*
X0089104Y0075728D01*
X0091250Y0074299D02*
X0091303Y0074383D01*
X0091354Y0074470D01*
X0091401Y0074558D01*
X0091445Y0074648D01*
X0091485Y0074740D01*
X0091522Y0074833D01*
X0091554Y0074927D01*
X0091584Y0075023D01*
X0091609Y0075120D01*
X0091631Y0075217D01*
X0091649Y0075316D01*
X0091663Y0075415D01*
X0091673Y0075515D01*
X0091679Y0075614D01*
X0091682Y0075714D01*
X0091681Y0075815D01*
X0091675Y0075914D01*
X0091666Y0076014D01*
X0091653Y0076113D01*
X0091636Y0076212D01*
X0091615Y0076310D01*
X0091591Y0076407D01*
X0090431Y0080653D01*
X0091029Y0083086D02*
X0096715Y0089213D01*
X0097443Y0087583D02*
X0092918Y0081332D01*
X0089263Y0083357D02*
X0089204Y0083246D01*
X0089148Y0083133D01*
X0089096Y0083019D01*
X0089047Y0082903D01*
X0089001Y0082785D01*
X0088959Y0082667D01*
X0088921Y0082547D01*
X0088886Y0082426D01*
X0088855Y0082304D01*
X0088827Y0082181D01*
X0088804Y0082058D01*
X0088784Y0081933D01*
X0088767Y0081809D01*
X0088755Y0081683D01*
X0088746Y0081558D01*
X0088741Y0081432D01*
X0088740Y0081306D01*
X0088743Y0081180D01*
X0088749Y0081055D01*
X0089263Y0083357D02*
X0101270Y0105031D01*
X0101270Y0105431D01*
X0102500Y0108000D01*
X0104295Y0112027D02*
X0104254Y0112047D01*
X0104213Y0112067D01*
X0097776Y0114897D01*
X0096467Y0112800D01*
X0096265Y0112407D02*
X0074203Y0058221D01*
X0071794Y0059139D02*
X0071762Y0059051D01*
X0071734Y0058962D01*
X0071708Y0058871D01*
X0071686Y0058780D01*
X0071668Y0058688D01*
X0071652Y0058596D01*
X0071640Y0058503D01*
X0071632Y0058410D01*
X0071627Y0058316D01*
X0071038Y0042313D01*
X0057618Y0041285D01*
X0071458Y0039769D02*
X0071554Y0039787D01*
X0071649Y0039808D01*
X0071744Y0039833D01*
X0071837Y0039862D01*
X0071929Y0039894D01*
X0072020Y0039929D01*
X0072110Y0039968D01*
X0072198Y0040011D01*
X0072284Y0040056D01*
X0072369Y0040105D01*
X0072452Y0040157D01*
X0072532Y0040212D01*
X0072611Y0040270D01*
X0072687Y0040331D01*
X0072761Y0040395D01*
X0072832Y0040462D01*
X0072901Y0040531D01*
X0072967Y0040603D01*
X0073031Y0040677D01*
X0073030Y0040678D02*
X0078586Y0047445D01*
X0074837Y0053068D01*
X0075672Y0055415D01*
X0075817Y0055747D02*
X0076486Y0057024D01*
X0076591Y0057249D02*
X0098653Y0111435D01*
X0096467Y0112800D02*
X0096421Y0112725D01*
X0096378Y0112647D01*
X0096338Y0112568D01*
X0096300Y0112488D01*
X0096266Y0112407D01*
X0104295Y0112027D02*
X0109531Y0109230D01*
X0109931Y0109230D01*
X0112500Y0108000D01*
X0118469Y0109787D02*
X0113819Y0100922D01*
X0113801Y0100897D01*
X0113518Y0100614D01*
X0112500Y0098000D01*
X0109931Y0096770D01*
X0109531Y0096770D01*
X0098531Y0090639D01*
X0100437Y0089721D02*
X0114080Y0093884D01*
X0114578Y0094183D02*
X0116317Y0095922D01*
X0116524Y0096198D02*
X0118476Y0099802D01*
X0118683Y0100078D02*
X0120422Y0101817D01*
X0120698Y0102024D02*
X0124302Y0103976D01*
X0124578Y0104183D02*
X0126317Y0105922D01*
X0126373Y0105982D02*
X0135393Y0116328D01*
X0136016Y0116848D02*
X0147872Y0123913D01*
X0148452Y0124168D02*
X0192860Y0137456D01*
X0196030Y0140592D02*
X0215037Y0201730D01*
X0215062Y0201771D02*
X0215344Y0202054D01*
X0216500Y0205000D01*
X0215061Y0201771D02*
X0215051Y0201759D01*
X0215042Y0201745D01*
X0215036Y0201730D01*
X0226906Y0201700D02*
X0226906Y0168282D01*
X0191500Y0172000D02*
X0183750Y0176176D01*
X0182259Y0176682D02*
X0172515Y0178261D01*
X0171500Y0178343D02*
X0111500Y0178343D01*
X0111500Y0176743D02*
X0171500Y0176743D01*
X0173750Y0176176D02*
X0181500Y0172000D01*
X0183749Y0176175D02*
X0183633Y0176236D01*
X0183514Y0176294D01*
X0183394Y0176348D01*
X0183272Y0176399D01*
X0183149Y0176447D01*
X0183025Y0176491D01*
X0182900Y0176531D01*
X0182773Y0176569D01*
X0182646Y0176602D01*
X0182518Y0176632D01*
X0182388Y0176659D01*
X0182259Y0176682D01*
X0173750Y0176175D02*
X0173635Y0176236D01*
X0173518Y0176293D01*
X0173399Y0176346D01*
X0173279Y0176397D01*
X0173157Y0176444D01*
X0173035Y0176488D01*
X0172911Y0176528D01*
X0172786Y0176565D01*
X0172660Y0176599D01*
X0172534Y0176629D01*
X0172406Y0176656D01*
X0172278Y0176679D01*
X0172149Y0176698D01*
X0172020Y0176714D01*
X0171890Y0176727D01*
X0171761Y0176736D01*
X0171630Y0176741D01*
X0171500Y0176743D01*
X0171500Y0178343D02*
X0171646Y0178341D01*
X0171791Y0178336D01*
X0171937Y0178328D01*
X0172082Y0178316D01*
X0172226Y0178301D01*
X0172371Y0178283D01*
X0172515Y0178261D01*
X0161500Y0172000D02*
X0151500Y0172000D01*
X0141500Y0172000D01*
X0131500Y0172000D01*
X0142996Y0187173D02*
X0080712Y0176678D01*
X0080446Y0178255D02*
X0142731Y0188750D01*
X0143265Y0188901D02*
X0172315Y0200587D01*
X0172505Y0200684D02*
X0177200Y0203633D01*
X0177600Y0203633D01*
X0180500Y0205000D01*
X0172505Y0200684D02*
X0172459Y0200657D01*
X0172412Y0200632D01*
X0172364Y0200608D01*
X0172315Y0200587D01*
X0193200Y0203633D02*
X0193600Y0203633D01*
X0196500Y0205000D01*
X0193200Y0203633D02*
X0143607Y0187324D01*
X0143608Y0187324D02*
X0143487Y0187286D01*
X0143366Y0187252D01*
X0143244Y0187222D01*
X0143121Y0187196D01*
X0142997Y0187173D01*
X0142731Y0188751D02*
X0142822Y0188768D01*
X0142912Y0188788D01*
X0143002Y0188812D01*
X0143091Y0188838D01*
X0143178Y0188868D01*
X0143265Y0188901D01*
X0142302Y0191293D02*
X0080059Y0179811D01*
X0077902Y0180839D02*
X0129100Y0201678D01*
X0129133Y0201700D02*
X0129133Y0202100D01*
X0130500Y0205000D01*
X0129133Y0201700D02*
X0129123Y0201691D01*
X0129112Y0201683D01*
X0129100Y0201678D01*
X0107476Y0176904D02*
X0101500Y0172000D01*
X0099250Y0167825D02*
X0099370Y0167762D01*
X0099492Y0167703D01*
X0099616Y0167647D01*
X0099741Y0167595D01*
X0099868Y0167547D01*
X0099996Y0167502D01*
X0100125Y0167461D01*
X0100255Y0167423D01*
X0100386Y0167390D01*
X0100518Y0167360D01*
X0100651Y0167334D01*
X0100785Y0167311D01*
X0100919Y0167293D01*
X0101054Y0167278D01*
X0101189Y0167267D01*
X0101325Y0167260D01*
X0101460Y0167257D01*
X0101596Y0167258D01*
X0101731Y0167263D01*
X0101866Y0167271D01*
X0102001Y0167284D01*
X0102136Y0167300D01*
X0102270Y0167320D01*
X0102403Y0167344D01*
X0102536Y0167372D01*
X0102668Y0167403D01*
X0102799Y0167438D01*
X0102928Y0167477D01*
X0103057Y0167520D01*
X0103184Y0167566D01*
X0103310Y0167616D01*
X0103435Y0167670D01*
X0103558Y0167727D01*
X0103679Y0167787D01*
X0103799Y0167851D01*
X0103916Y0167919D01*
X0104032Y0167989D01*
X0104145Y0168063D01*
X0104257Y0168140D01*
X0104366Y0168221D01*
X0104473Y0168304D01*
X0104577Y0168391D01*
X0104679Y0168480D01*
X0104778Y0168572D01*
X0104875Y0168667D01*
X0104969Y0168765D01*
X0105060Y0168866D01*
X0105148Y0168969D01*
X0105233Y0169074D01*
X0105315Y0169182D01*
X0105394Y0169292D01*
X0105470Y0169405D01*
X0105542Y0169519D01*
X0105612Y0169636D01*
X0105677Y0169754D01*
X0105740Y0169874D01*
X0105799Y0169996D01*
X0105854Y0170120D01*
X0105906Y0170245D01*
X0105955Y0170372D01*
X0105999Y0170500D01*
X0106000Y0170500D02*
X0107000Y0173500D01*
X0107477Y0176904D02*
X0107598Y0177001D01*
X0107722Y0177095D01*
X0107848Y0177186D01*
X0107977Y0177274D01*
X0108107Y0177359D01*
X0108240Y0177441D01*
X0108374Y0177519D01*
X0108510Y0177594D01*
X0108649Y0177666D01*
X0108788Y0177734D01*
X0108930Y0177799D01*
X0109073Y0177860D01*
X0109218Y0177918D01*
X0109364Y0177972D01*
X0109511Y0178023D01*
X0109659Y0178070D01*
X0109809Y0178113D01*
X0109959Y0178153D01*
X0110111Y0178189D01*
X0110263Y0178221D01*
X0110416Y0178250D01*
X0110570Y0178274D01*
X0110724Y0178295D01*
X0110878Y0178312D01*
X0111034Y0178326D01*
X0111189Y0178335D01*
X0111344Y0178341D01*
X0111500Y0178343D01*
X0111500Y0172000D02*
X0153973Y0146048D01*
X0153991Y0146036D01*
X0156322Y0144598D01*
X0156241Y0141861D01*
X0156322Y0144598D02*
X0159250Y0146176D01*
X0161500Y0146743D02*
X0181500Y0146743D01*
X0183750Y0146176D02*
X0191500Y0142000D01*
X0196029Y0140592D02*
X0195987Y0140462D01*
X0195941Y0140333D01*
X0195891Y0140206D01*
X0195837Y0140081D01*
X0195780Y0139957D01*
X0195720Y0139834D01*
X0195656Y0139714D01*
X0195588Y0139595D01*
X0195517Y0139479D01*
X0195443Y0139364D01*
X0195366Y0139252D01*
X0195285Y0139141D01*
X0195201Y0139034D01*
X0195114Y0138928D01*
X0195024Y0138826D01*
X0194931Y0138726D01*
X0194836Y0138628D01*
X0194737Y0138534D01*
X0194636Y0138442D01*
X0194533Y0138353D01*
X0194426Y0138267D01*
X0194318Y0138185D01*
X0194207Y0138105D01*
X0194094Y0138029D01*
X0193978Y0137956D01*
X0193861Y0137886D01*
X0193741Y0137820D01*
X0193620Y0137757D01*
X0193497Y0137698D01*
X0193373Y0137642D01*
X0193246Y0137590D01*
X0193119Y0137542D01*
X0192990Y0137497D01*
X0192860Y0137456D01*
X0183750Y0146175D02*
X0183635Y0146236D01*
X0183518Y0146293D01*
X0183399Y0146346D01*
X0183279Y0146397D01*
X0183157Y0146444D01*
X0183035Y0146488D01*
X0182911Y0146528D01*
X0182786Y0146565D01*
X0182660Y0146599D01*
X0182534Y0146629D01*
X0182406Y0146656D01*
X0182278Y0146679D01*
X0182149Y0146698D01*
X0182020Y0146714D01*
X0181890Y0146727D01*
X0181761Y0146736D01*
X0181630Y0146741D01*
X0181500Y0146743D01*
X0161500Y0146743D02*
X0161370Y0146741D01*
X0161240Y0146736D01*
X0161110Y0146727D01*
X0160980Y0146714D01*
X0160851Y0146698D01*
X0160722Y0146679D01*
X0160594Y0146656D01*
X0160467Y0146629D01*
X0160340Y0146599D01*
X0160214Y0146565D01*
X0160090Y0146528D01*
X0159966Y0146488D01*
X0159843Y0146444D01*
X0159722Y0146397D01*
X0159602Y0146347D01*
X0159483Y0146293D01*
X0159366Y0146236D01*
X0159251Y0146176D01*
X0156241Y0141860D02*
X0156235Y0141726D01*
X0156225Y0141591D01*
X0156212Y0141457D01*
X0156195Y0141324D01*
X0156173Y0141191D01*
X0156149Y0141058D01*
X0156120Y0140927D01*
X0156088Y0140796D01*
X0156052Y0140666D01*
X0156012Y0140537D01*
X0155969Y0140410D01*
X0155922Y0140284D01*
X0155871Y0140159D01*
X0155817Y0140035D01*
X0155759Y0139914D01*
X0155698Y0139793D01*
X0155634Y0139675D01*
X0155566Y0139559D01*
X0155495Y0139444D01*
X0155421Y0139332D01*
X0155344Y0139221D01*
X0155263Y0139113D01*
X0155180Y0139008D01*
X0155093Y0138904D01*
X0155004Y0138803D01*
X0154912Y0138705D01*
X0154817Y0138610D01*
X0154719Y0138517D01*
X0154619Y0138427D01*
X0154516Y0138340D01*
X0154411Y0138255D01*
X0154411Y0138256D02*
X0120534Y0111916D01*
X0120422Y0111817D02*
X0118683Y0110078D01*
X0118641Y0110034D01*
X0118602Y0109988D01*
X0118565Y0109940D01*
X0118530Y0109891D01*
X0118498Y0109840D01*
X0118469Y0109787D01*
X0120422Y0111817D02*
X0120458Y0111851D01*
X0120495Y0111884D01*
X0120534Y0111916D01*
X0126373Y0105982D02*
X0126346Y0105952D01*
X0126317Y0105922D01*
X0124577Y0104183D02*
X0124536Y0104143D01*
X0124492Y0104106D01*
X0124447Y0104070D01*
X0124400Y0104037D01*
X0124351Y0104005D01*
X0124301Y0103977D01*
X0120699Y0102023D02*
X0120649Y0101995D01*
X0120600Y0101963D01*
X0120553Y0101930D01*
X0120508Y0101894D01*
X0120464Y0101857D01*
X0120423Y0101817D01*
X0118683Y0100078D02*
X0118643Y0100037D01*
X0118606Y0099993D01*
X0118570Y0099948D01*
X0118537Y0099901D01*
X0118505Y0099852D01*
X0118477Y0099802D01*
X0116523Y0096198D02*
X0116495Y0096148D01*
X0116463Y0096099D01*
X0116430Y0096052D01*
X0116394Y0096007D01*
X0116357Y0095963D01*
X0116317Y0095922D01*
X0114578Y0094183D02*
X0114530Y0094138D01*
X0114481Y0094096D01*
X0114429Y0094056D01*
X0114375Y0094020D01*
X0114319Y0093986D01*
X0114261Y0093955D01*
X0114202Y0093928D01*
X0114141Y0093904D01*
X0114080Y0093883D01*
X0110794Y0086889D02*
X0140627Y0092456D01*
X0141325Y0092527D02*
X0175399Y0093089D01*
X0175461Y0093089D02*
X0234935Y0090630D01*
X0247516Y0093265D01*
X0237500Y0115500D02*
X0229525Y0111481D01*
X0228018Y0111030D02*
X0204056Y0108254D01*
X0203759Y0110815D02*
X0264477Y0171450D01*
X0226906Y0201700D02*
X0226906Y0202100D01*
X0226500Y0205000D01*
X0141500Y0142000D02*
X0133750Y0137824D01*
X0132253Y0137317D02*
X0099588Y0132064D01*
X0091500Y0142000D01*
X0099588Y0132064D02*
X0071794Y0059139D01*
X0076487Y0057024D02*
X0076524Y0057098D01*
X0076559Y0057173D01*
X0076592Y0057249D01*
X0078100Y0054550D02*
X0091250Y0074299D01*
X0094692Y0078257D02*
X0092215Y0055720D01*
X0094788Y0055573D02*
X0094785Y0055517D01*
X0094780Y0055460D01*
X0092843Y0036353D01*
X0071457Y0039770D02*
X0036500Y0034000D01*
X0026500Y0034000D02*
X0022695Y0042472D01*
X0075671Y0055415D02*
X0075703Y0055500D01*
X0075738Y0055584D01*
X0075776Y0055667D01*
X0075817Y0055748D01*
X0094789Y0055573D02*
X0095577Y0069384D01*
X0095584Y0069483D02*
X0096271Y0077963D01*
X0097866Y0077834D02*
X0097179Y0069354D01*
X0097178Y0069354D02*
X0097172Y0069253D01*
X0097170Y0069153D01*
X0097172Y0069052D01*
X0097177Y0068952D01*
X0097187Y0068852D01*
X0097200Y0068752D01*
X0097217Y0068653D01*
X0097239Y0068555D01*
X0097264Y0068458D01*
X0097292Y0068362D01*
X0097325Y0068266D01*
X0097361Y0068173D01*
X0097401Y0068080D01*
X0097444Y0067990D01*
X0097491Y0067901D01*
X0097541Y0067814D01*
X0095577Y0069384D02*
X0095584Y0069483D01*
X0102485Y0071980D02*
X0106500Y0064000D01*
X0114539Y0069950D02*
X0118461Y0068050D01*
X0119194Y0067604D02*
X0144360Y0048795D01*
X0145072Y0047979D02*
X0158178Y0024306D01*
X0158611Y0023731D02*
X0164587Y0017754D01*
X0164870Y0017472D01*
X0166500Y0015000D01*
X0173200Y0016367D02*
X0160433Y0025554D01*
X0158178Y0024305D02*
X0158223Y0024227D01*
X0158271Y0024151D01*
X0158321Y0024076D01*
X0158374Y0024003D01*
X0158430Y0023932D01*
X0158488Y0023863D01*
X0158548Y0023796D01*
X0158611Y0023731D01*
X0153630Y0016796D02*
X0153912Y0016514D01*
X0156500Y0015000D01*
X0173200Y0016367D02*
X0173600Y0016367D01*
X0176500Y0015000D01*
X0186500Y0015000D01*
X0185419Y0031510D02*
X0213630Y0016796D01*
X0213912Y0016514D01*
X0216500Y0015000D01*
X0218505Y0019316D02*
X0218467Y0019339D01*
X0218427Y0019361D01*
X0195399Y0031521D01*
X0193450Y0033539D02*
X0191550Y0037461D01*
X0190453Y0038896D02*
X0148946Y0074993D01*
X0148242Y0075487D02*
X0145470Y0077036D01*
X0144689Y0075639D02*
X0147462Y0074091D01*
X0148089Y0073599D02*
X0180789Y0038571D01*
X0181550Y0037461D02*
X0183450Y0033539D01*
X0190453Y0038896D02*
X0190550Y0038810D01*
X0190644Y0038720D01*
X0190736Y0038628D01*
X0190825Y0038533D01*
X0190911Y0038436D01*
X0190994Y0038337D01*
X0191075Y0038235D01*
X0191152Y0038130D01*
X0191226Y0038024D01*
X0191297Y0037915D01*
X0191366Y0037805D01*
X0191430Y0037692D01*
X0191492Y0037578D01*
X0191550Y0037462D01*
X0185419Y0031510D02*
X0185304Y0031572D01*
X0185191Y0031638D01*
X0185080Y0031706D01*
X0184970Y0031778D01*
X0184863Y0031853D01*
X0184759Y0031931D01*
X0184656Y0032013D01*
X0184556Y0032097D01*
X0184458Y0032184D01*
X0184363Y0032273D01*
X0184271Y0032366D01*
X0184181Y0032461D01*
X0184095Y0032558D01*
X0184011Y0032659D01*
X0183929Y0032761D01*
X0183851Y0032866D01*
X0183777Y0032973D01*
X0183705Y0033082D01*
X0183636Y0033193D01*
X0183571Y0033307D01*
X0183509Y0033422D01*
X0183450Y0033538D01*
X0181550Y0037461D02*
X0181495Y0037571D01*
X0181437Y0037679D01*
X0181376Y0037786D01*
X0181312Y0037891D01*
X0181246Y0037994D01*
X0181176Y0038095D01*
X0181104Y0038194D01*
X0181029Y0038292D01*
X0180952Y0038387D01*
X0180872Y0038480D01*
X0180789Y0038571D01*
X0193450Y0033538D02*
X0193508Y0033422D01*
X0193570Y0033308D01*
X0193635Y0033196D01*
X0193703Y0033086D01*
X0193774Y0032977D01*
X0193848Y0032871D01*
X0193925Y0032767D01*
X0194005Y0032665D01*
X0194089Y0032565D01*
X0194175Y0032468D01*
X0194263Y0032374D01*
X0194355Y0032282D01*
X0194449Y0032193D01*
X0194545Y0032106D01*
X0194644Y0032022D01*
X0194746Y0031941D01*
X0194849Y0031864D01*
X0194955Y0031789D01*
X0195063Y0031717D01*
X0195173Y0031648D01*
X0195285Y0031583D01*
X0195399Y0031521D01*
X0221493Y0037575D02*
X0221550Y0037462D01*
X0221550Y0037461D02*
X0223450Y0033539D01*
X0223943Y0032744D02*
X0235133Y0018300D01*
X0235133Y0017900D01*
X0236500Y0015000D01*
X0226500Y0015000D02*
X0223600Y0016367D01*
X0223200Y0016367D01*
X0218505Y0019316D01*
X0223942Y0032744D02*
X0223862Y0032851D01*
X0223785Y0032960D01*
X0223711Y0033071D01*
X0223640Y0033185D01*
X0223573Y0033301D01*
X0223510Y0033419D01*
X0223450Y0033538D01*
X0221493Y0037575D02*
X0206869Y0065722D01*
X0208901Y0067309D02*
X0208840Y0067383D01*
X0208777Y0067456D01*
X0208711Y0067526D01*
X0208642Y0067594D01*
X0208571Y0067658D01*
X0208497Y0067721D01*
X0208422Y0067780D01*
X0208344Y0067837D01*
X0208264Y0067890D01*
X0208182Y0067941D01*
X0208098Y0067988D01*
X0208012Y0068033D01*
X0207925Y0068074D01*
X0207925Y0068073D02*
X0183078Y0079232D01*
X0173652Y0084086D01*
X0174560Y0086499D02*
X0174472Y0086530D01*
X0174383Y0086558D01*
X0174293Y0086583D01*
X0174202Y0086605D01*
X0174110Y0086623D01*
X0174018Y0086638D01*
X0173925Y0086650D01*
X0173832Y0086658D01*
X0173738Y0086663D01*
X0168152Y0086850D01*
X0174818Y0086417D02*
X0197012Y0080631D01*
X0211263Y0083710D01*
X0213057Y0087483D02*
X0212948Y0087533D01*
X0212838Y0087580D01*
X0212727Y0087623D01*
X0212614Y0087664D01*
X0212500Y0087701D01*
X0212385Y0087734D01*
X0212270Y0087765D01*
X0212153Y0087792D01*
X0212036Y0087816D01*
X0211918Y0087836D01*
X0211800Y0087853D01*
X0211681Y0087867D01*
X0175726Y0091476D01*
X0175426Y0091489D02*
X0141351Y0090927D01*
X0140921Y0090883D02*
X0111087Y0085317D01*
X0112163Y0083769D02*
X0115312Y0083389D01*
X0115638Y0083336D02*
X0143794Y0077656D01*
X0143478Y0076087D02*
X0115321Y0081768D01*
X0114237Y0081754D02*
X0111854Y0081209D01*
X0112163Y0083768D02*
X0112065Y0083778D01*
X0111968Y0083784D01*
X0111870Y0083787D01*
X0111772Y0083786D01*
X0111674Y0083781D01*
X0111577Y0083772D01*
X0111480Y0083760D01*
X0111384Y0083744D01*
X0111288Y0083724D01*
X0111193Y0083701D01*
X0111099Y0083674D01*
X0111006Y0083643D01*
X0110914Y0083610D01*
X0110824Y0083572D01*
X0110735Y0083531D01*
X0110647Y0083487D01*
X0110562Y0083440D01*
X0110478Y0083389D01*
X0110396Y0083335D01*
X0110317Y0083279D01*
X0110239Y0083219D01*
X0110164Y0083156D01*
X0110092Y0083091D01*
X0110022Y0083022D01*
X0109954Y0082952D01*
X0109889Y0082878D01*
X0109889Y0082879D02*
X0106979Y0079454D01*
X0105399Y0081491D02*
X0105326Y0081432D01*
X0105255Y0081371D01*
X0105186Y0081307D01*
X0105120Y0081240D01*
X0105056Y0081171D01*
X0104995Y0081100D01*
X0104937Y0081027D01*
X0104881Y0080952D01*
X0104828Y0080875D01*
X0104777Y0080795D01*
X0104730Y0080714D01*
X0104686Y0080632D01*
X0104644Y0080548D01*
X0104645Y0080547D02*
X0102765Y0076534D01*
X0102643Y0076306D02*
X0102643Y0076306D01*
X0097865Y0077834D02*
X0097875Y0077930D01*
X0097888Y0078026D01*
X0097905Y0078120D01*
X0097925Y0078215D01*
X0097949Y0078308D01*
X0097976Y0078400D01*
X0098007Y0078492D01*
X0098041Y0078582D01*
X0098078Y0078671D01*
X0098119Y0078758D01*
X0098163Y0078844D01*
X0098210Y0078928D01*
X0098260Y0079010D01*
X0098313Y0079090D01*
X0098369Y0079168D01*
X0098370Y0079168D02*
X0102123Y0084194D01*
X0098436Y0086159D02*
X0098497Y0086269D01*
X0098561Y0086377D01*
X0098628Y0086483D01*
X0098698Y0086587D01*
X0098771Y0086688D01*
X0098848Y0086788D01*
X0098927Y0086885D01*
X0099009Y0086980D01*
X0099094Y0087072D01*
X0099182Y0087162D01*
X0099272Y0087249D01*
X0099365Y0087333D01*
X0099461Y0087414D01*
X0099559Y0087493D01*
X0099659Y0087568D01*
X0099761Y0087640D01*
X0099866Y0087710D01*
X0099972Y0087776D01*
X0100081Y0087839D01*
X0100191Y0087899D01*
X0100303Y0087955D01*
X0100417Y0088008D01*
X0100532Y0088057D01*
X0100649Y0088103D01*
X0100767Y0088146D01*
X0100886Y0088185D01*
X0101007Y0088220D01*
X0101128Y0088252D01*
X0124015Y0093866D01*
X0124578Y0094183D02*
X0126317Y0095922D01*
X0126504Y0096163D02*
X0137336Y0114633D01*
X0136017Y0116848D02*
X0135940Y0116800D01*
X0135864Y0116750D01*
X0135791Y0116697D01*
X0135719Y0116641D01*
X0135650Y0116583D01*
X0135582Y0116522D01*
X0135517Y0116460D01*
X0135454Y0116395D01*
X0135393Y0116327D01*
X0147872Y0123913D02*
X0147950Y0123958D01*
X0148031Y0124000D01*
X0148113Y0124040D01*
X0148196Y0124076D01*
X0148280Y0124110D01*
X0148366Y0124140D01*
X0148452Y0124168D01*
X0149191Y0121698D02*
X0127647Y0095012D01*
X0127448Y0094791D02*
X0125709Y0093052D01*
X0124396Y0092312D02*
X0101509Y0086698D01*
X0099848Y0085407D02*
X0096748Y0079591D01*
X0095336Y0080343D02*
X0098436Y0086159D01*
X0099848Y0085407D02*
X0099896Y0085493D01*
X0099947Y0085577D01*
X0100002Y0085659D01*
X0100059Y0085739D01*
X0100120Y0085817D01*
X0100183Y0085892D01*
X0100250Y0085965D01*
X0100319Y0086035D01*
X0100390Y0086103D01*
X0100464Y0086168D01*
X0100541Y0086230D01*
X0100620Y0086288D01*
X0100701Y0086344D01*
X0100784Y0086397D01*
X0100869Y0086447D01*
X0100956Y0086493D01*
X0101045Y0086536D01*
X0101135Y0086575D01*
X0101227Y0086611D01*
X0101320Y0086644D01*
X0101414Y0086673D01*
X0101509Y0086698D01*
X0098531Y0090639D02*
X0098376Y0090551D01*
X0098224Y0090458D01*
X0098073Y0090362D01*
X0097926Y0090263D01*
X0097780Y0090159D01*
X0097637Y0090053D01*
X0097497Y0089943D01*
X0097359Y0089829D01*
X0097225Y0089712D01*
X0097093Y0089592D01*
X0096964Y0089469D01*
X0096838Y0089343D01*
X0096715Y0089214D01*
X0097443Y0087582D02*
X0097532Y0087702D01*
X0097625Y0087820D01*
X0097720Y0087936D01*
X0097819Y0088049D01*
X0097920Y0088159D01*
X0098024Y0088266D01*
X0098131Y0088371D01*
X0098241Y0088473D01*
X0098353Y0088573D01*
X0098468Y0088669D01*
X0098585Y0088762D01*
X0098704Y0088852D01*
X0098826Y0088939D01*
X0098950Y0089023D01*
X0099077Y0089104D01*
X0099205Y0089181D01*
X0099335Y0089255D01*
X0099467Y0089326D01*
X0099601Y0089393D01*
X0099737Y0089456D01*
X0099874Y0089516D01*
X0100013Y0089573D01*
X0100153Y0089626D01*
X0100294Y0089675D01*
X0100437Y0089721D01*
X0104419Y0082755D02*
X0108313Y0085775D01*
X0109293Y0084511D02*
X0105399Y0081491D01*
X0103619Y0081935D02*
X0100435Y0077626D01*
X0096272Y0077963D02*
X0096283Y0078085D01*
X0096298Y0078206D01*
X0096317Y0078326D01*
X0096339Y0078446D01*
X0096365Y0078565D01*
X0096394Y0078684D01*
X0096427Y0078801D01*
X0096463Y0078918D01*
X0096502Y0079033D01*
X0096545Y0079148D01*
X0096591Y0079261D01*
X0096640Y0079372D01*
X0096693Y0079482D01*
X0096749Y0079591D01*
X0102643Y0076306D02*
X0102686Y0076381D01*
X0102726Y0076457D01*
X0102764Y0076534D01*
X0094693Y0078257D02*
X0094710Y0078402D01*
X0094732Y0078547D01*
X0094757Y0078691D01*
X0094786Y0078835D01*
X0094818Y0078978D01*
X0094854Y0079119D01*
X0094894Y0079260D01*
X0094937Y0079400D01*
X0094984Y0079539D01*
X0095034Y0079677D01*
X0095088Y0079813D01*
X0095145Y0079948D01*
X0095206Y0080081D01*
X0095269Y0080213D01*
X0095337Y0080343D01*
X0090431Y0080653D02*
X0090406Y0080751D01*
X0090386Y0080849D01*
X0090369Y0080948D01*
X0090356Y0081048D01*
X0090347Y0081148D01*
X0090341Y0081249D01*
X0090340Y0081349D01*
X0090343Y0081450D01*
X0090349Y0081550D01*
X0090360Y0081650D01*
X0090374Y0081750D01*
X0090392Y0081849D01*
X0090414Y0081947D01*
X0090440Y0082044D01*
X0090470Y0082140D01*
X0090503Y0082235D01*
X0090541Y0082329D01*
X0090581Y0082421D01*
X0090625Y0082511D01*
X0090673Y0082600D01*
X0090724Y0082686D01*
X0090779Y0082771D01*
X0090837Y0082853D01*
X0090898Y0082933D01*
X0090962Y0083011D01*
X0091029Y0083086D01*
X0103618Y0081936D02*
X0103696Y0082037D01*
X0103776Y0082136D01*
X0103859Y0082233D01*
X0103946Y0082327D01*
X0104035Y0082419D01*
X0104127Y0082507D01*
X0104221Y0082593D01*
X0104319Y0082676D01*
X0104418Y0082755D01*
X0110236Y0078001D02*
X0112276Y0072448D01*
X0112324Y0072324D01*
X0112375Y0072202D01*
X0112430Y0072081D01*
X0112488Y0071961D01*
X0112550Y0071844D01*
X0112616Y0071728D01*
X0112684Y0071615D01*
X0112756Y0071503D01*
X0112832Y0071393D01*
X0112910Y0071286D01*
X0112992Y0071181D01*
X0113077Y0071079D01*
X0113164Y0070979D01*
X0113255Y0070882D01*
X0113349Y0070788D01*
X0113445Y0070696D01*
X0113544Y0070607D01*
X0113645Y0070522D01*
X0113749Y0070439D01*
X0113855Y0070359D01*
X0113964Y0070283D01*
X0114075Y0070209D01*
X0114188Y0070139D01*
X0114303Y0070073D01*
X0114420Y0070010D01*
X0114539Y0069950D01*
X0116500Y0074000D02*
X0142652Y0071992D01*
X0144595Y0073686D02*
X0144529Y0073759D01*
X0144460Y0073830D01*
X0144388Y0073898D01*
X0144314Y0073963D01*
X0144238Y0074025D01*
X0144159Y0074084D01*
X0144078Y0074140D01*
X0143994Y0074193D01*
X0143909Y0074243D01*
X0143822Y0074289D01*
X0143733Y0074332D01*
X0143643Y0074372D01*
X0143551Y0074408D01*
X0143458Y0074441D01*
X0143364Y0074470D01*
X0143269Y0074495D01*
X0143172Y0074517D01*
X0143075Y0074535D01*
X0114811Y0079241D01*
X0115321Y0081768D02*
X0115223Y0081786D01*
X0115125Y0081800D01*
X0115026Y0081810D01*
X0114927Y0081816D01*
X0114828Y0081819D01*
X0114729Y0081818D01*
X0114629Y0081813D01*
X0114531Y0081804D01*
X0114432Y0081791D01*
X0114334Y0081774D01*
X0114237Y0081754D01*
X0110794Y0086889D02*
X0110652Y0086861D01*
X0110511Y0086829D01*
X0110371Y0086794D01*
X0110232Y0086755D01*
X0110094Y0086712D01*
X0109957Y0086667D01*
X0109821Y0086618D01*
X0109686Y0086565D01*
X0109553Y0086509D01*
X0109421Y0086450D01*
X0109291Y0086387D01*
X0109162Y0086322D01*
X0109035Y0086253D01*
X0108910Y0086181D01*
X0108787Y0086106D01*
X0108665Y0086027D01*
X0108546Y0085946D01*
X0108428Y0085862D01*
X0108313Y0085775D01*
X0109294Y0084511D02*
X0109393Y0084585D01*
X0109494Y0084657D01*
X0109598Y0084725D01*
X0109703Y0084791D01*
X0109810Y0084853D01*
X0109919Y0084912D01*
X0110030Y0084968D01*
X0110143Y0085020D01*
X0110257Y0085070D01*
X0110372Y0085115D01*
X0110489Y0085158D01*
X0110606Y0085196D01*
X0110725Y0085232D01*
X0110845Y0085263D01*
X0110966Y0085292D01*
X0111088Y0085316D01*
X0115312Y0083389D02*
X0115421Y0083375D01*
X0115530Y0083357D01*
X0115638Y0083337D01*
X0102643Y0076306D02*
X0102576Y0076191D01*
X0102513Y0076074D01*
X0102454Y0075955D01*
X0102398Y0075835D01*
X0102345Y0075713D01*
X0102296Y0075589D01*
X0102251Y0075464D01*
X0102210Y0075338D01*
X0102172Y0075211D01*
X0102138Y0075082D01*
X0102108Y0074953D01*
X0102082Y0074823D01*
X0102060Y0074692D01*
X0102041Y0074560D01*
X0102026Y0074428D01*
X0102016Y0074296D01*
X0102009Y0074163D01*
X0102006Y0074030D01*
X0102007Y0073897D01*
X0102012Y0073765D01*
X0102021Y0073632D01*
X0102034Y0073500D01*
X0102051Y0073368D01*
X0102071Y0073237D01*
X0102096Y0073106D01*
X0102124Y0072977D01*
X0102156Y0072848D01*
X0102192Y0072720D01*
X0102232Y0072593D01*
X0102275Y0072468D01*
X0102322Y0072344D01*
X0102373Y0072221D01*
X0102428Y0072100D01*
X0102486Y0071980D01*
X0118462Y0068050D02*
X0118571Y0067995D01*
X0118679Y0067937D01*
X0118786Y0067876D01*
X0118891Y0067812D01*
X0118994Y0067746D01*
X0119095Y0067676D01*
X0119194Y0067604D01*
X0134404Y0068417D02*
X0148952Y0068416D01*
X0148946Y0074993D02*
X0148852Y0075072D01*
X0148756Y0075149D01*
X0148657Y0075223D01*
X0148556Y0075294D01*
X0148453Y0075361D01*
X0148349Y0075426D01*
X0148242Y0075488D01*
X0144595Y0073686D02*
X0146205Y0071840D01*
X0148089Y0073599D02*
X0148020Y0073671D01*
X0147947Y0073740D01*
X0147872Y0073806D01*
X0147795Y0073869D01*
X0147715Y0073930D01*
X0147633Y0073986D01*
X0147548Y0074040D01*
X0147462Y0074091D01*
X0144690Y0075639D02*
X0144586Y0075695D01*
X0144481Y0075748D01*
X0144374Y0075799D01*
X0144266Y0075846D01*
X0144157Y0075890D01*
X0144046Y0075930D01*
X0143935Y0075968D01*
X0143822Y0076003D01*
X0143708Y0076034D01*
X0143594Y0076062D01*
X0143479Y0076087D01*
X0143795Y0077656D02*
X0143941Y0077624D01*
X0144086Y0077589D01*
X0144231Y0077550D01*
X0144374Y0077508D01*
X0144516Y0077461D01*
X0144657Y0077411D01*
X0144796Y0077357D01*
X0144934Y0077300D01*
X0145071Y0077239D01*
X0145206Y0077175D01*
X0145339Y0077107D01*
X0145470Y0077036D01*
X0141324Y0092526D02*
X0141207Y0092523D01*
X0141091Y0092516D01*
X0140974Y0092506D01*
X0140858Y0092492D01*
X0140742Y0092476D01*
X0140627Y0092456D01*
X0140921Y0090883D02*
X0141006Y0090898D01*
X0141092Y0090909D01*
X0141178Y0090918D01*
X0141264Y0090924D01*
X0141351Y0090927D01*
X0141394Y0088349D02*
X0208129Y0057361D01*
X0217345Y0056493D02*
X0208901Y0067308D01*
X0217345Y0056492D02*
X0217400Y0056424D01*
X0217458Y0056357D01*
X0217518Y0056293D01*
X0217519Y0056293D02*
X0237500Y0035500D01*
X0219377Y0058079D02*
X0213784Y0084248D01*
X0213761Y0084346D01*
X0213735Y0084443D01*
X0213704Y0084539D01*
X0213670Y0084634D01*
X0213632Y0084727D01*
X0213591Y0084818D01*
X0213546Y0084908D01*
X0213497Y0084996D01*
X0213445Y0085083D01*
X0213390Y0085167D01*
X0213332Y0085249D01*
X0213270Y0085328D01*
X0213205Y0085405D01*
X0213138Y0085480D01*
X0213067Y0085551D01*
X0212994Y0085620D01*
X0212918Y0085686D01*
X0212840Y0085749D01*
X0212759Y0085809D01*
X0212676Y0085866D01*
X0212591Y0085920D01*
X0212504Y0085970D01*
X0212415Y0086016D01*
X0212324Y0086060D01*
X0212231Y0086099D01*
X0212137Y0086135D01*
X0212042Y0086167D01*
X0211946Y0086196D01*
X0211848Y0086221D01*
X0211750Y0086242D01*
X0211651Y0086259D01*
X0211551Y0086272D01*
X0211451Y0086281D01*
X0175468Y0088911D01*
X0174560Y0086498D02*
X0174645Y0086468D01*
X0174731Y0086441D01*
X0174818Y0086416D01*
X0175399Y0093089D02*
X0175461Y0093089D01*
X0175426Y0091489D02*
X0175526Y0091488D01*
X0175626Y0091484D01*
X0175726Y0091476D01*
X0201620Y0109376D02*
X0197500Y0115500D01*
X0201620Y0109376D02*
X0201678Y0109293D01*
X0201739Y0109213D01*
X0201803Y0109136D01*
X0201870Y0109060D01*
X0201940Y0108988D01*
X0202013Y0108918D01*
X0202088Y0108852D01*
X0202166Y0108788D01*
X0202247Y0108727D01*
X0202329Y0108670D01*
X0202414Y0108616D01*
X0202501Y0108565D01*
X0202590Y0108517D01*
X0202681Y0108473D01*
X0202773Y0108433D01*
X0202867Y0108396D01*
X0202962Y0108363D01*
X0203058Y0108334D01*
X0203156Y0108309D01*
X0203254Y0108287D01*
X0203353Y0108269D01*
X0203453Y0108255D01*
X0203553Y0108245D01*
X0203654Y0108239D01*
X0203754Y0108237D01*
X0203855Y0108239D01*
X0203956Y0108245D01*
X0204056Y0108254D01*
X0227500Y0115500D02*
X0235475Y0119519D01*
X0236572Y0119903D02*
X0269472Y0126836D01*
X0236572Y0119903D02*
X0236446Y0119875D01*
X0236321Y0119843D01*
X0236196Y0119807D01*
X0236073Y0119768D01*
X0235950Y0119725D01*
X0235829Y0119678D01*
X0235710Y0119629D01*
X0235592Y0119575D01*
X0235475Y0119519D01*
X0229525Y0111481D02*
X0229407Y0111424D01*
X0229286Y0111370D01*
X0229165Y0111319D01*
X0229041Y0111272D01*
X0228917Y0111229D01*
X0228791Y0111189D01*
X0228665Y0111153D01*
X0228537Y0111121D01*
X0228408Y0111093D01*
X0228279Y0111068D01*
X0228148Y0111047D01*
X0228018Y0111030D01*
X0213057Y0087483D02*
X0225481Y0081578D01*
X0145072Y0047978D02*
X0145022Y0048064D01*
X0144969Y0048148D01*
X0144913Y0048230D01*
X0144854Y0048309D01*
X0144792Y0048386D01*
X0144726Y0048461D01*
X0144658Y0048533D01*
X0144588Y0048603D01*
X0144514Y0048670D01*
X0144438Y0048733D01*
X0144360Y0048794D01*
X0124397Y0092313D02*
X0124495Y0092339D01*
X0124592Y0092368D01*
X0124689Y0092401D01*
X0124783Y0092438D01*
X0124877Y0092478D01*
X0124969Y0092521D01*
X0125059Y0092568D01*
X0125148Y0092618D01*
X0125235Y0092671D01*
X0125319Y0092727D01*
X0125402Y0092786D01*
X0125483Y0092848D01*
X0125561Y0092913D01*
X0125637Y0092981D01*
X0125710Y0093052D01*
X0124578Y0094183D02*
X0124530Y0094138D01*
X0124480Y0094095D01*
X0124428Y0094056D01*
X0124374Y0094019D01*
X0124318Y0093985D01*
X0124260Y0093955D01*
X0124201Y0093928D01*
X0124140Y0093904D01*
X0124078Y0093883D01*
X0124015Y0093866D01*
X0127448Y0094791D02*
X0127517Y0094862D01*
X0127584Y0094936D01*
X0127647Y0095012D01*
X0126317Y0095922D02*
X0126359Y0095967D01*
X0126399Y0096013D01*
X0126437Y0096061D01*
X0126472Y0096112D01*
X0126504Y0096164D01*
X0132253Y0137317D02*
X0132384Y0137340D01*
X0132513Y0137366D01*
X0132642Y0137397D01*
X0132770Y0137430D01*
X0132897Y0137467D01*
X0133023Y0137508D01*
X0133148Y0137552D01*
X0133271Y0137600D01*
X0133393Y0137651D01*
X0133514Y0137706D01*
X0133633Y0137764D01*
X0133750Y0137825D01*
X0123749Y0146175D02*
X0123639Y0146233D01*
X0123527Y0146288D01*
X0123414Y0146339D01*
X0123299Y0146388D01*
X0123183Y0146434D01*
X0123066Y0146477D01*
X0099250Y0167824D02*
X0091500Y0172000D01*
X0080712Y0176678D02*
X0080577Y0176653D01*
X0080443Y0176625D01*
X0080310Y0176592D01*
X0080178Y0176556D01*
X0080047Y0176516D01*
X0079918Y0176472D01*
X0079789Y0176425D01*
X0079662Y0176374D01*
X0079537Y0176319D01*
X0079413Y0176260D01*
X0079291Y0176198D01*
X0079171Y0176133D01*
X0079053Y0176064D01*
X0078936Y0175992D01*
X0078822Y0175916D01*
X0078710Y0175837D01*
X0078601Y0175755D01*
X0078494Y0175670D01*
X0078389Y0175582D01*
X0078287Y0175490D01*
X0078188Y0175396D01*
X0078091Y0175299D01*
X0077997Y0175200D01*
X0077907Y0175097D01*
X0077819Y0174992D01*
X0077734Y0174885D01*
X0077652Y0174775D01*
X0077574Y0174663D01*
X0077499Y0174549D01*
X0077427Y0174432D01*
X0077358Y0174314D01*
X0075343Y0177019D02*
X0063535Y0162531D01*
X0061623Y0164260D02*
X0061557Y0164185D01*
X0061495Y0164107D01*
X0061435Y0164027D01*
X0061379Y0163945D01*
X0061326Y0163860D01*
X0061326Y0163861D02*
X0052145Y0148614D01*
X0065527Y0160894D02*
X0065572Y0160951D01*
X0065616Y0161010D01*
X0061623Y0164261D02*
X0074424Y0178404D01*
X0074425Y0178404D02*
X0074578Y0178569D01*
X0074735Y0178731D01*
X0074896Y0178889D01*
X0075060Y0179043D01*
X0075229Y0179193D01*
X0075400Y0179339D01*
X0075575Y0179481D01*
X0075753Y0179619D01*
X0075935Y0179752D01*
X0076119Y0179882D01*
X0076307Y0180006D01*
X0076497Y0180127D01*
X0076691Y0180243D01*
X0076887Y0180354D01*
X0077085Y0180460D01*
X0077286Y0180562D01*
X0077490Y0180659D01*
X0077695Y0180752D01*
X0077903Y0180839D01*
X0080059Y0179811D02*
X0079870Y0179774D01*
X0079681Y0179732D01*
X0079494Y0179686D01*
X0079308Y0179635D01*
X0079123Y0179579D01*
X0078940Y0179519D01*
X0078758Y0179455D01*
X0078578Y0179386D01*
X0078399Y0179313D01*
X0078222Y0179235D01*
X0078048Y0179153D01*
X0077875Y0179068D01*
X0077704Y0178977D01*
X0077536Y0178883D01*
X0077370Y0178785D01*
X0077206Y0178682D01*
X0077045Y0178576D01*
X0076887Y0178466D01*
X0076731Y0178352D01*
X0076578Y0178234D01*
X0076428Y0178113D01*
X0076281Y0177988D01*
X0076137Y0177859D01*
X0075997Y0177727D01*
X0075859Y0177592D01*
X0075725Y0177453D01*
X0075594Y0177311D01*
X0075467Y0177166D01*
X0075343Y0177018D01*
X0081500Y0172000D02*
X0083726Y0160241D01*
X0076378Y0175742D02*
X0076473Y0175868D01*
X0076571Y0175992D01*
X0076672Y0176114D01*
X0076776Y0176233D01*
X0076883Y0176349D01*
X0076993Y0176463D01*
X0077106Y0176574D01*
X0077221Y0176682D01*
X0077339Y0176787D01*
X0077460Y0176890D01*
X0077583Y0176989D01*
X0077708Y0177085D01*
X0077836Y0177178D01*
X0077967Y0177268D01*
X0078099Y0177354D01*
X0078234Y0177437D01*
X0078370Y0177517D01*
X0078509Y0177593D01*
X0078649Y0177666D01*
X0078791Y0177736D01*
X0078935Y0177801D01*
X0079081Y0177863D01*
X0079227Y0177922D01*
X0079376Y0177977D01*
X0079525Y0178028D01*
X0079676Y0178075D01*
X0079828Y0178119D01*
X0079981Y0178159D01*
X0080135Y0178194D01*
X0080290Y0178227D01*
X0080446Y0178255D01*
X0107001Y0173500D02*
X0107045Y0173627D01*
X0107093Y0173753D01*
X0107144Y0173878D01*
X0107199Y0174000D01*
X0107258Y0174122D01*
X0107320Y0174241D01*
X0107385Y0174359D01*
X0107454Y0174475D01*
X0107526Y0174589D01*
X0107601Y0174700D01*
X0107679Y0174810D01*
X0107760Y0174917D01*
X0107845Y0175022D01*
X0107932Y0175125D01*
X0108022Y0175225D01*
X0108115Y0175322D01*
X0108210Y0175417D01*
X0108309Y0175509D01*
X0108410Y0175598D01*
X0108513Y0175684D01*
X0108619Y0175768D01*
X0108727Y0175848D01*
X0108837Y0175925D01*
X0108950Y0175999D01*
X0109064Y0176070D01*
X0109181Y0176137D01*
X0109299Y0176201D01*
X0109419Y0176262D01*
X0109541Y0176319D01*
X0109664Y0176373D01*
X0109789Y0176424D01*
X0109915Y0176470D01*
X0110043Y0176514D01*
X0110172Y0176553D01*
X0110301Y0176589D01*
X0110432Y0176621D01*
X0110564Y0176650D01*
X0110696Y0176674D01*
X0110829Y0176695D01*
X0110962Y0176712D01*
X0111096Y0176726D01*
X0111231Y0176735D01*
X0111365Y0176741D01*
X0111500Y0176743D01*
D15*
X0142302Y0191293D03*
X0063535Y0162531D03*
X0054354Y0147284D03*
X0062045Y0141615D03*
X0059485Y0133619D03*
X0097776Y0114897D03*
X0098653Y0111435D03*
X0102123Y0084194D03*
X0106979Y0079454D03*
X0110236Y0078001D03*
X0111854Y0081209D03*
X0114811Y0079241D03*
X0100435Y0077626D03*
X0092918Y0081332D03*
X0089104Y0075728D03*
X0099748Y0069146D03*
X0092215Y0055720D03*
X0078586Y0047445D03*
X0074837Y0053068D03*
X0078100Y0054550D03*
X0074203Y0058221D03*
X0071038Y0042313D03*
X0057421Y0043856D03*
X0045837Y0068851D03*
X0051600Y0082250D03*
X0074098Y0078244D03*
X0092843Y0036353D03*
X0134404Y0068417D03*
X0142652Y0071992D03*
X0146205Y0071840D03*
X0148952Y0068416D03*
X0168152Y0086850D03*
X0173652Y0084086D03*
X0175468Y0088911D03*
X0183078Y0079232D03*
X0197012Y0080631D03*
X0211263Y0083710D03*
X0225481Y0081578D03*
X0206869Y0065722D03*
X0208129Y0057361D03*
X0219377Y0058079D03*
X0247516Y0093265D03*
X0269472Y0126836D03*
X0226906Y0168282D03*
X0264477Y0171450D03*
X0203759Y0110815D03*
X0149191Y0121698D03*
X0137336Y0114633D03*
X0141394Y0088349D03*
X0142817Y0046730D03*
X0160433Y0025554D03*
D16*
X0153630Y0016796D02*
X0119757Y0048234D01*
X0118947Y0048862D02*
X0109841Y0057207D01*
X0106843Y0059690D02*
X0117147Y0059493D01*
X0118697Y0059085D02*
X0142817Y0046730D01*
X0118696Y0059086D02*
X0118584Y0059138D01*
X0118470Y0059187D01*
X0118355Y0059233D01*
X0118238Y0059275D01*
X0118120Y0059314D01*
X0118001Y0059349D01*
X0117881Y0059381D01*
X0117760Y0059409D01*
X0117639Y0059433D01*
X0117516Y0059453D01*
X0117394Y0059470D01*
X0117270Y0059483D01*
X0117146Y0059493D01*
X0109841Y0057207D02*
X0109749Y0057292D01*
X0109654Y0057374D01*
X0109557Y0057453D01*
X0109458Y0057530D01*
X0109356Y0057603D01*
X0109252Y0057673D01*
X0109146Y0057739D01*
X0109038Y0057803D01*
X0108928Y0057863D01*
X0108816Y0057920D01*
X0108703Y0057973D01*
X0108588Y0058023D01*
X0108471Y0058069D01*
X0108353Y0058112D01*
X0108234Y0058151D01*
X0108114Y0058186D01*
X0107993Y0058217D01*
X0107871Y0058245D01*
X0107748Y0058269D01*
X0107624Y0058290D01*
X0107500Y0058306D01*
X0107375Y0058319D01*
X0107250Y0058328D01*
X0107125Y0058333D01*
X0107000Y0058334D01*
X0106874Y0058331D01*
X0106749Y0058325D01*
X0106624Y0058314D01*
X0106500Y0058300D01*
X0105500Y0059700D02*
X0105379Y0059698D01*
X0105259Y0059700D01*
X0105138Y0059706D01*
X0105018Y0059716D01*
X0104898Y0059730D01*
X0104778Y0059747D01*
X0104659Y0059769D01*
X0104541Y0059794D01*
X0104424Y0059824D01*
X0104308Y0059857D01*
X0104193Y0059894D01*
X0104079Y0059935D01*
X0103967Y0059980D01*
X0103856Y0060028D01*
X0103747Y0060079D01*
X0103639Y0060135D01*
X0103534Y0060194D01*
X0103430Y0060256D01*
X0103329Y0060322D01*
X0103229Y0060391D01*
X0103133Y0060463D01*
X0103038Y0060538D01*
X0102946Y0060616D01*
X0102857Y0060698D01*
X0102770Y0060782D01*
X0102686Y0060869D01*
X0102605Y0060959D01*
X0102527Y0061051D01*
X0102453Y0061146D01*
X0102381Y0061243D01*
X0102312Y0061343D01*
X0102247Y0061445D01*
X0102186Y0061549D01*
X0102127Y0061654D01*
X0102072Y0061762D01*
X0102021Y0061871D01*
X0102020Y0061872D02*
X0099748Y0069146D01*
X0097541Y0067814D02*
X0100620Y0060555D01*
X0100620Y0060556D02*
X0100721Y0060436D01*
X0100825Y0060319D01*
X0100932Y0060205D01*
X0101042Y0060093D01*
X0101155Y0059984D01*
X0101270Y0059877D01*
X0101388Y0059774D01*
X0101508Y0059673D01*
X0101631Y0059576D01*
X0101756Y0059481D01*
X0101883Y0059390D01*
X0102012Y0059301D01*
X0102144Y0059216D01*
X0102278Y0059134D01*
X0102413Y0059056D01*
X0102551Y0058980D01*
X0102690Y0058908D01*
X0102831Y0058840D01*
X0102974Y0058775D01*
X0103118Y0058714D01*
X0103264Y0058656D01*
X0103411Y0058601D01*
X0103559Y0058551D01*
X0103708Y0058504D01*
X0103859Y0058460D01*
X0104011Y0058420D01*
X0104163Y0058384D01*
X0104317Y0058352D01*
X0104471Y0058324D01*
X0104626Y0058299D01*
X0104781Y0058278D01*
X0104937Y0058261D01*
X0105093Y0058248D01*
X0105249Y0058238D01*
X0105406Y0058233D01*
X0105563Y0058231D01*
X0105719Y0058233D01*
X0105876Y0058239D01*
X0106033Y0058249D01*
X0106189Y0058262D01*
X0106344Y0058280D01*
X0106500Y0058301D01*
X0118947Y0048862D02*
X0119088Y0048765D01*
X0119226Y0048665D01*
X0119362Y0048561D01*
X0119497Y0048455D01*
X0119628Y0048346D01*
X0119758Y0048235D01*
X0106842Y0059690D02*
X0106395Y0059703D01*
X0105947Y0059706D01*
X0105500Y0059700D01*
X0021501Y0063405D02*
X0022695Y0042472D01*
M02*
