%
M48
M72
T01C0.01575
T02C0.03543
T03C0.03937
T04C0.04724
T05C0.11024
T06C0.12598
%
T01
X57421Y43856
X71038Y42313
X78586Y47445
X74837Y53068
X78100Y54550
X74203Y58221
X92215Y55720
X99748Y69146
X100435Y77626
X106979Y79454
X110236Y78001
X111854Y81209
X114811Y79241
X102123Y84194
X92918Y81332
X89104Y75728
X74098Y78244
X51600Y82250
X45837Y68851
X92843Y36353
X134404Y68417
X142652Y71992
X146205Y71840
X148952Y68416
X168152Y86850
X173652Y84086
X175468Y88911
X183078Y79232
X197012Y80631
X211263Y83710
X225481Y81578
X206869Y65722
X208129Y57361
X219377Y58079
X247516Y93265
X269472Y126836
X226906Y168282
X264477Y171450
X203759Y110815
X149191Y121698
X137336Y114633
X141394Y88349
X98653Y111435
X97776Y114897
X62045Y141615
X54354Y147284
X63535Y162531
X59485Y133619
X142302Y191293
X142817Y46730
X160433Y25554
T02
X24000Y159094
X24000Y170906
X41094Y207500
X52906Y207500
T03
X26500Y24000
X36500Y24000
X36500Y14000
X36500Y34000
X26500Y34000
X36500Y44000
X36500Y54000
X36500Y64000
X26500Y64000
X26500Y74000
X36500Y74000
X102500Y98000
X112500Y98000
X122500Y98000
X122500Y108000
X112500Y108000
X102500Y108000
X106500Y74000
X106500Y64000
X116500Y64000
X116500Y74000
X106500Y54000
X106500Y44000
X106500Y34000
X116500Y34000
X116500Y24000
X106500Y24000
X106500Y14000
X126500Y15000
X136500Y15000
X146500Y15000
X156500Y15000
X166500Y15000
X176500Y15000
X186500Y15000
X196500Y15000
X216500Y15000
X226500Y15000
X236500Y15000
X246500Y15000
X256500Y15000
X266500Y15000
X237500Y35500
X227500Y35500
X217500Y35500
X207500Y35500
X197500Y35500
X187500Y35500
X177500Y35500
X187500Y115500
X197500Y115500
X227500Y115500
X237500Y115500
X236500Y205000
X226500Y205000
X216500Y205000
X206500Y205000
X196500Y205000
X180500Y205000
X170500Y205000
X160500Y205000
X150500Y205000
X140500Y205000
X130500Y205000
X120500Y205000
X110500Y205000
X100500Y205000
X90500Y205000
X246500Y205000
X256500Y205000
X266500Y205000
T04
X191500Y172000
X181500Y172000
X171500Y172000
X161500Y172000
X151500Y172000
X141500Y172000
X131500Y172000
X121500Y172000
X111500Y172000
X101500Y172000
X91500Y172000
X81500Y172000
X81500Y142000
X91500Y142000
X101500Y142000
X111500Y142000
X121500Y142000
X131500Y142000
X141500Y142000
X151500Y142000
X161500Y142000
X171500Y142000
X181500Y142000
X191500Y142000
T05
X233300Y99900
T06
X162500Y110500
X162500Y40500
M30
