G75*
%MOIN*%
%OFA0B0*%
%FSLAX25Y25*%
%IPPOS*%
%LPD*%
%AMOC8*
5,1,8,0,0,1.08239X$1,22.5*
%
%ADD10C,0.00004*%
%ADD11OC8,0.07000*%
%ADD12C,0.00000*%
%ADD13C,0.03943*%
%ADD14C,0.07000*%
%ADD15C,0.11424*%
%ADD16C,0.12998*%
%ADD17OC8,0.06337*%
%ADD18C,0.07487*%
D10*
X0016500Y0005000D02*
X0276500Y0005000D01*
X0276500Y0015000D01*
X0286500Y0025000D01*
X0286500Y0154000D01*
X0276500Y0164000D01*
X0276500Y0209000D01*
X0270500Y0215000D01*
X0016500Y0215000D01*
X0016500Y0005000D01*
D11*
X0126500Y0015000D03*
X0136500Y0015000D03*
X0146500Y0015000D03*
X0156500Y0015000D03*
X0166500Y0015000D03*
X0176500Y0015000D03*
X0186500Y0015000D03*
X0196500Y0015000D03*
X0216500Y0015000D03*
X0226500Y0015000D03*
X0236500Y0015000D03*
X0246500Y0015000D03*
X0256500Y0015000D03*
X0266500Y0015000D03*
X0266500Y0205000D03*
X0256500Y0205000D03*
X0246500Y0205000D03*
X0236500Y0205000D03*
X0226500Y0205000D03*
X0216500Y0205000D03*
X0206500Y0205000D03*
X0196500Y0205000D03*
X0180500Y0205000D03*
X0170500Y0205000D03*
X0160500Y0205000D03*
X0150500Y0205000D03*
X0140500Y0205000D03*
X0130500Y0205000D03*
X0120500Y0205000D03*
X0110500Y0205000D03*
X0100500Y0205000D03*
X0090500Y0205000D03*
D12*
X0051134Y0207500D02*
X0051136Y0207584D01*
X0051142Y0207667D01*
X0051152Y0207750D01*
X0051166Y0207833D01*
X0051183Y0207915D01*
X0051205Y0207996D01*
X0051230Y0208075D01*
X0051259Y0208154D01*
X0051292Y0208231D01*
X0051328Y0208306D01*
X0051368Y0208380D01*
X0051411Y0208452D01*
X0051458Y0208521D01*
X0051508Y0208588D01*
X0051561Y0208653D01*
X0051617Y0208715D01*
X0051675Y0208775D01*
X0051737Y0208832D01*
X0051801Y0208885D01*
X0051868Y0208936D01*
X0051937Y0208983D01*
X0052008Y0209028D01*
X0052081Y0209068D01*
X0052156Y0209105D01*
X0052233Y0209139D01*
X0052311Y0209169D01*
X0052390Y0209195D01*
X0052471Y0209218D01*
X0052553Y0209236D01*
X0052635Y0209251D01*
X0052718Y0209262D01*
X0052801Y0209269D01*
X0052885Y0209272D01*
X0052969Y0209271D01*
X0053052Y0209266D01*
X0053136Y0209257D01*
X0053218Y0209244D01*
X0053300Y0209228D01*
X0053381Y0209207D01*
X0053462Y0209183D01*
X0053540Y0209155D01*
X0053618Y0209123D01*
X0053694Y0209087D01*
X0053768Y0209048D01*
X0053840Y0209006D01*
X0053910Y0208960D01*
X0053978Y0208911D01*
X0054043Y0208859D01*
X0054106Y0208804D01*
X0054166Y0208746D01*
X0054224Y0208685D01*
X0054278Y0208621D01*
X0054330Y0208555D01*
X0054378Y0208487D01*
X0054423Y0208416D01*
X0054464Y0208343D01*
X0054503Y0208269D01*
X0054537Y0208193D01*
X0054568Y0208115D01*
X0054595Y0208036D01*
X0054619Y0207955D01*
X0054638Y0207874D01*
X0054654Y0207792D01*
X0054666Y0207709D01*
X0054674Y0207625D01*
X0054678Y0207542D01*
X0054678Y0207458D01*
X0054674Y0207375D01*
X0054666Y0207291D01*
X0054654Y0207208D01*
X0054638Y0207126D01*
X0054619Y0207045D01*
X0054595Y0206964D01*
X0054568Y0206885D01*
X0054537Y0206807D01*
X0054503Y0206731D01*
X0054464Y0206657D01*
X0054423Y0206584D01*
X0054378Y0206513D01*
X0054330Y0206445D01*
X0054278Y0206379D01*
X0054224Y0206315D01*
X0054166Y0206254D01*
X0054106Y0206196D01*
X0054043Y0206141D01*
X0053978Y0206089D01*
X0053910Y0206040D01*
X0053840Y0205994D01*
X0053768Y0205952D01*
X0053694Y0205913D01*
X0053618Y0205877D01*
X0053540Y0205845D01*
X0053462Y0205817D01*
X0053381Y0205793D01*
X0053300Y0205772D01*
X0053218Y0205756D01*
X0053136Y0205743D01*
X0053052Y0205734D01*
X0052969Y0205729D01*
X0052885Y0205728D01*
X0052801Y0205731D01*
X0052718Y0205738D01*
X0052635Y0205749D01*
X0052553Y0205764D01*
X0052471Y0205782D01*
X0052390Y0205805D01*
X0052311Y0205831D01*
X0052233Y0205861D01*
X0052156Y0205895D01*
X0052081Y0205932D01*
X0052008Y0205972D01*
X0051937Y0206017D01*
X0051868Y0206064D01*
X0051801Y0206115D01*
X0051737Y0206168D01*
X0051675Y0206225D01*
X0051617Y0206285D01*
X0051561Y0206347D01*
X0051508Y0206412D01*
X0051458Y0206479D01*
X0051411Y0206548D01*
X0051368Y0206620D01*
X0051328Y0206694D01*
X0051292Y0206769D01*
X0051259Y0206846D01*
X0051230Y0206925D01*
X0051205Y0207004D01*
X0051183Y0207085D01*
X0051166Y0207167D01*
X0051152Y0207250D01*
X0051142Y0207333D01*
X0051136Y0207416D01*
X0051134Y0207500D01*
X0039322Y0207500D02*
X0039324Y0207584D01*
X0039330Y0207667D01*
X0039340Y0207750D01*
X0039354Y0207833D01*
X0039371Y0207915D01*
X0039393Y0207996D01*
X0039418Y0208075D01*
X0039447Y0208154D01*
X0039480Y0208231D01*
X0039516Y0208306D01*
X0039556Y0208380D01*
X0039599Y0208452D01*
X0039646Y0208521D01*
X0039696Y0208588D01*
X0039749Y0208653D01*
X0039805Y0208715D01*
X0039863Y0208775D01*
X0039925Y0208832D01*
X0039989Y0208885D01*
X0040056Y0208936D01*
X0040125Y0208983D01*
X0040196Y0209028D01*
X0040269Y0209068D01*
X0040344Y0209105D01*
X0040421Y0209139D01*
X0040499Y0209169D01*
X0040578Y0209195D01*
X0040659Y0209218D01*
X0040741Y0209236D01*
X0040823Y0209251D01*
X0040906Y0209262D01*
X0040989Y0209269D01*
X0041073Y0209272D01*
X0041157Y0209271D01*
X0041240Y0209266D01*
X0041324Y0209257D01*
X0041406Y0209244D01*
X0041488Y0209228D01*
X0041569Y0209207D01*
X0041650Y0209183D01*
X0041728Y0209155D01*
X0041806Y0209123D01*
X0041882Y0209087D01*
X0041956Y0209048D01*
X0042028Y0209006D01*
X0042098Y0208960D01*
X0042166Y0208911D01*
X0042231Y0208859D01*
X0042294Y0208804D01*
X0042354Y0208746D01*
X0042412Y0208685D01*
X0042466Y0208621D01*
X0042518Y0208555D01*
X0042566Y0208487D01*
X0042611Y0208416D01*
X0042652Y0208343D01*
X0042691Y0208269D01*
X0042725Y0208193D01*
X0042756Y0208115D01*
X0042783Y0208036D01*
X0042807Y0207955D01*
X0042826Y0207874D01*
X0042842Y0207792D01*
X0042854Y0207709D01*
X0042862Y0207625D01*
X0042866Y0207542D01*
X0042866Y0207458D01*
X0042862Y0207375D01*
X0042854Y0207291D01*
X0042842Y0207208D01*
X0042826Y0207126D01*
X0042807Y0207045D01*
X0042783Y0206964D01*
X0042756Y0206885D01*
X0042725Y0206807D01*
X0042691Y0206731D01*
X0042652Y0206657D01*
X0042611Y0206584D01*
X0042566Y0206513D01*
X0042518Y0206445D01*
X0042466Y0206379D01*
X0042412Y0206315D01*
X0042354Y0206254D01*
X0042294Y0206196D01*
X0042231Y0206141D01*
X0042166Y0206089D01*
X0042098Y0206040D01*
X0042028Y0205994D01*
X0041956Y0205952D01*
X0041882Y0205913D01*
X0041806Y0205877D01*
X0041728Y0205845D01*
X0041650Y0205817D01*
X0041569Y0205793D01*
X0041488Y0205772D01*
X0041406Y0205756D01*
X0041324Y0205743D01*
X0041240Y0205734D01*
X0041157Y0205729D01*
X0041073Y0205728D01*
X0040989Y0205731D01*
X0040906Y0205738D01*
X0040823Y0205749D01*
X0040741Y0205764D01*
X0040659Y0205782D01*
X0040578Y0205805D01*
X0040499Y0205831D01*
X0040421Y0205861D01*
X0040344Y0205895D01*
X0040269Y0205932D01*
X0040196Y0205972D01*
X0040125Y0206017D01*
X0040056Y0206064D01*
X0039989Y0206115D01*
X0039925Y0206168D01*
X0039863Y0206225D01*
X0039805Y0206285D01*
X0039749Y0206347D01*
X0039696Y0206412D01*
X0039646Y0206479D01*
X0039599Y0206548D01*
X0039556Y0206620D01*
X0039516Y0206694D01*
X0039480Y0206769D01*
X0039447Y0206846D01*
X0039418Y0206925D01*
X0039393Y0207004D01*
X0039371Y0207085D01*
X0039354Y0207167D01*
X0039340Y0207250D01*
X0039330Y0207333D01*
X0039324Y0207416D01*
X0039322Y0207500D01*
X0022228Y0170906D02*
X0022230Y0170990D01*
X0022236Y0171073D01*
X0022246Y0171156D01*
X0022260Y0171239D01*
X0022277Y0171321D01*
X0022299Y0171402D01*
X0022324Y0171481D01*
X0022353Y0171560D01*
X0022386Y0171637D01*
X0022422Y0171712D01*
X0022462Y0171786D01*
X0022505Y0171858D01*
X0022552Y0171927D01*
X0022602Y0171994D01*
X0022655Y0172059D01*
X0022711Y0172121D01*
X0022769Y0172181D01*
X0022831Y0172238D01*
X0022895Y0172291D01*
X0022962Y0172342D01*
X0023031Y0172389D01*
X0023102Y0172434D01*
X0023175Y0172474D01*
X0023250Y0172511D01*
X0023327Y0172545D01*
X0023405Y0172575D01*
X0023484Y0172601D01*
X0023565Y0172624D01*
X0023647Y0172642D01*
X0023729Y0172657D01*
X0023812Y0172668D01*
X0023895Y0172675D01*
X0023979Y0172678D01*
X0024063Y0172677D01*
X0024146Y0172672D01*
X0024230Y0172663D01*
X0024312Y0172650D01*
X0024394Y0172634D01*
X0024475Y0172613D01*
X0024556Y0172589D01*
X0024634Y0172561D01*
X0024712Y0172529D01*
X0024788Y0172493D01*
X0024862Y0172454D01*
X0024934Y0172412D01*
X0025004Y0172366D01*
X0025072Y0172317D01*
X0025137Y0172265D01*
X0025200Y0172210D01*
X0025260Y0172152D01*
X0025318Y0172091D01*
X0025372Y0172027D01*
X0025424Y0171961D01*
X0025472Y0171893D01*
X0025517Y0171822D01*
X0025558Y0171749D01*
X0025597Y0171675D01*
X0025631Y0171599D01*
X0025662Y0171521D01*
X0025689Y0171442D01*
X0025713Y0171361D01*
X0025732Y0171280D01*
X0025748Y0171198D01*
X0025760Y0171115D01*
X0025768Y0171031D01*
X0025772Y0170948D01*
X0025772Y0170864D01*
X0025768Y0170781D01*
X0025760Y0170697D01*
X0025748Y0170614D01*
X0025732Y0170532D01*
X0025713Y0170451D01*
X0025689Y0170370D01*
X0025662Y0170291D01*
X0025631Y0170213D01*
X0025597Y0170137D01*
X0025558Y0170063D01*
X0025517Y0169990D01*
X0025472Y0169919D01*
X0025424Y0169851D01*
X0025372Y0169785D01*
X0025318Y0169721D01*
X0025260Y0169660D01*
X0025200Y0169602D01*
X0025137Y0169547D01*
X0025072Y0169495D01*
X0025004Y0169446D01*
X0024934Y0169400D01*
X0024862Y0169358D01*
X0024788Y0169319D01*
X0024712Y0169283D01*
X0024634Y0169251D01*
X0024556Y0169223D01*
X0024475Y0169199D01*
X0024394Y0169178D01*
X0024312Y0169162D01*
X0024230Y0169149D01*
X0024146Y0169140D01*
X0024063Y0169135D01*
X0023979Y0169134D01*
X0023895Y0169137D01*
X0023812Y0169144D01*
X0023729Y0169155D01*
X0023647Y0169170D01*
X0023565Y0169188D01*
X0023484Y0169211D01*
X0023405Y0169237D01*
X0023327Y0169267D01*
X0023250Y0169301D01*
X0023175Y0169338D01*
X0023102Y0169378D01*
X0023031Y0169423D01*
X0022962Y0169470D01*
X0022895Y0169521D01*
X0022831Y0169574D01*
X0022769Y0169631D01*
X0022711Y0169691D01*
X0022655Y0169753D01*
X0022602Y0169818D01*
X0022552Y0169885D01*
X0022505Y0169954D01*
X0022462Y0170026D01*
X0022422Y0170100D01*
X0022386Y0170175D01*
X0022353Y0170252D01*
X0022324Y0170331D01*
X0022299Y0170410D01*
X0022277Y0170491D01*
X0022260Y0170573D01*
X0022246Y0170656D01*
X0022236Y0170739D01*
X0022230Y0170822D01*
X0022228Y0170906D01*
X0022228Y0159094D02*
X0022230Y0159178D01*
X0022236Y0159261D01*
X0022246Y0159344D01*
X0022260Y0159427D01*
X0022277Y0159509D01*
X0022299Y0159590D01*
X0022324Y0159669D01*
X0022353Y0159748D01*
X0022386Y0159825D01*
X0022422Y0159900D01*
X0022462Y0159974D01*
X0022505Y0160046D01*
X0022552Y0160115D01*
X0022602Y0160182D01*
X0022655Y0160247D01*
X0022711Y0160309D01*
X0022769Y0160369D01*
X0022831Y0160426D01*
X0022895Y0160479D01*
X0022962Y0160530D01*
X0023031Y0160577D01*
X0023102Y0160622D01*
X0023175Y0160662D01*
X0023250Y0160699D01*
X0023327Y0160733D01*
X0023405Y0160763D01*
X0023484Y0160789D01*
X0023565Y0160812D01*
X0023647Y0160830D01*
X0023729Y0160845D01*
X0023812Y0160856D01*
X0023895Y0160863D01*
X0023979Y0160866D01*
X0024063Y0160865D01*
X0024146Y0160860D01*
X0024230Y0160851D01*
X0024312Y0160838D01*
X0024394Y0160822D01*
X0024475Y0160801D01*
X0024556Y0160777D01*
X0024634Y0160749D01*
X0024712Y0160717D01*
X0024788Y0160681D01*
X0024862Y0160642D01*
X0024934Y0160600D01*
X0025004Y0160554D01*
X0025072Y0160505D01*
X0025137Y0160453D01*
X0025200Y0160398D01*
X0025260Y0160340D01*
X0025318Y0160279D01*
X0025372Y0160215D01*
X0025424Y0160149D01*
X0025472Y0160081D01*
X0025517Y0160010D01*
X0025558Y0159937D01*
X0025597Y0159863D01*
X0025631Y0159787D01*
X0025662Y0159709D01*
X0025689Y0159630D01*
X0025713Y0159549D01*
X0025732Y0159468D01*
X0025748Y0159386D01*
X0025760Y0159303D01*
X0025768Y0159219D01*
X0025772Y0159136D01*
X0025772Y0159052D01*
X0025768Y0158969D01*
X0025760Y0158885D01*
X0025748Y0158802D01*
X0025732Y0158720D01*
X0025713Y0158639D01*
X0025689Y0158558D01*
X0025662Y0158479D01*
X0025631Y0158401D01*
X0025597Y0158325D01*
X0025558Y0158251D01*
X0025517Y0158178D01*
X0025472Y0158107D01*
X0025424Y0158039D01*
X0025372Y0157973D01*
X0025318Y0157909D01*
X0025260Y0157848D01*
X0025200Y0157790D01*
X0025137Y0157735D01*
X0025072Y0157683D01*
X0025004Y0157634D01*
X0024934Y0157588D01*
X0024862Y0157546D01*
X0024788Y0157507D01*
X0024712Y0157471D01*
X0024634Y0157439D01*
X0024556Y0157411D01*
X0024475Y0157387D01*
X0024394Y0157366D01*
X0024312Y0157350D01*
X0024230Y0157337D01*
X0024146Y0157328D01*
X0024063Y0157323D01*
X0023979Y0157322D01*
X0023895Y0157325D01*
X0023812Y0157332D01*
X0023729Y0157343D01*
X0023647Y0157358D01*
X0023565Y0157376D01*
X0023484Y0157399D01*
X0023405Y0157425D01*
X0023327Y0157455D01*
X0023250Y0157489D01*
X0023175Y0157526D01*
X0023102Y0157566D01*
X0023031Y0157611D01*
X0022962Y0157658D01*
X0022895Y0157709D01*
X0022831Y0157762D01*
X0022769Y0157819D01*
X0022711Y0157879D01*
X0022655Y0157941D01*
X0022602Y0158006D01*
X0022552Y0158073D01*
X0022505Y0158142D01*
X0022462Y0158214D01*
X0022422Y0158288D01*
X0022386Y0158363D01*
X0022353Y0158440D01*
X0022324Y0158519D01*
X0022299Y0158598D01*
X0022277Y0158679D01*
X0022260Y0158761D01*
X0022246Y0158844D01*
X0022236Y0158927D01*
X0022230Y0159010D01*
X0022228Y0159094D01*
X0156201Y0110500D02*
X0156203Y0110658D01*
X0156209Y0110816D01*
X0156219Y0110974D01*
X0156233Y0111132D01*
X0156251Y0111289D01*
X0156272Y0111446D01*
X0156298Y0111602D01*
X0156328Y0111758D01*
X0156361Y0111913D01*
X0156399Y0112066D01*
X0156440Y0112219D01*
X0156485Y0112371D01*
X0156534Y0112522D01*
X0156587Y0112671D01*
X0156643Y0112819D01*
X0156703Y0112965D01*
X0156767Y0113110D01*
X0156835Y0113253D01*
X0156906Y0113395D01*
X0156980Y0113535D01*
X0157058Y0113672D01*
X0157140Y0113808D01*
X0157224Y0113942D01*
X0157313Y0114073D01*
X0157404Y0114202D01*
X0157499Y0114329D01*
X0157596Y0114454D01*
X0157697Y0114576D01*
X0157801Y0114695D01*
X0157908Y0114812D01*
X0158018Y0114926D01*
X0158131Y0115037D01*
X0158246Y0115146D01*
X0158364Y0115251D01*
X0158485Y0115353D01*
X0158608Y0115453D01*
X0158734Y0115549D01*
X0158862Y0115642D01*
X0158992Y0115732D01*
X0159125Y0115818D01*
X0159260Y0115902D01*
X0159396Y0115981D01*
X0159535Y0116058D01*
X0159676Y0116130D01*
X0159818Y0116200D01*
X0159962Y0116265D01*
X0160108Y0116327D01*
X0160255Y0116385D01*
X0160404Y0116440D01*
X0160554Y0116491D01*
X0160705Y0116538D01*
X0160857Y0116581D01*
X0161010Y0116620D01*
X0161165Y0116656D01*
X0161320Y0116687D01*
X0161476Y0116715D01*
X0161632Y0116739D01*
X0161789Y0116759D01*
X0161947Y0116775D01*
X0162104Y0116787D01*
X0162263Y0116795D01*
X0162421Y0116799D01*
X0162579Y0116799D01*
X0162737Y0116795D01*
X0162896Y0116787D01*
X0163053Y0116775D01*
X0163211Y0116759D01*
X0163368Y0116739D01*
X0163524Y0116715D01*
X0163680Y0116687D01*
X0163835Y0116656D01*
X0163990Y0116620D01*
X0164143Y0116581D01*
X0164295Y0116538D01*
X0164446Y0116491D01*
X0164596Y0116440D01*
X0164745Y0116385D01*
X0164892Y0116327D01*
X0165038Y0116265D01*
X0165182Y0116200D01*
X0165324Y0116130D01*
X0165465Y0116058D01*
X0165604Y0115981D01*
X0165740Y0115902D01*
X0165875Y0115818D01*
X0166008Y0115732D01*
X0166138Y0115642D01*
X0166266Y0115549D01*
X0166392Y0115453D01*
X0166515Y0115353D01*
X0166636Y0115251D01*
X0166754Y0115146D01*
X0166869Y0115037D01*
X0166982Y0114926D01*
X0167092Y0114812D01*
X0167199Y0114695D01*
X0167303Y0114576D01*
X0167404Y0114454D01*
X0167501Y0114329D01*
X0167596Y0114202D01*
X0167687Y0114073D01*
X0167776Y0113942D01*
X0167860Y0113808D01*
X0167942Y0113672D01*
X0168020Y0113535D01*
X0168094Y0113395D01*
X0168165Y0113253D01*
X0168233Y0113110D01*
X0168297Y0112965D01*
X0168357Y0112819D01*
X0168413Y0112671D01*
X0168466Y0112522D01*
X0168515Y0112371D01*
X0168560Y0112219D01*
X0168601Y0112066D01*
X0168639Y0111913D01*
X0168672Y0111758D01*
X0168702Y0111602D01*
X0168728Y0111446D01*
X0168749Y0111289D01*
X0168767Y0111132D01*
X0168781Y0110974D01*
X0168791Y0110816D01*
X0168797Y0110658D01*
X0168799Y0110500D01*
X0168797Y0110342D01*
X0168791Y0110184D01*
X0168781Y0110026D01*
X0168767Y0109868D01*
X0168749Y0109711D01*
X0168728Y0109554D01*
X0168702Y0109398D01*
X0168672Y0109242D01*
X0168639Y0109087D01*
X0168601Y0108934D01*
X0168560Y0108781D01*
X0168515Y0108629D01*
X0168466Y0108478D01*
X0168413Y0108329D01*
X0168357Y0108181D01*
X0168297Y0108035D01*
X0168233Y0107890D01*
X0168165Y0107747D01*
X0168094Y0107605D01*
X0168020Y0107465D01*
X0167942Y0107328D01*
X0167860Y0107192D01*
X0167776Y0107058D01*
X0167687Y0106927D01*
X0167596Y0106798D01*
X0167501Y0106671D01*
X0167404Y0106546D01*
X0167303Y0106424D01*
X0167199Y0106305D01*
X0167092Y0106188D01*
X0166982Y0106074D01*
X0166869Y0105963D01*
X0166754Y0105854D01*
X0166636Y0105749D01*
X0166515Y0105647D01*
X0166392Y0105547D01*
X0166266Y0105451D01*
X0166138Y0105358D01*
X0166008Y0105268D01*
X0165875Y0105182D01*
X0165740Y0105098D01*
X0165604Y0105019D01*
X0165465Y0104942D01*
X0165324Y0104870D01*
X0165182Y0104800D01*
X0165038Y0104735D01*
X0164892Y0104673D01*
X0164745Y0104615D01*
X0164596Y0104560D01*
X0164446Y0104509D01*
X0164295Y0104462D01*
X0164143Y0104419D01*
X0163990Y0104380D01*
X0163835Y0104344D01*
X0163680Y0104313D01*
X0163524Y0104285D01*
X0163368Y0104261D01*
X0163211Y0104241D01*
X0163053Y0104225D01*
X0162896Y0104213D01*
X0162737Y0104205D01*
X0162579Y0104201D01*
X0162421Y0104201D01*
X0162263Y0104205D01*
X0162104Y0104213D01*
X0161947Y0104225D01*
X0161789Y0104241D01*
X0161632Y0104261D01*
X0161476Y0104285D01*
X0161320Y0104313D01*
X0161165Y0104344D01*
X0161010Y0104380D01*
X0160857Y0104419D01*
X0160705Y0104462D01*
X0160554Y0104509D01*
X0160404Y0104560D01*
X0160255Y0104615D01*
X0160108Y0104673D01*
X0159962Y0104735D01*
X0159818Y0104800D01*
X0159676Y0104870D01*
X0159535Y0104942D01*
X0159396Y0105019D01*
X0159260Y0105098D01*
X0159125Y0105182D01*
X0158992Y0105268D01*
X0158862Y0105358D01*
X0158734Y0105451D01*
X0158608Y0105547D01*
X0158485Y0105647D01*
X0158364Y0105749D01*
X0158246Y0105854D01*
X0158131Y0105963D01*
X0158018Y0106074D01*
X0157908Y0106188D01*
X0157801Y0106305D01*
X0157697Y0106424D01*
X0157596Y0106546D01*
X0157499Y0106671D01*
X0157404Y0106798D01*
X0157313Y0106927D01*
X0157224Y0107058D01*
X0157140Y0107192D01*
X0157058Y0107328D01*
X0156980Y0107465D01*
X0156906Y0107605D01*
X0156835Y0107747D01*
X0156767Y0107890D01*
X0156703Y0108035D01*
X0156643Y0108181D01*
X0156587Y0108329D01*
X0156534Y0108478D01*
X0156485Y0108629D01*
X0156440Y0108781D01*
X0156399Y0108934D01*
X0156361Y0109087D01*
X0156328Y0109242D01*
X0156298Y0109398D01*
X0156272Y0109554D01*
X0156251Y0109711D01*
X0156233Y0109868D01*
X0156219Y0110026D01*
X0156209Y0110184D01*
X0156203Y0110342D01*
X0156201Y0110500D01*
X0227788Y0099900D02*
X0227790Y0100048D01*
X0227796Y0100196D01*
X0227806Y0100344D01*
X0227820Y0100491D01*
X0227838Y0100638D01*
X0227859Y0100784D01*
X0227885Y0100930D01*
X0227915Y0101075D01*
X0227948Y0101219D01*
X0227986Y0101362D01*
X0228027Y0101504D01*
X0228072Y0101645D01*
X0228120Y0101785D01*
X0228173Y0101924D01*
X0228229Y0102061D01*
X0228289Y0102196D01*
X0228352Y0102330D01*
X0228419Y0102462D01*
X0228490Y0102592D01*
X0228564Y0102720D01*
X0228641Y0102846D01*
X0228722Y0102970D01*
X0228806Y0103092D01*
X0228893Y0103211D01*
X0228984Y0103328D01*
X0229078Y0103443D01*
X0229174Y0103555D01*
X0229274Y0103665D01*
X0229376Y0103771D01*
X0229482Y0103875D01*
X0229590Y0103976D01*
X0229701Y0104074D01*
X0229814Y0104170D01*
X0229930Y0104262D01*
X0230048Y0104351D01*
X0230169Y0104436D01*
X0230292Y0104519D01*
X0230417Y0104598D01*
X0230544Y0104674D01*
X0230673Y0104746D01*
X0230804Y0104815D01*
X0230937Y0104880D01*
X0231072Y0104941D01*
X0231208Y0104999D01*
X0231345Y0105054D01*
X0231484Y0105104D01*
X0231625Y0105151D01*
X0231766Y0105194D01*
X0231909Y0105234D01*
X0232053Y0105269D01*
X0232197Y0105301D01*
X0232343Y0105328D01*
X0232489Y0105352D01*
X0232636Y0105372D01*
X0232783Y0105388D01*
X0232930Y0105400D01*
X0233078Y0105408D01*
X0233226Y0105412D01*
X0233374Y0105412D01*
X0233522Y0105408D01*
X0233670Y0105400D01*
X0233817Y0105388D01*
X0233964Y0105372D01*
X0234111Y0105352D01*
X0234257Y0105328D01*
X0234403Y0105301D01*
X0234547Y0105269D01*
X0234691Y0105234D01*
X0234834Y0105194D01*
X0234975Y0105151D01*
X0235116Y0105104D01*
X0235255Y0105054D01*
X0235392Y0104999D01*
X0235528Y0104941D01*
X0235663Y0104880D01*
X0235796Y0104815D01*
X0235927Y0104746D01*
X0236056Y0104674D01*
X0236183Y0104598D01*
X0236308Y0104519D01*
X0236431Y0104436D01*
X0236552Y0104351D01*
X0236670Y0104262D01*
X0236786Y0104170D01*
X0236899Y0104074D01*
X0237010Y0103976D01*
X0237118Y0103875D01*
X0237224Y0103771D01*
X0237326Y0103665D01*
X0237426Y0103555D01*
X0237522Y0103443D01*
X0237616Y0103328D01*
X0237707Y0103211D01*
X0237794Y0103092D01*
X0237878Y0102970D01*
X0237959Y0102846D01*
X0238036Y0102720D01*
X0238110Y0102592D01*
X0238181Y0102462D01*
X0238248Y0102330D01*
X0238311Y0102196D01*
X0238371Y0102061D01*
X0238427Y0101924D01*
X0238480Y0101785D01*
X0238528Y0101645D01*
X0238573Y0101504D01*
X0238614Y0101362D01*
X0238652Y0101219D01*
X0238685Y0101075D01*
X0238715Y0100930D01*
X0238741Y0100784D01*
X0238762Y0100638D01*
X0238780Y0100491D01*
X0238794Y0100344D01*
X0238804Y0100196D01*
X0238810Y0100048D01*
X0238812Y0099900D01*
X0238810Y0099752D01*
X0238804Y0099604D01*
X0238794Y0099456D01*
X0238780Y0099309D01*
X0238762Y0099162D01*
X0238741Y0099016D01*
X0238715Y0098870D01*
X0238685Y0098725D01*
X0238652Y0098581D01*
X0238614Y0098438D01*
X0238573Y0098296D01*
X0238528Y0098155D01*
X0238480Y0098015D01*
X0238427Y0097876D01*
X0238371Y0097739D01*
X0238311Y0097604D01*
X0238248Y0097470D01*
X0238181Y0097338D01*
X0238110Y0097208D01*
X0238036Y0097080D01*
X0237959Y0096954D01*
X0237878Y0096830D01*
X0237794Y0096708D01*
X0237707Y0096589D01*
X0237616Y0096472D01*
X0237522Y0096357D01*
X0237426Y0096245D01*
X0237326Y0096135D01*
X0237224Y0096029D01*
X0237118Y0095925D01*
X0237010Y0095824D01*
X0236899Y0095726D01*
X0236786Y0095630D01*
X0236670Y0095538D01*
X0236552Y0095449D01*
X0236431Y0095364D01*
X0236308Y0095281D01*
X0236183Y0095202D01*
X0236056Y0095126D01*
X0235927Y0095054D01*
X0235796Y0094985D01*
X0235663Y0094920D01*
X0235528Y0094859D01*
X0235392Y0094801D01*
X0235255Y0094746D01*
X0235116Y0094696D01*
X0234975Y0094649D01*
X0234834Y0094606D01*
X0234691Y0094566D01*
X0234547Y0094531D01*
X0234403Y0094499D01*
X0234257Y0094472D01*
X0234111Y0094448D01*
X0233964Y0094428D01*
X0233817Y0094412D01*
X0233670Y0094400D01*
X0233522Y0094392D01*
X0233374Y0094388D01*
X0233226Y0094388D01*
X0233078Y0094392D01*
X0232930Y0094400D01*
X0232783Y0094412D01*
X0232636Y0094428D01*
X0232489Y0094448D01*
X0232343Y0094472D01*
X0232197Y0094499D01*
X0232053Y0094531D01*
X0231909Y0094566D01*
X0231766Y0094606D01*
X0231625Y0094649D01*
X0231484Y0094696D01*
X0231345Y0094746D01*
X0231208Y0094801D01*
X0231072Y0094859D01*
X0230937Y0094920D01*
X0230804Y0094985D01*
X0230673Y0095054D01*
X0230544Y0095126D01*
X0230417Y0095202D01*
X0230292Y0095281D01*
X0230169Y0095364D01*
X0230048Y0095449D01*
X0229930Y0095538D01*
X0229814Y0095630D01*
X0229701Y0095726D01*
X0229590Y0095824D01*
X0229482Y0095925D01*
X0229376Y0096029D01*
X0229274Y0096135D01*
X0229174Y0096245D01*
X0229078Y0096357D01*
X0228984Y0096472D01*
X0228893Y0096589D01*
X0228806Y0096708D01*
X0228722Y0096830D01*
X0228641Y0096954D01*
X0228564Y0097080D01*
X0228490Y0097208D01*
X0228419Y0097338D01*
X0228352Y0097470D01*
X0228289Y0097604D01*
X0228229Y0097739D01*
X0228173Y0097876D01*
X0228120Y0098015D01*
X0228072Y0098155D01*
X0228027Y0098296D01*
X0227986Y0098438D01*
X0227948Y0098581D01*
X0227915Y0098725D01*
X0227885Y0098870D01*
X0227859Y0099016D01*
X0227838Y0099162D01*
X0227820Y0099309D01*
X0227806Y0099456D01*
X0227796Y0099604D01*
X0227790Y0099752D01*
X0227788Y0099900D01*
X0156201Y0040500D02*
X0156203Y0040658D01*
X0156209Y0040816D01*
X0156219Y0040974D01*
X0156233Y0041132D01*
X0156251Y0041289D01*
X0156272Y0041446D01*
X0156298Y0041602D01*
X0156328Y0041758D01*
X0156361Y0041913D01*
X0156399Y0042066D01*
X0156440Y0042219D01*
X0156485Y0042371D01*
X0156534Y0042522D01*
X0156587Y0042671D01*
X0156643Y0042819D01*
X0156703Y0042965D01*
X0156767Y0043110D01*
X0156835Y0043253D01*
X0156906Y0043395D01*
X0156980Y0043535D01*
X0157058Y0043672D01*
X0157140Y0043808D01*
X0157224Y0043942D01*
X0157313Y0044073D01*
X0157404Y0044202D01*
X0157499Y0044329D01*
X0157596Y0044454D01*
X0157697Y0044576D01*
X0157801Y0044695D01*
X0157908Y0044812D01*
X0158018Y0044926D01*
X0158131Y0045037D01*
X0158246Y0045146D01*
X0158364Y0045251D01*
X0158485Y0045353D01*
X0158608Y0045453D01*
X0158734Y0045549D01*
X0158862Y0045642D01*
X0158992Y0045732D01*
X0159125Y0045818D01*
X0159260Y0045902D01*
X0159396Y0045981D01*
X0159535Y0046058D01*
X0159676Y0046130D01*
X0159818Y0046200D01*
X0159962Y0046265D01*
X0160108Y0046327D01*
X0160255Y0046385D01*
X0160404Y0046440D01*
X0160554Y0046491D01*
X0160705Y0046538D01*
X0160857Y0046581D01*
X0161010Y0046620D01*
X0161165Y0046656D01*
X0161320Y0046687D01*
X0161476Y0046715D01*
X0161632Y0046739D01*
X0161789Y0046759D01*
X0161947Y0046775D01*
X0162104Y0046787D01*
X0162263Y0046795D01*
X0162421Y0046799D01*
X0162579Y0046799D01*
X0162737Y0046795D01*
X0162896Y0046787D01*
X0163053Y0046775D01*
X0163211Y0046759D01*
X0163368Y0046739D01*
X0163524Y0046715D01*
X0163680Y0046687D01*
X0163835Y0046656D01*
X0163990Y0046620D01*
X0164143Y0046581D01*
X0164295Y0046538D01*
X0164446Y0046491D01*
X0164596Y0046440D01*
X0164745Y0046385D01*
X0164892Y0046327D01*
X0165038Y0046265D01*
X0165182Y0046200D01*
X0165324Y0046130D01*
X0165465Y0046058D01*
X0165604Y0045981D01*
X0165740Y0045902D01*
X0165875Y0045818D01*
X0166008Y0045732D01*
X0166138Y0045642D01*
X0166266Y0045549D01*
X0166392Y0045453D01*
X0166515Y0045353D01*
X0166636Y0045251D01*
X0166754Y0045146D01*
X0166869Y0045037D01*
X0166982Y0044926D01*
X0167092Y0044812D01*
X0167199Y0044695D01*
X0167303Y0044576D01*
X0167404Y0044454D01*
X0167501Y0044329D01*
X0167596Y0044202D01*
X0167687Y0044073D01*
X0167776Y0043942D01*
X0167860Y0043808D01*
X0167942Y0043672D01*
X0168020Y0043535D01*
X0168094Y0043395D01*
X0168165Y0043253D01*
X0168233Y0043110D01*
X0168297Y0042965D01*
X0168357Y0042819D01*
X0168413Y0042671D01*
X0168466Y0042522D01*
X0168515Y0042371D01*
X0168560Y0042219D01*
X0168601Y0042066D01*
X0168639Y0041913D01*
X0168672Y0041758D01*
X0168702Y0041602D01*
X0168728Y0041446D01*
X0168749Y0041289D01*
X0168767Y0041132D01*
X0168781Y0040974D01*
X0168791Y0040816D01*
X0168797Y0040658D01*
X0168799Y0040500D01*
X0168797Y0040342D01*
X0168791Y0040184D01*
X0168781Y0040026D01*
X0168767Y0039868D01*
X0168749Y0039711D01*
X0168728Y0039554D01*
X0168702Y0039398D01*
X0168672Y0039242D01*
X0168639Y0039087D01*
X0168601Y0038934D01*
X0168560Y0038781D01*
X0168515Y0038629D01*
X0168466Y0038478D01*
X0168413Y0038329D01*
X0168357Y0038181D01*
X0168297Y0038035D01*
X0168233Y0037890D01*
X0168165Y0037747D01*
X0168094Y0037605D01*
X0168020Y0037465D01*
X0167942Y0037328D01*
X0167860Y0037192D01*
X0167776Y0037058D01*
X0167687Y0036927D01*
X0167596Y0036798D01*
X0167501Y0036671D01*
X0167404Y0036546D01*
X0167303Y0036424D01*
X0167199Y0036305D01*
X0167092Y0036188D01*
X0166982Y0036074D01*
X0166869Y0035963D01*
X0166754Y0035854D01*
X0166636Y0035749D01*
X0166515Y0035647D01*
X0166392Y0035547D01*
X0166266Y0035451D01*
X0166138Y0035358D01*
X0166008Y0035268D01*
X0165875Y0035182D01*
X0165740Y0035098D01*
X0165604Y0035019D01*
X0165465Y0034942D01*
X0165324Y0034870D01*
X0165182Y0034800D01*
X0165038Y0034735D01*
X0164892Y0034673D01*
X0164745Y0034615D01*
X0164596Y0034560D01*
X0164446Y0034509D01*
X0164295Y0034462D01*
X0164143Y0034419D01*
X0163990Y0034380D01*
X0163835Y0034344D01*
X0163680Y0034313D01*
X0163524Y0034285D01*
X0163368Y0034261D01*
X0163211Y0034241D01*
X0163053Y0034225D01*
X0162896Y0034213D01*
X0162737Y0034205D01*
X0162579Y0034201D01*
X0162421Y0034201D01*
X0162263Y0034205D01*
X0162104Y0034213D01*
X0161947Y0034225D01*
X0161789Y0034241D01*
X0161632Y0034261D01*
X0161476Y0034285D01*
X0161320Y0034313D01*
X0161165Y0034344D01*
X0161010Y0034380D01*
X0160857Y0034419D01*
X0160705Y0034462D01*
X0160554Y0034509D01*
X0160404Y0034560D01*
X0160255Y0034615D01*
X0160108Y0034673D01*
X0159962Y0034735D01*
X0159818Y0034800D01*
X0159676Y0034870D01*
X0159535Y0034942D01*
X0159396Y0035019D01*
X0159260Y0035098D01*
X0159125Y0035182D01*
X0158992Y0035268D01*
X0158862Y0035358D01*
X0158734Y0035451D01*
X0158608Y0035547D01*
X0158485Y0035647D01*
X0158364Y0035749D01*
X0158246Y0035854D01*
X0158131Y0035963D01*
X0158018Y0036074D01*
X0157908Y0036188D01*
X0157801Y0036305D01*
X0157697Y0036424D01*
X0157596Y0036546D01*
X0157499Y0036671D01*
X0157404Y0036798D01*
X0157313Y0036927D01*
X0157224Y0037058D01*
X0157140Y0037192D01*
X0157058Y0037328D01*
X0156980Y0037465D01*
X0156906Y0037605D01*
X0156835Y0037747D01*
X0156767Y0037890D01*
X0156703Y0038035D01*
X0156643Y0038181D01*
X0156587Y0038329D01*
X0156534Y0038478D01*
X0156485Y0038629D01*
X0156440Y0038781D01*
X0156399Y0038934D01*
X0156361Y0039087D01*
X0156328Y0039242D01*
X0156298Y0039398D01*
X0156272Y0039554D01*
X0156251Y0039711D01*
X0156233Y0039868D01*
X0156219Y0040026D01*
X0156209Y0040184D01*
X0156203Y0040342D01*
X0156201Y0040500D01*
D13*
X0024000Y0159094D03*
X0024000Y0170906D03*
X0041094Y0207500D03*
X0052906Y0207500D03*
D14*
X0187500Y0115500D03*
X0197500Y0115500D03*
X0227500Y0115500D03*
X0237500Y0115500D03*
X0237500Y0035500D03*
X0227500Y0035500D03*
X0217500Y0035500D03*
X0207500Y0035500D03*
X0197500Y0035500D03*
X0187500Y0035500D03*
X0177500Y0035500D03*
X0116500Y0034000D03*
X0106500Y0034000D03*
X0106500Y0024000D03*
X0106500Y0014000D03*
X0116500Y0024000D03*
X0106500Y0044000D03*
X0106500Y0054000D03*
X0106500Y0064000D03*
X0106500Y0074000D03*
X0116500Y0074000D03*
X0116500Y0064000D03*
X0036500Y0064000D03*
X0026500Y0064000D03*
X0026500Y0074000D03*
X0036500Y0074000D03*
X0036500Y0054000D03*
X0036500Y0044000D03*
X0036500Y0034000D03*
X0026500Y0034000D03*
X0026500Y0024000D03*
X0036500Y0024000D03*
X0036500Y0014000D03*
D15*
X0233300Y0099900D03*
D16*
X0162500Y0110500D03*
X0162500Y0040500D03*
D17*
X0122500Y0098000D03*
X0112500Y0098000D03*
X0102500Y0098000D03*
X0102500Y0108000D03*
X0112500Y0108000D03*
X0122500Y0108000D03*
D18*
X0121500Y0142000D03*
X0111500Y0142000D03*
X0101500Y0142000D03*
X0091500Y0142000D03*
X0081500Y0142000D03*
X0081500Y0172000D03*
X0091500Y0172000D03*
X0101500Y0172000D03*
X0111500Y0172000D03*
X0121500Y0172000D03*
X0131500Y0172000D03*
X0141500Y0172000D03*
X0151500Y0172000D03*
X0161500Y0172000D03*
X0171500Y0172000D03*
X0181500Y0172000D03*
X0191500Y0172000D03*
X0191500Y0142000D03*
X0181500Y0142000D03*
X0171500Y0142000D03*
X0161500Y0142000D03*
X0151500Y0142000D03*
X0141500Y0142000D03*
X0131500Y0142000D03*
M02*
