G75*
%MOIN*%
%OFA0B0*%
%FSLAX25Y25*%
%IPPOS*%
%LPD*%
%AMOC8*
5,1,8,0,0,1.08239X$1,22.5*
%
%ADD10C,0.00004*%
%ADD11C,0.00400*%
%ADD12C,0.00000*%
%ADD13C,0.00394*%
D10*
X0016500Y0005000D02*
X0016500Y0215000D01*
X0270500Y0215000D01*
X0276500Y0209000D01*
X0276500Y0164000D01*
X0286500Y0154000D01*
X0286500Y0025000D01*
X0276500Y0015000D01*
X0276500Y0005000D01*
X0016500Y0005000D01*
X0276500Y0005000D01*
X0276500Y0015000D01*
X0286500Y0025000D01*
X0286500Y0154000D01*
X0276500Y0164000D01*
X0276500Y0209000D01*
X0270500Y0215000D01*
X0016500Y0215000D01*
X0016500Y0005000D01*
D11*
X0204587Y0134967D02*
X0205354Y0134200D01*
X0206889Y0134200D01*
X0207656Y0134967D01*
X0207656Y0136502D02*
X0206121Y0137269D01*
X0205354Y0137269D01*
X0204587Y0136502D01*
X0204587Y0134967D01*
X0207656Y0136502D02*
X0207656Y0138804D01*
X0204587Y0138804D01*
X0210725Y0138804D02*
X0210725Y0134200D01*
X0209191Y0134200D02*
X0212260Y0134200D01*
X0213795Y0134967D02*
X0214562Y0134200D01*
X0216097Y0134200D01*
X0216864Y0134967D01*
X0213795Y0138037D01*
X0213795Y0134967D01*
X0212260Y0137269D02*
X0210725Y0138804D01*
X0213795Y0138037D02*
X0214562Y0138804D01*
X0216097Y0138804D01*
X0216864Y0138037D01*
X0216864Y0134967D01*
X0218399Y0134200D02*
X0221468Y0134200D01*
X0218399Y0137269D01*
X0218399Y0138037D01*
X0219166Y0138804D01*
X0220701Y0138804D01*
X0221468Y0138037D01*
X0223003Y0138804D02*
X0226072Y0134200D01*
X0227607Y0134967D02*
X0228374Y0134200D01*
X0229909Y0134200D01*
X0230676Y0134967D01*
X0232211Y0134967D02*
X0232211Y0138037D01*
X0235280Y0134967D01*
X0234513Y0134200D01*
X0232978Y0134200D01*
X0232211Y0134967D01*
X0230676Y0136502D02*
X0229141Y0137269D01*
X0228374Y0137269D01*
X0227607Y0136502D01*
X0227607Y0134967D01*
X0230676Y0136502D02*
X0230676Y0138804D01*
X0227607Y0138804D01*
X0228374Y0140165D02*
X0227607Y0140933D01*
X0227607Y0144769D01*
X0229909Y0144769D01*
X0230676Y0144002D01*
X0230676Y0142467D01*
X0229909Y0141700D01*
X0227607Y0141700D01*
X0226072Y0141700D02*
X0225305Y0141700D01*
X0225305Y0142467D01*
X0226072Y0142467D01*
X0226072Y0141700D01*
X0223770Y0141700D02*
X0222235Y0141700D01*
X0223003Y0141700D02*
X0223003Y0144769D01*
X0223770Y0144769D01*
X0223003Y0146304D02*
X0223003Y0147071D01*
X0220701Y0146304D02*
X0219933Y0146304D01*
X0219933Y0141700D01*
X0219166Y0141700D02*
X0220701Y0141700D01*
X0228374Y0140165D02*
X0229141Y0140165D01*
X0232211Y0138037D02*
X0232978Y0138804D01*
X0234513Y0138804D01*
X0235280Y0138037D01*
X0235280Y0134967D01*
X0241419Y0134200D02*
X0244488Y0134200D01*
X0242953Y0134200D02*
X0242953Y0138804D01*
X0244488Y0137269D01*
X0246023Y0138037D02*
X0246023Y0134967D01*
X0246790Y0134200D01*
X0248325Y0134200D01*
X0249092Y0134967D01*
X0246023Y0138037D01*
X0246790Y0138804D01*
X0248325Y0138804D01*
X0249092Y0138037D01*
X0249092Y0134967D01*
X0250627Y0134967D02*
X0251394Y0134200D01*
X0252929Y0134200D01*
X0253696Y0134967D01*
X0250627Y0138037D01*
X0250627Y0134967D01*
X0253696Y0134967D02*
X0253696Y0138037D01*
X0252929Y0138804D01*
X0251394Y0138804D01*
X0250627Y0138037D01*
X0250627Y0141700D02*
X0250627Y0144769D01*
X0252161Y0146304D01*
X0253696Y0144769D01*
X0253696Y0141700D01*
X0253696Y0144002D02*
X0250627Y0144002D01*
X0249092Y0141700D02*
X0249092Y0146304D01*
X0247557Y0144769D01*
X0246023Y0146304D01*
X0246023Y0141700D01*
X0244488Y0141700D02*
X0242953Y0141700D01*
X0243721Y0141700D02*
X0243721Y0146304D01*
X0244488Y0146304D02*
X0242953Y0146304D01*
X0239117Y0144002D02*
X0239117Y0142467D01*
X0238349Y0141700D01*
X0236815Y0141700D01*
X0236047Y0142467D01*
X0236047Y0144002D01*
X0236815Y0144769D01*
X0238349Y0144769D01*
X0239117Y0144002D01*
X0240651Y0142467D02*
X0240651Y0141700D01*
X0241419Y0141700D01*
X0241419Y0142467D01*
X0240651Y0142467D01*
X0234513Y0141700D02*
X0234513Y0144769D01*
X0234513Y0143235D02*
X0232978Y0144769D01*
X0232211Y0144769D01*
X0255231Y0146304D02*
X0258300Y0146304D01*
X0256765Y0146304D02*
X0256765Y0141700D01*
X0255231Y0138804D02*
X0255231Y0135735D01*
X0256765Y0134200D01*
X0258300Y0135735D01*
X0258300Y0138804D01*
X0222033Y0182200D02*
X0220498Y0182200D01*
X0219731Y0182967D01*
X0218196Y0182200D02*
X0218196Y0186804D01*
X0217429Y0185269D02*
X0215894Y0185269D01*
X0215127Y0184502D01*
X0215127Y0182200D01*
X0213592Y0182967D02*
X0212825Y0183735D01*
X0210523Y0183735D01*
X0210523Y0184502D02*
X0210523Y0182200D01*
X0212825Y0182200D01*
X0213592Y0182967D01*
X0212825Y0185269D02*
X0211290Y0185269D01*
X0210523Y0184502D01*
X0208988Y0185269D02*
X0208988Y0182200D01*
X0208988Y0183735D02*
X0207453Y0185269D01*
X0206686Y0185269D01*
X0205151Y0184502D02*
X0205151Y0182967D01*
X0204384Y0182200D01*
X0202082Y0182200D01*
X0202082Y0181433D02*
X0202082Y0185269D01*
X0204384Y0185269D01*
X0205151Y0184502D01*
X0203617Y0180665D02*
X0202849Y0180665D01*
X0202082Y0181433D01*
X0200547Y0182967D02*
X0199780Y0182200D01*
X0198245Y0182200D01*
X0197478Y0183735D02*
X0200547Y0183735D01*
X0200547Y0184502D02*
X0199780Y0185269D01*
X0198245Y0185269D01*
X0197478Y0184502D01*
X0197478Y0183735D01*
X0200547Y0182967D02*
X0200547Y0184502D01*
X0199780Y0188165D02*
X0199013Y0188165D01*
X0198245Y0188933D01*
X0198245Y0192769D01*
X0198245Y0189700D02*
X0200547Y0189700D01*
X0201315Y0190467D01*
X0201315Y0192769D01*
X0202849Y0192002D02*
X0202849Y0189700D01*
X0202849Y0192002D02*
X0203617Y0192769D01*
X0205919Y0192769D01*
X0205919Y0189700D01*
X0207453Y0189700D02*
X0208988Y0189700D01*
X0208221Y0189700D02*
X0208221Y0192769D01*
X0208988Y0192769D01*
X0208221Y0194304D02*
X0208221Y0195071D01*
X0210523Y0194304D02*
X0213592Y0194304D01*
X0212057Y0194304D02*
X0212057Y0189700D01*
X0216661Y0189700D02*
X0216661Y0194304D01*
X0215127Y0194304D02*
X0218196Y0194304D01*
X0219731Y0192769D02*
X0219731Y0189700D01*
X0219731Y0192002D02*
X0222800Y0192002D01*
X0222800Y0192769D02*
X0221265Y0194304D01*
X0219731Y0192769D01*
X0222800Y0192769D02*
X0222800Y0189700D01*
X0222033Y0186804D02*
X0222800Y0186037D01*
X0222800Y0182967D01*
X0222033Y0182200D01*
X0218196Y0184502D02*
X0217429Y0185269D01*
X0219731Y0186037D02*
X0220498Y0186804D01*
X0222033Y0186804D01*
X0192107Y0189700D02*
X0192107Y0194304D01*
X0189037Y0194304D01*
X0187503Y0192769D02*
X0187503Y0190467D01*
X0186735Y0189700D01*
X0184433Y0189700D01*
X0184433Y0192769D01*
X0182899Y0192002D02*
X0182131Y0192769D01*
X0179829Y0192769D01*
X0178295Y0192002D02*
X0178295Y0190467D01*
X0177527Y0189700D01*
X0175993Y0189700D01*
X0175225Y0191235D02*
X0178295Y0191235D01*
X0178295Y0192002D02*
X0177527Y0192769D01*
X0175993Y0192769D01*
X0175225Y0192002D01*
X0175225Y0191235D01*
X0179829Y0190467D02*
X0180597Y0191235D01*
X0182131Y0191235D01*
X0182899Y0192002D01*
X0182899Y0189700D02*
X0180597Y0189700D01*
X0179829Y0190467D01*
X0179829Y0185269D02*
X0179062Y0184502D01*
X0179062Y0182200D01*
X0177527Y0182200D02*
X0175225Y0182200D01*
X0174458Y0182967D01*
X0174458Y0184502D01*
X0175225Y0185269D01*
X0177527Y0185269D01*
X0177527Y0180665D01*
X0180597Y0182200D02*
X0180597Y0184502D01*
X0179829Y0185269D01*
X0180597Y0184502D02*
X0181364Y0185269D01*
X0182131Y0185269D01*
X0182131Y0182200D01*
X0183666Y0182200D02*
X0183666Y0185269D01*
X0186735Y0185269D02*
X0186735Y0182967D01*
X0185968Y0182200D01*
X0183666Y0182200D01*
X0188270Y0184502D02*
X0188270Y0186037D01*
X0189037Y0186804D01*
X0191339Y0186804D01*
X0191339Y0182200D01*
X0191339Y0183735D02*
X0189037Y0183735D01*
X0188270Y0184502D01*
X0190572Y0192002D02*
X0192107Y0192002D01*
X0169087Y0191235D02*
X0166785Y0191235D01*
X0166017Y0192002D01*
X0166017Y0193537D01*
X0166785Y0194304D01*
X0169087Y0194304D01*
X0169087Y0189700D01*
X0167552Y0191235D02*
X0166017Y0189700D01*
X0164483Y0190467D02*
X0164483Y0192002D01*
X0163715Y0192769D01*
X0162181Y0192769D01*
X0161413Y0192002D01*
X0161413Y0191235D01*
X0164483Y0191235D01*
X0164483Y0190467D02*
X0163715Y0189700D01*
X0162181Y0189700D01*
X0159879Y0189700D02*
X0157577Y0189700D01*
X0156809Y0190467D01*
X0157577Y0191235D01*
X0159111Y0191235D01*
X0159879Y0192002D01*
X0159111Y0192769D01*
X0156809Y0192769D01*
X0155275Y0192002D02*
X0155275Y0190467D01*
X0154507Y0189700D01*
X0152973Y0189700D01*
X0152205Y0191235D02*
X0155275Y0191235D01*
X0155275Y0192002D02*
X0154507Y0192769D01*
X0152973Y0192769D01*
X0152205Y0192002D01*
X0152205Y0191235D01*
X0150671Y0192769D02*
X0149136Y0192769D01*
X0149903Y0193537D02*
X0149903Y0190467D01*
X0149136Y0189700D01*
X0149136Y0185269D02*
X0148369Y0185269D01*
X0149136Y0185269D02*
X0150671Y0183735D01*
X0150671Y0185269D02*
X0150671Y0182200D01*
X0152205Y0182200D02*
X0154507Y0182200D01*
X0155275Y0182967D01*
X0155275Y0184502D01*
X0154507Y0185269D01*
X0152205Y0185269D01*
X0152205Y0181433D01*
X0152973Y0180665D01*
X0153740Y0180665D01*
X0156809Y0182967D02*
X0156809Y0184502D01*
X0157577Y0185269D01*
X0159111Y0185269D01*
X0159879Y0184502D01*
X0159879Y0182967D01*
X0159111Y0182200D01*
X0157577Y0182200D01*
X0156809Y0182967D01*
X0161413Y0185269D02*
X0162181Y0185269D01*
X0163715Y0183735D01*
X0163715Y0185269D02*
X0163715Y0182200D01*
X0165250Y0184502D02*
X0166017Y0183735D01*
X0168319Y0183735D01*
X0168319Y0182200D02*
X0168319Y0186804D01*
X0166017Y0186804D01*
X0165250Y0186037D01*
X0165250Y0184502D01*
X0146834Y0182967D02*
X0146067Y0182200D01*
X0143765Y0182200D01*
X0143765Y0184502D01*
X0144532Y0185269D01*
X0146067Y0185269D01*
X0146067Y0183735D02*
X0143765Y0183735D01*
X0142230Y0185269D02*
X0141463Y0185269D01*
X0140695Y0184502D01*
X0139928Y0185269D01*
X0139161Y0184502D01*
X0139161Y0182200D01*
X0140695Y0182200D02*
X0140695Y0184502D01*
X0142230Y0185269D02*
X0142230Y0182200D01*
X0146067Y0183735D02*
X0146834Y0182967D01*
X0142230Y0189700D02*
X0141463Y0190467D01*
X0140695Y0189700D01*
X0139928Y0190467D01*
X0139928Y0192769D01*
X0138393Y0192769D02*
X0137626Y0192769D01*
X0137626Y0189700D01*
X0138393Y0189700D02*
X0136859Y0189700D01*
X0134557Y0190467D02*
X0133789Y0189700D01*
X0134557Y0190467D02*
X0134557Y0193537D01*
X0135324Y0192769D02*
X0133789Y0192769D01*
X0132255Y0192002D02*
X0131487Y0192769D01*
X0129953Y0192769D01*
X0129185Y0192002D01*
X0129185Y0189700D01*
X0132255Y0189700D02*
X0132255Y0194304D01*
X0137626Y0194304D02*
X0137626Y0195071D01*
X0142997Y0192769D02*
X0142997Y0190467D01*
X0142230Y0189700D01*
X0137626Y0185269D02*
X0136859Y0185269D01*
X0136091Y0184502D01*
X0135324Y0185269D01*
X0134557Y0184502D01*
X0134557Y0182200D01*
X0136091Y0182200D02*
X0136091Y0184502D01*
X0137626Y0185269D02*
X0137626Y0182200D01*
X0133022Y0182967D02*
X0132255Y0182200D01*
X0130720Y0182200D01*
X0129953Y0183735D02*
X0133022Y0183735D01*
X0133022Y0184502D02*
X0132255Y0185269D01*
X0130720Y0185269D01*
X0129953Y0184502D01*
X0129953Y0183735D01*
X0128418Y0183735D02*
X0126883Y0185269D01*
X0126116Y0185269D01*
X0128418Y0185269D02*
X0128418Y0182200D01*
X0133022Y0182967D02*
X0133022Y0184502D01*
X0123047Y0189700D02*
X0119977Y0189700D01*
X0118443Y0189700D02*
X0115373Y0192769D01*
X0115373Y0193537D01*
X0116141Y0194304D01*
X0117675Y0194304D01*
X0118443Y0193537D01*
X0121512Y0194304D02*
X0121512Y0189700D01*
X0118443Y0189700D02*
X0115373Y0189700D01*
X0113839Y0191235D02*
X0112304Y0189700D01*
X0110769Y0191235D01*
X0110769Y0194304D01*
X0113839Y0194304D02*
X0113839Y0191235D01*
X0121512Y0194304D02*
X0123047Y0192769D01*
D12*
X0051134Y0207500D02*
X0051136Y0207584D01*
X0051142Y0207667D01*
X0051152Y0207750D01*
X0051166Y0207833D01*
X0051183Y0207915D01*
X0051205Y0207996D01*
X0051230Y0208075D01*
X0051259Y0208154D01*
X0051292Y0208231D01*
X0051328Y0208306D01*
X0051368Y0208380D01*
X0051411Y0208452D01*
X0051458Y0208521D01*
X0051508Y0208588D01*
X0051561Y0208653D01*
X0051617Y0208715D01*
X0051675Y0208775D01*
X0051737Y0208832D01*
X0051801Y0208885D01*
X0051868Y0208936D01*
X0051937Y0208983D01*
X0052008Y0209028D01*
X0052081Y0209068D01*
X0052156Y0209105D01*
X0052233Y0209139D01*
X0052311Y0209169D01*
X0052390Y0209195D01*
X0052471Y0209218D01*
X0052553Y0209236D01*
X0052635Y0209251D01*
X0052718Y0209262D01*
X0052801Y0209269D01*
X0052885Y0209272D01*
X0052969Y0209271D01*
X0053052Y0209266D01*
X0053136Y0209257D01*
X0053218Y0209244D01*
X0053300Y0209228D01*
X0053381Y0209207D01*
X0053462Y0209183D01*
X0053540Y0209155D01*
X0053618Y0209123D01*
X0053694Y0209087D01*
X0053768Y0209048D01*
X0053840Y0209006D01*
X0053910Y0208960D01*
X0053978Y0208911D01*
X0054043Y0208859D01*
X0054106Y0208804D01*
X0054166Y0208746D01*
X0054224Y0208685D01*
X0054278Y0208621D01*
X0054330Y0208555D01*
X0054378Y0208487D01*
X0054423Y0208416D01*
X0054464Y0208343D01*
X0054503Y0208269D01*
X0054537Y0208193D01*
X0054568Y0208115D01*
X0054595Y0208036D01*
X0054619Y0207955D01*
X0054638Y0207874D01*
X0054654Y0207792D01*
X0054666Y0207709D01*
X0054674Y0207625D01*
X0054678Y0207542D01*
X0054678Y0207458D01*
X0054674Y0207375D01*
X0054666Y0207291D01*
X0054654Y0207208D01*
X0054638Y0207126D01*
X0054619Y0207045D01*
X0054595Y0206964D01*
X0054568Y0206885D01*
X0054537Y0206807D01*
X0054503Y0206731D01*
X0054464Y0206657D01*
X0054423Y0206584D01*
X0054378Y0206513D01*
X0054330Y0206445D01*
X0054278Y0206379D01*
X0054224Y0206315D01*
X0054166Y0206254D01*
X0054106Y0206196D01*
X0054043Y0206141D01*
X0053978Y0206089D01*
X0053910Y0206040D01*
X0053840Y0205994D01*
X0053768Y0205952D01*
X0053694Y0205913D01*
X0053618Y0205877D01*
X0053540Y0205845D01*
X0053462Y0205817D01*
X0053381Y0205793D01*
X0053300Y0205772D01*
X0053218Y0205756D01*
X0053136Y0205743D01*
X0053052Y0205734D01*
X0052969Y0205729D01*
X0052885Y0205728D01*
X0052801Y0205731D01*
X0052718Y0205738D01*
X0052635Y0205749D01*
X0052553Y0205764D01*
X0052471Y0205782D01*
X0052390Y0205805D01*
X0052311Y0205831D01*
X0052233Y0205861D01*
X0052156Y0205895D01*
X0052081Y0205932D01*
X0052008Y0205972D01*
X0051937Y0206017D01*
X0051868Y0206064D01*
X0051801Y0206115D01*
X0051737Y0206168D01*
X0051675Y0206225D01*
X0051617Y0206285D01*
X0051561Y0206347D01*
X0051508Y0206412D01*
X0051458Y0206479D01*
X0051411Y0206548D01*
X0051368Y0206620D01*
X0051328Y0206694D01*
X0051292Y0206769D01*
X0051259Y0206846D01*
X0051230Y0206925D01*
X0051205Y0207004D01*
X0051183Y0207085D01*
X0051166Y0207167D01*
X0051152Y0207250D01*
X0051142Y0207333D01*
X0051136Y0207416D01*
X0051134Y0207500D01*
X0039322Y0207500D02*
X0039324Y0207584D01*
X0039330Y0207667D01*
X0039340Y0207750D01*
X0039354Y0207833D01*
X0039371Y0207915D01*
X0039393Y0207996D01*
X0039418Y0208075D01*
X0039447Y0208154D01*
X0039480Y0208231D01*
X0039516Y0208306D01*
X0039556Y0208380D01*
X0039599Y0208452D01*
X0039646Y0208521D01*
X0039696Y0208588D01*
X0039749Y0208653D01*
X0039805Y0208715D01*
X0039863Y0208775D01*
X0039925Y0208832D01*
X0039989Y0208885D01*
X0040056Y0208936D01*
X0040125Y0208983D01*
X0040196Y0209028D01*
X0040269Y0209068D01*
X0040344Y0209105D01*
X0040421Y0209139D01*
X0040499Y0209169D01*
X0040578Y0209195D01*
X0040659Y0209218D01*
X0040741Y0209236D01*
X0040823Y0209251D01*
X0040906Y0209262D01*
X0040989Y0209269D01*
X0041073Y0209272D01*
X0041157Y0209271D01*
X0041240Y0209266D01*
X0041324Y0209257D01*
X0041406Y0209244D01*
X0041488Y0209228D01*
X0041569Y0209207D01*
X0041650Y0209183D01*
X0041728Y0209155D01*
X0041806Y0209123D01*
X0041882Y0209087D01*
X0041956Y0209048D01*
X0042028Y0209006D01*
X0042098Y0208960D01*
X0042166Y0208911D01*
X0042231Y0208859D01*
X0042294Y0208804D01*
X0042354Y0208746D01*
X0042412Y0208685D01*
X0042466Y0208621D01*
X0042518Y0208555D01*
X0042566Y0208487D01*
X0042611Y0208416D01*
X0042652Y0208343D01*
X0042691Y0208269D01*
X0042725Y0208193D01*
X0042756Y0208115D01*
X0042783Y0208036D01*
X0042807Y0207955D01*
X0042826Y0207874D01*
X0042842Y0207792D01*
X0042854Y0207709D01*
X0042862Y0207625D01*
X0042866Y0207542D01*
X0042866Y0207458D01*
X0042862Y0207375D01*
X0042854Y0207291D01*
X0042842Y0207208D01*
X0042826Y0207126D01*
X0042807Y0207045D01*
X0042783Y0206964D01*
X0042756Y0206885D01*
X0042725Y0206807D01*
X0042691Y0206731D01*
X0042652Y0206657D01*
X0042611Y0206584D01*
X0042566Y0206513D01*
X0042518Y0206445D01*
X0042466Y0206379D01*
X0042412Y0206315D01*
X0042354Y0206254D01*
X0042294Y0206196D01*
X0042231Y0206141D01*
X0042166Y0206089D01*
X0042098Y0206040D01*
X0042028Y0205994D01*
X0041956Y0205952D01*
X0041882Y0205913D01*
X0041806Y0205877D01*
X0041728Y0205845D01*
X0041650Y0205817D01*
X0041569Y0205793D01*
X0041488Y0205772D01*
X0041406Y0205756D01*
X0041324Y0205743D01*
X0041240Y0205734D01*
X0041157Y0205729D01*
X0041073Y0205728D01*
X0040989Y0205731D01*
X0040906Y0205738D01*
X0040823Y0205749D01*
X0040741Y0205764D01*
X0040659Y0205782D01*
X0040578Y0205805D01*
X0040499Y0205831D01*
X0040421Y0205861D01*
X0040344Y0205895D01*
X0040269Y0205932D01*
X0040196Y0205972D01*
X0040125Y0206017D01*
X0040056Y0206064D01*
X0039989Y0206115D01*
X0039925Y0206168D01*
X0039863Y0206225D01*
X0039805Y0206285D01*
X0039749Y0206347D01*
X0039696Y0206412D01*
X0039646Y0206479D01*
X0039599Y0206548D01*
X0039556Y0206620D01*
X0039516Y0206694D01*
X0039480Y0206769D01*
X0039447Y0206846D01*
X0039418Y0206925D01*
X0039393Y0207004D01*
X0039371Y0207085D01*
X0039354Y0207167D01*
X0039340Y0207250D01*
X0039330Y0207333D01*
X0039324Y0207416D01*
X0039322Y0207500D01*
X0022228Y0170906D02*
X0022230Y0170990D01*
X0022236Y0171073D01*
X0022246Y0171156D01*
X0022260Y0171239D01*
X0022277Y0171321D01*
X0022299Y0171402D01*
X0022324Y0171481D01*
X0022353Y0171560D01*
X0022386Y0171637D01*
X0022422Y0171712D01*
X0022462Y0171786D01*
X0022505Y0171858D01*
X0022552Y0171927D01*
X0022602Y0171994D01*
X0022655Y0172059D01*
X0022711Y0172121D01*
X0022769Y0172181D01*
X0022831Y0172238D01*
X0022895Y0172291D01*
X0022962Y0172342D01*
X0023031Y0172389D01*
X0023102Y0172434D01*
X0023175Y0172474D01*
X0023250Y0172511D01*
X0023327Y0172545D01*
X0023405Y0172575D01*
X0023484Y0172601D01*
X0023565Y0172624D01*
X0023647Y0172642D01*
X0023729Y0172657D01*
X0023812Y0172668D01*
X0023895Y0172675D01*
X0023979Y0172678D01*
X0024063Y0172677D01*
X0024146Y0172672D01*
X0024230Y0172663D01*
X0024312Y0172650D01*
X0024394Y0172634D01*
X0024475Y0172613D01*
X0024556Y0172589D01*
X0024634Y0172561D01*
X0024712Y0172529D01*
X0024788Y0172493D01*
X0024862Y0172454D01*
X0024934Y0172412D01*
X0025004Y0172366D01*
X0025072Y0172317D01*
X0025137Y0172265D01*
X0025200Y0172210D01*
X0025260Y0172152D01*
X0025318Y0172091D01*
X0025372Y0172027D01*
X0025424Y0171961D01*
X0025472Y0171893D01*
X0025517Y0171822D01*
X0025558Y0171749D01*
X0025597Y0171675D01*
X0025631Y0171599D01*
X0025662Y0171521D01*
X0025689Y0171442D01*
X0025713Y0171361D01*
X0025732Y0171280D01*
X0025748Y0171198D01*
X0025760Y0171115D01*
X0025768Y0171031D01*
X0025772Y0170948D01*
X0025772Y0170864D01*
X0025768Y0170781D01*
X0025760Y0170697D01*
X0025748Y0170614D01*
X0025732Y0170532D01*
X0025713Y0170451D01*
X0025689Y0170370D01*
X0025662Y0170291D01*
X0025631Y0170213D01*
X0025597Y0170137D01*
X0025558Y0170063D01*
X0025517Y0169990D01*
X0025472Y0169919D01*
X0025424Y0169851D01*
X0025372Y0169785D01*
X0025318Y0169721D01*
X0025260Y0169660D01*
X0025200Y0169602D01*
X0025137Y0169547D01*
X0025072Y0169495D01*
X0025004Y0169446D01*
X0024934Y0169400D01*
X0024862Y0169358D01*
X0024788Y0169319D01*
X0024712Y0169283D01*
X0024634Y0169251D01*
X0024556Y0169223D01*
X0024475Y0169199D01*
X0024394Y0169178D01*
X0024312Y0169162D01*
X0024230Y0169149D01*
X0024146Y0169140D01*
X0024063Y0169135D01*
X0023979Y0169134D01*
X0023895Y0169137D01*
X0023812Y0169144D01*
X0023729Y0169155D01*
X0023647Y0169170D01*
X0023565Y0169188D01*
X0023484Y0169211D01*
X0023405Y0169237D01*
X0023327Y0169267D01*
X0023250Y0169301D01*
X0023175Y0169338D01*
X0023102Y0169378D01*
X0023031Y0169423D01*
X0022962Y0169470D01*
X0022895Y0169521D01*
X0022831Y0169574D01*
X0022769Y0169631D01*
X0022711Y0169691D01*
X0022655Y0169753D01*
X0022602Y0169818D01*
X0022552Y0169885D01*
X0022505Y0169954D01*
X0022462Y0170026D01*
X0022422Y0170100D01*
X0022386Y0170175D01*
X0022353Y0170252D01*
X0022324Y0170331D01*
X0022299Y0170410D01*
X0022277Y0170491D01*
X0022260Y0170573D01*
X0022246Y0170656D01*
X0022236Y0170739D01*
X0022230Y0170822D01*
X0022228Y0170906D01*
X0022228Y0159094D02*
X0022230Y0159178D01*
X0022236Y0159261D01*
X0022246Y0159344D01*
X0022260Y0159427D01*
X0022277Y0159509D01*
X0022299Y0159590D01*
X0022324Y0159669D01*
X0022353Y0159748D01*
X0022386Y0159825D01*
X0022422Y0159900D01*
X0022462Y0159974D01*
X0022505Y0160046D01*
X0022552Y0160115D01*
X0022602Y0160182D01*
X0022655Y0160247D01*
X0022711Y0160309D01*
X0022769Y0160369D01*
X0022831Y0160426D01*
X0022895Y0160479D01*
X0022962Y0160530D01*
X0023031Y0160577D01*
X0023102Y0160622D01*
X0023175Y0160662D01*
X0023250Y0160699D01*
X0023327Y0160733D01*
X0023405Y0160763D01*
X0023484Y0160789D01*
X0023565Y0160812D01*
X0023647Y0160830D01*
X0023729Y0160845D01*
X0023812Y0160856D01*
X0023895Y0160863D01*
X0023979Y0160866D01*
X0024063Y0160865D01*
X0024146Y0160860D01*
X0024230Y0160851D01*
X0024312Y0160838D01*
X0024394Y0160822D01*
X0024475Y0160801D01*
X0024556Y0160777D01*
X0024634Y0160749D01*
X0024712Y0160717D01*
X0024788Y0160681D01*
X0024862Y0160642D01*
X0024934Y0160600D01*
X0025004Y0160554D01*
X0025072Y0160505D01*
X0025137Y0160453D01*
X0025200Y0160398D01*
X0025260Y0160340D01*
X0025318Y0160279D01*
X0025372Y0160215D01*
X0025424Y0160149D01*
X0025472Y0160081D01*
X0025517Y0160010D01*
X0025558Y0159937D01*
X0025597Y0159863D01*
X0025631Y0159787D01*
X0025662Y0159709D01*
X0025689Y0159630D01*
X0025713Y0159549D01*
X0025732Y0159468D01*
X0025748Y0159386D01*
X0025760Y0159303D01*
X0025768Y0159219D01*
X0025772Y0159136D01*
X0025772Y0159052D01*
X0025768Y0158969D01*
X0025760Y0158885D01*
X0025748Y0158802D01*
X0025732Y0158720D01*
X0025713Y0158639D01*
X0025689Y0158558D01*
X0025662Y0158479D01*
X0025631Y0158401D01*
X0025597Y0158325D01*
X0025558Y0158251D01*
X0025517Y0158178D01*
X0025472Y0158107D01*
X0025424Y0158039D01*
X0025372Y0157973D01*
X0025318Y0157909D01*
X0025260Y0157848D01*
X0025200Y0157790D01*
X0025137Y0157735D01*
X0025072Y0157683D01*
X0025004Y0157634D01*
X0024934Y0157588D01*
X0024862Y0157546D01*
X0024788Y0157507D01*
X0024712Y0157471D01*
X0024634Y0157439D01*
X0024556Y0157411D01*
X0024475Y0157387D01*
X0024394Y0157366D01*
X0024312Y0157350D01*
X0024230Y0157337D01*
X0024146Y0157328D01*
X0024063Y0157323D01*
X0023979Y0157322D01*
X0023895Y0157325D01*
X0023812Y0157332D01*
X0023729Y0157343D01*
X0023647Y0157358D01*
X0023565Y0157376D01*
X0023484Y0157399D01*
X0023405Y0157425D01*
X0023327Y0157455D01*
X0023250Y0157489D01*
X0023175Y0157526D01*
X0023102Y0157566D01*
X0023031Y0157611D01*
X0022962Y0157658D01*
X0022895Y0157709D01*
X0022831Y0157762D01*
X0022769Y0157819D01*
X0022711Y0157879D01*
X0022655Y0157941D01*
X0022602Y0158006D01*
X0022552Y0158073D01*
X0022505Y0158142D01*
X0022462Y0158214D01*
X0022422Y0158288D01*
X0022386Y0158363D01*
X0022353Y0158440D01*
X0022324Y0158519D01*
X0022299Y0158598D01*
X0022277Y0158679D01*
X0022260Y0158761D01*
X0022246Y0158844D01*
X0022236Y0158927D01*
X0022230Y0159010D01*
X0022228Y0159094D01*
X0156201Y0110500D02*
X0156203Y0110658D01*
X0156209Y0110816D01*
X0156219Y0110974D01*
X0156233Y0111132D01*
X0156251Y0111289D01*
X0156272Y0111446D01*
X0156298Y0111602D01*
X0156328Y0111758D01*
X0156361Y0111913D01*
X0156399Y0112066D01*
X0156440Y0112219D01*
X0156485Y0112371D01*
X0156534Y0112522D01*
X0156587Y0112671D01*
X0156643Y0112819D01*
X0156703Y0112965D01*
X0156767Y0113110D01*
X0156835Y0113253D01*
X0156906Y0113395D01*
X0156980Y0113535D01*
X0157058Y0113672D01*
X0157140Y0113808D01*
X0157224Y0113942D01*
X0157313Y0114073D01*
X0157404Y0114202D01*
X0157499Y0114329D01*
X0157596Y0114454D01*
X0157697Y0114576D01*
X0157801Y0114695D01*
X0157908Y0114812D01*
X0158018Y0114926D01*
X0158131Y0115037D01*
X0158246Y0115146D01*
X0158364Y0115251D01*
X0158485Y0115353D01*
X0158608Y0115453D01*
X0158734Y0115549D01*
X0158862Y0115642D01*
X0158992Y0115732D01*
X0159125Y0115818D01*
X0159260Y0115902D01*
X0159396Y0115981D01*
X0159535Y0116058D01*
X0159676Y0116130D01*
X0159818Y0116200D01*
X0159962Y0116265D01*
X0160108Y0116327D01*
X0160255Y0116385D01*
X0160404Y0116440D01*
X0160554Y0116491D01*
X0160705Y0116538D01*
X0160857Y0116581D01*
X0161010Y0116620D01*
X0161165Y0116656D01*
X0161320Y0116687D01*
X0161476Y0116715D01*
X0161632Y0116739D01*
X0161789Y0116759D01*
X0161947Y0116775D01*
X0162104Y0116787D01*
X0162263Y0116795D01*
X0162421Y0116799D01*
X0162579Y0116799D01*
X0162737Y0116795D01*
X0162896Y0116787D01*
X0163053Y0116775D01*
X0163211Y0116759D01*
X0163368Y0116739D01*
X0163524Y0116715D01*
X0163680Y0116687D01*
X0163835Y0116656D01*
X0163990Y0116620D01*
X0164143Y0116581D01*
X0164295Y0116538D01*
X0164446Y0116491D01*
X0164596Y0116440D01*
X0164745Y0116385D01*
X0164892Y0116327D01*
X0165038Y0116265D01*
X0165182Y0116200D01*
X0165324Y0116130D01*
X0165465Y0116058D01*
X0165604Y0115981D01*
X0165740Y0115902D01*
X0165875Y0115818D01*
X0166008Y0115732D01*
X0166138Y0115642D01*
X0166266Y0115549D01*
X0166392Y0115453D01*
X0166515Y0115353D01*
X0166636Y0115251D01*
X0166754Y0115146D01*
X0166869Y0115037D01*
X0166982Y0114926D01*
X0167092Y0114812D01*
X0167199Y0114695D01*
X0167303Y0114576D01*
X0167404Y0114454D01*
X0167501Y0114329D01*
X0167596Y0114202D01*
X0167687Y0114073D01*
X0167776Y0113942D01*
X0167860Y0113808D01*
X0167942Y0113672D01*
X0168020Y0113535D01*
X0168094Y0113395D01*
X0168165Y0113253D01*
X0168233Y0113110D01*
X0168297Y0112965D01*
X0168357Y0112819D01*
X0168413Y0112671D01*
X0168466Y0112522D01*
X0168515Y0112371D01*
X0168560Y0112219D01*
X0168601Y0112066D01*
X0168639Y0111913D01*
X0168672Y0111758D01*
X0168702Y0111602D01*
X0168728Y0111446D01*
X0168749Y0111289D01*
X0168767Y0111132D01*
X0168781Y0110974D01*
X0168791Y0110816D01*
X0168797Y0110658D01*
X0168799Y0110500D01*
X0168797Y0110342D01*
X0168791Y0110184D01*
X0168781Y0110026D01*
X0168767Y0109868D01*
X0168749Y0109711D01*
X0168728Y0109554D01*
X0168702Y0109398D01*
X0168672Y0109242D01*
X0168639Y0109087D01*
X0168601Y0108934D01*
X0168560Y0108781D01*
X0168515Y0108629D01*
X0168466Y0108478D01*
X0168413Y0108329D01*
X0168357Y0108181D01*
X0168297Y0108035D01*
X0168233Y0107890D01*
X0168165Y0107747D01*
X0168094Y0107605D01*
X0168020Y0107465D01*
X0167942Y0107328D01*
X0167860Y0107192D01*
X0167776Y0107058D01*
X0167687Y0106927D01*
X0167596Y0106798D01*
X0167501Y0106671D01*
X0167404Y0106546D01*
X0167303Y0106424D01*
X0167199Y0106305D01*
X0167092Y0106188D01*
X0166982Y0106074D01*
X0166869Y0105963D01*
X0166754Y0105854D01*
X0166636Y0105749D01*
X0166515Y0105647D01*
X0166392Y0105547D01*
X0166266Y0105451D01*
X0166138Y0105358D01*
X0166008Y0105268D01*
X0165875Y0105182D01*
X0165740Y0105098D01*
X0165604Y0105019D01*
X0165465Y0104942D01*
X0165324Y0104870D01*
X0165182Y0104800D01*
X0165038Y0104735D01*
X0164892Y0104673D01*
X0164745Y0104615D01*
X0164596Y0104560D01*
X0164446Y0104509D01*
X0164295Y0104462D01*
X0164143Y0104419D01*
X0163990Y0104380D01*
X0163835Y0104344D01*
X0163680Y0104313D01*
X0163524Y0104285D01*
X0163368Y0104261D01*
X0163211Y0104241D01*
X0163053Y0104225D01*
X0162896Y0104213D01*
X0162737Y0104205D01*
X0162579Y0104201D01*
X0162421Y0104201D01*
X0162263Y0104205D01*
X0162104Y0104213D01*
X0161947Y0104225D01*
X0161789Y0104241D01*
X0161632Y0104261D01*
X0161476Y0104285D01*
X0161320Y0104313D01*
X0161165Y0104344D01*
X0161010Y0104380D01*
X0160857Y0104419D01*
X0160705Y0104462D01*
X0160554Y0104509D01*
X0160404Y0104560D01*
X0160255Y0104615D01*
X0160108Y0104673D01*
X0159962Y0104735D01*
X0159818Y0104800D01*
X0159676Y0104870D01*
X0159535Y0104942D01*
X0159396Y0105019D01*
X0159260Y0105098D01*
X0159125Y0105182D01*
X0158992Y0105268D01*
X0158862Y0105358D01*
X0158734Y0105451D01*
X0158608Y0105547D01*
X0158485Y0105647D01*
X0158364Y0105749D01*
X0158246Y0105854D01*
X0158131Y0105963D01*
X0158018Y0106074D01*
X0157908Y0106188D01*
X0157801Y0106305D01*
X0157697Y0106424D01*
X0157596Y0106546D01*
X0157499Y0106671D01*
X0157404Y0106798D01*
X0157313Y0106927D01*
X0157224Y0107058D01*
X0157140Y0107192D01*
X0157058Y0107328D01*
X0156980Y0107465D01*
X0156906Y0107605D01*
X0156835Y0107747D01*
X0156767Y0107890D01*
X0156703Y0108035D01*
X0156643Y0108181D01*
X0156587Y0108329D01*
X0156534Y0108478D01*
X0156485Y0108629D01*
X0156440Y0108781D01*
X0156399Y0108934D01*
X0156361Y0109087D01*
X0156328Y0109242D01*
X0156298Y0109398D01*
X0156272Y0109554D01*
X0156251Y0109711D01*
X0156233Y0109868D01*
X0156219Y0110026D01*
X0156209Y0110184D01*
X0156203Y0110342D01*
X0156201Y0110500D01*
X0227788Y0099900D02*
X0227790Y0100048D01*
X0227796Y0100196D01*
X0227806Y0100344D01*
X0227820Y0100491D01*
X0227838Y0100638D01*
X0227859Y0100784D01*
X0227885Y0100930D01*
X0227915Y0101075D01*
X0227948Y0101219D01*
X0227986Y0101362D01*
X0228027Y0101504D01*
X0228072Y0101645D01*
X0228120Y0101785D01*
X0228173Y0101924D01*
X0228229Y0102061D01*
X0228289Y0102196D01*
X0228352Y0102330D01*
X0228419Y0102462D01*
X0228490Y0102592D01*
X0228564Y0102720D01*
X0228641Y0102846D01*
X0228722Y0102970D01*
X0228806Y0103092D01*
X0228893Y0103211D01*
X0228984Y0103328D01*
X0229078Y0103443D01*
X0229174Y0103555D01*
X0229274Y0103665D01*
X0229376Y0103771D01*
X0229482Y0103875D01*
X0229590Y0103976D01*
X0229701Y0104074D01*
X0229814Y0104170D01*
X0229930Y0104262D01*
X0230048Y0104351D01*
X0230169Y0104436D01*
X0230292Y0104519D01*
X0230417Y0104598D01*
X0230544Y0104674D01*
X0230673Y0104746D01*
X0230804Y0104815D01*
X0230937Y0104880D01*
X0231072Y0104941D01*
X0231208Y0104999D01*
X0231345Y0105054D01*
X0231484Y0105104D01*
X0231625Y0105151D01*
X0231766Y0105194D01*
X0231909Y0105234D01*
X0232053Y0105269D01*
X0232197Y0105301D01*
X0232343Y0105328D01*
X0232489Y0105352D01*
X0232636Y0105372D01*
X0232783Y0105388D01*
X0232930Y0105400D01*
X0233078Y0105408D01*
X0233226Y0105412D01*
X0233374Y0105412D01*
X0233522Y0105408D01*
X0233670Y0105400D01*
X0233817Y0105388D01*
X0233964Y0105372D01*
X0234111Y0105352D01*
X0234257Y0105328D01*
X0234403Y0105301D01*
X0234547Y0105269D01*
X0234691Y0105234D01*
X0234834Y0105194D01*
X0234975Y0105151D01*
X0235116Y0105104D01*
X0235255Y0105054D01*
X0235392Y0104999D01*
X0235528Y0104941D01*
X0235663Y0104880D01*
X0235796Y0104815D01*
X0235927Y0104746D01*
X0236056Y0104674D01*
X0236183Y0104598D01*
X0236308Y0104519D01*
X0236431Y0104436D01*
X0236552Y0104351D01*
X0236670Y0104262D01*
X0236786Y0104170D01*
X0236899Y0104074D01*
X0237010Y0103976D01*
X0237118Y0103875D01*
X0237224Y0103771D01*
X0237326Y0103665D01*
X0237426Y0103555D01*
X0237522Y0103443D01*
X0237616Y0103328D01*
X0237707Y0103211D01*
X0237794Y0103092D01*
X0237878Y0102970D01*
X0237959Y0102846D01*
X0238036Y0102720D01*
X0238110Y0102592D01*
X0238181Y0102462D01*
X0238248Y0102330D01*
X0238311Y0102196D01*
X0238371Y0102061D01*
X0238427Y0101924D01*
X0238480Y0101785D01*
X0238528Y0101645D01*
X0238573Y0101504D01*
X0238614Y0101362D01*
X0238652Y0101219D01*
X0238685Y0101075D01*
X0238715Y0100930D01*
X0238741Y0100784D01*
X0238762Y0100638D01*
X0238780Y0100491D01*
X0238794Y0100344D01*
X0238804Y0100196D01*
X0238810Y0100048D01*
X0238812Y0099900D01*
X0238810Y0099752D01*
X0238804Y0099604D01*
X0238794Y0099456D01*
X0238780Y0099309D01*
X0238762Y0099162D01*
X0238741Y0099016D01*
X0238715Y0098870D01*
X0238685Y0098725D01*
X0238652Y0098581D01*
X0238614Y0098438D01*
X0238573Y0098296D01*
X0238528Y0098155D01*
X0238480Y0098015D01*
X0238427Y0097876D01*
X0238371Y0097739D01*
X0238311Y0097604D01*
X0238248Y0097470D01*
X0238181Y0097338D01*
X0238110Y0097208D01*
X0238036Y0097080D01*
X0237959Y0096954D01*
X0237878Y0096830D01*
X0237794Y0096708D01*
X0237707Y0096589D01*
X0237616Y0096472D01*
X0237522Y0096357D01*
X0237426Y0096245D01*
X0237326Y0096135D01*
X0237224Y0096029D01*
X0237118Y0095925D01*
X0237010Y0095824D01*
X0236899Y0095726D01*
X0236786Y0095630D01*
X0236670Y0095538D01*
X0236552Y0095449D01*
X0236431Y0095364D01*
X0236308Y0095281D01*
X0236183Y0095202D01*
X0236056Y0095126D01*
X0235927Y0095054D01*
X0235796Y0094985D01*
X0235663Y0094920D01*
X0235528Y0094859D01*
X0235392Y0094801D01*
X0235255Y0094746D01*
X0235116Y0094696D01*
X0234975Y0094649D01*
X0234834Y0094606D01*
X0234691Y0094566D01*
X0234547Y0094531D01*
X0234403Y0094499D01*
X0234257Y0094472D01*
X0234111Y0094448D01*
X0233964Y0094428D01*
X0233817Y0094412D01*
X0233670Y0094400D01*
X0233522Y0094392D01*
X0233374Y0094388D01*
X0233226Y0094388D01*
X0233078Y0094392D01*
X0232930Y0094400D01*
X0232783Y0094412D01*
X0232636Y0094428D01*
X0232489Y0094448D01*
X0232343Y0094472D01*
X0232197Y0094499D01*
X0232053Y0094531D01*
X0231909Y0094566D01*
X0231766Y0094606D01*
X0231625Y0094649D01*
X0231484Y0094696D01*
X0231345Y0094746D01*
X0231208Y0094801D01*
X0231072Y0094859D01*
X0230937Y0094920D01*
X0230804Y0094985D01*
X0230673Y0095054D01*
X0230544Y0095126D01*
X0230417Y0095202D01*
X0230292Y0095281D01*
X0230169Y0095364D01*
X0230048Y0095449D01*
X0229930Y0095538D01*
X0229814Y0095630D01*
X0229701Y0095726D01*
X0229590Y0095824D01*
X0229482Y0095925D01*
X0229376Y0096029D01*
X0229274Y0096135D01*
X0229174Y0096245D01*
X0229078Y0096357D01*
X0228984Y0096472D01*
X0228893Y0096589D01*
X0228806Y0096708D01*
X0228722Y0096830D01*
X0228641Y0096954D01*
X0228564Y0097080D01*
X0228490Y0097208D01*
X0228419Y0097338D01*
X0228352Y0097470D01*
X0228289Y0097604D01*
X0228229Y0097739D01*
X0228173Y0097876D01*
X0228120Y0098015D01*
X0228072Y0098155D01*
X0228027Y0098296D01*
X0227986Y0098438D01*
X0227948Y0098581D01*
X0227915Y0098725D01*
X0227885Y0098870D01*
X0227859Y0099016D01*
X0227838Y0099162D01*
X0227820Y0099309D01*
X0227806Y0099456D01*
X0227796Y0099604D01*
X0227790Y0099752D01*
X0227788Y0099900D01*
X0156201Y0040500D02*
X0156203Y0040658D01*
X0156209Y0040816D01*
X0156219Y0040974D01*
X0156233Y0041132D01*
X0156251Y0041289D01*
X0156272Y0041446D01*
X0156298Y0041602D01*
X0156328Y0041758D01*
X0156361Y0041913D01*
X0156399Y0042066D01*
X0156440Y0042219D01*
X0156485Y0042371D01*
X0156534Y0042522D01*
X0156587Y0042671D01*
X0156643Y0042819D01*
X0156703Y0042965D01*
X0156767Y0043110D01*
X0156835Y0043253D01*
X0156906Y0043395D01*
X0156980Y0043535D01*
X0157058Y0043672D01*
X0157140Y0043808D01*
X0157224Y0043942D01*
X0157313Y0044073D01*
X0157404Y0044202D01*
X0157499Y0044329D01*
X0157596Y0044454D01*
X0157697Y0044576D01*
X0157801Y0044695D01*
X0157908Y0044812D01*
X0158018Y0044926D01*
X0158131Y0045037D01*
X0158246Y0045146D01*
X0158364Y0045251D01*
X0158485Y0045353D01*
X0158608Y0045453D01*
X0158734Y0045549D01*
X0158862Y0045642D01*
X0158992Y0045732D01*
X0159125Y0045818D01*
X0159260Y0045902D01*
X0159396Y0045981D01*
X0159535Y0046058D01*
X0159676Y0046130D01*
X0159818Y0046200D01*
X0159962Y0046265D01*
X0160108Y0046327D01*
X0160255Y0046385D01*
X0160404Y0046440D01*
X0160554Y0046491D01*
X0160705Y0046538D01*
X0160857Y0046581D01*
X0161010Y0046620D01*
X0161165Y0046656D01*
X0161320Y0046687D01*
X0161476Y0046715D01*
X0161632Y0046739D01*
X0161789Y0046759D01*
X0161947Y0046775D01*
X0162104Y0046787D01*
X0162263Y0046795D01*
X0162421Y0046799D01*
X0162579Y0046799D01*
X0162737Y0046795D01*
X0162896Y0046787D01*
X0163053Y0046775D01*
X0163211Y0046759D01*
X0163368Y0046739D01*
X0163524Y0046715D01*
X0163680Y0046687D01*
X0163835Y0046656D01*
X0163990Y0046620D01*
X0164143Y0046581D01*
X0164295Y0046538D01*
X0164446Y0046491D01*
X0164596Y0046440D01*
X0164745Y0046385D01*
X0164892Y0046327D01*
X0165038Y0046265D01*
X0165182Y0046200D01*
X0165324Y0046130D01*
X0165465Y0046058D01*
X0165604Y0045981D01*
X0165740Y0045902D01*
X0165875Y0045818D01*
X0166008Y0045732D01*
X0166138Y0045642D01*
X0166266Y0045549D01*
X0166392Y0045453D01*
X0166515Y0045353D01*
X0166636Y0045251D01*
X0166754Y0045146D01*
X0166869Y0045037D01*
X0166982Y0044926D01*
X0167092Y0044812D01*
X0167199Y0044695D01*
X0167303Y0044576D01*
X0167404Y0044454D01*
X0167501Y0044329D01*
X0167596Y0044202D01*
X0167687Y0044073D01*
X0167776Y0043942D01*
X0167860Y0043808D01*
X0167942Y0043672D01*
X0168020Y0043535D01*
X0168094Y0043395D01*
X0168165Y0043253D01*
X0168233Y0043110D01*
X0168297Y0042965D01*
X0168357Y0042819D01*
X0168413Y0042671D01*
X0168466Y0042522D01*
X0168515Y0042371D01*
X0168560Y0042219D01*
X0168601Y0042066D01*
X0168639Y0041913D01*
X0168672Y0041758D01*
X0168702Y0041602D01*
X0168728Y0041446D01*
X0168749Y0041289D01*
X0168767Y0041132D01*
X0168781Y0040974D01*
X0168791Y0040816D01*
X0168797Y0040658D01*
X0168799Y0040500D01*
X0168797Y0040342D01*
X0168791Y0040184D01*
X0168781Y0040026D01*
X0168767Y0039868D01*
X0168749Y0039711D01*
X0168728Y0039554D01*
X0168702Y0039398D01*
X0168672Y0039242D01*
X0168639Y0039087D01*
X0168601Y0038934D01*
X0168560Y0038781D01*
X0168515Y0038629D01*
X0168466Y0038478D01*
X0168413Y0038329D01*
X0168357Y0038181D01*
X0168297Y0038035D01*
X0168233Y0037890D01*
X0168165Y0037747D01*
X0168094Y0037605D01*
X0168020Y0037465D01*
X0167942Y0037328D01*
X0167860Y0037192D01*
X0167776Y0037058D01*
X0167687Y0036927D01*
X0167596Y0036798D01*
X0167501Y0036671D01*
X0167404Y0036546D01*
X0167303Y0036424D01*
X0167199Y0036305D01*
X0167092Y0036188D01*
X0166982Y0036074D01*
X0166869Y0035963D01*
X0166754Y0035854D01*
X0166636Y0035749D01*
X0166515Y0035647D01*
X0166392Y0035547D01*
X0166266Y0035451D01*
X0166138Y0035358D01*
X0166008Y0035268D01*
X0165875Y0035182D01*
X0165740Y0035098D01*
X0165604Y0035019D01*
X0165465Y0034942D01*
X0165324Y0034870D01*
X0165182Y0034800D01*
X0165038Y0034735D01*
X0164892Y0034673D01*
X0164745Y0034615D01*
X0164596Y0034560D01*
X0164446Y0034509D01*
X0164295Y0034462D01*
X0164143Y0034419D01*
X0163990Y0034380D01*
X0163835Y0034344D01*
X0163680Y0034313D01*
X0163524Y0034285D01*
X0163368Y0034261D01*
X0163211Y0034241D01*
X0163053Y0034225D01*
X0162896Y0034213D01*
X0162737Y0034205D01*
X0162579Y0034201D01*
X0162421Y0034201D01*
X0162263Y0034205D01*
X0162104Y0034213D01*
X0161947Y0034225D01*
X0161789Y0034241D01*
X0161632Y0034261D01*
X0161476Y0034285D01*
X0161320Y0034313D01*
X0161165Y0034344D01*
X0161010Y0034380D01*
X0160857Y0034419D01*
X0160705Y0034462D01*
X0160554Y0034509D01*
X0160404Y0034560D01*
X0160255Y0034615D01*
X0160108Y0034673D01*
X0159962Y0034735D01*
X0159818Y0034800D01*
X0159676Y0034870D01*
X0159535Y0034942D01*
X0159396Y0035019D01*
X0159260Y0035098D01*
X0159125Y0035182D01*
X0158992Y0035268D01*
X0158862Y0035358D01*
X0158734Y0035451D01*
X0158608Y0035547D01*
X0158485Y0035647D01*
X0158364Y0035749D01*
X0158246Y0035854D01*
X0158131Y0035963D01*
X0158018Y0036074D01*
X0157908Y0036188D01*
X0157801Y0036305D01*
X0157697Y0036424D01*
X0157596Y0036546D01*
X0157499Y0036671D01*
X0157404Y0036798D01*
X0157313Y0036927D01*
X0157224Y0037058D01*
X0157140Y0037192D01*
X0157058Y0037328D01*
X0156980Y0037465D01*
X0156906Y0037605D01*
X0156835Y0037747D01*
X0156767Y0037890D01*
X0156703Y0038035D01*
X0156643Y0038181D01*
X0156587Y0038329D01*
X0156534Y0038478D01*
X0156485Y0038629D01*
X0156440Y0038781D01*
X0156399Y0038934D01*
X0156361Y0039087D01*
X0156328Y0039242D01*
X0156298Y0039398D01*
X0156272Y0039554D01*
X0156251Y0039711D01*
X0156233Y0039868D01*
X0156219Y0040026D01*
X0156209Y0040184D01*
X0156203Y0040342D01*
X0156201Y0040500D01*
D13*
X0098664Y0069800D02*
X0098666Y0069894D01*
X0098672Y0069988D01*
X0098682Y0070082D01*
X0098696Y0070175D01*
X0098714Y0070268D01*
X0098735Y0070360D01*
X0098761Y0070450D01*
X0098790Y0070540D01*
X0098823Y0070628D01*
X0098860Y0070715D01*
X0098900Y0070800D01*
X0098944Y0070884D01*
X0098992Y0070965D01*
X0099042Y0071045D01*
X0099097Y0071122D01*
X0099154Y0071197D01*
X0099214Y0071269D01*
X0099278Y0071339D01*
X0099344Y0071406D01*
X0099413Y0071470D01*
X0099485Y0071531D01*
X0099559Y0071589D01*
X0099636Y0071644D01*
X0099715Y0071696D01*
X0099796Y0071744D01*
X0099879Y0071789D01*
X0099963Y0071830D01*
X0100050Y0071868D01*
X0100138Y0071902D01*
X0100227Y0071932D01*
X0100317Y0071959D01*
X0100409Y0071981D01*
X0100501Y0072000D01*
X0100595Y0072015D01*
X0100688Y0072026D01*
X0100782Y0072033D01*
X0100876Y0072036D01*
X0100971Y0072035D01*
X0101065Y0072030D01*
X0101159Y0072021D01*
X0101252Y0072008D01*
X0101345Y0071991D01*
X0101437Y0071971D01*
X0101528Y0071946D01*
X0101618Y0071918D01*
X0101706Y0071886D01*
X0101794Y0071850D01*
X0101879Y0071810D01*
X0101963Y0071767D01*
X0102045Y0071721D01*
X0102125Y0071671D01*
X0102203Y0071617D01*
X0102278Y0071561D01*
X0102351Y0071501D01*
X0102422Y0071438D01*
X0102489Y0071373D01*
X0102554Y0071304D01*
X0102616Y0071233D01*
X0102675Y0071160D01*
X0102731Y0071084D01*
X0102783Y0071005D01*
X0102832Y0070925D01*
X0102878Y0070842D01*
X0102920Y0070758D01*
X0102959Y0070672D01*
X0102994Y0070584D01*
X0103025Y0070495D01*
X0103053Y0070405D01*
X0103076Y0070314D01*
X0103096Y0070222D01*
X0103112Y0070129D01*
X0103124Y0070035D01*
X0103132Y0069941D01*
X0103136Y0069847D01*
X0103136Y0069753D01*
X0103132Y0069659D01*
X0103124Y0069565D01*
X0103112Y0069471D01*
X0103096Y0069378D01*
X0103076Y0069286D01*
X0103053Y0069195D01*
X0103025Y0069105D01*
X0102994Y0069016D01*
X0102959Y0068928D01*
X0102920Y0068842D01*
X0102878Y0068758D01*
X0102832Y0068675D01*
X0102783Y0068595D01*
X0102731Y0068516D01*
X0102675Y0068440D01*
X0102616Y0068367D01*
X0102554Y0068296D01*
X0102489Y0068227D01*
X0102422Y0068162D01*
X0102351Y0068099D01*
X0102278Y0068039D01*
X0102203Y0067983D01*
X0102125Y0067929D01*
X0102045Y0067879D01*
X0101963Y0067833D01*
X0101879Y0067790D01*
X0101794Y0067750D01*
X0101706Y0067714D01*
X0101618Y0067682D01*
X0101528Y0067654D01*
X0101437Y0067629D01*
X0101345Y0067609D01*
X0101252Y0067592D01*
X0101159Y0067579D01*
X0101065Y0067570D01*
X0100971Y0067565D01*
X0100876Y0067564D01*
X0100782Y0067567D01*
X0100688Y0067574D01*
X0100595Y0067585D01*
X0100501Y0067600D01*
X0100409Y0067619D01*
X0100317Y0067641D01*
X0100227Y0067668D01*
X0100138Y0067698D01*
X0100050Y0067732D01*
X0099963Y0067770D01*
X0099879Y0067811D01*
X0099796Y0067856D01*
X0099715Y0067904D01*
X0099636Y0067956D01*
X0099559Y0068011D01*
X0099485Y0068069D01*
X0099413Y0068130D01*
X0099344Y0068194D01*
X0099278Y0068261D01*
X0099214Y0068331D01*
X0099154Y0068403D01*
X0099097Y0068478D01*
X0099042Y0068555D01*
X0098992Y0068635D01*
X0098944Y0068716D01*
X0098900Y0068800D01*
X0098860Y0068885D01*
X0098823Y0068972D01*
X0098790Y0069060D01*
X0098761Y0069150D01*
X0098735Y0069240D01*
X0098714Y0069332D01*
X0098696Y0069425D01*
X0098682Y0069518D01*
X0098672Y0069612D01*
X0098666Y0069706D01*
X0098664Y0069800D01*
X0044964Y0012200D02*
X0044966Y0012294D01*
X0044972Y0012388D01*
X0044982Y0012482D01*
X0044996Y0012575D01*
X0045014Y0012668D01*
X0045035Y0012760D01*
X0045061Y0012850D01*
X0045090Y0012940D01*
X0045123Y0013028D01*
X0045160Y0013115D01*
X0045200Y0013200D01*
X0045244Y0013284D01*
X0045292Y0013365D01*
X0045342Y0013445D01*
X0045397Y0013522D01*
X0045454Y0013597D01*
X0045514Y0013669D01*
X0045578Y0013739D01*
X0045644Y0013806D01*
X0045713Y0013870D01*
X0045785Y0013931D01*
X0045859Y0013989D01*
X0045936Y0014044D01*
X0046015Y0014096D01*
X0046096Y0014144D01*
X0046179Y0014189D01*
X0046263Y0014230D01*
X0046350Y0014268D01*
X0046438Y0014302D01*
X0046527Y0014332D01*
X0046617Y0014359D01*
X0046709Y0014381D01*
X0046801Y0014400D01*
X0046895Y0014415D01*
X0046988Y0014426D01*
X0047082Y0014433D01*
X0047176Y0014436D01*
X0047271Y0014435D01*
X0047365Y0014430D01*
X0047459Y0014421D01*
X0047552Y0014408D01*
X0047645Y0014391D01*
X0047737Y0014371D01*
X0047828Y0014346D01*
X0047918Y0014318D01*
X0048006Y0014286D01*
X0048094Y0014250D01*
X0048179Y0014210D01*
X0048263Y0014167D01*
X0048345Y0014121D01*
X0048425Y0014071D01*
X0048503Y0014017D01*
X0048578Y0013961D01*
X0048651Y0013901D01*
X0048722Y0013838D01*
X0048789Y0013773D01*
X0048854Y0013704D01*
X0048916Y0013633D01*
X0048975Y0013560D01*
X0049031Y0013484D01*
X0049083Y0013405D01*
X0049132Y0013325D01*
X0049178Y0013242D01*
X0049220Y0013158D01*
X0049259Y0013072D01*
X0049294Y0012984D01*
X0049325Y0012895D01*
X0049353Y0012805D01*
X0049376Y0012714D01*
X0049396Y0012622D01*
X0049412Y0012529D01*
X0049424Y0012435D01*
X0049432Y0012341D01*
X0049436Y0012247D01*
X0049436Y0012153D01*
X0049432Y0012059D01*
X0049424Y0011965D01*
X0049412Y0011871D01*
X0049396Y0011778D01*
X0049376Y0011686D01*
X0049353Y0011595D01*
X0049325Y0011505D01*
X0049294Y0011416D01*
X0049259Y0011328D01*
X0049220Y0011242D01*
X0049178Y0011158D01*
X0049132Y0011075D01*
X0049083Y0010995D01*
X0049031Y0010916D01*
X0048975Y0010840D01*
X0048916Y0010767D01*
X0048854Y0010696D01*
X0048789Y0010627D01*
X0048722Y0010562D01*
X0048651Y0010499D01*
X0048578Y0010439D01*
X0048503Y0010383D01*
X0048425Y0010329D01*
X0048345Y0010279D01*
X0048263Y0010233D01*
X0048179Y0010190D01*
X0048094Y0010150D01*
X0048006Y0010114D01*
X0047918Y0010082D01*
X0047828Y0010054D01*
X0047737Y0010029D01*
X0047645Y0010009D01*
X0047552Y0009992D01*
X0047459Y0009979D01*
X0047365Y0009970D01*
X0047271Y0009965D01*
X0047176Y0009964D01*
X0047082Y0009967D01*
X0046988Y0009974D01*
X0046895Y0009985D01*
X0046801Y0010000D01*
X0046709Y0010019D01*
X0046617Y0010041D01*
X0046527Y0010068D01*
X0046438Y0010098D01*
X0046350Y0010132D01*
X0046263Y0010170D01*
X0046179Y0010211D01*
X0046096Y0010256D01*
X0046015Y0010304D01*
X0045936Y0010356D01*
X0045859Y0010411D01*
X0045785Y0010469D01*
X0045713Y0010530D01*
X0045644Y0010594D01*
X0045578Y0010661D01*
X0045514Y0010731D01*
X0045454Y0010803D01*
X0045397Y0010878D01*
X0045342Y0010955D01*
X0045292Y0011035D01*
X0045244Y0011116D01*
X0045200Y0011200D01*
X0045160Y0011285D01*
X0045123Y0011372D01*
X0045090Y0011460D01*
X0045061Y0011550D01*
X0045035Y0011640D01*
X0045014Y0011732D01*
X0044996Y0011825D01*
X0044982Y0011918D01*
X0044972Y0012012D01*
X0044966Y0012106D01*
X0044964Y0012200D01*
M02*
